<?xml version='1.0' encoding='UTF-8' standalone='no'?>
<svg xmlns="http://www.w3.org/2000/svg" width="494pt" viewBox="0 0 494 367" height="367pt" xmlns:xlink="http://www.w3.org/1999/xlink">
 <title>gl2ps_renderer figure</title>
 <desc>
Creator: GL2PS 1.4.2, (C) 1999-2020 C. Geuzaine
For: Octave
CreationDate: Sun Jul 25 11:45:10 2021
</desc>
 <defs/>
 <polygon fill="#ffffff" points="0,0 494,0 494,367 0,367"/>
 <g>
  <polygon fill="#ffffff" shape-rendering="crispEdges" points="0,367 494,367 494,0 0,0"/>
  <clipPath id="cp00494367">
   <polygon points="0,367 494,367 494,0 0,0"/>
  </clipPath>
  <g clip-path="url(#cp00494367)">
   <polygon fill="#ffffff" shape-rendering="crispEdges" points="64.2374,327.478 447.191,327.478 447.191,27.5965 64.2374,27.5965"/>
   <polyline fill="none" stroke-width="0.5" stroke-linejoin="miter" stroke-linecap="butt" stroke="#262626" points="64.2374,327.478 64.2374,323.65"/>
   <polyline fill="none" stroke-width="0.5" stroke-linejoin="miter" stroke-linecap="butt" stroke="#262626" points="140.828,327.478 140.828,323.65"/>
   <polyline fill="none" stroke-width="0.5" stroke-linejoin="miter" stroke-linecap="butt" stroke="#262626" points="217.419,327.478 217.419,323.65"/>
   <polyline fill="none" stroke-width="0.5" stroke-linejoin="miter" stroke-linecap="butt" stroke="#262626" points="294.01,327.478 294.01,323.65"/>
   <polyline fill="none" stroke-width="0.5" stroke-linejoin="miter" stroke-linecap="butt" stroke="#262626" points="370.6,327.478 370.6,323.65"/>
   <polyline fill="none" stroke-width="0.5" stroke-linejoin="miter" stroke-linecap="butt" stroke="#262626" points="447.191,327.478 447.191,323.65"/>
   <text font-weight="normal" xml:space="preserve" font-size="10" font-family="FreeSans" font-style="normal" transform="translate(59.7374,342.975) rotate(-0,4.5,-8)">
    <tspan fill="rgb(38,38,38)" y="-0" x="0 3 ">-1</tspan>
   </text>
   <text font-weight="normal" xml:space="preserve" font-size="10" font-family="FreeSans" font-style="normal" transform="translate(131.828,342.975) rotate(-0,9,-8)">
    <tspan fill="rgb(38,38,38)" y="-0" x="0 3 9 12 ">-0.5</tspan>
   </text>
   <text font-weight="normal" xml:space="preserve" font-size="10" font-family="FreeSans" font-style="normal" transform="translate(214.419,342.975) rotate(-0,3,-8)">
    <tspan fill="rgb(38,38,38)" y="-0" x="0 ">0</tspan>
   </text>
   <text font-weight="normal" xml:space="preserve" font-size="10" font-family="FreeSans" font-style="normal" transform="translate(286.51,342.975) rotate(-0,7.5,-8)">
    <tspan fill="rgb(38,38,38)" y="-0" x="0 6 9 ">0.5</tspan>
   </text>
   <text font-weight="normal" xml:space="preserve" font-size="10" font-family="FreeSans" font-style="normal" transform="translate(367.6,342.975) rotate(-0,3,-8)">
    <tspan fill="rgb(38,38,38)" y="-0" x="0 ">1</tspan>
   </text>
   <text font-weight="normal" xml:space="preserve" font-size="10" font-family="FreeSans" font-style="normal" transform="translate(439.691,342.975) rotate(-0,7.5,-8)">
    <tspan fill="rgb(38,38,38)" y="-0" x="0 6 9 ">1.5</tspan>
   </text>
   <polyline fill="none" stroke-width="0.5" stroke-linejoin="miter" stroke-linecap="butt" stroke="#262626" points="64.2374,327.478 68.0664,327.478"/>
   <polyline fill="none" stroke-width="0.5" stroke-linejoin="miter" stroke-linecap="butt" stroke="#262626" points="64.2374,267.502 68.0664,267.502"/>
   <polyline fill="none" stroke-width="0.5" stroke-linejoin="miter" stroke-linecap="butt" stroke="#262626" points="64.2374,207.526 68.0664,207.526"/>
   <polyline fill="none" stroke-width="0.5" stroke-linejoin="miter" stroke-linecap="butt" stroke="#262626" points="64.2374,147.549 68.0664,147.549"/>
   <polyline fill="none" stroke-width="0.5" stroke-linejoin="miter" stroke-linecap="butt" stroke="#262626" points="64.2374,87.5728 68.0664,87.5728"/>
   <polyline fill="none" stroke-width="0.5" stroke-linejoin="miter" stroke-linecap="butt" stroke="#262626" points="64.2374,27.5965 68.0664,27.5965"/>
   <text font-weight="normal" xml:space="preserve" font-size="10" font-family="FreeSans" font-style="normal" transform="translate(50.238,331.478) rotate(-0,9,-4)">
    <tspan fill="rgb(38,38,38)" y="-0" x="0 3 ">-1</tspan>
   </text>
   <text font-weight="normal" xml:space="preserve" font-size="10" font-family="FreeSans" font-style="normal" transform="translate(41.238,271.502) rotate(-0,18,-4)">
    <tspan fill="rgb(38,38,38)" y="-0" x="0 3 9 12 ">-0.5</tspan>
   </text>
   <text font-weight="normal" xml:space="preserve" font-size="10" font-family="FreeSans" font-style="normal" transform="translate(53.238,211.526) rotate(-0,6,-4)">
    <tspan fill="rgb(38,38,38)" y="-0" x="0 ">0</tspan>
   </text>
   <text font-weight="normal" xml:space="preserve" font-size="10" font-family="FreeSans" font-style="normal" transform="translate(44.238,151.549) rotate(-0,15,-4)">
    <tspan fill="rgb(38,38,38)" y="-0" x="0 6 9 ">0.5</tspan>
   </text>
   <text font-weight="normal" xml:space="preserve" font-size="10" font-family="FreeSans" font-style="normal" transform="translate(53.238,91.5728) rotate(-0,6,-4)">
    <tspan fill="rgb(38,38,38)" y="-0" x="0 ">1</tspan>
   </text>
   <text font-weight="normal" xml:space="preserve" font-size="10" font-family="FreeSans" font-style="normal" transform="translate(44.238,31.5965) rotate(-0,15,-4)">
    <tspan fill="rgb(38,38,38)" y="-0" x="0 6 9 ">1.5</tspan>
   </text>
   <polyline fill="none" stroke-width="0.5" stroke-linejoin="miter" stroke-linecap="square" stroke="#262626" points="64.2374,327.478 447.191,327.478" stroke-dasharray="16,0"/>
   <polyline fill="none" stroke-width="0.5" stroke-linejoin="miter" stroke-linecap="square" stroke="#262626" points="64.2374,327.478 64.2374,27.5965" stroke-dasharray="16,0"/>
   <text font-weight="normal" xml:space="preserve" font-size="11" font-family="FreeSans" font-style="normal" transform="translate(215.714,359.975) rotate(-0,40,-12)">
    <tspan fill="rgb(38,38,38)" y="-3" x="0 9 11 17 21 27 33 39 41 47 50 57 63 68 71 74 ">Microchip Test 1</tspan>
   </text>
   <text font-weight="normal" xml:space="preserve" font-size="11" font-family="FreeSans" font-style="normal" transform="translate(-3.76201,177.537) rotate(-90,40,0)">
    <tspan fill="rgb(38,38,38)" y="-3" x="0 9 11 17 21 27 33 39 41 47 50 57 63 68 71 74 ">Microchip Test 2</tspan>
   </text>
   <text font-weight="bold" xml:space="preserve" font-size="11" font-family="FreeSans" font-style="normal" transform="translate(221.214,17.5965) rotate(-0,34.5,0)">
    <tspan fill="rgb(0,0,0)" y="-1" x="0 3 9 19 26 33 39 42 48 51 57 63 ">lambda = 100</tspan>
   </text>
   <polyline fill="none" stroke-width="0.5" stroke-linejoin="miter" stroke-linecap="square" stroke="#0000ff" points="220.272,123.611 230.272,123.611"/>
   <polyline fill="none" stroke-width="0.5" stroke-linejoin="miter" stroke-linecap="square" stroke="#0000ff" points="225.272,118.611 225.272,128.611"/>
   <polyline fill="none" stroke-width="0.5" stroke-linejoin="miter" stroke-linecap="square" stroke="#0000ff" points="198.212,125.365 208.212,125.365"/>
   <polyline fill="none" stroke-width="0.5" stroke-linejoin="miter" stroke-linecap="square" stroke="#0000ff" points="203.212,120.365 203.212,130.365"/>
   <polyline fill="none" stroke-width="0.5" stroke-linejoin="miter" stroke-linecap="square" stroke="#0000ff" points="179.682,124.488 189.682,124.488"/>
   <polyline fill="none" stroke-width="0.5" stroke-linejoin="miter" stroke-linecap="square" stroke="#0000ff" points="184.682,119.488 184.682,129.488"/>
   <polyline fill="none" stroke-width="0.5" stroke-linejoin="miter" stroke-linecap="square" stroke="#0000ff" points="154.976,147.287 164.976,147.287"/>
   <polyline fill="none" stroke-width="0.5" stroke-linejoin="miter" stroke-linecap="square" stroke="#0000ff" points="159.976,142.287 159.976,152.287"/>
   <polyline fill="none" stroke-width="0.5" stroke-linejoin="miter" stroke-linecap="square" stroke="#0000ff" points="133.798,151.671 143.798,151.671"/>
   <polyline fill="none" stroke-width="0.5" stroke-linejoin="miter" stroke-linecap="square" stroke="#0000ff" points="138.798,146.671 138.798,156.671"/>
   <polyline fill="none" stroke-width="0.5" stroke-linejoin="miter" stroke-linecap="square" stroke="#0000ff" points="132.034,182.359 142.034,182.359"/>
   <polyline fill="none" stroke-width="0.5" stroke-linejoin="miter" stroke-linecap="square" stroke="#0000ff" points="137.034,177.359 137.034,187.359"/>
   <polyline fill="none" stroke-width="0.5" stroke-linejoin="miter" stroke-linecap="square" stroke="#0000ff" points="151.446,203.404 161.447,203.404"/>
   <polyline fill="none" stroke-width="0.5" stroke-linejoin="miter" stroke-linecap="square" stroke="#0000ff" points="156.446,198.404 156.446,208.404"/>
   <polyline fill="none" stroke-width="0.5" stroke-linejoin="miter" stroke-linecap="square" stroke="#0000ff" points="165.564,230.586 175.564,230.586"/>
   <polyline fill="none" stroke-width="0.5" stroke-linejoin="miter" stroke-linecap="square" stroke="#0000ff" points="170.564,225.586 170.564,235.586"/>
   <polyline fill="none" stroke-width="0.5" stroke-linejoin="miter" stroke-linecap="square" stroke="#0000ff" points="214.978,256.015 224.978,256.015"/>
   <polyline fill="none" stroke-width="0.5" stroke-linejoin="miter" stroke-linecap="square" stroke="#0000ff" points="219.978,251.015 219.978,261.015"/>
   <polyline fill="none" stroke-width="0.5" stroke-linejoin="miter" stroke-linecap="square" stroke="#0000ff" points="232.625,269.168 242.625,269.168"/>
   <polyline fill="none" stroke-width="0.5" stroke-linejoin="miter" stroke-linecap="square" stroke="#0000ff" points="237.625,264.168 237.625,274.168"/>
   <polyline fill="none" stroke-width="0.5" stroke-linejoin="miter" stroke-linecap="square" stroke="#0000ff" points="271.45,275.306 281.45,275.306"/>
   <polyline fill="none" stroke-width="0.5" stroke-linejoin="miter" stroke-linecap="square" stroke="#0000ff" points="276.45,270.306 276.45,280.306"/>
   <polyline fill="none" stroke-width="0.5" stroke-linejoin="miter" stroke-linecap="square" stroke="#0000ff" points="293.51,270.045 303.51,270.045"/>
   <polyline fill="none" stroke-width="0.5" stroke-linejoin="miter" stroke-linecap="square" stroke="#0000ff" points="298.51,265.045 298.51,275.045"/>
   <polyline fill="none" stroke-width="0.5" stroke-linejoin="miter" stroke-linecap="square" stroke="#0000ff" points="310.274,236.724 320.274,236.724"/>
   <polyline fill="none" stroke-width="0.5" stroke-linejoin="miter" stroke-linecap="square" stroke="#0000ff" points="315.274,231.724 315.274,241.724"/>
   <polyline fill="none" stroke-width="0.5" stroke-linejoin="miter" stroke-linecap="square" stroke="#0000ff" points="325.275,229.71 335.275,229.71"/>
   <polyline fill="none" stroke-width="0.5" stroke-linejoin="miter" stroke-linecap="square" stroke="#0000ff" points="330.275,224.71 330.275,234.71"/>
   <polyline fill="none" stroke-width="0.5" stroke-linejoin="miter" stroke-linecap="square" stroke="#0000ff" points="296.157,149.04 306.157,149.04"/>
   <polyline fill="none" stroke-width="0.5" stroke-linejoin="miter" stroke-linecap="square" stroke="#0000ff" points="301.157,144.04 301.157,154.04"/>
   <polyline fill="none" stroke-width="0.5" stroke-linejoin="miter" stroke-linecap="square" stroke="#0000ff" points="261.743,137.641 271.743,137.641"/>
   <polyline fill="none" stroke-width="0.5" stroke-linejoin="miter" stroke-linecap="square" stroke="#0000ff" points="266.743,132.641 266.743,142.641"/>
   <polyline fill="none" stroke-width="0.5" stroke-linejoin="miter" stroke-linecap="square" stroke="#0000ff" points="237.919,142.902 247.919,142.902"/>
   <polyline fill="none" stroke-width="0.5" stroke-linejoin="miter" stroke-linecap="square" stroke="#0000ff" points="242.919,137.902 242.919,147.902"/>
   <polyline fill="none" stroke-width="0.5" stroke-linejoin="miter" stroke-linecap="square" stroke="#0000ff" points="205.272,109.582 215.272,109.582"/>
   <polyline fill="none" stroke-width="0.5" stroke-linejoin="miter" stroke-linecap="square" stroke="#0000ff" points="210.272,104.582 210.272,114.582"/>
   <polyline fill="none" stroke-width="0.5" stroke-linejoin="miter" stroke-linecap="square" stroke="#0000ff" points="185.859,123.611 195.859,123.611"/>
   <polyline fill="none" stroke-width="0.5" stroke-linejoin="miter" stroke-linecap="square" stroke="#0000ff" points="190.859,118.611 190.859,128.611"/>
   <polyline fill="none" stroke-width="0.5" stroke-linejoin="miter" stroke-linecap="square" stroke="#0000ff" points="139.092,131.503 149.092,131.503"/>
   <polyline fill="none" stroke-width="0.5" stroke-linejoin="miter" stroke-linecap="square" stroke="#0000ff" points="144.092,126.503 144.092,136.503"/>
   <polyline fill="none" stroke-width="0.5" stroke-linejoin="miter" stroke-linecap="square" stroke="#0000ff" points="119.681,135.887 129.681,135.887"/>
   <polyline fill="none" stroke-width="0.5" stroke-linejoin="miter" stroke-linecap="square" stroke="#0000ff" points="124.681,130.887 124.681,140.887"/>
   <polyline fill="none" stroke-width="0.5" stroke-linejoin="miter" stroke-linecap="square" stroke="#0000ff" points="116.15,167.454 126.15,167.454"/>
   <polyline fill="none" stroke-width="0.5" stroke-linejoin="miter" stroke-linecap="square" stroke="#0000ff" points="121.15,162.454 121.15,172.454"/>
   <polyline fill="none" stroke-width="0.5" stroke-linejoin="miter" stroke-linecap="square" stroke="#0000ff" points="121.446,206.912 131.446,206.912"/>
   <polyline fill="none" stroke-width="0.5" stroke-linejoin="miter" stroke-linecap="square" stroke="#0000ff" points="126.446,201.912 126.446,211.912"/>
   <polyline fill="none" stroke-width="0.5" stroke-linejoin="miter" stroke-linecap="square" stroke="#0000ff" points="147.917,240.232 157.917,240.232"/>
   <polyline fill="none" stroke-width="0.5" stroke-linejoin="miter" stroke-linecap="square" stroke="#0000ff" points="152.917,235.232 152.917,245.232"/>
   <polyline fill="none" stroke-width="0.5" stroke-linejoin="miter" stroke-linecap="square" stroke="#0000ff" points="194.684,255.138 204.684,255.138"/>
   <polyline fill="none" stroke-width="0.5" stroke-linejoin="miter" stroke-linecap="square" stroke="#0000ff" points="199.684,250.138 199.684,260.138"/>
   <polyline fill="none" stroke-width="0.5" stroke-linejoin="miter" stroke-linecap="square" stroke="#0000ff" points="243.214,279.69 253.214,279.69"/>
   <polyline fill="none" stroke-width="0.5" stroke-linejoin="miter" stroke-linecap="square" stroke="#0000ff" points="248.214,274.69 248.214,284.69"/>
   <polyline fill="none" stroke-width="0.5" stroke-linejoin="miter" stroke-linecap="square" stroke="#0000ff" points="283.803,271.799 293.803,271.799"/>
   <polyline fill="none" stroke-width="0.5" stroke-linejoin="miter" stroke-linecap="square" stroke="#0000ff" points="288.803,266.799 288.803,276.799"/>
   <polyline fill="none" stroke-width="0.5" stroke-linejoin="miter" stroke-linecap="square" stroke="#0000ff" points="315.57,271.799 325.57,271.799"/>
   <polyline fill="none" stroke-width="0.5" stroke-linejoin="miter" stroke-linecap="square" stroke="#0000ff" points="320.57,266.799 320.57,276.799"/>
   <polyline fill="none" stroke-width="0.5" stroke-linejoin="miter" stroke-linecap="square" stroke="#0000ff" points="191.154,142.025 201.154,142.025"/>
   <polyline fill="none" stroke-width="0.5" stroke-linejoin="miter" stroke-linecap="square" stroke="#0000ff" points="196.154,137.025 196.154,147.025"/>
   <polyline fill="none" stroke-width="0.5" stroke-linejoin="miter" stroke-linecap="square" stroke="#0000ff" points="167.33,113.966 177.33,113.966"/>
   <polyline fill="none" stroke-width="0.5" stroke-linejoin="miter" stroke-linecap="square" stroke="#0000ff" points="172.33,108.966 172.33,118.966"/>
   <polyline fill="none" stroke-width="0.5" stroke-linejoin="miter" stroke-linecap="square" stroke="#0000ff" points="171.742,92.0447 181.742,92.0447"/>
   <polyline fill="none" stroke-width="0.5" stroke-linejoin="miter" stroke-linecap="square" stroke="#0000ff" points="176.742,87.0447 176.742,97.0447"/>
   <polyline fill="none" stroke-width="0.5" stroke-linejoin="miter" stroke-linecap="square" stroke="#0000ff" points="187.623,111.335 197.623,111.335"/>
   <polyline fill="none" stroke-width="0.5" stroke-linejoin="miter" stroke-linecap="square" stroke="#0000ff" points="192.623,106.335 192.623,116.335"/>
   <polyline fill="none" stroke-width="0.5" stroke-linejoin="miter" stroke-linecap="square" stroke="#0000ff" points="185.859,129.749 195.859,129.749"/>
   <polyline fill="none" stroke-width="0.5" stroke-linejoin="miter" stroke-linecap="square" stroke="#0000ff" points="190.859,124.749 190.859,134.749"/>
   <polyline fill="none" stroke-width="0.5" stroke-linejoin="miter" stroke-linecap="square" stroke="#0000ff" points="169.095,150.794 179.095,150.794"/>
   <polyline fill="none" stroke-width="0.5" stroke-linejoin="miter" stroke-linecap="square" stroke="#0000ff" points="174.095,145.794 174.095,155.794"/>
   <polyline fill="none" stroke-width="0.5" stroke-linejoin="miter" stroke-linecap="square" stroke="#0000ff" points="156.74,170.085 166.74,170.085"/>
   <polyline fill="none" stroke-width="0.5" stroke-linejoin="miter" stroke-linecap="square" stroke="#0000ff" points="161.74,165.085 161.74,175.085"/>
   <polyline fill="none" stroke-width="0.5" stroke-linejoin="miter" stroke-linecap="square" stroke="#0000ff" points="166.446,204.281 176.446,204.281"/>
   <polyline fill="none" stroke-width="0.5" stroke-linejoin="miter" stroke-linecap="square" stroke="#0000ff" points="171.446,199.281 171.446,209.281"/>
   <polyline fill="none" stroke-width="0.5" stroke-linejoin="miter" stroke-linecap="square" stroke="#0000ff" points="176.153,233.217 186.153,233.217"/>
   <polyline fill="none" stroke-width="0.5" stroke-linejoin="miter" stroke-linecap="square" stroke="#0000ff" points="181.153,228.217 181.153,238.217"/>
   <polyline fill="none" stroke-width="0.5" stroke-linejoin="miter" stroke-linecap="square" stroke="#0000ff" points="202.624,229.71 212.624,229.71"/>
   <polyline fill="none" stroke-width="0.5" stroke-linejoin="miter" stroke-linecap="square" stroke="#0000ff" points="207.624,224.71 207.624,234.71"/>
   <polyline fill="none" stroke-width="0.5" stroke-linejoin="miter" stroke-linecap="square" stroke="#0000ff" points="222.037,227.079 232.037,227.079"/>
   <polyline fill="none" stroke-width="0.5" stroke-linejoin="miter" stroke-linecap="square" stroke="#0000ff" points="227.037,222.079 227.037,232.079"/>
   <polyline fill="none" stroke-width="0.5" stroke-linejoin="miter" stroke-linecap="square" stroke="#0000ff" points="247.626,256.892 257.626,256.892"/>
   <polyline fill="none" stroke-width="0.5" stroke-linejoin="miter" stroke-linecap="square" stroke="#0000ff" points="252.626,251.892 252.626,261.892"/>
   <polyline fill="none" stroke-width="0.5" stroke-linejoin="miter" stroke-linecap="square" stroke="#0000ff" points="257.332,234.971 267.332,234.971"/>
   <polyline fill="none" stroke-width="0.5" stroke-linejoin="miter" stroke-linecap="square" stroke="#0000ff" points="262.332,229.971 262.332,239.971"/>
   <polyline fill="none" stroke-width="0.5" stroke-linejoin="miter" stroke-linecap="square" stroke="#0000ff" points="286.45,229.71 296.45,229.71"/>
   <polyline fill="none" stroke-width="0.5" stroke-linejoin="miter" stroke-linecap="square" stroke="#0000ff" points="291.45,224.71 291.45,234.71"/>
   <polyline fill="none" stroke-width="0.5" stroke-linejoin="miter" stroke-linecap="square" stroke="#0000ff" points="311.158,224.449 321.158,224.449"/>
   <polyline fill="none" stroke-width="0.5" stroke-linejoin="miter" stroke-linecap="square" stroke="#0000ff" points="316.158,219.449 316.158,229.449"/>
   <polyline fill="none" stroke-width="0.5" stroke-linejoin="miter" stroke-linecap="square" stroke="#0000ff" points="282.921,206.035 292.921,206.035"/>
   <polyline fill="none" stroke-width="0.5" stroke-linejoin="miter" stroke-linecap="square" stroke="#0000ff" points="287.921,201.035 287.921,211.035"/>
   <polyline fill="none" stroke-width="0.5" stroke-linejoin="miter" stroke-linecap="square" stroke="#0000ff" points="308.51,188.497 318.51,188.497"/>
   <polyline fill="none" stroke-width="0.5" stroke-linejoin="miter" stroke-linecap="square" stroke="#0000ff" points="313.51,183.497 313.51,193.497"/>
   <polyline fill="none" stroke-width="0.5" stroke-linejoin="miter" stroke-linecap="square" stroke="#0000ff" points="300.569,175.346 310.569,175.346"/>
   <polyline fill="none" stroke-width="0.5" stroke-linejoin="miter" stroke-linecap="square" stroke="#0000ff" points="305.569,170.346 305.569,180.346"/>
   <polyline fill="none" stroke-width="0.5" stroke-linejoin="miter" stroke-linecap="square" stroke="#0000ff" points="323.511,154.301 333.511,154.301"/>
   <polyline fill="none" stroke-width="0.5" stroke-linejoin="miter" stroke-linecap="square" stroke="#0000ff" points="328.511,149.301 328.511,159.301"/>
   <polyline fill="none" stroke-width="0.5" stroke-linejoin="miter" stroke-linecap="square" stroke="#0000ff" points="246.744,144.656 256.744,144.656"/>
   <polyline fill="none" stroke-width="0.5" stroke-linejoin="miter" stroke-linecap="square" stroke="#0000ff" points="251.744,139.656 251.744,149.656"/>
   <polyline fill="none" stroke-width="0.5" stroke-linejoin="miter" stroke-linecap="square" stroke="#0000ff" points="280.274,127.119 290.274,127.119"/>
   <polyline fill="none" stroke-width="0.5" stroke-linejoin="miter" stroke-linecap="square" stroke="#0000ff" points="285.274,122.119 285.274,132.119"/>
   <polyline fill="none" stroke-width="0.5" stroke-linejoin="miter" stroke-linecap="square" stroke="#0000ff" points="261.743,124.488 271.743,124.488"/>
   <polyline fill="none" stroke-width="0.5" stroke-linejoin="miter" stroke-linecap="square" stroke="#0000ff" points="266.743,119.488 266.743,129.488"/>
   <polyline fill="none" stroke-width="0.5" stroke-linejoin="miter" stroke-linecap="square" stroke="#0000ff" points="233.507,138.518 243.507,138.518"/>
   <polyline fill="none" stroke-width="0.5" stroke-linejoin="miter" stroke-linecap="square" stroke="#0000ff" points="238.507,133.518 238.507,143.518"/>
   <polyline fill="none" stroke-width="0.5" stroke-linejoin="miter" stroke-linecap="square" stroke="#0000ff" points="211.448,159.562 221.448,159.562"/>
   <polyline fill="none" stroke-width="0.5" stroke-linejoin="miter" stroke-linecap="square" stroke="#0000ff" points="216.448,154.562 216.448,164.562"/>
   <polyline fill="none" stroke-width="0.5" stroke-linejoin="miter" stroke-linecap="square" stroke="#0000ff" points="198.212,141.149 208.212,141.149"/>
   <polyline fill="none" stroke-width="0.5" stroke-linejoin="miter" stroke-linecap="square" stroke="#0000ff" points="203.212,136.149 203.212,146.149"/>
   <polyline fill="none" stroke-width="0.5" stroke-linejoin="miter" stroke-linecap="square" stroke="#0000ff" points="180.565,164.824 190.565,164.824"/>
   <polyline fill="none" stroke-width="0.5" stroke-linejoin="miter" stroke-linecap="square" stroke="#0000ff" points="185.565,159.824 185.565,169.824"/>
   <polyline fill="none" stroke-width="0.5" stroke-linejoin="miter" stroke-linecap="square" stroke="#0000ff" points="180.565,186.744 190.565,186.744"/>
   <polyline fill="none" stroke-width="0.5" stroke-linejoin="miter" stroke-linecap="square" stroke="#0000ff" points="185.565,181.744 185.565,191.744"/>
   <polyline fill="none" stroke-width="0.5" stroke-linejoin="miter" stroke-linecap="square" stroke="#0000ff" points="145.27,181.483 155.27,181.483"/>
   <polyline fill="none" stroke-width="0.5" stroke-linejoin="miter" stroke-linecap="square" stroke="#0000ff" points="150.27,176.483 150.27,186.483"/>
   <polyline fill="none" stroke-width="0.5" stroke-linejoin="miter" stroke-linecap="square" stroke="#0000ff" points="178.8,209.542 188.8,209.542"/>
   <polyline fill="none" stroke-width="0.5" stroke-linejoin="miter" stroke-linecap="square" stroke="#0000ff" points="183.8,204.542 183.8,214.542"/>
   <polyline fill="none" stroke-width="0.5" stroke-linejoin="miter" stroke-linecap="square" stroke="#0000ff" points="191.154,240.232 201.154,240.232"/>
   <polyline fill="none" stroke-width="0.5" stroke-linejoin="miter" stroke-linecap="square" stroke="#0000ff" points="196.154,235.232 196.154,245.232"/>
   <polyline fill="none" stroke-width="0.5" stroke-linejoin="round" stroke-linecap="round" stroke="#ff0000" points="250.567,95.5521 250.072,97.7215 248.685,99.4612 246.68,100.427 244.455,100.427 242.45,99.4612 241.063,97.7215 240.567,95.5521 241.063,93.3827 242.45,91.6429 244.455,90.6775 246.68,90.6775 248.685,91.6429 250.072,93.3827 250.567,95.5521"/>
   <polyline fill="none" stroke-width="0.5" stroke-linejoin="round" stroke-linecap="round" stroke="#ff0000" points="256.744,113.966 256.249,116.135 254.861,117.875 252.856,118.841 250.631,118.841 248.626,117.875 247.239,116.135 246.744,113.966 247.239,111.797 248.626,110.057 250.631,109.091 252.856,109.091 254.861,110.057 256.249,111.797 256.744,113.966"/>
   <polyline fill="none" stroke-width="0.5" stroke-linejoin="round" stroke-linecap="round" stroke="#ff0000" points="268.214,133.257 267.719,135.426 266.331,137.166 264.327,138.131 262.101,138.131 260.096,137.166 258.709,135.426 258.214,133.257 258.709,131.087 260.096,129.348 262.101,128.382 264.327,128.382 266.331,129.348 267.719,131.087 268.214,133.257"/>
   <polyline fill="none" stroke-width="0.5" stroke-linejoin="round" stroke-linecap="round" stroke="#ff0000" points="299.981,116.597 299.486,118.766 298.098,120.506 296.093,121.471 293.868,121.471 291.863,120.506 290.476,118.766 289.981,116.597 290.476,114.427 291.863,112.687 293.868,111.722 296.093,111.722 298.098,112.687 299.486,114.427 299.981,116.597"/>
   <polyline fill="none" stroke-width="0.5" stroke-linejoin="round" stroke-linecap="round" stroke="#ff0000" points="316.745,120.104 316.25,122.273 314.862,124.013 312.858,124.979 310.632,124.979 308.627,124.013 307.24,122.273 306.745,120.104 307.24,117.935 308.627,116.195 310.632,115.229 312.858,115.229 314.862,116.195 316.25,117.935 316.745,120.104"/>
   <polyline fill="none" stroke-width="0.5" stroke-linejoin="round" stroke-linecap="round" stroke="#ff0000" points="314.98,135.887 314.485,138.057 313.098,139.797 311.093,140.762 308.868,140.762 306.863,139.797 305.475,138.057 304.98,135.887 305.475,133.718 306.863,131.978 308.868,131.013 311.093,131.013 313.098,131.978 314.485,133.718 314.98,135.887"/>
   <polyline fill="none" stroke-width="0.5" stroke-linejoin="round" stroke-linecap="round" stroke="#ff0000" points="339.687,147.287 339.192,149.456 337.804,151.196 335.799,152.161 333.574,152.161 331.569,151.196 330.182,149.456 329.687,147.287 330.182,145.117 331.569,143.377 333.574,142.412 335.799,142.412 337.804,143.377 339.192,145.117 339.687,147.287"/>
   <polyline fill="none" stroke-width="0.5" stroke-linejoin="round" stroke-linecap="round" stroke="#ff0000" points="364.394,163.947 363.898,166.116 362.511,167.856 360.506,168.821 358.281,168.821 356.276,167.856 354.889,166.116 354.394,163.947 354.889,161.777 356.276,160.038 358.281,159.072 360.506,159.072 362.511,160.038 363.898,161.777 364.394,163.947"/>
   <polyline fill="none" stroke-width="0.5" stroke-linejoin="round" stroke-linecap="round" stroke="#ff0000" points="348.512,174.469 348.017,176.638 346.629,178.378 344.624,179.344 342.399,179.344 340.394,178.378 339.007,176.638 338.512,174.469 339.007,172.3 340.394,170.56 342.399,169.594 344.624,169.594 346.629,170.56 348.017,172.3 348.512,174.469"/>
   <polyline fill="none" stroke-width="0.5" stroke-linejoin="round" stroke-linecap="round" stroke="#ff0000" points="369.689,197.266 369.194,199.436 367.806,201.176 365.802,202.141 363.576,202.141 361.572,201.176 360.184,199.436 359.689,197.266 360.184,195.097 361.572,193.357 363.576,192.392 365.802,192.392 367.806,193.357 369.194,195.097 369.689,197.266"/>
   <polyline fill="none" stroke-width="0.5" stroke-linejoin="round" stroke-linecap="round" stroke="#ff0000" points="366.158,206.035 365.663,208.204 364.276,209.944 362.271,210.91 360.046,210.91 358.041,209.944 356.653,208.204 356.158,206.035 356.653,203.865 358.041,202.126 360.046,201.16 362.271,201.16 364.276,202.126 365.663,203.865 366.158,206.035"/>
   <polyline fill="none" stroke-width="0.5" stroke-linejoin="round" stroke-linecap="round" stroke="#ff0000" points="354.688,217.434 354.193,219.603 352.805,221.343 350.801,222.309 348.575,222.309 346.57,221.343 345.183,219.603 344.688,217.434 345.183,215.264 346.57,213.525 348.575,212.559 350.801,212.559 352.805,213.525 354.193,215.264 354.688,217.434"/>
   <polyline fill="none" stroke-width="0.5" stroke-linejoin="round" stroke-linecap="round" stroke="#ff0000" points="359.982,232.34 359.487,234.51 358.099,236.249 356.095,237.215 353.869,237.215 351.864,236.249 350.477,234.51 349.982,232.34 350.477,230.171 351.864,228.431 353.869,227.466 356.095,227.466 358.099,228.431 359.487,230.171 359.982,232.34"/>
   <polyline fill="none" stroke-width="0.5" stroke-linejoin="round" stroke-linecap="round" stroke="#ff0000" points="352.923,251.631 352.428,253.8 351.041,255.54 349.036,256.506 346.811,256.506 344.806,255.54 343.418,253.8 342.923,251.631 343.418,249.462 344.806,247.722 346.811,246.756 349.036,246.756 351.041,247.722 352.428,249.462 352.923,251.631"/>
   <polyline fill="none" stroke-width="0.5" stroke-linejoin="round" stroke-linecap="round" stroke="#ff0000" points="349.394,270.045 348.899,272.214 347.511,273.954 345.507,274.92 343.281,274.92 341.277,273.954 339.889,272.214 339.394,270.045 339.889,267.875 341.277,266.136 343.281,265.17 345.507,265.17 347.511,266.136 348.899,267.875 349.394,270.045"/>
   <polyline fill="none" stroke-width="0.5" stroke-linejoin="round" stroke-linecap="round" stroke="#ff0000" points="344.099,274.429 343.603,276.599 342.216,278.338 340.211,279.304 337.986,279.304 335.981,278.338 334.594,276.599 334.099,274.429 334.594,272.26 335.981,270.52 337.986,269.555 340.211,269.555 342.216,270.52 343.603,272.26 344.099,274.429"/>
   <polyline fill="none" stroke-width="0.5" stroke-linejoin="round" stroke-linecap="round" stroke="#ff0000" points="313.216,296.351 312.72,298.52 311.333,300.26 309.328,301.225 307.103,301.225 305.098,300.26 303.711,298.52 303.216,296.351 303.711,294.181 305.098,292.441 307.103,291.476 309.328,291.476 311.333,292.441 312.72,294.181 313.216,296.351"/>
   <polyline fill="none" stroke-width="0.5" stroke-linejoin="round" stroke-linecap="round" stroke="#ff0000" points="301.745,278.813 301.25,280.983 299.863,282.723 297.858,283.688 295.633,283.688 293.628,282.723 292.241,280.983 291.745,278.813 292.241,276.644 293.628,274.904 295.633,273.939 297.858,273.939 299.863,274.904 301.25,276.644 301.745,278.813"/>
   <polyline fill="none" stroke-width="0.5" stroke-linejoin="round" stroke-linecap="round" stroke="#ff0000" points="293.803,257.769 293.308,259.938 291.92,261.678 289.916,262.644 287.69,262.644 285.685,261.678 284.298,259.938 283.803,257.769 284.298,255.6 285.685,253.86 287.69,252.894 289.916,252.894 291.92,253.86 293.308,255.6 293.803,257.769"/>
   <polyline fill="none" stroke-width="0.5" stroke-linejoin="round" stroke-linecap="round" stroke="#ff0000" points="276.156,277.06 275.661,279.229 274.274,280.969 272.269,281.934 270.044,281.934 268.039,280.969 266.652,279.229 266.156,277.06 266.652,274.89 268.039,273.151 270.044,272.185 272.269,272.185 274.274,273.151 275.661,274.89 276.156,277.06"/>
   <polyline fill="none" stroke-width="0.5" stroke-linejoin="round" stroke-linecap="round" stroke="#ff0000" points="266.449,299.858 265.954,302.027 264.567,303.767 262.562,304.733 260.337,304.733 258.332,303.767 256.944,302.027 256.449,299.858 256.944,297.689 258.332,295.949 260.337,294.983 262.562,294.983 264.567,295.949 265.954,297.689 266.449,299.858"/>
   <polyline fill="none" stroke-width="0.5" stroke-linejoin="round" stroke-linecap="round" stroke="#ff0000" points="235.566,298.104 235.071,300.274 233.684,302.013 231.679,302.979 229.454,302.979 227.449,302.013 226.061,300.274 225.566,298.104 226.061,295.935 227.449,294.195 229.454,293.23 231.679,293.23 233.684,294.195 235.071,295.935 235.566,298.104"/>
   <polyline fill="none" stroke-width="0.5" stroke-linejoin="round" stroke-linecap="round" stroke="#ff0000" points="245.272,277.06 244.777,279.229 243.389,280.969 241.385,281.934 239.159,281.934 237.155,280.969 235.767,279.229 235.272,277.06 235.767,274.89 237.155,273.151 239.159,272.185 241.385,272.185 243.389,273.151 244.777,274.89 245.272,277.06"/>
   <polyline fill="none" stroke-width="0.5" stroke-linejoin="round" stroke-linecap="round" stroke="#ff0000" points="202.036,261.276 201.541,263.446 200.154,265.186 198.149,266.151 195.924,266.151 193.919,265.186 192.532,263.446 192.036,261.276 192.532,259.107 193.919,257.367 195.924,256.402 198.149,256.402 200.154,257.367 201.541,259.107 202.036,261.276"/>
   <polyline fill="none" stroke-width="0.5" stroke-linejoin="round" stroke-linecap="round" stroke="#ff0000" points="159.682,256.892 159.187,259.062 157.799,260.801 155.794,261.767 153.569,261.767 151.564,260.801 150.177,259.062 149.682,256.892 150.177,254.723 151.564,252.983 153.569,252.017 155.794,252.017 157.799,252.983 159.187,254.723 159.682,256.892"/>
   <polyline fill="none" stroke-width="0.5" stroke-linejoin="round" stroke-linecap="round" stroke="#ff0000" points="162.329,238.478 161.834,240.648 160.446,242.387 158.441,243.353 156.216,243.353 154.211,242.387 152.824,240.648 152.329,238.478 152.824,236.309 154.211,234.569 156.216,233.604 158.441,233.604 160.446,234.569 161.834,236.309 162.329,238.478"/>
   <polyline fill="none" stroke-width="0.5" stroke-linejoin="round" stroke-linecap="round" stroke="#ff0000" points="108.504,238.478 108.009,240.648 106.621,242.387 104.617,243.353 102.391,243.353 100.386,242.387 98.9991,240.648 98.5039,238.478 98.9991,236.309 100.386,234.569 102.391,233.604 104.617,233.604 106.621,234.569 108.009,236.309 108.504,238.478"/>
   <polyline fill="none" stroke-width="0.5" stroke-linejoin="round" stroke-linecap="round" stroke="#ff0000" points="115.563,202.527 115.067,204.697 113.68,206.437 111.675,207.402 109.45,207.402 107.445,206.437 106.058,204.697 105.563,202.527 106.058,200.358 107.445,198.618 109.45,197.653 111.675,197.653 113.68,198.618 115.067,200.358 115.563,202.527"/>
   <polyline fill="none" stroke-width="0.5" stroke-linejoin="round" stroke-linecap="round" stroke="#ff0000" points="106.739,172.715 106.244,174.885 104.857,176.624 102.852,177.59 100.627,177.59 98.6218,176.624 97.2344,174.885 96.7393,172.715 97.2344,170.546 98.6218,168.806 100.627,167.841 102.852,167.841 104.857,168.806 106.244,170.546 106.739,172.715"/>
   <polyline fill="none" stroke-width="0.5" stroke-linejoin="round" stroke-linecap="round" stroke="#ff0000" points="115.563,125.365 115.067,127.535 113.68,129.274 111.675,130.24 109.45,130.24 107.445,129.274 106.058,127.535 105.563,125.365 106.058,123.196 107.445,121.456 109.45,120.491 111.675,120.491 113.68,121.456 115.067,123.196 115.563,125.365"/>
   <polyline fill="none" stroke-width="0.5" stroke-linejoin="round" stroke-linecap="round" stroke="#ff0000" points="160.564,122.735 160.069,124.904 158.682,126.644 156.677,127.609 154.452,127.609 152.447,126.644 151.059,124.904 150.564,122.735 151.059,120.565 152.447,118.825 154.452,117.86 156.677,117.86 158.682,118.825 160.069,120.565 160.564,122.735"/>
   <polyline fill="none" stroke-width="0.5" stroke-linejoin="round" stroke-linecap="round" stroke="#ff0000" points="164.093,97.3058 163.598,99.4752 162.211,101.215 160.206,102.18 157.981,102.18 155.976,101.215 154.589,99.4752 154.093,97.3058 154.589,95.1364 155.976,93.3967 157.981,92.4312 160.206,92.4312 162.211,93.3967 163.598,95.1364 164.093,97.3058"/>
   <polyline fill="none" stroke-width="0.5" stroke-linejoin="round" stroke-linecap="round" stroke="#ff0000" points="144.681,99.0595 144.186,101.229 142.798,102.969 140.793,103.934 138.568,103.934 136.563,102.969 135.176,101.229 134.681,99.0595 135.176,96.8901 136.563,95.1504 138.568,94.1849 140.793,94.1849 142.798,95.1504 144.186,96.8901 144.681,99.0595"/>
   <polyline fill="none" stroke-width="0.5" stroke-linejoin="round" stroke-linecap="round" stroke="#ff0000" points="138.505,122.735 138.009,124.904 136.622,126.644 134.617,127.609 132.392,127.609 130.387,126.644 129,124.904 128.505,122.735 129,120.565 130.387,118.825 132.392,117.86 134.617,117.86 136.622,118.825 138.009,120.565 138.505,122.735"/>
   <polyline fill="none" stroke-width="0.5" stroke-linejoin="round" stroke-linecap="round" stroke="#ff0000" points="238.213,113.966 237.718,116.135 236.331,117.875 234.326,118.841 232.101,118.841 230.096,117.875 228.709,116.135 228.213,113.966 228.709,111.797 230.096,110.057 232.101,109.091 234.326,109.091 236.331,110.057 237.718,111.797 238.213,113.966"/>
   <polyline fill="none" stroke-width="0.5" stroke-linejoin="round" stroke-linecap="round" stroke="#ff0000" points="231.154,97.3058 230.659,99.4752 229.272,101.215 227.267,102.18 225.042,102.18 223.037,101.215 221.65,99.4752 221.154,97.3058 221.65,95.1364 223.037,93.3967 225.042,92.4312 227.267,92.4312 229.272,93.3967 230.659,95.1364 231.154,97.3058"/>
   <polyline fill="none" stroke-width="0.5" stroke-linejoin="round" stroke-linecap="round" stroke="#ff0000" points="206.448,88.5373 205.953,90.7067 204.566,92.4464 202.561,93.4119 200.336,93.4119 198.331,92.4464 196.943,90.7067 196.448,88.5373 196.943,86.3678 198.331,84.6281 200.336,83.6626 202.561,83.6626 204.566,84.6281 205.953,86.3678 206.448,88.5373"/>
   <polyline fill="none" stroke-width="0.5" stroke-linejoin="round" stroke-linecap="round" stroke="#ff0000" points="209.977,74.51 209.482,76.6794 208.095,78.4192 206.09,79.3846 203.865,79.3846 201.86,78.4192 200.472,76.6794 199.977,74.51 200.472,72.3406 201.86,70.6008 203.865,69.6353 206.09,69.6353 208.095,70.6008 209.482,72.3406 209.977,74.51"/>
   <polyline fill="none" stroke-width="0.5" stroke-linejoin="round" stroke-linecap="round" stroke="#ff0000" points="266.449,77.137 265.954,79.3064 264.567,81.0461 262.562,82.0116 260.337,82.0116 258.332,81.0461 256.944,79.3064 256.449,77.137 256.944,74.9675 258.332,73.2278 260.337,72.2623 262.562,72.2623 264.567,73.2278 265.954,74.9675 266.449,77.137"/>
   <polyline fill="none" stroke-width="0.5" stroke-linejoin="round" stroke-linecap="round" stroke="#ff0000" points="283.215,108.705 282.72,110.874 281.332,112.614 279.328,113.58 277.102,113.58 275.098,112.614 273.71,110.874 273.215,108.705 273.71,106.535 275.098,104.796 277.102,103.83 279.328,103.83 281.332,104.796 282.72,106.535 283.215,108.705"/>
   <polyline fill="none" stroke-width="0.5" stroke-linejoin="round" stroke-linecap="round" stroke="#ff0000" points="320.274,100.813 319.779,102.983 318.392,104.722 316.387,105.688 314.162,105.688 312.157,104.722 310.769,102.983 310.274,100.813 310.769,98.6438 312.157,96.9041 314.162,95.9386 316.387,95.9386 318.392,96.9041 319.779,98.6438 320.274,100.813"/>
   <polyline fill="none" stroke-width="0.5" stroke-linejoin="round" stroke-linecap="round" stroke="#ff0000" points="348.512,127.996 348.017,130.165 346.629,131.905 344.624,132.87 342.399,132.87 340.394,131.905 339.007,130.165 338.512,127.996 339.007,125.826 340.394,124.087 342.399,123.121 344.624,123.121 346.629,124.087 348.017,125.826 348.512,127.996"/>
   <polyline fill="none" stroke-width="0.5" stroke-linejoin="round" stroke-linecap="round" stroke="#ff0000" points="325.57,130.626 325.075,132.796 323.687,134.535 321.682,135.501 319.457,135.501 317.452,134.535 316.065,132.796 315.57,130.626 316.065,128.457 317.452,126.717 319.457,125.752 321.682,125.752 323.687,126.717 325.075,128.457 325.57,130.626"/>
   <polyline fill="none" stroke-width="0.5" stroke-linejoin="round" stroke-linecap="round" stroke="#ff0000" points="386.461,195.512 385.966,197.682 384.578,199.421 382.573,200.387 380.348,200.387 378.343,199.421 376.956,197.682 376.461,195.512 376.956,193.343 378.343,191.603 380.348,190.638 382.573,190.638 384.578,191.603 385.966,193.343 386.461,195.512"/>
   <polyline fill="none" stroke-width="0.5" stroke-linejoin="round" stroke-linecap="round" stroke="#ff0000" points="215.272,277.06 214.776,279.229 213.389,280.969 211.384,281.934 209.159,281.934 207.154,280.969 205.767,279.229 205.272,277.06 205.767,274.89 207.154,273.151 209.159,272.185 211.384,272.185 213.389,273.151 214.776,274.89 215.272,277.06"/>
   <polyline fill="none" stroke-width="0.5" stroke-linejoin="round" stroke-linecap="round" stroke="#ff0000" points="186.153,284.075 185.658,286.244 184.271,287.984 182.266,288.949 180.041,288.949 178.036,287.984 176.648,286.244 176.153,284.075 176.648,281.905 178.036,280.165 180.041,279.2 182.266,279.2 184.271,280.165 185.658,281.905 186.153,284.075"/>
   <polyline fill="none" stroke-width="0.5" stroke-linejoin="round" stroke-linecap="round" stroke="#ff0000" points="199.388,251.631 198.893,253.8 197.505,255.54 195.501,256.506 193.275,256.506 191.271,255.54 189.883,253.8 189.388,251.631 189.883,249.462 191.271,247.722 193.275,246.756 195.501,246.756 197.505,247.722 198.893,249.462 199.388,251.631"/>
   <polyline fill="none" stroke-width="0.5" stroke-linejoin="round" stroke-linecap="round" stroke="#ff0000" points="147.328,243.739 146.833,245.909 145.445,247.648 143.44,248.614 141.215,248.614 139.21,247.648 137.823,245.909 137.328,243.739 137.823,241.57 139.21,239.83 141.215,238.865 143.44,238.865 145.445,239.83 146.833,241.57 147.328,243.739"/>
   <polyline fill="none" stroke-width="0.5" stroke-linejoin="round" stroke-linecap="round" stroke="#ff0000" points="150.857,223.572 150.362,225.741 148.975,227.481 146.97,228.446 144.744,228.446 142.74,227.481 141.352,225.741 140.857,223.572 141.352,221.402 142.74,219.662 144.744,218.697 146.97,218.697 148.975,219.662 150.362,221.402 150.857,223.572"/>
   <polyline fill="none" stroke-width="0.5" stroke-linejoin="round" stroke-linecap="round" stroke="#ff0000" points="178.212,214.803 177.717,216.973 176.33,218.713 174.325,219.678 172.1,219.678 170.095,218.713 168.707,216.973 168.212,214.803 168.707,212.634 170.095,210.894 172.1,209.929 174.325,209.929 176.33,210.894 177.717,212.634 178.212,214.803"/>
   <polyline fill="none" stroke-width="0.5" stroke-linejoin="round" stroke-linecap="round" stroke="#ff0000" points="128.797,215.68 128.302,217.85 126.915,219.589 124.91,220.555 122.685,220.555 120.68,219.589 119.293,217.85 118.797,215.68 119.293,213.511 120.68,211.771 122.685,210.806 124.91,210.806 126.915,211.771 128.302,213.511 128.797,215.68"/>
   <polyline fill="none" stroke-width="0.5" stroke-linejoin="round" stroke-linecap="round" stroke="#ff0000" points="120.856,233.217 120.361,235.386 118.974,237.126 116.969,238.092 114.744,238.092 112.739,237.126 111.352,235.386 110.856,233.217 111.352,231.048 112.739,229.308 114.744,228.342 116.969,228.342 118.974,229.308 120.361,231.048 120.856,233.217"/>
   <polyline fill="none" stroke-width="0.5" stroke-linejoin="round" stroke-linecap="round" stroke="#ff0000" points="130.564,257.769 130.068,259.938 128.681,261.678 126.676,262.644 124.451,262.644 122.446,261.678 121.059,259.938 120.564,257.769 121.059,255.6 122.446,253.86 124.451,252.894 126.676,252.894 128.681,253.86 130.068,255.6 130.564,257.769"/>
   <polyline fill="none" stroke-width="0.5" stroke-linejoin="round" stroke-linecap="round" stroke="#ff0000" points="111.151,217.434 110.656,219.603 109.268,221.343 107.264,222.309 105.038,222.309 103.033,221.343 101.646,219.603 101.151,217.434 101.646,215.264 103.033,213.525 105.038,212.559 107.264,212.559 109.268,213.525 110.656,215.264 111.151,217.434"/>
   <polyline fill="none" stroke-width="0.5" stroke-linejoin="round" stroke-linecap="round" stroke="#ff0000" points="95.2675,170.085 94.7724,172.254 93.385,173.994 91.3801,174.959 89.1549,174.959 87.1501,173.994 85.7627,172.254 85.2675,170.085 85.7627,167.915 87.1501,166.176 89.1549,165.21 91.3801,165.21 93.385,166.176 94.7724,167.915 95.2675,170.085"/>
   <polyline fill="none" stroke-width="0.5" stroke-linejoin="round" stroke-linecap="round" stroke="#ff0000" points="112.033,142.902 111.538,145.072 110.151,146.811 108.146,147.777 105.921,147.777 103.916,146.811 102.528,145.072 102.033,142.902 102.528,140.733 103.916,138.993 105.921,138.028 108.146,138.028 110.151,138.993 111.538,140.733 112.033,142.902"/>
   <polyline fill="none" stroke-width="0.5" stroke-linejoin="round" stroke-linecap="round" stroke="#ff0000" points="131.446,148.163 130.951,150.333 129.563,152.073 127.559,153.038 125.333,153.038 123.328,152.073 121.941,150.333 121.446,148.163 121.941,145.994 123.328,144.254 125.333,143.289 127.559,143.289 129.563,144.254 130.951,145.994 131.446,148.163"/>
   <polyline fill="none" stroke-width="0.5" stroke-linejoin="round" stroke-linecap="round" stroke="#ff0000" points="148.21,87.6604 147.715,89.8298 146.328,91.5695 144.323,92.535 142.097,92.535 140.093,91.5695 138.705,89.8298 138.21,87.6604 138.705,85.491 140.093,83.7513 142.097,82.7858 144.323,82.7858 146.328,83.7513 147.715,85.491 148.21,87.6604"/>
   <polyline fill="none" stroke-width="0.5" stroke-linejoin="round" stroke-linecap="round" stroke="#ff0000" points="221.448,87.6604 220.953,89.8298 219.566,91.5695 217.561,92.535 215.336,92.535 213.331,91.5695 211.943,89.8298 211.448,87.6604 211.943,85.491 213.331,83.7513 215.336,82.7858 217.561,82.7858 219.566,83.7513 220.953,85.491 221.448,87.6604"/>
   <polyline fill="none" stroke-width="0.5" stroke-linejoin="round" stroke-linecap="round" stroke="#ff0000" points="319.329,211.198 318.834,213.367 317.447,215.107 315.442,216.072 313.216,216.072 311.212,215.107 309.824,213.367 309.329,211.198 309.824,209.028 311.212,207.288 313.216,206.323 315.442,206.323 317.447,207.288 318.834,209.028 319.329,211.198"/>
   <polyline fill="none" stroke-width="2" stroke-linejoin="miter" stroke-linecap="butt" stroke="#20928c" points="284.351,211.198 284.121,217.318 283.56,223.438 283.068,226.848 282.598,229.558 281.149,235.678 279.294,241.798 277.014,247.918 275.253,251.858 274.082,254.038 270.193,260.158 267.437,263.844 265.246,266.278 259.622,271.603 258.605,272.398 251.807,276.922 248.874,278.518 243.991,280.769 236.176,283.664 232.798,284.638 228.36,285.716 220.545,287.12 212.73,288.06 204.914,288.556 197.099,288.621 189.283,288.259 181.468,287.468 173.653,286.237 166.273,284.638 165.837,284.527 158.022,281.955 150.207,278.755 149.734,278.518 142.391,274.263 139.728,272.398 134.576,268.291 132.479,266.278 126.814,260.158 126.76,260.092 122.611,254.038 118.945,248.098 118.853,247.918 116.052,241.798 113.546,235.678 111.325,229.558 111.13,228.937 109.699,223.438 108.351,217.318 107.261,211.198 106.448,205.078 105.941,198.958 105.774,192.837 105.997,186.717 106.669,180.597 107.868,174.477 109.691,168.357 111.13,164.936 112.509,162.237 116.74,156.117 118.945,153.693 123.052,149.997 126.76,147.421 133.054,143.877 134.576,143.209 142.391,140.481 150.207,138.368 153.259,137.757 158.022,137.009 165.837,136.168 173.653,135.678 181.468,135.511 189.283,135.645 197.099,136.062 204.914,136.749 212.73,137.698 213.109,137.757 220.545,139.203 228.36,141.041 236.176,143.197 238.288,143.877 243.991,146.152 251.807,149.7 252.378,149.997 259.622,154.65 261.634,156.117 267.437,161.331 268.322,162.237 273.125,168.357 275.253,171.73 276.757,174.477 279.388,180.597 281.416,186.717 282.907,192.837 283.068,193.834 283.778,198.958 284.243,205.078 284.351,211.198"/>
  </g>
  <clipPath id="cp00494367">
   <polygon points="0,367 494,367 494,0 0,0"/>
  </clipPath>
  <g clip-path="url(#cp00494367)">
   <polygon fill="#ffffff" shape-rendering="crispEdges" points="340.192,77.9958 440.391,77.9958 440.391,34.3963 340.192,34.3963"/>
   <polyline fill="none" stroke-width="0.5" stroke-linejoin="miter" stroke-linecap="square" stroke="#262626" points="340.192,77.9958 440.391,77.9958" stroke-dasharray="16,0"/>
   <polyline fill="none" stroke-width="0.5" stroke-linejoin="miter" stroke-linecap="square" stroke="#262626" points="340.192,34.3963 440.391,34.3963" stroke-dasharray="16,0"/>
   <polyline fill="none" stroke-width="0.5" stroke-linejoin="miter" stroke-linecap="square" stroke="#262626" points="340.192,77.9958 340.192,34.3963" stroke-dasharray="16,0"/>
   <polyline fill="none" stroke-width="0.5" stroke-linejoin="miter" stroke-linecap="square" stroke="#262626" points="440.391,77.9958 440.391,34.3963" stroke-dasharray="16,0"/>
   <polyline fill="none" stroke-width="0.5" stroke-linejoin="miter" stroke-linecap="square" stroke="#0000ff" points="348.092,42.7961 356.092,42.7961"/>
   <polyline fill="none" stroke-width="0.5" stroke-linejoin="miter" stroke-linecap="square" stroke="#0000ff" points="352.092,38.7961 352.092,46.7961"/>
   <text font-weight="normal" xml:space="preserve" font-size="9" font-family="FreeSans" font-style="normal" transform="translate(363.991,47.7962) rotate(-0,-0,-5)">
    <tspan fill="rgb(0,0,0)" y="-2" x="0 4 6 11 13 ">y = 1</tspan>
   </text>
   <polyline fill="none" stroke-width="0.5" stroke-linejoin="round" stroke-linecap="round" stroke="#ff0000" points="356.092,56.196 355.696,57.9316 354.586,59.3234 352.982,60.0958 351.202,60.0958 349.598,59.3234 348.488,57.9316 348.092,56.196 348.488,54.4605 349.598,53.0687 351.202,52.2963 352.982,52.2963 354.586,53.0687 355.696,54.4605 356.092,56.196"/>
   <text font-weight="normal" xml:space="preserve" font-size="9" font-family="FreeSans" font-style="normal" transform="translate(363.991,61.196) rotate(-0,-0,-5)">
    <tspan fill="rgb(0,0,0)" y="-2" x="0 4 6 11 13 ">y = 0</tspan>
   </text>
   <polyline fill="none" stroke-width="2" stroke-linejoin="miter" stroke-linecap="butt" stroke="#20928c" points="360.591,66.0261 343.592,66.0261 343.592,73.1658 360.591,73.1658 360.591,66.0261"/>
   <polyline fill="none" stroke-width="2" stroke-linejoin="miter" stroke-linecap="butt" stroke="#20928c" points="357.192,68.168 346.992,68.168 346.992,71.0239 357.192,71.0239 357.192,68.168"/>
   <text font-weight="normal" xml:space="preserve" font-size="9" font-family="FreeSans" font-style="normal" transform="translate(363.991,74.5959) rotate(-0,-0,-5)">
    <tspan fill="rgb(0,0,0)" y="-2" x="0 6 11 16 18 22 24 29 34 36 41 46 51 56 61 66 69 ">Decision boundary</tspan>
   </text>
  </g>
 </g>
</svg>
