<?xml version='1.0' encoding='UTF-8' standalone='no'?>
<svg xmlns:xlink="http://www.w3.org/1999/xlink" height="490pt" width="769pt" viewBox="0 0 769 490" xmlns="http://www.w3.org/2000/svg">
 <title>gl2ps_renderer figure</title>
 <desc>
Creator: GL2PS 1.4.2, (C) 1999-2020 C. Geuzaine
For: Octave
CreationDate: Fri May 07 16:36:34 2021
</desc>
 <defs/>
 <polygon fill="#ffffff" points="0,0 769,0 769,490 0,490"/>
 <g>
  <polygon fill="#ffffff" points="0,490 769,490 769,0 0,0" shape-rendering="crispEdges"/>
  <clipPath id="cp00769490">
   <polygon points="0,490 769,490 769,0 0,0"/>
  </clipPath>
  <g clip-path="url(#cp00769490)">
   <polygon fill="#ffffff" points="100.027,436.638 696.34,436.638 696.34,36.7953 100.027,36.7953" shape-rendering="crispEdges"/>
   <polyline fill="none" points="100.027,436.638 100.027,430.677" stroke-linejoin="miter" stroke="#262626" stroke-width="0.5" stroke-linecap="butt"/>
   <polyline fill="none" points="100.027,36.7953 100.027,42.7561" stroke-linejoin="miter" stroke="#262626" stroke-width="0.5" stroke-linecap="butt"/>
   <polyline fill="none" points="249.105,436.638 249.105,430.677" stroke-linejoin="miter" stroke="#262626" stroke-width="0.5" stroke-linecap="butt"/>
   <polyline fill="none" points="249.105,36.7953 249.105,42.7561" stroke-linejoin="miter" stroke="#262626" stroke-width="0.5" stroke-linecap="butt"/>
   <polyline fill="none" points="398.184,436.638 398.184,430.677" stroke-linejoin="miter" stroke="#262626" stroke-width="0.5" stroke-linecap="butt"/>
   <polyline fill="none" points="398.184,36.7953 398.184,42.7561" stroke-linejoin="miter" stroke="#262626" stroke-width="0.5" stroke-linecap="butt"/>
   <polyline fill="none" points="547.262,436.638 547.262,430.677" stroke-linejoin="miter" stroke="#262626" stroke-width="0.5" stroke-linecap="butt"/>
   <polyline fill="none" points="547.262,36.7953 547.262,42.7561" stroke-linejoin="miter" stroke="#262626" stroke-width="0.5" stroke-linecap="butt"/>
   <polyline fill="none" points="696.34,436.638 696.34,430.677" stroke-linejoin="miter" stroke="#262626" stroke-width="0.5" stroke-linecap="butt"/>
   <polyline fill="none" points="696.34,36.7953 696.34,42.7561" stroke-linejoin="miter" stroke="#262626" stroke-width="0.5" stroke-linecap="butt"/>
   <text transform="translate(92.5268,452.135) rotate(-0,7.5,-8)" font-size="10" font-family="FreeSans" font-weight="normal" font-style="normal" xml:space="preserve">
    <tspan x="0 3 9 " fill="rgb(38,38,38)" y="-0">-10</tspan>
   </text>
   <text transform="translate(244.605,452.135) rotate(-0,4.5,-8)" font-size="10" font-family="FreeSans" font-weight="normal" font-style="normal" xml:space="preserve">
    <tspan x="0 3 " fill="rgb(38,38,38)" y="-0">-5</tspan>
   </text>
   <text transform="translate(395.184,452.135) rotate(-0,3,-8)" font-size="10" font-family="FreeSans" font-weight="normal" font-style="normal" xml:space="preserve">
    <tspan x="0 " fill="rgb(38,38,38)" y="-0">0</tspan>
   </text>
   <text transform="translate(544.262,452.135) rotate(-0,3,-8)" font-size="10" font-family="FreeSans" font-weight="normal" font-style="normal" xml:space="preserve">
    <tspan x="0 " fill="rgb(38,38,38)" y="-0">5</tspan>
   </text>
   <text transform="translate(690.34,452.135) rotate(-0,6,-8)" font-size="10" font-family="FreeSans" font-weight="normal" font-style="normal" xml:space="preserve">
    <tspan x="0 6 " fill="rgb(38,38,38)" y="-0">10</tspan>
   </text>
   <polyline fill="none" points="100.027,436.638 105.993,436.638" stroke-linejoin="miter" stroke="#262626" stroke-width="0.5" stroke-linecap="butt"/>
   <polyline fill="none" points="696.34,436.638 690.374,436.638" stroke-linejoin="miter" stroke="#262626" stroke-width="0.5" stroke-linecap="butt"/>
   <polyline fill="none" points="100.027,356.669 105.993,356.669" stroke-linejoin="miter" stroke="#262626" stroke-width="0.5" stroke-linecap="butt"/>
   <polyline fill="none" points="696.34,356.669 690.374,356.669" stroke-linejoin="miter" stroke="#262626" stroke-width="0.5" stroke-linecap="butt"/>
   <polyline fill="none" points="100.027,276.701 105.993,276.701" stroke-linejoin="miter" stroke="#262626" stroke-width="0.5" stroke-linecap="butt"/>
   <polyline fill="none" points="696.34,276.701 690.374,276.701" stroke-linejoin="miter" stroke="#262626" stroke-width="0.5" stroke-linecap="butt"/>
   <polyline fill="none" points="100.027,196.732 105.993,196.732" stroke-linejoin="miter" stroke="#262626" stroke-width="0.5" stroke-linecap="butt"/>
   <polyline fill="none" points="696.34,196.732 690.374,196.732" stroke-linejoin="miter" stroke="#262626" stroke-width="0.5" stroke-linecap="butt"/>
   <polyline fill="none" points="100.027,116.764 105.993,116.764" stroke-linejoin="miter" stroke="#262626" stroke-width="0.5" stroke-linecap="butt"/>
   <polyline fill="none" points="696.34,116.764 690.374,116.764" stroke-linejoin="miter" stroke="#262626" stroke-width="0.5" stroke-linecap="butt"/>
   <polyline fill="none" points="100.027,36.7953 105.993,36.7953" stroke-linejoin="miter" stroke="#262626" stroke-width="0.5" stroke-linecap="butt"/>
   <polyline fill="none" points="696.34,36.7953 690.374,36.7953" stroke-linejoin="miter" stroke="#262626" stroke-width="0.5" stroke-linecap="butt"/>
   <text transform="translate(86.0241,440.638) rotate(-0,9,-4)" font-size="10" font-family="FreeSans" font-weight="normal" font-style="normal" xml:space="preserve">
    <tspan x="0 3 " fill="rgb(38,38,38)" y="-0">-1</tspan>
   </text>
   <text transform="translate(89.0241,360.669) rotate(-0,6,-4)" font-size="10" font-family="FreeSans" font-weight="normal" font-style="normal" xml:space="preserve">
    <tspan x="0 " fill="rgb(38,38,38)" y="-0">0</tspan>
   </text>
   <text transform="translate(89.0241,280.701) rotate(-0,6,-4)" font-size="10" font-family="FreeSans" font-weight="normal" font-style="normal" xml:space="preserve">
    <tspan x="0 " fill="rgb(38,38,38)" y="-0">1</tspan>
   </text>
   <text transform="translate(89.0241,200.732) rotate(-0,6,-4)" font-size="10" font-family="FreeSans" font-weight="normal" font-style="normal" xml:space="preserve">
    <tspan x="0 " fill="rgb(38,38,38)" y="-0">2</tspan>
   </text>
   <text transform="translate(89.0241,120.764) rotate(-0,6,-4)" font-size="10" font-family="FreeSans" font-weight="normal" font-style="normal" xml:space="preserve">
    <tspan x="0 " fill="rgb(38,38,38)" y="-0">3</tspan>
   </text>
   <text transform="translate(89.0241,40.7953) rotate(-0,6,-4)" font-size="10" font-family="FreeSans" font-weight="normal" font-style="normal" xml:space="preserve">
    <tspan x="0 " fill="rgb(38,38,38)" y="-0">4</tspan>
   </text>
   <polyline stroke-dasharray="16,0" fill="none" points="100.027,436.638 696.34,436.638" stroke-linejoin="miter" stroke="#262626" stroke-width="0.5" stroke-linecap="square"/>
   <polyline stroke-dasharray="16,0" fill="none" points="100.027,36.7953 696.34,36.7953" stroke-linejoin="miter" stroke="#262626" stroke-width="0.5" stroke-linecap="square"/>
   <polyline stroke-dasharray="16,0" fill="none" points="100.027,436.638 100.027,36.7953" stroke-linejoin="miter" stroke="#262626" stroke-width="0.5" stroke-linecap="square"/>
   <polyline stroke-dasharray="16,0" fill="none" points="696.34,436.638 696.34,36.7953" stroke-linejoin="miter" stroke="#262626" stroke-width="0.5" stroke-linecap="square"/>
   <text transform="translate(393.184,468.135) rotate(-0,5,-11)" font-size="11" font-family="FreeSans" font-weight="normal" font-style="normal" xml:space="preserve">
    <tspan x="0 " fill="rgb(38,38,38)" y="-2">θ</tspan>
    <tspan x="6 " font-size="7.7" fill="rgb(38,38,38)" y="-0">0</tspan>
   </text>
   <text transform="translate(76.0241,236.717) rotate(-90,5,0)" font-size="11" font-family="FreeSans" font-weight="normal" font-style="normal" xml:space="preserve">
    <tspan x="0 " fill="rgb(38,38,38)" y="-2">θ</tspan>
    <tspan x="6 " font-size="7.7" fill="rgb(38,38,38)" y="-0">1</tspan>
   </text>
   <polyline fill="none" points="462.945,311.435 461.429,312.442 455.406,314.417 449.382,315.057 443.359,315.099 437.335,314.82 431.312,314.35 425.289,313.757 419.265,313.08 413.242,312.343 407.219,311.562 406.34,311.435 401.195,310.575 395.172,309.559 389.148,308.547 383.125,307.538 382.327,307.396 377.102,306.344 371.078,305.154 365.055,303.994 361.785,303.357 359.032,302.754 353.008,301.429 346.985,300.152 343.019,299.318 340.962,298.833 334.938,297.409 328.915,296.044 325.514,295.279 322.891,294.622 316.868,293.125 310.845,291.696 308.933,291.24 304.821,290.152 298.798,288.606 293.079,287.202 292.775,287.118 286.751,285.452 280.728,283.875 277.971,283.163 274.704,282.226 268.681,280.545 263.344,279.124 262.658,278.92 256.634,277.134 250.611,275.453 249.29,275.085 244.588,273.632 238.564,271.862 235.719,271.046 232.541,270.03 226.518,268.173 222.582,267.008 220.494,266.316 214.471,264.372 209.882,262.969 208.447,262.475 202.424,260.449 197.624,258.93 196.401,258.493 190.377,256.388 185.812,254.891 184.354,254.348 178.331,252.173 174.45,250.852 172.307,250.02 166.284,247.783 163.543,246.814 160.26,245.48 154.237,243.196 153.094,242.775 148.214,240.696 143.19,238.736 142.19,238.274 136.167,235.628 133.897,234.697 130.144,232.854 125.218,230.658 124.12,230.049 118.097,226.982 117.334,226.619 112.074,223.451 110.465,222.581 106.05,219.317 104.868,218.542 101.274,214.503 101.62,210.464 106.05,208.727 112.074,207.746 118.097,207.495 124.12,207.632 130.144,207.999 136.167,208.515 142.19,209.131 148.214,209.819 153.389,210.464 154.237,210.588 160.26,211.563 166.284,212.541 172.307,213.521 178.331,214.502 178.335,214.503 184.354,215.7 190.377,216.864 196.401,218.002 199.204,218.542 202.424,219.24 208.447,220.544 214.471,221.803 218.202,222.581 220.494,223.116 226.518,224.524 232.541,225.875 235.881,226.619 238.564,227.287 244.588,228.771 250.611,230.19 252.593,230.658 256.634,231.72 262.658,233.257 268.567,234.697 268.681,234.728 274.704,236.388 280.728,237.958 283.761,238.736 286.751,239.588 292.775,241.264 298.487,242.775 298.798,242.866 304.821,244.651 310.845,246.329 312.597,246.814 316.868,248.126 322.891,249.895 326.25,250.852 328.915,251.7 334.938,253.559 339.466,254.891 340.962,255.384 346.985,257.332 352.242,258.93 353.008,259.192 359.032,261.226 364.572,262.969 365.055,263.141 371.078,265.256 376.452,267.008 377.102,267.248 383.125,269.438 387.878,271.046 389.148,271.537 395.172,273.793 398.847,275.085 401.195,276.035 407.219,278.342 409.352,279.124 413.242,280.773 419.265,283.115 419.39,283.163 425.289,285.792 428.746,287.202 431.312,288.456 437.335,291.14 437.569,291.24 443.359,294.259 445.518,295.279 449.382,297.599 452.574,299.318 455.406,301.407 458.391,303.357 461.429,306.507 462.414,307.396 462.945,311.435" stroke-linejoin="miter" stroke="#440154" stroke-width="0.5" stroke-linecap="butt"/>
   <polyline fill="none" points="100.027,180.401 106.05,181.458 110.207,182.193 112.074,182.548 118.097,183.719 124.12,184.873 130.144,186.012 131.277,186.231 136.167,187.247 142.19,188.484 148.214,189.7 151.021,190.27 154.237,190.97 160.26,192.278 166.284,193.559 169.815,194.309 172.307,194.874 178.331,196.243 184.354,197.58 187.829,198.348 190.377,198.949 196.401,200.367 202.424,201.751 205.196,202.387 208.447,203.181 214.471,204.641 220.494,206.064 222.018,206.425 226.518,207.562 232.541,209.055 238.37,210.464 238.564,210.514 244.588,212.081 250.611,213.601 254.226,214.503 256.634,215.142 262.658,216.73 268.681,218.271 269.736,218.542 274.704,219.898 280.728,221.501 284.857,222.581 286.751,223.108 292.775,224.774 298.798,226.387 299.663,226.619 304.821,228.092 310.845,229.763 314.12,230.658 316.868,231.458 322.891,233.187 328.315,234.697 328.915,234.875 334.938,236.662 340.962,238.385 342.189,238.736 346.985,240.192 353.008,241.968 355.784,242.775 359.032,243.78 365.055,245.608 369.125,246.814 371.078,247.43 377.102,249.31 382.212,250.852 383.125,251.147 389.148,253.077 395.043,254.891 395.172,254.934 401.195,256.914 407.219,258.811 407.598,258.93 413.242,260.826 419.265,262.765 419.901,262.969 425.289,264.817 431.312,266.798 431.954,267.008 437.335,268.894 443.359,270.913 443.757,271.046 449.382,273.062 455.305,275.085 455.406,275.122 461.429,277.328 466.569,279.124 467.452,279.458 473.476,281.7 477.566,283.163 479.499,283.911 485.522,286.186 488.296,287.202 491.546,288.493 497.569,290.795 498.756,291.24 503.592,293.214 508.913,295.279 509.616,295.578 515.639,298.088 518.724,299.318 521.663,300.607 527.686,303.127 528.247,303.357 533.709,305.829 537.361,307.396 539.733,308.53 545.756,311.265 546.138,311.435 551.779,314.232 554.428,315.473 557.803,317.269 562.279,319.512 563.826,320.408 569.607,323.551 569.85,323.707 575.873,327.361 576.273,327.59 581.896,331.439 582.193,331.629 587.16,335.667 587.92,336.551 590.875,339.706 592.903,343.745 591.98,347.784 587.92,350.386 584.177,351.823 581.896,352.284 575.873,353.066 569.85,353.47 563.826,353.606 557.803,353.544 551.779,353.332 545.756,353.004 539.733,352.584 533.709,352.09 530.905,351.823 527.686,351.483 521.663,350.781 515.639,350.042 509.616,349.273 503.592,348.48 498.482,347.784 497.569,347.648 491.546,346.698 485.522,345.744 479.499,344.786 473.476,343.825 472.999,343.745 467.452,342.744 461.429,341.663 455.406,340.59 450.446,339.706 449.382,339.502 443.359,338.315 437.335,337.147 431.312,335.994 429.635,335.667 425.289,334.759 419.265,333.509 413.242,332.282 410.049,331.629 407.219,331.01 401.195,329.69 395.172,328.398 391.385,327.59 389.148,327.08 383.125,325.702 377.102,324.356 373.48,323.551 371.078,322.982 365.055,321.555 359.032,320.164 356.206,319.512 353.008,318.727 346.985,317.26 340.962,315.831 339.462,315.473 334.938,314.325 328.915,312.826 323.185,311.435 322.891,311.359 316.868,309.786 310.845,308.261 307.391,307.396 304.821,306.711 298.798,305.119 292.775,303.573 291.935,303.357 286.751,301.936 280.728,300.33 276.875,299.318 274.704,298.712 268.681,297.043 262.658,295.427 262.111,295.279 256.634,293.71 250.611,292.037 247.709,291.24 244.588,290.329 238.564,288.599 233.566,287.202 232.541,286.897 226.518,285.109 220.494,283.384 219.721,283.163 214.471,281.563 208.447,279.787 206.174,279.124 202.424,277.959 196.401,276.132 192.879,275.085 190.377,274.292 184.354,272.414 179.838,271.046 178.331,270.559 172.307,268.631 167.051,267.008 166.284,266.754 160.26,264.777 154.521,262.969 154.237,262.873 148.214,260.848 142.249,258.93 142.19,258.91 136.167,256.838 130.235,254.891 130.144,254.859 124.12,252.743 118.483,250.852 118.097,250.713 112.074,248.555 106.992,246.814 106.05,246.465 100.027,244.269" stroke-linejoin="miter" stroke="#440154" stroke-width="0.5" stroke-linecap="butt"/>
   <polyline fill="none" points="100.027,266.219 102.418,267.008 106.05,268.152 112.074,270.083 115.035,271.046 118.097,271.999 124.12,273.898 127.821,275.085 130.144,275.799 136.167,277.665 140.776,279.124 142.19,279.553 148.214,281.387 153.899,283.163 154.237,283.264 160.26,285.065 166.284,286.914 167.218,287.202 172.307,288.702 178.331,290.515 180.72,291.24 184.354,292.298 190.377,294.075 194.394,295.279 196.401,295.856 202.424,297.597 208.239,299.318 208.447,299.377 214.471,301.082 220.494,302.828 222.311,303.357 226.518,304.532 232.541,306.239 236.564,307.396 238.564,307.948 244.588,309.616 250.611,311.323 251.005,311.435 256.634,312.961 262.658,314.627 265.691,315.473 268.681,316.274 274.704,317.899 280.556,319.512 280.728,319.558 286.751,321.142 292.775,322.76 295.696,323.551 298.798,324.357 304.821,325.932 310.845,327.541 311.03,327.59 316.868,329.076 322.891,330.64 326.663,331.629 328.915,332.195 334.938,333.713 340.962,335.262 342.539,335.667 346.985,336.763 353.008,338.264 358.691,339.706 359.032,339.789 365.055,341.244 371.078,342.725 375.184,343.745 377.102,344.202 383.125,345.634 389.148,347.092 391.997,347.784 395.172,348.523 401.195,349.929 407.219,351.361 409.166,351.823 413.242,352.749 419.265,354.126 425.289,355.527 426.736,355.861 431.312,356.875 437.335,358.219 443.359,359.585 444.756,359.9 449.382,360.897 455.406,362.205 461.429,363.532 463.288,363.939 467.452,364.811 473.476,366.077 479.499,367.36 482.403,367.978 485.522,368.611 491.546,369.831 497.569,371.065 502.187,372.017 503.592,372.293 509.616,373.461 515.639,374.641 521.663,375.833 522.802,376.056 527.686,376.962 533.709,378.081 539.733,379.208 544.459,380.094 545.756,380.326 551.779,381.377 557.803,382.433 563.826,383.494 567.491,384.133 569.85,384.524 575.873,385.5 581.896,386.475 587.92,387.449 592.439,388.172 593.943,388.4 599.966,389.28 605.99,390.152 612.013,391.014 618.036,391.866 620.575,392.211 624.06,392.657 630.083,393.396 636.107,394.113 642.13,394.806 648.153,395.472 654.177,396.105 655.693,396.25 660.2,396.65 666.223,397.135 672.247,397.568 678.27,397.943 684.294,398.249 690.317,398.473 696.34,398.6" stroke-linejoin="miter" stroke="#460c5f" stroke-width="0.5" stroke-linecap="butt"/>
   <polyline fill="none" points="100.027,158.44 106.05,159.759 112.074,161.06 116.445,161.999 118.097,162.369 124.12,163.729 130.144,165.067 134.541,166.037 136.167,166.412 142.19,167.807 148.214,169.179 152.178,170.076 154.237,170.563 160.26,171.989 166.284,173.39 169.407,174.115 172.307,174.817 178.331,176.27 184.354,177.698 186.275,178.154 190.377,179.17 196.401,180.647 202.424,182.097 202.818,182.193 208.447,183.617 214.471,185.114 219.018,186.231 220.494,186.61 226.518,188.155 232.541,189.669 234.936,190.27 238.564,191.219 244.588,192.779 250.611,194.308 250.613,194.309 256.634,195.914 262.658,197.486 265.983,198.348 268.681,199.076 274.704,200.692 280.728,202.274 281.155,202.387 286.751,203.925 292.775,205.548 296.059,206.425 298.798,207.188 304.821,208.852 310.784,210.464 310.845,210.481 316.868,212.187 322.891,213.854 325.251,214.503 328.915,215.554 334.938,217.26 339.54,218.542 340.962,218.955 346.985,220.7 353.008,222.403 353.634,222.581 359.032,224.174 365.055,225.915 367.512,226.619 371.078,227.686 377.102,229.463 381.219,230.658 383.125,231.236 389.148,233.049 394.753,234.697 395.172,234.826 401.195,236.675 407.219,238.476 408.088,238.736 413.242,240.342 419.265,242.177 421.241,242.775 425.289,244.053 431.312,245.921 434.226,246.814 437.335,247.809 443.359,249.709 447.041,250.852 449.382,251.612 455.406,253.545 459.686,254.891 461.429,255.465 467.452,257.429 472.16,258.93 473.476,259.369 479.499,261.365 484.463,262.969 485.522,263.327 491.546,265.353 496.595,267.008 497.569,267.342 503.592,269.398 508.553,271.046 509.616,271.417 515.639,273.501 520.338,275.085 521.663,275.554 527.686,277.666 531.949,279.124 533.709,279.757 539.733,281.894 543.386,283.163 545.756,284.028 551.779,286.191 554.648,287.202 557.803,288.372 563.826,290.558 565.734,291.24 569.85,292.792 575.873,294.999 576.643,295.279 581.896,297.293 587.357,299.318 587.92,299.539 593.943,301.878 597.864,303.357 599.966,304.196 605.99,306.553 608.185,307.396 612.013,308.952 618.036,311.323 618.322,311.435 624.06,313.811 628.212,315.473 630.083,316.271 636.107,318.78 637.9,319.512 642.13,321.352 647.368,323.551 648.153,323.904 654.177,326.563 656.572,327.59 660.2,329.258 665.551,331.629 666.223,331.95 672.247,334.767 674.232,335.667 678.27,337.645 682.642,339.706 684.294,340.553 690.317,343.533 690.756,343.745 696.34,346.688" stroke-linejoin="miter" stroke="#460c5f" stroke-width="0.5" stroke-linecap="butt"/>
   <polyline fill="none" points="100.027,292.047 106.05,293.877 110.601,295.279 112.074,295.719 118.097,297.525 123.971,299.318 124.12,299.362 130.144,301.144 136.167,302.958 137.489,303.357 142.19,304.735 148.214,306.523 151.131,307.396 154.237,308.298 160.26,310.06 164.895,311.435 166.284,311.834 172.307,313.571 178.331,315.339 178.79,315.473 184.354,317.057 190.377,318.797 192.839,319.512 196.401,320.517 202.424,322.23 207.012,323.551 208.447,323.952 214.471,325.639 220.494,327.353 221.326,327.59 226.518,329.024 232.541,330.71 235.798,331.629 238.564,332.386 244.588,334.044 250.395,335.667 250.611,335.726 256.634,337.356 262.658,339.012 265.174,339.706 268.681,340.647 274.704,342.273 280.085,343.745 280.728,343.916 286.751,345.513 292.775,347.134 295.179,347.784 298.798,348.733 304.821,350.324 310.417,351.823 310.845,351.934 316.868,353.495 322.891,355.078 325.856,355.861 328.915,356.646 334.938,358.199 340.962,359.774 341.448,359.9 346.985,361.301 353.008,362.843 357.251,363.939 359.032,364.386 365.055,365.896 371.078,367.427 373.243,367.978 377.102,368.932 383.125,370.429 389.148,371.948 389.424,372.017 395.172,373.416 401.195,374.899 405.848,376.056 407.219,376.386 413.242,377.836 419.265,379.304 422.495,380.094 425.289,380.758 431.312,382.191 437.335,383.641 439.378,384.133 443.359,385.063 449.382,386.478 455.406,387.909 456.514,388.172 461.429,389.301 467.452,390.695 473.476,392.106 473.927,392.211 479.499,393.468 485.522,394.84 491.546,396.228 491.639,396.25 497.569,397.563 503.592,398.911 509.616,400.274 509.679,400.288 515.639,401.583 521.663,402.905 527.686,404.241 528.076,404.327 533.709,405.527 539.733,406.82 545.756,408.127 546.865,408.366 551.779,409.391 557.803,410.654 563.826,411.929 566.085,412.405 569.85,413.173 575.873,414.403 581.896,415.643 585.779,416.444 587.92,416.871 593.943,418.065 599.966,419.268 605.99,420.481 605.999,420.482 612.013,421.636 618.036,422.799 624.06,423.97 626.909,424.521 630.083,425.114 636.107,426.234 642.13,427.36 648.153,428.492 648.521,428.56 654.177,429.569 660.2,430.646 666.223,431.728 671.08,432.599 672.247,432.801 678.27,433.826 684.294,434.852 690.317,435.88 694.776,436.638" stroke-linejoin="miter" stroke="#48186a" stroke-width="0.5" stroke-linecap="butt"/>
   <polyline fill="none" points="100.027,132.623 104.845,133.727 106.05,134.012 112.074,135.44 118.097,136.85 122.024,137.766 124.12,138.269 130.144,139.717 136.167,141.146 138.946,141.804 142.19,142.597 148.214,144.061 154.237,145.508 155.63,145.843 160.26,146.992 166.284,148.472 172.089,149.882 172.307,149.937 178.331,151.452 184.354,152.947 188.303,153.921 190.377,154.448 196.401,155.976 202.424,157.484 204.325,157.96 208.447,159.022 214.471,160.562 220.161,161.999 220.494,162.085 226.518,163.658 232.541,165.208 235.781,166.037 238.564,166.771 244.588,168.353 250.611,169.912 251.245,170.076 256.634,171.517 262.658,173.106 266.512,174.115 268.681,174.7 274.704,176.319 280.728,177.915 281.629,178.154 286.751,179.553 292.775,181.177 296.568,182.193 298.798,182.807 304.821,184.461 310.845,186.09 311.367,186.231 316.868,187.766 322.891,189.423 325.991,190.27 328.915,191.093 334.938,192.778 340.489,194.309 340.962,194.443 346.985,196.157 353.008,197.842 354.82,198.348 359.032,199.558 365.055,201.271 369.018,202.387 371.078,202.984 377.102,204.724 383.092,206.425 383.125,206.435 389.148,208.202 395.172,209.939 397.001,210.464 401.195,211.706 407.219,213.468 410.788,214.503 413.242,215.236 419.265,217.024 424.454,218.542 425.289,218.793 431.312,220.607 437.335,222.389 437.984,222.581 443.359,224.219 449.382,226.025 451.375,226.619 455.406,227.859 461.429,229.689 464.647,230.658 467.452,231.529 473.476,233.383 477.799,234.697 479.499,235.23 485.522,237.108 490.831,238.736 491.546,238.962 497.569,240.864 503.592,242.73 503.738,242.775 509.616,244.653 515.639,246.541 516.511,246.814 521.663,248.475 527.686,250.385 529.166,250.852 533.709,252.332 539.733,254.264 541.701,254.891 545.756,256.225 551.779,258.178 554.117,258.93 557.803,260.154 563.826,262.128 566.414,262.969 569.85,264.121 575.873,266.116 578.59,267.008 581.896,268.128 587.92,270.143 590.646,271.046 593.943,272.175 599.966,274.211 602.581,275.085 605.99,276.264 612.013,278.319 614.395,279.124 618.036,280.397 624.06,282.471 626.088,283.163 630.083,284.574 636.107,286.666 637.659,287.202 642.13,288.798 648.153,290.908 649.108,291.24 654.177,293.07 660.2,295.197 660.435,295.279 666.223,297.391 671.626,299.318 672.247,299.548 678.27,301.765 682.686,303.357 684.294,303.959 690.317,306.191 693.62,307.396 696.34,308.426" stroke-linejoin="miter" stroke="#48186a" stroke-width="0.5" stroke-linecap="butt"/>
   <polyline fill="none" points="100.027,324.932 106.05,326.709 109.019,327.59 112.074,328.477 118.097,330.235 122.823,331.629 124.12,332.003 130.144,333.743 136.167,335.505 136.723,335.667 142.19,337.232 148.214,338.974 150.734,339.706 154.237,340.702 160.26,342.426 164.832,343.745 166.284,344.155 172.307,345.859 178.331,347.583 179.031,347.784 184.354,349.275 190.377,350.979 193.343,351.823 196.401,352.674 202.424,354.358 207.745,355.861 208.447,356.056 214.471,357.721 220.494,359.405 222.265,359.9 226.518,361.066 232.541,362.73 236.887,363.939 238.564,364.396 244.588,366.039 250.611,367.701 251.616,367.978 256.634,369.333 262.658,370.973 266.466,372.017 268.681,372.611 274.704,374.231 280.728,375.868 281.419,376.056 286.751,377.473 292.775,379.089 296.503,380.094 298.798,380.701 304.821,382.295 310.845,383.906 311.694,384.133 316.868,385.487 322.891,387.076 327.02,388.172 328.915,388.665 334.938,390.232 340.962,391.815 342.465,392.211 346.985,393.374 353.008,394.935 358.04,396.25 359.032,396.503 365.055,398.041 371.078,399.595 373.758,400.288 377.102,401.135 383.125,402.666 389.148,404.212 389.598,404.327 395.172,405.724 401.195,407.246 405.598,408.366 407.219,408.77 413.242,410.268 419.265,411.782 421.741,412.405 425.289,413.279 431.312,414.768 437.335,416.271 438.027,416.444 443.359,417.742 449.382,419.221 454.482,420.482 455.406,420.706 461.429,422.16 467.452,423.628 471.107,424.521 473.476,425.088 479.499,426.53 485.522,427.986 487.899,428.56 491.546,429.423 497.569,430.852 503.592,432.295 504.866,432.599 509.616,433.709 515.639,435.125 521.663,436.553 522.021,436.638" stroke-linejoin="miter" stroke="#46327e" stroke-width="0.5" stroke-linecap="butt"/>
   <polyline fill="none" points="100.027,99.7362 106.05,101.188 106.995,101.416 112.074,102.67 118.097,104.147 123.476,105.455 124.12,105.615 130.144,107.117 136.167,108.604 139.786,109.494 142.19,110.098 148.214,111.61 154.237,113.106 155.952,113.533 160.26,114.627 166.284,116.147 171.976,117.572 172.307,117.656 178.331,119.201 184.354,120.73 187.837,121.61 190.377,122.266 196.401,123.819 202.424,125.355 203.575,125.649 208.447,126.92 214.471,128.48 219.172,129.688 220.494,130.035 226.518,131.617 232.541,133.183 234.637,133.727 238.564,134.768 244.588,136.356 249.984,137.766 250.611,137.933 256.634,139.543 262.658,141.136 265.192,141.804 268.681,142.744 274.704,144.359 280.297,145.843 280.728,145.96 286.751,147.596 292.775,149.215 295.266,149.882 298.798,150.849 304.821,152.488 310.136,153.921 310.845,154.116 316.868,155.777 322.891,157.419 324.88,157.96 328.915,159.081 334.938,160.744 339.521,161.999 340.962,162.401 346.985,164.084 353.008,165.748 354.055,166.037 359.032,167.442 365.055,169.125 368.475,170.076 371.078,170.815 377.102,172.519 382.805,174.115 383.125,174.206 389.148,175.93 395.172,177.633 397.016,178.154 401.195,179.359 407.219,181.081 411.132,182.193 413.242,182.805 419.265,184.547 425.16,186.231 425.289,186.269 431.312,188.03 437.335,189.77 439.071,190.27 443.359,191.533 449.382,193.291 452.892,194.309 455.406,195.054 461.429,196.831 466.625,198.348 467.452,198.595 473.476,200.39 479.499,202.163 480.258,202.387 485.522,203.969 491.546,205.76 493.791,206.425 497.569,207.569 503.592,209.378 507.238,210.464 509.616,211.189 515.639,213.016 520.597,214.503 521.663,214.83 527.686,216.674 533.709,218.494 533.866,218.542 539.733,220.355 545.756,222.192 547.033,222.581 551.779,224.057 557.803,225.911 560.114,226.619 563.826,227.782 569.85,229.653 573.108,230.658 575.873,231.53 581.896,233.418 586.015,234.697 587.92,235.302 593.943,237.206 598.836,238.736 599.966,239.097 605.99,241.019 611.57,242.775 612.013,242.917 618.036,244.855 624.06,246.765 624.215,246.814 630.083,248.717 636.107,250.642 636.766,250.852 642.13,252.604 648.153,254.544 649.232,254.891 654.177,256.517 660.2,258.473 661.612,258.93 666.223,260.457 672.247,262.428 673.905,262.969 678.27,264.425 684.294,266.411 686.112,267.008 690.317,268.42 696.34,270.421" stroke-linejoin="miter" stroke="#46327e" stroke-width="0.5" stroke-linecap="butt"/>
   <polyline fill="none" points="100.027,368.138 106.05,369.858 112.074,371.593 113.543,372.017 118.097,373.31 124.12,375.03 127.693,376.056 130.144,376.748 136.167,378.455 141.907,380.094 142.19,380.174 148.214,381.866 154.237,383.573 156.209,384.133 160.26,385.266 166.284,386.958 170.58,388.172 172.307,388.652 178.331,390.33 184.354,392.022 185.025,392.211 190.377,393.69 196.401,395.368 199.557,396.25 202.424,397.039 208.447,398.701 214.154,400.288 214.471,400.375 220.494,402.023 226.518,403.684 228.845,404.327 232.541,405.333 238.564,406.979 243.607,408.366 244.588,408.632 250.611,410.263 256.634,411.907 258.457,412.405 262.658,413.535 268.681,415.164 273.387,416.444 274.704,416.797 280.728,418.41 286.751,420.036 288.404,420.482 292.775,421.645 298.798,423.255 303.506,424.521 304.821,424.87 310.845,426.464 316.868,428.071 318.698,428.56 322.891,429.663 328.915,431.254 333.975,432.599 334.938,432.851 340.962,434.426 346.985,436.013 349.35,436.638" stroke-linejoin="miter" stroke="#365b8c" stroke-width="0.5" stroke-linecap="butt"/>
   <polyline fill="none" points="100.027,56.5314 101.87,56.9894 106.05,58.0443 112.074,59.5582 117.962,61.0282 118.097,61.0623 124.12,62.5938 130.144,64.1141 133.932,65.067 136.167,65.6381 142.19,67.1757 148.214,68.702 149.807,69.1058 154.237,70.2463 160.26,71.7896 165.582,73.1446 166.284,73.3262 172.307,74.8864 178.331,76.435 181.248,77.1834 184.354,77.9927 190.377,79.5579 196.401,81.1115 196.83,81.2223 202.424,82.6905 208.447,84.2603 212.302,85.2611 214.471,85.8328 220.494,87.419 226.518,88.9931 227.691,89.2999 232.541,90.5877 238.564,92.1779 242.983,93.3387 244.588,93.7666 250.611,95.3729 256.634,96.9665 258.188,97.3775 262.658,98.5782 268.681,100.188 273.305,101.416 274.704,101.794 280.728,103.419 286.751,105.032 288.333,105.455 292.775,106.662 298.798,108.29 303.278,109.494 304.821,109.915 310.845,111.559 316.868,113.189 318.139,113.533 322.891,114.839 328.915,116.484 332.916,117.572 334.938,118.13 340.962,119.79 346.985,121.437 347.617,121.61 353.008,123.109 359.032,124.77 362.229,125.649 365.055,126.438 371.078,128.115 376.774,129.688 377.102,129.78 383.125,131.471 389.148,133.149 391.228,133.727 395.172,134.84 401.195,136.532 405.613,137.766 407.219,138.221 413.242,139.927 419.265,141.619 419.924,141.804 425.289,143.335 431.312,145.041 434.152,145.843 437.335,146.756 443.359,148.476 448.315,149.882 449.382,150.19 455.406,151.924 461.429,153.644 462.401,153.921 467.452,155.385 473.476,157.118 476.41,157.96 479.499,158.859 485.522,160.606 490.355,161.999 491.546,162.347 497.569,164.108 503.592,165.853 504.228,166.037 509.616,167.623 515.639,169.382 518.023,170.076 521.663,171.153 527.686,172.925 531.754,174.115 533.709,174.696 539.733,176.482 545.421,178.154 545.756,178.254 551.779,180.053 557.803,181.836 559.011,182.193 563.826,183.639 569.85,185.434 572.532,186.231 575.873,187.239 581.896,189.048 585.991,190.27 587.92,190.855 593.943,192.677 599.385,194.309 599.966,194.486 605.99,196.321 612.013,198.138 612.708,198.348 618.036,199.981 624.06,201.81 625.961,202.387 630.083,203.656 636.107,205.498 639.151,206.425 642.13,207.347 648.153,209.202 652.278,210.464 654.177,211.055 660.2,212.922 665.341,214.503 666.223,214.779 672.247,216.659 678.27,218.52 678.341,218.542 684.294,220.412 690.317,222.286 691.267,222.581 696.34,224.183" stroke-linejoin="miter" stroke="#365b8c" stroke-width="0.5" stroke-linecap="butt"/>
   <polyline fill="none" points="100.027,425.696 106.05,427.397 110.154,428.56 112.074,429.098 118.097,430.788 124.12,432.489 124.51,432.599 130.144,434.171 136.167,435.861 138.931,436.638" stroke-linejoin="miter" stroke="#1e998a" stroke-width="0.5" stroke-linecap="butt"/>
   <polyline fill="none" points="696.34,164.579 690.317,162.765 687.779,161.999 684.294,160.958 678.27,159.154 674.301,157.96 672.247,157.349 666.223,155.554 660.775,153.921 660.2,153.75 654.177,151.965 648.153,150.168 647.195,149.882 642.13,148.387 636.107,146.6 633.563,145.843 630.083,144.82 624.06,143.042 619.885,141.804 618.036,141.263 612.013,139.495 606.159,137.766 605.99,137.716 599.966,135.958 593.943,134.189 592.373,133.727 587.92,132.432 581.896,130.672 578.539,129.688 575.873,128.915 569.85,127.166 564.658,125.649 563.826,125.409 557.803,123.669 551.779,121.918 550.72,121.61 545.756,120.183 539.733,118.442 536.728,117.572 533.709,116.707 527.686,114.976 522.689,113.533 521.663,113.24 515.639,111.519 509.616,109.788 508.594,109.494 503.592,108.072 497.569,106.351 494.441,105.455 491.546,104.635 485.522,102.924 480.242,101.416 479.499,101.207 473.476,99.5064 467.452,97.7955 465.982,97.3775 461.429,96.0979 455.406,94.3976 451.667,93.3387 449.382,92.6986 443.359,91.0089 437.335,89.3085 437.305,89.2999 431.312,87.6292 425.289,85.9396 422.874,85.2611 419.265,84.2585 413.242,82.5797 408.395,81.2223 407.219,80.8966 401.195,79.2286 395.172,77.5503 393.856,77.1834 389.148,75.8862 383.125,74.2188 379.258,73.1446 377.102,72.5524 371.078,70.8961 365.055,69.2295 364.608,69.1058 359.032,67.5818 353.008,65.9264 349.889,65.067 346.985,64.2759 340.962,62.6316 335.122,61.0282 334.938,60.9784 328.915,59.3452 322.891,57.7023 320.282,56.9894 316.868,56.067 310.845,54.4354 305.392,52.9506 304.821,52.7969 298.798,51.1766 292.775,49.5467 290.431,48.9118 286.751,47.9258 280.728,46.3073 275.416,44.8729 274.704,44.6829 268.681,43.0759 262.658,41.4594 260.33,40.8341 256.634,39.8522 250.611,38.2474 245.188,36.7953" stroke-linejoin="miter" stroke="#1e998a" stroke-width="0.5" stroke-linecap="butt"/>
   <polyline fill="none" points="696.34,85.8604 694.296,85.2611 690.317,84.1043 684.294,82.348 680.444,81.2223 678.27,80.5919 672.247,78.843 666.557,77.1834 666.223,77.0869 660.2,75.3453 654.177,73.5953 652.626,73.1446 648.153,71.855 642.13,70.1125 638.659,69.1058 636.107,68.3719 630.083,66.637 624.656,65.067 624.06,64.896 618.036,63.1686 612.013,61.4329 610.609,61.0282 605.99,59.7074 599.966,57.9793 596.524,56.9894 593.943,56.2532 587.92,54.5327 582.404,52.9506 581.896,52.8061 575.873,51.0932 569.85,49.3722 568.239,48.9118 563.826,47.6606 557.803,45.9474 554.035,44.8729 551.779,44.2349 545.756,42.5294 539.797,40.8341 539.733,40.8161 533.709,39.1183 527.686,37.4125 525.509,36.7953" stroke-linejoin="miter" stroke="#fde724" stroke-width="0.5" stroke-linecap="butt"/>
   <polyline fill="none" points="284.944,258.397 294.944,268.397" stroke-linejoin="miter" stroke="#ff0000" stroke-width="2" stroke-linecap="square"/>
   <polyline fill="none" points="284.944,268.397 294.944,258.397" stroke-linejoin="miter" stroke="#ff0000" stroke-width="2" stroke-linecap="square"/>
  </g>
 </g>
</svg>
