<?xml version='1.0' encoding='UTF-8' standalone='no'?>
<svg xmlns="http://www.w3.org/2000/svg" viewBox="0 0 494 367" height="367pt" xmlns:xlink="http://www.w3.org/1999/xlink" width="494pt">
 <title>gl2ps_renderer figure</title>
 <desc>
Creator: GL2PS 1.4.2, (C) 1999-2020 C. Geuzaine
For: Octave
CreationDate: Fri May 07 16:49:01 2021
</desc>
 <defs/>
 <polygon points="0,0 494,0 494,367 0,367" fill="#ffffff"/>
 <g>
  <polygon points="0,367 494,367 494,0 0,0" shape-rendering="crispEdges" fill="#ffffff"/>
  <clipPath id="cp00494367">
   <polygon points="0,367 494,367 494,0 0,0"/>
  </clipPath>
  <g clip-path="url(#cp00494367)">
   <polygon shape-rendering="crispEdges" points="64.2374,327.478 447.191,327.478 447.191,27.5965 64.2374,27.5965" fill="#ffffff"/>
   <polyline stroke-linecap="butt" points="64.2374,327.478 64.2374,323.65" stroke="#262626" fill="none" stroke-linejoin="miter" stroke-width="0.5"/>
   <polyline stroke-linecap="butt" points="64.2374,27.5965 64.2374,31.4245" stroke="#262626" fill="none" stroke-linejoin="miter" stroke-width="0.5"/>
   <polyline stroke-linecap="butt" points="159.976,327.478 159.976,323.65" stroke="#262626" fill="none" stroke-linejoin="miter" stroke-width="0.5"/>
   <polyline stroke-linecap="butt" points="159.976,27.5965 159.976,31.4245" stroke="#262626" fill="none" stroke-linejoin="miter" stroke-width="0.5"/>
   <polyline stroke-linecap="butt" points="255.714,327.478 255.714,323.65" stroke="#262626" fill="none" stroke-linejoin="miter" stroke-width="0.5"/>
   <polyline stroke-linecap="butt" points="255.714,27.5965 255.714,31.4245" stroke="#262626" fill="none" stroke-linejoin="miter" stroke-width="0.5"/>
   <polyline stroke-linecap="butt" points="351.453,327.478 351.453,323.65" stroke="#262626" fill="none" stroke-linejoin="miter" stroke-width="0.5"/>
   <polyline stroke-linecap="butt" points="351.453,27.5965 351.453,31.4245" stroke="#262626" fill="none" stroke-linejoin="miter" stroke-width="0.5"/>
   <polyline stroke-linecap="butt" points="447.191,327.478 447.191,323.65" stroke="#262626" fill="none" stroke-linejoin="miter" stroke-width="0.5"/>
   <polyline stroke-linecap="butt" points="447.191,27.5965 447.191,31.4245" stroke="#262626" fill="none" stroke-linejoin="miter" stroke-width="0.5"/>
   <text font-size="10" font-style="normal" transform="translate(56.7374,342.975) rotate(-0,7.5,-8)" font-family="FreeSans" font-weight="normal" xml:space="preserve">
    <tspan y="-0" fill="rgb(38,38,38)" x="0 3 9 ">-10</tspan>
   </text>
   <text font-size="10" font-style="normal" transform="translate(155.476,342.975) rotate(-0,4.5,-8)" font-family="FreeSans" font-weight="normal" xml:space="preserve">
    <tspan y="-0" fill="rgb(38,38,38)" x="0 3 ">-5</tspan>
   </text>
   <text font-size="10" font-style="normal" transform="translate(252.714,342.975) rotate(-0,3,-8)" font-family="FreeSans" font-weight="normal" xml:space="preserve">
    <tspan y="-0" fill="rgb(38,38,38)" x="0 ">0</tspan>
   </text>
   <text font-size="10" font-style="normal" transform="translate(348.453,342.975) rotate(-0,3,-8)" font-family="FreeSans" font-weight="normal" xml:space="preserve">
    <tspan y="-0" fill="rgb(38,38,38)" x="0 ">5</tspan>
   </text>
   <text font-size="10" font-style="normal" transform="translate(441.191,342.975) rotate(-0,6,-8)" font-family="FreeSans" font-weight="normal" xml:space="preserve">
    <tspan y="-0" fill="rgb(38,38,38)" x="0 6 ">10</tspan>
   </text>
   <polyline stroke-linecap="butt" points="64.2374,327.478 68.0664,327.478" stroke="#262626" fill="none" stroke-linejoin="miter" stroke-width="0.5"/>
   <polyline stroke-linecap="butt" points="447.191,327.478 443.362,327.478" stroke="#262626" fill="none" stroke-linejoin="miter" stroke-width="0.5"/>
   <polyline stroke-linecap="butt" points="64.2374,267.502 68.0664,267.502" stroke="#262626" fill="none" stroke-linejoin="miter" stroke-width="0.5"/>
   <polyline stroke-linecap="butt" points="447.191,267.502 443.362,267.502" stroke="#262626" fill="none" stroke-linejoin="miter" stroke-width="0.5"/>
   <polyline stroke-linecap="butt" points="64.2374,207.526 68.0664,207.526" stroke="#262626" fill="none" stroke-linejoin="miter" stroke-width="0.5"/>
   <polyline stroke-linecap="butt" points="447.191,207.526 443.362,207.526" stroke="#262626" fill="none" stroke-linejoin="miter" stroke-width="0.5"/>
   <polyline stroke-linecap="butt" points="64.2374,147.549 68.0664,147.549" stroke="#262626" fill="none" stroke-linejoin="miter" stroke-width="0.5"/>
   <polyline stroke-linecap="butt" points="447.191,147.549 443.362,147.549" stroke="#262626" fill="none" stroke-linejoin="miter" stroke-width="0.5"/>
   <polyline stroke-linecap="butt" points="64.2374,87.5728 68.0664,87.5728" stroke="#262626" fill="none" stroke-linejoin="miter" stroke-width="0.5"/>
   <polyline stroke-linecap="butt" points="447.191,87.5728 443.362,87.5728" stroke="#262626" fill="none" stroke-linejoin="miter" stroke-width="0.5"/>
   <polyline stroke-linecap="butt" points="64.2374,27.5965 68.0664,27.5965" stroke="#262626" fill="none" stroke-linejoin="miter" stroke-width="0.5"/>
   <polyline stroke-linecap="butt" points="447.191,27.5965 443.362,27.5965" stroke="#262626" fill="none" stroke-linejoin="miter" stroke-width="0.5"/>
   <text font-size="10" font-style="normal" transform="translate(50.238,331.478) rotate(-0,9,-4)" font-family="FreeSans" font-weight="normal" xml:space="preserve">
    <tspan y="-0" fill="rgb(38,38,38)" x="0 3 ">-1</tspan>
   </text>
   <text font-size="10" font-style="normal" transform="translate(53.238,271.502) rotate(-0,6,-4)" font-family="FreeSans" font-weight="normal" xml:space="preserve">
    <tspan y="-0" fill="rgb(38,38,38)" x="0 ">0</tspan>
   </text>
   <text font-size="10" font-style="normal" transform="translate(53.238,211.526) rotate(-0,6,-4)" font-family="FreeSans" font-weight="normal" xml:space="preserve">
    <tspan y="-0" fill="rgb(38,38,38)" x="0 ">1</tspan>
   </text>
   <text font-size="10" font-style="normal" transform="translate(53.238,151.549) rotate(-0,6,-4)" font-family="FreeSans" font-weight="normal" xml:space="preserve">
    <tspan y="-0" fill="rgb(38,38,38)" x="0 ">2</tspan>
   </text>
   <text font-size="10" font-style="normal" transform="translate(53.238,91.5728) rotate(-0,6,-4)" font-family="FreeSans" font-weight="normal" xml:space="preserve">
    <tspan y="-0" fill="rgb(38,38,38)" x="0 ">3</tspan>
   </text>
   <text font-size="10" font-style="normal" transform="translate(53.238,31.5965) rotate(-0,6,-4)" font-family="FreeSans" font-weight="normal" xml:space="preserve">
    <tspan y="-0" fill="rgb(38,38,38)" x="0 ">4</tspan>
   </text>
   <polyline stroke-linecap="square" points="64.2374,327.478 447.191,327.478" stroke="#262626" fill="none" stroke-linejoin="miter" stroke-dasharray="16,0" stroke-width="0.5"/>
   <polyline stroke-linecap="square" points="64.2374,27.5965 447.191,27.5965" stroke="#262626" fill="none" stroke-linejoin="miter" stroke-dasharray="16,0" stroke-width="0.5"/>
   <polyline stroke-linecap="square" points="64.2374,327.478 64.2374,27.5965" stroke="#262626" fill="none" stroke-linejoin="miter" stroke-dasharray="16,0" stroke-width="0.5"/>
   <polyline stroke-linecap="square" points="447.191,327.478 447.191,27.5965" stroke="#262626" fill="none" stroke-linejoin="miter" stroke-dasharray="16,0" stroke-width="0.5"/>
   <text font-size="11" font-style="normal" transform="translate(250.714,358.975) rotate(-0,5,-11)" font-family="FreeSans" font-weight="normal" xml:space="preserve">
    <tspan y="-2" fill="rgb(38,38,38)" x="0 ">θ</tspan>
    <tspan font-size="7.7" y="-0" fill="rgb(38,38,38)" x="6 ">0</tspan>
   </text>
   <text font-size="11" font-style="normal" transform="translate(40.238,177.537) rotate(-90,5,0)" font-family="FreeSans" font-weight="normal" xml:space="preserve">
    <tspan y="-2" fill="rgb(38,38,38)" x="0 ">θ</tspan>
    <tspan font-size="7.7" y="-0" fill="rgb(38,38,38)" x="6 ">1</tspan>
   </text>
   <polyline stroke-linecap="butt" points="297.304,233.576 296.33,234.332 292.462,235.812 288.594,236.293 284.726,236.324 280.858,236.115 276.989,235.763 273.121,235.318 269.253,234.81 265.385,234.257 261.517,233.672 260.952,233.576 257.648,232.931 253.78,232.169 249.912,231.41 246.044,230.653 245.531,230.547 242.175,229.758 238.307,228.866 234.439,227.996 232.339,227.518 230.571,227.065 226.703,226.072 222.834,225.114 220.288,224.489 218.966,224.125 215.098,223.056 211.23,222.033 209.045,221.459 207.361,220.966 203.493,219.844 199.625,218.772 198.398,218.43 195.757,217.614 191.889,216.454 188.216,215.401 188.02,215.339 184.152,214.089 180.284,212.906 178.513,212.372 176.416,211.669 172.547,210.409 169.12,209.343 168.679,209.19 164.811,207.85 160.943,206.59 160.094,206.314 157.075,205.224 153.206,203.897 151.379,203.285 149.338,202.523 145.47,201.129 142.943,200.256 141.602,199.737 137.734,198.279 134.787,197.227 133.865,196.857 129.997,195.337 126.915,194.197 126.129,193.869 122.261,192.291 119.329,191.168 118.392,190.761 114.524,189.13 112.032,188.139 110.656,187.515 106.788,185.837 105.027,185.11 102.92,184.11 99.0513,182.397 98.3173,182.081 95.1831,180.522 91.9569,179.052 91.3149,178.705 87.4467,176.721 85.9889,176.023 83.5785,174.641 80.4149,172.994 79.7102,172.537 75.842,170.237 75.3519,169.965 71.9738,167.588 70.9411,166.936 68.1056,164.488 67.3461,163.906 65.0383,160.877 65.2604,157.848 68.1056,156.545 71.9738,155.81 75.842,155.621 79.7102,155.724 83.5785,155.999 87.4467,156.386 91.3149,156.848 95.1831,157.365 98.5065,157.848 99.0513,157.941 102.92,158.672 106.788,159.406 110.656,160.141 114.524,160.877 114.527,160.877 118.392,161.775 122.261,162.648 126.129,163.501 127.929,163.906 129.997,164.43 133.865,165.408 137.734,166.352 140.13,166.936 141.602,167.337 145.47,168.393 149.338,169.406 151.483,169.965 153.206,170.465 157.075,171.579 160.943,172.642 162.215,172.994 164.811,173.79 168.679,174.943 172.474,176.023 172.547,176.046 176.416,177.291 180.284,178.468 182.232,179.052 184.152,179.691 188.02,180.948 191.689,182.081 191.889,182.15 195.757,183.488 199.625,184.747 200.75,185.11 203.493,186.094 207.361,187.421 209.518,188.139 211.23,188.775 215.098,190.169 218.006,191.168 218.966,191.538 222.834,192.999 226.21,194.197 226.703,194.394 230.571,195.919 234.128,197.227 234.439,197.356 238.307,198.942 241.758,200.256 242.175,200.436 246.044,202.079 249.096,203.285 249.912,203.653 253.78,205.344 256.14,206.314 257.648,207.026 261.517,208.757 262.887,209.343 265.385,210.58 269.253,212.336 269.333,212.372 273.121,214.344 275.341,215.401 276.989,216.342 280.858,218.355 281.008,218.43 284.726,220.694 286.112,221.459 288.594,223.199 290.644,224.489 292.462,226.055 294.379,227.518 296.33,229.88 296.963,230.547 297.304,233.576" stroke="#440154" fill="none" stroke-linejoin="miter" stroke-width="0.5"/>
   <polyline stroke-linecap="butt" points="64.2374,135.301 68.1056,136.093 70.775,136.644 71.9738,136.911 75.842,137.789 79.7102,138.654 83.5785,139.509 84.3063,139.674 87.4467,140.435 91.3149,141.363 95.1831,142.275 96.9858,142.703 99.0513,143.227 102.92,144.209 106.788,145.169 109.055,145.732 110.656,146.156 114.524,147.182 118.392,148.185 120.624,148.761 122.261,149.212 126.129,150.275 129.997,151.313 131.777,151.79 133.865,152.386 137.734,153.481 141.602,154.548 142.581,154.819 145.47,155.671 149.338,156.792 153.081,157.848 153.206,157.886 157.075,159.061 160.943,160.201 163.264,160.877 164.811,161.357 168.679,162.548 172.547,163.703 173.225,163.906 176.416,164.924 180.284,166.126 182.935,166.936 184.152,167.331 188.02,168.58 191.889,169.79 192.444,169.965 195.757,171.069 199.625,172.322 201.728,172.994 203.493,173.593 207.361,174.89 210.845,176.023 211.23,176.156 215.098,177.497 218.966,178.789 219.755,179.052 222.834,180.144 226.703,181.476 228.485,182.081 230.571,182.835 234.439,184.206 237.053,185.11 238.307,185.573 242.175,186.982 245.457,188.139 246.044,188.36 249.912,189.808 253.697,191.168 253.78,191.2 257.648,192.686 261.517,194.108 261.76,194.197 265.385,195.619 269.253,197.074 269.661,197.227 273.121,198.613 276.989,200.098 277.402,200.256 280.858,201.67 284.726,203.185 284.982,203.285 288.594,204.796 292.398,206.314 292.462,206.342 296.33,207.996 299.631,209.343 300.199,209.593 304.067,211.275 306.694,212.372 307.935,212.933 311.803,214.639 313.585,215.401 315.672,216.37 319.54,218.096 320.302,218.43 323.408,219.911 326.825,221.459 327.276,221.684 331.144,223.566 333.125,224.489 335.013,225.455 338.881,227.345 339.241,227.518 342.749,229.372 345.094,230.547 346.617,231.397 350.486,233.449 350.731,233.576 354.354,235.674 356.054,236.605 358.222,237.952 361.097,239.634 362.09,240.306 365.803,242.663 365.958,242.78 369.827,245.521 370.084,245.692 373.695,248.579 373.886,248.721 377.075,251.751 377.563,252.413 379.461,254.78 380.763,257.809 380.171,260.838 377.563,262.789 375.159,263.867 373.695,264.213 369.827,264.799 365.958,265.103 362.09,265.204 358.222,265.158 354.354,264.999 350.486,264.753 346.617,264.438 342.749,264.067 340.948,263.867 338.881,263.612 335.013,263.085 331.144,262.531 327.276,261.955 323.408,261.36 320.126,260.838 319.54,260.736 315.672,260.024 311.803,259.308 307.935,258.589 304.067,257.868 303.761,257.809 300.199,257.058 296.33,256.247 292.462,255.443 289.277,254.78 288.594,254.626 284.726,253.736 280.858,252.86 276.989,251.996 275.912,251.751 273.121,251.069 269.253,250.132 265.385,249.211 263.334,248.721 261.517,248.257 257.648,247.267 253.78,246.299 251.348,245.692 249.912,245.31 246.044,244.276 242.175,243.267 239.849,242.663 238.307,242.236 234.439,241.166 230.571,240.123 228.756,239.634 226.703,239.045 222.834,237.945 218.966,236.873 218.003,236.605 215.098,235.744 211.23,234.619 207.55,233.576 207.361,233.519 203.493,232.34 199.625,231.196 197.407,230.547 195.757,230.033 191.889,228.839 188.02,227.68 187.481,227.518 184.152,226.452 180.284,225.247 177.809,224.489 176.416,224.034 172.547,222.782 168.679,221.57 168.328,221.459 164.811,220.283 160.943,219.028 159.079,218.43 157.075,217.747 153.206,216.449 149.996,215.401 149.338,215.172 145.47,213.831 141.602,212.538 141.105,212.372 137.734,211.172 133.865,209.84 132.405,209.343 129.997,208.469 126.129,207.099 123.867,206.314 122.261,205.719 118.392,204.311 115.492,203.285 114.524,202.919 110.656,201.473 107.281,200.256 106.788,200.066 102.92,198.582 99.2338,197.227 99.0513,197.155 95.1831,195.636 91.3524,194.197 91.3149,194.182 87.4467,192.629 83.6374,191.168 83.5785,191.144 79.7102,189.557 76.0898,188.139 75.842,188.035 71.9738,186.416 68.7105,185.11 68.1056,184.849 64.2374,183.201" stroke="#440154" fill="none" stroke-linejoin="miter" stroke-width="0.5"/>
   <polyline stroke-linecap="butt" points="64.2374,199.664 65.7732,200.256 68.1056,201.114 71.9738,202.563 73.8755,203.285 75.842,203.999 79.7102,205.424 82.0867,206.314 83.5785,206.849 87.4467,208.249 90.4063,209.343 91.3149,209.665 95.1831,211.04 98.834,212.372 99.0513,212.448 102.92,213.799 106.788,215.186 107.388,215.401 110.656,216.526 114.524,217.886 116.059,218.43 118.392,219.224 122.261,220.556 124.84,221.459 126.129,221.892 129.997,223.198 133.731,224.489 133.865,224.533 137.734,225.812 141.602,227.121 142.768,227.518 145.47,228.399 149.338,229.679 151.922,230.547 153.206,230.961 157.075,232.212 160.943,233.492 161.196,233.576 164.811,234.72 168.679,235.97 170.628,236.605 172.547,237.206 176.416,238.424 180.174,239.634 180.284,239.668 184.152,240.857 188.02,242.07 189.896,242.663 191.889,243.267 195.757,244.449 199.625,245.655 199.744,245.692 203.493,246.807 207.361,247.98 209.784,248.721 211.23,249.146 215.098,250.285 218.966,251.447 219.979,251.751 222.834,252.572 226.703,253.698 230.352,254.78 230.571,254.842 234.439,255.933 238.307,257.044 240.944,257.809 242.175,258.151 246.044,259.225 249.912,260.319 251.741,260.838 253.78,261.392 257.648,262.447 261.517,263.521 262.767,263.867 265.385,264.561 269.253,265.595 273.121,266.645 274.05,266.896 276.989,267.656 280.858,268.665 284.726,269.689 285.623,269.925 288.594,270.673 292.462,271.654 296.33,272.649 297.525,272.954 300.199,273.608 304.067,274.558 307.935,275.52 309.8,275.983 311.803,276.459 315.672,277.373 319.54,278.299 322.505,279.013 323.408,279.22 327.276,280.096 331.144,280.981 335.013,281.875 335.745,282.042 338.881,282.721 342.749,283.56 346.617,284.406 349.653,285.071 350.486,285.244 354.354,286.033 358.222,286.825 362.09,287.62 364.444,288.1 365.958,288.393 369.827,289.125 373.695,289.856 377.563,290.587 380.465,291.129 381.431,291.3 385.299,291.96 389.168,292.614 393.036,293.261 396.904,293.899 398.534,294.158 400.772,294.492 404.641,295.047 408.509,295.585 412.377,296.105 416.245,296.604 420.113,297.079 421.087,297.187 423.982,297.487 427.85,297.851 431.718,298.176 435.586,298.457 439.455,298.687 443.323,298.855 447.191,298.95" stroke="#460c5f" fill="none" stroke-linejoin="miter" stroke-width="0.5"/>
   <polyline stroke-linecap="butt" points="64.2374,118.83 68.1056,119.82 71.9738,120.795 74.781,121.499 75.842,121.777 79.7102,122.797 83.5785,123.8 86.4024,124.528 87.4467,124.809 91.3149,125.855 95.1831,126.884 97.7287,127.557 99.0513,127.922 102.92,128.992 106.788,130.043 108.794,130.586 110.656,131.113 114.524,132.203 118.392,133.273 119.626,133.615 122.261,134.377 126.129,135.485 129.997,136.573 130.25,136.644 133.865,137.713 137.734,138.836 140.654,139.674 141.602,139.957 145.47,141.116 149.338,142.252 150.876,142.703 153.206,143.414 157.075,144.584 160.943,145.731 160.944,145.732 164.811,146.936 168.679,148.115 170.815,148.761 172.547,149.307 176.416,150.519 180.284,151.705 180.558,151.79 184.152,152.944 188.02,154.161 190.13,154.819 191.889,155.391 195.757,156.639 199.586,157.848 199.625,157.861 203.493,159.14 207.361,160.39 208.877,160.877 211.23,161.666 215.098,162.945 218.053,163.906 218.966,164.216 222.834,165.525 226.703,166.803 227.104,166.936 230.571,168.131 234.439,169.436 236.017,169.965 238.307,170.765 242.175,172.097 244.819,172.994 246.044,173.427 249.912,174.787 253.511,176.023 253.78,176.119 257.648,177.506 261.517,178.857 262.075,179.052 265.385,180.257 269.253,181.633 270.522,182.081 273.121,183.04 276.989,184.441 278.861,185.11 280.858,185.857 284.726,187.282 287.091,188.139 288.594,188.709 292.462,190.159 295.211,191.168 296.33,191.598 300.199,193.072 303.222,194.197 304.067,194.527 307.935,196.023 311.123,197.227 311.803,197.495 315.672,199.015 318.914,200.256 319.54,200.507 323.408,202.048 326.594,203.285 327.276,203.563 331.144,205.126 334.162,206.314 335.013,206.665 338.881,208.249 341.619,209.343 342.749,209.817 346.617,211.421 348.964,212.372 350.486,213.021 354.354,214.643 356.196,215.401 358.222,216.279 362.09,217.918 363.315,218.43 365.958,219.594 369.827,221.25 370.321,221.459 373.695,222.97 377.202,224.489 377.563,224.654 381.431,226.409 383.949,227.518 385.299,228.147 389.168,229.915 390.578,230.547 393.036,231.714 396.904,233.492 397.088,233.576 400.772,235.358 403.439,236.605 404.641,237.203 408.509,239.085 409.661,239.634 412.377,241.014 415.741,242.663 416.245,242.928 420.113,244.922 421.652,245.692 423.982,246.943 427.418,248.721 427.85,248.963 431.718,251.076 432.993,251.751 435.586,253.234 438.394,254.78 439.455,255.415 443.323,257.649 443.605,257.809 447.191,260.016" stroke="#460c5f" fill="none" stroke-linejoin="miter" stroke-width="0.5"/>
   <polyline stroke-linecap="butt" points="64.2374,219.036 68.1056,220.408 71.0283,221.459 71.9738,221.79 75.842,223.144 79.6143,224.489 79.7102,224.522 83.5785,225.858 87.4467,227.218 88.2954,227.518 91.3149,228.551 95.1831,229.892 97.0567,230.547 99.0513,231.223 102.92,232.545 105.896,233.576 106.788,233.876 110.656,235.179 114.524,236.504 114.819,236.605 118.392,237.792 122.261,239.098 123.842,239.634 126.129,240.388 129.997,241.673 132.943,242.663 133.865,242.964 137.734,244.229 141.602,245.515 142.136,245.692 145.47,246.768 149.338,248.033 151.43,248.721 153.206,249.29 157.075,250.533 160.804,251.751 160.943,251.795 164.811,253.017 168.679,254.259 170.295,254.78 172.547,255.485 176.416,256.705 179.871,257.809 180.284,257.937 184.152,259.135 188.02,260.351 189.564,260.838 191.889,261.55 195.757,262.743 199.35,263.867 199.625,263.95 203.493,265.121 207.361,266.309 209.265,266.896 211.23,267.485 215.098,268.649 218.966,269.83 219.278,269.925 222.834,270.976 226.703,272.133 229.427,272.954 230.571,273.289 234.439,274.422 238.307,275.57 239.697,275.983 242.175,276.699 246.044,277.822 249.912,278.961 250.089,279.013 253.78,280.062 257.648,281.174 260.636,282.042 261.517,282.29 265.385,283.377 269.253,284.478 271.327,285.071 273.121,285.568 276.989,286.643 280.858,287.731 282.169,288.1 284.726,288.797 288.594,289.858 292.462,290.932 293.174,291.129 296.33,291.975 300.199,293.021 304.067,294.079 304.357,294.158 307.935,295.101 311.803,296.13 315.672,297.171 315.732,297.187 319.54,298.172 323.408,299.183 327.276,300.206 327.317,300.216 331.144,301.188 335.013,302.179 338.881,303.181 339.131,303.245 342.749,304.145 346.617,305.115 350.486,306.095 351.198,306.275 354.354,307.043 358.222,307.99 362.09,308.947 363.541,309.304 365.958,309.88 369.827,310.802 373.695,311.732 376.188,312.333 377.563,312.653 381.431,313.548 385.299,314.451 389.168,315.361 389.173,315.362 393.036,316.227 396.904,317.099 400.772,317.978 402.602,318.391 404.641,318.836 408.509,319.676 412.377,320.52 416.245,321.369 416.481,321.42 420.113,322.177 423.982,322.985 427.85,323.796 430.969,324.449 431.718,324.601 435.586,325.369 439.455,326.139 443.323,326.91 446.186,327.478" stroke="#48186a" fill="none" stroke-linejoin="miter" stroke-width="0.5"/>
   <polyline stroke-linecap="butt" points="64.2374,99.4673 67.3315,100.295 68.1056,100.509 71.9738,101.58 75.842,102.638 78.364,103.324 79.7102,103.702 83.5785,104.787 87.4467,105.859 89.2313,106.353 91.3149,106.947 95.1831,108.046 99.0513,109.131 99.946,109.382 102.92,110.244 106.788,111.354 110.516,112.412 110.656,112.452 114.524,113.589 118.392,114.71 120.929,115.441 122.261,115.836 126.129,116.982 129.997,118.113 131.218,118.47 133.865,119.266 137.734,120.421 141.388,121.499 141.602,121.564 145.47,122.743 149.338,123.906 151.419,124.528 153.206,125.078 157.075,126.265 160.943,127.434 161.35,127.557 164.811,128.637 168.679,129.829 171.155,130.586 172.547,131.025 176.416,132.239 180.284,133.436 180.863,133.615 184.152,134.665 188.02,135.883 190.457,136.644 191.889,137.105 195.757,138.346 199.625,139.567 199.961,139.674 203.493,140.825 207.361,142.067 209.352,142.703 211.23,143.32 215.098,144.584 218.663,145.732 218.966,145.832 222.834,147.117 226.703,148.382 227.866,148.761 230.571,149.669 234.439,150.953 236.984,151.79 238.307,152.238 242.175,153.543 246.022,154.819 246.044,154.826 249.912,156.151 253.78,157.454 254.955,157.848 257.648,158.779 261.517,160.101 263.809,160.877 265.385,161.427 269.253,162.768 272.585,163.906 273.121,164.095 276.989,165.456 280.858,166.792 281.274,166.936 284.726,168.164 288.594,169.518 289.874,169.965 292.462,170.894 296.33,172.267 298.397,172.994 300.199,173.647 304.067,175.037 306.844,176.023 307.935,176.422 311.803,177.831 315.212,179.052 315.672,179.222 319.54,180.648 323.408,182.047 323.501,182.081 327.276,183.49 331.144,184.906 331.704,185.11 335.013,186.357 338.881,187.789 339.831,188.139 342.749,189.249 346.617,190.698 347.882,191.168 350.486,192.169 354.354,193.633 355.855,194.197 358.222,195.116 362.09,196.596 363.752,197.227 365.958,198.091 369.827,199.587 371.572,200.256 373.695,201.096 377.563,202.608 379.314,203.285 381.431,204.131 385.299,205.658 386.979,206.314 389.168,207.198 393.036,208.739 394.566,209.343 396.904,210.298 400.772,211.853 402.075,212.372 404.641,213.431 408.509,215 409.506,215.401 412.377,216.598 416.245,218.181 416.858,218.43 420.113,219.802 423.982,221.397 424.133,221.459 427.85,223.044 431.319,224.489 431.718,224.661 435.586,226.323 438.422,227.518 439.455,227.969 443.323,229.643 445.444,230.547 447.191,231.319" stroke="#48186a" fill="none" stroke-linejoin="miter" stroke-width="0.5"/>
   <polyline stroke-linecap="butt" points="64.2374,243.699 68.1056,245.032 70.0122,245.692 71.9738,246.358 75.842,247.677 78.8772,248.721 79.7102,249.002 83.5785,250.307 87.4467,251.629 87.804,251.751 91.3149,252.924 95.1831,254.231 96.8014,254.78 99.0513,255.527 102.92,256.819 105.856,257.809 106.788,258.116 110.656,259.394 114.524,260.688 114.974,260.838 118.392,261.956 122.261,263.235 124.165,263.867 126.129,264.505 129.997,265.769 133.414,266.896 133.865,267.042 137.734,268.29 141.602,269.553 142.739,269.925 145.47,270.8 149.338,272.047 152.129,272.954 153.206,273.297 157.075,274.529 160.943,275.776 161.588,275.983 164.811,277 168.679,278.23 171.125,279.013 172.547,279.458 176.416,280.673 180.284,281.901 180.728,282.042 184.152,283.105 188.02,284.316 190.415,285.071 191.889,285.525 195.757,286.721 199.625,287.93 200.17,288.1 203.493,289.115 207.361,290.307 210.013,291.129 211.23,291.499 215.098,292.674 218.966,293.862 219.932,294.158 222.834,295.031 226.703,296.201 229.934,297.187 230.571,297.377 234.439,298.531 238.307,299.697 240.028,300.216 242.175,300.851 246.044,301.999 249.912,303.159 250.201,303.245 253.78,304.293 257.648,305.435 260.476,306.275 261.517,306.577 265.385,307.701 269.253,308.836 270.843,309.304 273.121,309.959 276.989,311.076 280.858,312.204 281.302,312.333 284.726,313.307 288.594,314.416 291.869,315.362 292.462,315.53 296.33,316.62 300.199,317.721 302.546,318.391 304.067,318.816 307.935,319.898 311.803,320.989 313.329,321.42 315.672,322.067 319.54,323.139 323.408,324.221 324.226,324.449 327.276,325.282 331.144,326.344 335.013,327.415 335.243,327.478" stroke="#46327e" fill="none" stroke-linejoin="miter" stroke-width="0.5"/>
   <polyline stroke-linecap="butt" points="64.2374,74.8021 68.1056,75.8909 68.7125,76.0622 71.9738,77.0027 75.842,78.1101 79.2963,79.0913 79.7102,79.2115 83.5785,80.3376 87.4467,81.4529 89.7707,82.1205 91.3149,82.5736 95.1831,83.7072 99.0513,84.8297 100.153,85.1496 102.92,85.9702 106.788,87.1106 110.443,88.1786 110.656,88.2421 114.524,89.4005 118.392,90.5472 120.63,91.2078 122.261,91.6997 126.129,92.8639 129.997,94.0163 130.736,94.2369 133.865,95.1902 137.734,96.3596 140.753,97.266 141.602,97.5262 145.47,98.7128 149.338,99.887 150.684,100.295 153.206,101.076 157.075,102.267 160.54,103.324 160.943,103.45 164.811,104.657 168.679,105.852 170.307,106.353 172.547,107.058 176.416,108.269 180.007,109.382 180.284,109.47 184.152,110.697 188.02,111.911 189.62,112.412 191.889,113.136 195.757,114.366 199.17,115.441 199.625,115.587 203.493,116.833 207.361,118.064 208.638,118.47 211.23,119.311 215.098,120.558 218.041,121.499 218.966,121.801 222.834,123.063 226.703,124.311 227.374,124.528 230.571,125.581 234.439,126.844 236.635,127.557 238.307,128.112 242.175,129.389 245.838,130.586 246.044,130.655 249.912,131.948 253.78,133.225 254.964,133.615 257.648,134.519 261.517,135.811 264.03,136.644 265.385,137.103 269.253,138.41 273.039,139.674 273.121,139.702 276.989,141.023 280.858,142.328 281.972,142.703 284.726,143.649 288.594,144.968 290.848,145.732 292.462,146.29 296.33,147.623 299.667,148.761 300.199,148.946 304.067,150.293 307.935,151.622 308.423,151.79 311.803,152.977 315.672,154.32 317.114,154.819 319.54,155.677 323.408,157.033 325.749,157.848 327.276,158.392 331.144,159.762 334.328,160.877 335.013,161.122 338.881,162.506 342.749,163.871 342.85,163.906 346.617,165.266 350.486,166.644 351.306,166.936 354.354,168.043 358.222,169.434 359.706,169.965 362.09,170.837 365.958,172.24 368.051,172.994 369.827,173.648 373.695,175.064 376.34,176.023 377.563,176.476 381.431,177.905 384.574,179.052 385.299,179.323 389.168,180.764 392.751,182.081 393.036,182.188 396.904,183.641 400.772,185.073 400.872,185.11 404.641,186.538 408.509,187.981 408.932,188.139 412.377,189.453 416.245,190.908 416.938,191.168 420.113,192.388 423.982,193.855 424.888,194.197 427.85,195.343 431.718,196.821 432.783,197.227 435.586,198.319 439.455,199.808 440.622,200.256 443.323,201.315 447.191,202.816" stroke="#46327e" fill="none" stroke-linejoin="miter" stroke-width="0.5"/>
   <polyline stroke-linecap="butt" points="64.2374,276.104 68.1056,277.394 71.9738,278.695 72.9175,279.013 75.842,279.982 79.7102,281.273 82.0043,282.042 83.5785,282.561 87.4467,283.841 91.1328,285.071 91.3149,285.131 95.1831,286.4 99.0513,287.68 100.318,288.1 102.92,288.949 106.788,290.218 109.547,291.129 110.656,291.489 114.524,292.748 118.392,294.017 118.823,294.158 122.261,295.268 126.129,296.526 128.156,297.187 129.997,297.779 133.865,299.026 137.53,300.216 137.734,300.281 141.602,301.517 145.47,302.763 146.965,303.245 149.338,304 153.206,305.234 156.445,306.275 157.075,306.474 160.943,307.697 164.811,308.93 165.982,309.304 168.679,310.151 172.547,311.373 175.57,312.333 176.416,312.597 180.284,313.807 184.152,315.027 185.214,315.362 188.02,316.234 191.889,317.442 194.912,318.391 195.757,318.652 199.625,319.848 203.493,321.054 204.668,321.42 207.361,322.247 211.23,323.44 214.479,324.449 215.098,324.638 218.966,325.82 222.834,327.01 224.353,327.478" stroke="#365b8c" fill="none" stroke-linejoin="miter" stroke-width="0.5"/>
   <polyline stroke-linecap="butt" points="64.2374,42.3986 65.421,42.742 68.1056,43.5332 71.9738,44.6687 75.7557,45.7711 75.842,45.7967 79.7102,46.9453 83.5785,48.0855 86.0111,48.8002 87.4467,49.2286 91.3149,50.3817 95.1831,51.5265 96.2061,51.8293 99.0513,52.6848 102.92,53.8422 106.337,54.8585 106.788,54.9947 110.656,56.1648 114.524,57.3263 116.398,57.8876 118.392,58.4945 122.261,59.6684 126.129,60.8336 126.404,60.9167 129.997,62.0179 133.865,63.1952 136.341,63.9458 137.734,64.3746 141.602,65.5642 145.47,66.7448 146.223,66.9749 149.338,67.9408 153.206,69.1334 156.044,70.004 157.075,70.325 160.943,71.5296 164.811,72.7249 165.809,73.0331 168.679,73.9337 172.547,75.1407 175.517,76.0622 176.416,76.3456 180.284,77.5645 184.152,78.7738 185.168,79.0913 188.02,79.9964 191.889,81.2173 194.766,82.1205 195.757,82.4364 199.625,83.6689 203.493,84.8915 204.31,85.1496 207.361,86.129 211.23,87.3629 213.799,88.1786 215.098,88.5975 218.966,89.8428 222.834,91.078 223.241,91.2078 226.703,92.3314 230.571,93.5777 232.624,94.2369 234.439,94.8287 238.307,96.0862 241.965,97.266 242.175,97.3349 246.044,98.6036 249.912,99.8615 251.247,100.295 253.78,101.13 257.648,102.399 260.485,103.324 261.517,103.666 265.385,104.946 269.253,106.214 269.676,106.353 273.121,107.502 276.989,108.781 278.813,109.382 280.858,110.067 284.726,111.357 287.908,112.412 288.594,112.642 292.462,113.943 296.33,115.233 296.955,115.441 300.199,116.539 304.067,117.839 305.951,118.47 307.935,119.144 311.803,120.455 314.907,121.499 315.672,121.76 319.54,123.081 323.408,124.39 323.816,124.528 327.276,125.718 331.144,127.037 332.675,127.557 335.013,128.364 338.881,129.694 341.493,130.586 342.749,131.022 346.617,132.361 350.271,133.615 350.486,133.69 354.354,135.04 358.222,136.377 358.998,136.644 362.09,137.729 365.958,139.076 367.681,139.674 369.827,140.43 373.695,141.786 376.324,142.703 377.563,143.141 381.431,144.508 384.926,145.732 385.299,145.865 389.168,147.241 393.036,148.604 393.482,148.761 396.904,149.985 400.772,151.358 401.993,151.79 404.641,152.742 408.509,154.124 410.464,154.819 412.377,155.51 416.245,156.902 418.894,157.848 420.113,158.291 423.982,159.692 427.283,160.877 427.85,161.084 431.718,162.494 435.586,163.89 435.632,163.906 439.455,165.309 443.323,166.714 443.933,166.936 447.191,168.137" stroke="#365b8c" fill="none" stroke-linejoin="miter" stroke-width="0.5"/>
   <polyline stroke-linecap="butt" points="64.2374,319.272 68.1056,320.548 70.741,321.42 71.9738,321.824 75.842,323.091 79.7102,324.367 79.9603,324.449 83.5785,325.628 87.4467,326.895 89.2215,327.478" stroke="#1e998a" fill="none" stroke-linejoin="miter" stroke-width="0.5"/>
   <polyline stroke-linecap="butt" points="447.191,123.434 443.323,122.073 441.693,121.499 439.455,120.719 435.586,119.365 433.037,118.47 431.718,118.012 427.85,116.666 424.351,115.441 423.982,115.313 420.113,113.974 416.245,112.626 415.63,112.412 412.377,111.29 408.509,109.95 406.876,109.382 404.641,108.615 400.772,107.282 398.091,106.353 396.904,105.947 393.036,104.621 389.276,103.324 389.168,103.287 385.299,101.969 381.431,100.641 380.423,100.295 377.563,99.3238 373.695,98.004 371.539,97.266 369.827,96.6865 365.958,95.3743 362.624,94.2369 362.09,94.0567 358.222,92.7521 354.354,91.4388 353.674,91.2078 350.486,90.1373 346.617,88.8317 344.688,88.1786 342.749,87.5299 338.881,86.232 335.672,85.1496 335.013,84.9297 331.144,83.6395 327.276,82.3409 326.62,82.1205 323.408,81.0542 319.54,79.7635 317.531,79.0913 315.672,78.4761 311.803,77.1931 308.412,76.0622 307.935,75.9049 304.067,74.6298 300.199,73.3466 299.254,73.0331 296.33,72.0735 292.462,70.7982 290.062,70.004 288.594,69.524 284.726,68.2567 280.858,66.9814 280.838,66.9749 276.989,65.7219 273.121,64.4547 271.57,63.9458 269.253,63.1938 265.385,61.9348 262.272,60.9167 261.517,60.6724 257.648,59.4214 253.78,58.1627 252.935,57.8876 249.912,56.9146 246.044,55.6641 243.56,54.8585 242.175,54.4143 238.307,53.172 234.439,51.9221 234.152,51.8293 230.571,50.6863 226.703,49.4448 224.699,48.8002 222.834,48.2069 218.966,46.9737 215.216,45.7711 215.098,45.7338 211.23,44.5089 207.361,43.2767 205.686,42.742 203.493,42.0502 199.625,40.8265 196.123,39.7129 195.757,39.5977 191.889,38.3824 188.02,37.16 186.516,36.6838 184.152,35.9443 180.284,34.7305 176.873,33.6547 176.416,33.5121 172.547,32.3069 168.679,31.0946 167.185,30.6256 164.811,29.8892 160.943,28.6856 157.46,27.5965" stroke="#1e998a" fill="none" stroke-linejoin="miter" stroke-width="0.5"/>
   <polyline stroke-linecap="butt" points="447.191,64.3953 445.878,63.9458 443.323,63.0782 439.455,61.761 436.982,60.9167 435.586,60.4439 431.718,59.1322 428.064,57.8876 427.85,57.8151 423.982,56.509 420.113,55.1965 419.118,54.8585 416.245,53.8913 412.377,52.5844 410.148,51.8293 408.509,51.2789 404.641,49.9777 401.155,48.8002 400.772,48.672 396.904,47.3765 393.036,46.0746 392.135,45.7711 389.168,44.7805 385.299,43.4844 383.089,42.742 381.431,42.1899 377.563,40.8995 374.021,39.7129 373.695,39.6045 369.827,38.3199 365.958,37.0291 364.924,36.6838 362.09,35.7454 358.222,34.4605 355.803,33.6547 354.354,33.1761 350.486,31.897 346.659,30.6256 346.617,30.612 342.749,29.3387 338.881,28.0594 337.483,27.5965" stroke="#fde724" fill="none" stroke-linejoin="miter" stroke-width="0.5"/>
   <polyline stroke-linecap="square" points="181.203,192.548 191.203,202.548" stroke="#ff0000" fill="none" stroke-linejoin="miter" stroke-width="2"/>
   <polyline stroke-linecap="square" points="181.203,202.548 191.203,192.548" stroke="#ff0000" fill="none" stroke-linejoin="miter" stroke-width="2"/>
  </g>
 </g>
</svg>
