<?xml version='1.0' encoding='UTF-8' standalone='no'?>
<svg width="769pt" xmlns="http://www.w3.org/2000/svg" viewBox="0 0 769 490" xmlns:xlink="http://www.w3.org/1999/xlink" height="490pt">
 <title>gl2ps_renderer figure</title>
 <desc>
Creator: GL2PS 1.4.2, (C) 1999-2020 C. Geuzaine
For: Octave
CreationDate: Fri May 07 16:30:27 2021
</desc>
 <defs/>
 <polygon fill="#ffffff" points="0,0 769,0 769,490 0,490"/>
 <g>
  <polygon fill="#ffffff" shape-rendering="crispEdges" points="0,490 769,490 769,0 0,0"/>
  <clipPath id="cp00769490">
   <polygon points="0,490 769,490 769,0 0,0"/>
  </clipPath>
  <g clip-path="url(#cp00769490)">
   <polygon fill="#ffffff" shape-rendering="crispEdges" points="100.027,436.638 696.34,436.638 696.34,36.7953 100.027,36.7953"/>
   <polyline fill="none" stroke-width="0.5" stroke-linecap="butt" stroke-linejoin="miter" stroke="#262626" points="100.027,436.638 100.027,430.677"/>
   <polyline fill="none" stroke-width="0.5" stroke-linecap="butt" stroke-linejoin="miter" stroke="#262626" points="100.027,36.7953 100.027,42.7561"/>
   <polyline fill="none" stroke-width="0.5" stroke-linecap="butt" stroke-linejoin="miter" stroke="#262626" points="249.105,436.638 249.105,430.677"/>
   <polyline fill="none" stroke-width="0.5" stroke-linecap="butt" stroke-linejoin="miter" stroke="#262626" points="249.105,36.7953 249.105,42.7561"/>
   <polyline fill="none" stroke-width="0.5" stroke-linecap="butt" stroke-linejoin="miter" stroke="#262626" points="398.184,436.638 398.184,430.677"/>
   <polyline fill="none" stroke-width="0.5" stroke-linecap="butt" stroke-linejoin="miter" stroke="#262626" points="398.184,36.7953 398.184,42.7561"/>
   <polyline fill="none" stroke-width="0.5" stroke-linecap="butt" stroke-linejoin="miter" stroke="#262626" points="547.262,436.638 547.262,430.677"/>
   <polyline fill="none" stroke-width="0.5" stroke-linecap="butt" stroke-linejoin="miter" stroke="#262626" points="547.262,36.7953 547.262,42.7561"/>
   <polyline fill="none" stroke-width="0.5" stroke-linecap="butt" stroke-linejoin="miter" stroke="#262626" points="696.34,436.638 696.34,430.677"/>
   <polyline fill="none" stroke-width="0.5" stroke-linecap="butt" stroke-linejoin="miter" stroke="#262626" points="696.34,36.7953 696.34,42.7561"/>
   <text font-weight="normal" font-family="FreeSans" xml:space="preserve" font-style="normal" transform="translate(97.0268,452.135) rotate(-0,3,-8)" font-size="10">
    <tspan fill="rgb(38,38,38)" x="0 " y="-0">5</tspan>
   </text>
   <text font-weight="normal" font-family="FreeSans" xml:space="preserve" font-style="normal" transform="translate(243.105,452.135) rotate(-0,6,-8)" font-size="10">
    <tspan fill="rgb(38,38,38)" x="0 6 " y="-0">10</tspan>
   </text>
   <text font-weight="normal" font-family="FreeSans" xml:space="preserve" font-style="normal" transform="translate(392.184,452.135) rotate(-0,6,-8)" font-size="10">
    <tspan fill="rgb(38,38,38)" x="0 6 " y="-0">15</tspan>
   </text>
   <text font-weight="normal" font-family="FreeSans" xml:space="preserve" font-style="normal" transform="translate(541.262,452.135) rotate(-0,6,-8)" font-size="10">
    <tspan fill="rgb(38,38,38)" x="0 6 " y="-0">20</tspan>
   </text>
   <text font-weight="normal" font-family="FreeSans" xml:space="preserve" font-style="normal" transform="translate(690.34,452.135) rotate(-0,6,-8)" font-size="10">
    <tspan fill="rgb(38,38,38)" x="0 6 " y="-0">25</tspan>
   </text>
   <polyline fill="none" stroke-width="0.5" stroke-linecap="butt" stroke-linejoin="miter" stroke="#262626" points="100.027,436.638 105.993,436.638"/>
   <polyline fill="none" stroke-width="0.5" stroke-linecap="butt" stroke-linejoin="miter" stroke="#262626" points="696.34,436.638 690.374,436.638"/>
   <polyline fill="none" stroke-width="0.5" stroke-linecap="butt" stroke-linejoin="miter" stroke="#262626" points="100.027,369.997 105.993,369.997"/>
   <polyline fill="none" stroke-width="0.5" stroke-linecap="butt" stroke-linejoin="miter" stroke="#262626" points="696.34,369.997 690.374,369.997"/>
   <polyline fill="none" stroke-width="0.5" stroke-linecap="butt" stroke-linejoin="miter" stroke="#262626" points="100.027,303.357 105.993,303.357"/>
   <polyline fill="none" stroke-width="0.5" stroke-linecap="butt" stroke-linejoin="miter" stroke="#262626" points="696.34,303.357 690.374,303.357"/>
   <polyline fill="none" stroke-width="0.5" stroke-linecap="butt" stroke-linejoin="miter" stroke="#262626" points="100.027,236.717 105.993,236.717"/>
   <polyline fill="none" stroke-width="0.5" stroke-linecap="butt" stroke-linejoin="miter" stroke="#262626" points="696.34,236.717 690.374,236.717"/>
   <polyline fill="none" stroke-width="0.5" stroke-linecap="butt" stroke-linejoin="miter" stroke="#262626" points="100.027,170.076 105.993,170.076"/>
   <polyline fill="none" stroke-width="0.5" stroke-linecap="butt" stroke-linejoin="miter" stroke="#262626" points="696.34,170.076 690.374,170.076"/>
   <polyline fill="none" stroke-width="0.5" stroke-linecap="butt" stroke-linejoin="miter" stroke="#262626" points="100.027,103.436 105.993,103.436"/>
   <polyline fill="none" stroke-width="0.5" stroke-linecap="butt" stroke-linejoin="miter" stroke="#262626" points="696.34,103.436 690.374,103.436"/>
   <polyline fill="none" stroke-width="0.5" stroke-linecap="butt" stroke-linejoin="miter" stroke="#262626" points="100.027,36.7953 105.993,36.7953"/>
   <polyline fill="none" stroke-width="0.5" stroke-linecap="butt" stroke-linejoin="miter" stroke="#262626" points="696.34,36.7953 690.374,36.7953"/>
   <text font-weight="normal" font-family="FreeSans" xml:space="preserve" font-style="normal" transform="translate(86.0241,440.638) rotate(-0,9,-4)" font-size="10">
    <tspan fill="rgb(38,38,38)" x="0 3 " y="-0">-5</tspan>
   </text>
   <text font-weight="normal" font-family="FreeSans" xml:space="preserve" font-style="normal" transform="translate(89.0241,373.997) rotate(-0,6,-4)" font-size="10">
    <tspan fill="rgb(38,38,38)" x="0 " y="-0">0</tspan>
   </text>
   <text font-weight="normal" font-family="FreeSans" xml:space="preserve" font-style="normal" transform="translate(89.0241,307.357) rotate(-0,6,-4)" font-size="10">
    <tspan fill="rgb(38,38,38)" x="0 " y="-0">5</tspan>
   </text>
   <text font-weight="normal" font-family="FreeSans" xml:space="preserve" font-style="normal" transform="translate(83.0241,240.717) rotate(-0,12,-4)" font-size="10">
    <tspan fill="rgb(38,38,38)" x="0 6 " y="-0">10</tspan>
   </text>
   <text font-weight="normal" font-family="FreeSans" xml:space="preserve" font-style="normal" transform="translate(83.0241,174.076) rotate(-0,12,-4)" font-size="10">
    <tspan fill="rgb(38,38,38)" x="0 6 " y="-0">15</tspan>
   </text>
   <text font-weight="normal" font-family="FreeSans" xml:space="preserve" font-style="normal" transform="translate(83.0241,107.436) rotate(-0,12,-4)" font-size="10">
    <tspan fill="rgb(38,38,38)" x="0 6 " y="-0">20</tspan>
   </text>
   <text font-weight="normal" font-family="FreeSans" xml:space="preserve" font-style="normal" transform="translate(83.0241,40.7953) rotate(-0,12,-4)" font-size="10">
    <tspan fill="rgb(38,38,38)" x="0 6 " y="-0">25</tspan>
   </text>
   <polyline fill="none" stroke-dasharray="16,0" stroke-width="0.5" stroke-linecap="square" stroke-linejoin="miter" stroke="#262626" points="100.027,436.638 696.34,436.638"/>
   <polyline fill="none" stroke-dasharray="16,0" stroke-width="0.5" stroke-linecap="square" stroke-linejoin="miter" stroke="#262626" points="100.027,36.7953 696.34,36.7953"/>
   <polyline fill="none" stroke-dasharray="16,0" stroke-width="0.5" stroke-linecap="square" stroke-linejoin="miter" stroke="#262626" points="100.027,436.638 100.027,36.7953"/>
   <polyline fill="none" stroke-dasharray="16,0" stroke-width="0.5" stroke-linecap="square" stroke-linejoin="miter" stroke="#262626" points="696.34,436.638 696.34,36.7953"/>
   <text font-weight="normal" font-family="FreeSans" xml:space="preserve" font-style="normal" transform="translate(330.684,469.135) rotate(-0,67.5,-12)" font-size="11">
    <tspan fill="rgb(38,38,38)" x="0 7 13 19 25 27 33 36 38 44 50 53 59 62 65 73 75 78 83 86 88 94 97 103 109 112 118 124 130 " y="-3">Population of City in 10,000s</tspan>
   </text>
   <text font-weight="normal" font-family="FreeSans" xml:space="preserve" font-style="normal" transform="translate(36.5241,236.717) rotate(-90,41.5,0)" font-size="11">
    <tspan fill="rgb(38,38,38)" x="0 7 11 17 20 22 25 28 30 36 39 45 51 57 60 66 72 78 " y="-2">Profit in $10,000s</tspan>
   </text>
   <polyline fill="none" stroke-width="0.5" stroke-linecap="square" stroke-linejoin="miter" stroke="#ff0000" points="128.125,130.53 138.125,140.53"/>
   <polyline fill="none" stroke-width="0.5" stroke-linecap="square" stroke-linejoin="miter" stroke="#ff0000" points="128.125,140.53 138.125,130.53"/>
   <polyline fill="none" stroke-width="0.5" stroke-linecap="square" stroke-linejoin="miter" stroke="#ff0000" points="110.761,243.309 120.761,253.309"/>
   <polyline fill="none" stroke-width="0.5" stroke-linecap="square" stroke-linejoin="miter" stroke="#ff0000" points="110.761,253.309 120.761,243.309"/>
   <polyline fill="none" stroke-width="0.5" stroke-linecap="square" stroke-linejoin="miter" stroke="#ff0000" points="199.936,182.909 209.936,192.909"/>
   <polyline fill="none" stroke-width="0.5" stroke-linecap="square" stroke-linejoin="miter" stroke="#ff0000" points="199.936,192.909 209.936,182.909"/>
   <polyline fill="none" stroke-width="0.5" stroke-linecap="square" stroke-linejoin="miter" stroke="#ff0000" points="154.754,207.006 164.754,217.006"/>
   <polyline fill="none" stroke-width="0.5" stroke-linecap="square" stroke-linejoin="miter" stroke="#ff0000" points="154.754,217.006 164.754,207.006"/>
   <polyline fill="none" stroke-width="0.5" stroke-linecap="square" stroke-linejoin="miter" stroke="#ff0000" points="120.662,274.056 130.662,284.056"/>
   <polyline fill="none" stroke-width="0.5" stroke-linecap="square" stroke-linejoin="miter" stroke="#ff0000" points="120.662,284.056 130.662,274.056"/>
   <polyline fill="none" stroke-width="0.5" stroke-linecap="square" stroke-linejoin="miter" stroke="#ff0000" points="195.89,206.58 205.89,216.58"/>
   <polyline fill="none" stroke-width="0.5" stroke-linecap="square" stroke-linejoin="miter" stroke="#ff0000" points="195.89,216.58 205.89,206.58"/>
   <polyline fill="none" stroke-width="0.5" stroke-linecap="square" stroke-linejoin="miter" stroke="#ff0000" points="168.862,307.043 178.862,317.043"/>
   <polyline fill="none" stroke-width="0.5" stroke-linecap="square" stroke-linejoin="miter" stroke="#ff0000" points="168.862,317.043 178.862,307.043"/>
   <polyline fill="none" stroke-width="0.5" stroke-linecap="square" stroke-linejoin="miter" stroke="#ff0000" points="201.71,205.06 211.71,215.06"/>
   <polyline fill="none" stroke-width="0.5" stroke-linecap="square" stroke-linejoin="miter" stroke="#ff0000" points="201.71,215.06 211.71,205.06"/>
   <polyline fill="none" stroke-width="0.5" stroke-linecap="square" stroke-linejoin="miter" stroke="#ff0000" points="139.339,277.049 149.339,287.049"/>
   <polyline fill="none" stroke-width="0.5" stroke-linecap="square" stroke-linejoin="miter" stroke="#ff0000" points="139.339,287.049 149.339,277.049"/>
   <polyline fill="none" stroke-width="0.5" stroke-linecap="square" stroke-linejoin="miter" stroke="#ff0000" points="96.6547,314.129 106.655,324.129"/>
   <polyline fill="none" stroke-width="0.5" stroke-linecap="square" stroke-linejoin="miter" stroke="#ff0000" points="96.6547,324.129 106.655,314.129"/>
   <polyline fill="none" stroke-width="0.5" stroke-linecap="square" stroke-linejoin="miter" stroke="#ff0000" points="116.217,321.652 126.217,331.652"/>
   <polyline fill="none" stroke-width="0.5" stroke-linecap="square" stroke-linejoin="miter" stroke="#ff0000" points="116.217,331.652 126.217,321.652"/>
   <polyline fill="none" stroke-width="0.5" stroke-linecap="square" stroke-linejoin="miter" stroke="#ff0000" points="368.258,158.345 378.258,168.345"/>
   <polyline fill="none" stroke-width="0.5" stroke-linecap="square" stroke-linejoin="miter" stroke="#ff0000" points="368.258,168.345 378.258,158.345"/>
   <polyline fill="none" stroke-width="0.5" stroke-linecap="square" stroke-linejoin="miter" stroke="#ff0000" points="116.911,322.946 126.911,332.946"/>
   <polyline fill="none" stroke-width="0.5" stroke-linecap="square" stroke-linejoin="miter" stroke="#ff0000" points="116.911,332.946 126.911,322.946"/>
   <polyline fill="none" stroke-width="0.5" stroke-linecap="square" stroke-linejoin="miter" stroke="#ff0000" points="196.651,268.691 206.651,278.691"/>
   <polyline fill="none" stroke-width="0.5" stroke-linecap="square" stroke-linejoin="miter" stroke="#ff0000" points="196.651,278.691 206.651,268.691"/>
   <polyline fill="none" stroke-width="0.5" stroke-linecap="square" stroke-linejoin="miter" stroke="#ff0000" points="114.13,355.452 124.13,365.452"/>
   <polyline fill="none" stroke-width="0.5" stroke-linecap="square" stroke-linejoin="miter" stroke="#ff0000" points="114.13,365.452 124.13,355.452"/>
   <polyline fill="none" stroke-width="0.5" stroke-linecap="square" stroke-linejoin="miter" stroke="#ff0000" points="106.339,318.177 116.339,328.177"/>
   <polyline fill="none" stroke-width="0.5" stroke-linecap="square" stroke-linejoin="miter" stroke="#ff0000" points="106.339,328.177 116.339,318.177"/>
   <polyline fill="none" stroke-width="0.5" stroke-linecap="square" stroke-linejoin="miter" stroke="#ff0000" points="135.737,294.295 145.737,304.295"/>
   <polyline fill="none" stroke-width="0.5" stroke-linecap="square" stroke-linejoin="miter" stroke="#ff0000" points="135.737,304.295 145.737,294.295"/>
   <polyline fill="none" stroke-width="0.5" stroke-linecap="square" stroke-linejoin="miter" stroke="#ff0000" points="98.9058,357.523 108.906,367.523"/>
   <polyline fill="none" stroke-width="0.5" stroke-linecap="square" stroke-linejoin="miter" stroke="#ff0000" points="98.9058,367.523 108.906,357.523"/>
   <polyline fill="none" stroke-width="0.5" stroke-linecap="square" stroke-linejoin="miter" stroke="#ff0000" points="137.651,316.326 147.651,326.326"/>
   <polyline fill="none" stroke-width="0.5" stroke-linecap="square" stroke-linejoin="miter" stroke="#ff0000" points="137.651,326.326 147.651,316.326"/>
   <polyline fill="none" stroke-width="0.5" stroke-linecap="square" stroke-linejoin="miter" stroke="#ff0000" points="156.769,293.168 166.769,303.168"/>
   <polyline fill="none" stroke-width="0.5" stroke-linecap="square" stroke-linejoin="miter" stroke="#ff0000" points="156.769,303.168 166.769,293.168"/>
   <polyline fill="none" stroke-width="0.5" stroke-linecap="square" stroke-linejoin="miter" stroke="#ff0000" points="130.481,323.166 140.481,333.166"/>
   <polyline fill="none" stroke-width="0.5" stroke-linecap="square" stroke-linejoin="miter" stroke="#ff0000" points="130.481,333.166 140.481,323.166"/>
   <polyline fill="none" stroke-width="0.5" stroke-linecap="square" stroke-linejoin="miter" stroke="#ff0000" points="550.312,74.885 560.312,84.885"/>
   <polyline fill="none" stroke-width="0.5" stroke-linecap="square" stroke-linejoin="miter" stroke="#ff0000" points="550.312,84.885 560.312,74.885"/>
   <polyline fill="none" stroke-width="0.5" stroke-linecap="square" stroke-linejoin="miter" stroke="#ff0000" points="109.639,308.18 119.639,318.18"/>
   <polyline fill="none" stroke-width="0.5" stroke-linecap="square" stroke-linejoin="miter" stroke="#ff0000" points="109.639,318.18 119.639,308.18"/>
   <polyline fill="none" stroke-width="0.5" stroke-linecap="square" stroke-linejoin="miter" stroke="#ff0000" points="134.565,295.858 144.565,305.858"/>
   <polyline fill="none" stroke-width="0.5" stroke-linecap="square" stroke-linejoin="miter" stroke="#ff0000" points="134.565,305.858 144.565,295.858"/>
   <polyline fill="none" stroke-width="0.5" stroke-linecap="square" stroke-linejoin="miter" stroke="#ff0000" points="111.87,323.913 121.87,333.913"/>
   <polyline fill="none" stroke-width="0.5" stroke-linecap="square" stroke-linejoin="miter" stroke="#ff0000" points="111.87,333.913 121.87,323.913"/>
   <polyline fill="none" stroke-width="0.5" stroke-linecap="square" stroke-linejoin="miter" stroke="#ff0000" points="510.806,63.2762 520.806,73.2762"/>
   <polyline fill="none" stroke-width="0.5" stroke-linecap="square" stroke-linejoin="miter" stroke="#ff0000" points="510.806,73.2762 520.806,63.2762"/>
   <polyline fill="none" stroke-width="0.5" stroke-linecap="square" stroke-linejoin="miter" stroke="#ff0000" points="328.424,185.055 338.424,195.055"/>
   <polyline fill="none" stroke-width="0.5" stroke-linecap="square" stroke-linejoin="miter" stroke="#ff0000" points="328.424,195.055 338.424,185.055"/>
   <polyline fill="none" stroke-width="0.5" stroke-linecap="square" stroke-linejoin="miter" stroke="#ff0000" points="272.639,271.078 282.639,281.078"/>
   <polyline fill="none" stroke-width="0.5" stroke-linecap="square" stroke-linejoin="miter" stroke="#ff0000" points="272.639,281.078 282.639,271.078"/>
   <polyline fill="none" stroke-width="0.5" stroke-linecap="square" stroke-linejoin="miter" stroke="#ff0000" points="338.8,169.181 348.8,179.181"/>
   <polyline fill="none" stroke-width="0.5" stroke-linecap="square" stroke-linejoin="miter" stroke="#ff0000" points="338.8,179.181 348.8,169.181"/>
   <polyline fill="none" stroke-width="0.5" stroke-linecap="square" stroke-linejoin="miter" stroke="#ff0000" points="607.946,43.1642 617.946,53.1642"/>
   <polyline fill="none" stroke-width="0.5" stroke-linecap="square" stroke-linejoin="miter" stroke="#ff0000" points="607.946,53.1642 617.946,43.1642"/>
   <polyline fill="none" stroke-width="0.5" stroke-linecap="square" stroke-linejoin="miter" stroke="#ff0000" points="102.552,381.258 112.552,391.258"/>
   <polyline fill="none" stroke-width="0.5" stroke-linecap="square" stroke-linejoin="miter" stroke="#ff0000" points="102.552,391.258 112.552,381.258"/>
   <polyline fill="none" stroke-width="0.5" stroke-linecap="square" stroke-linejoin="miter" stroke="#ff0000" points="142.416,285.074 152.416,295.074"/>
   <polyline fill="none" stroke-width="0.5" stroke-linecap="square" stroke-linejoin="miter" stroke="#ff0000" points="142.416,295.074 152.416,285.074"/>
   <polyline fill="none" stroke-width="0.5" stroke-linecap="square" stroke-linejoin="miter" stroke="#ff0000" points="221.69,203.274 231.69,213.274"/>
   <polyline fill="none" stroke-width="0.5" stroke-linecap="square" stroke-linejoin="miter" stroke="#ff0000" points="221.69,213.274 231.69,203.274"/>
   <polyline fill="none" stroke-width="0.5" stroke-linecap="square" stroke-linejoin="miter" stroke="#ff0000" points="121.616,340.347 131.616,350.347"/>
   <polyline fill="none" stroke-width="0.5" stroke-linecap="square" stroke-linejoin="miter" stroke="#ff0000" points="121.616,350.347 131.616,340.347"/>
   <polyline fill="none" stroke-width="0.5" stroke-linecap="square" stroke-linejoin="miter" stroke="#ff0000" points="190.768,277.797 200.768,287.797"/>
   <polyline fill="none" stroke-width="0.5" stroke-linecap="square" stroke-linejoin="miter" stroke="#ff0000" points="190.768,287.797 200.768,277.797"/>
   <polyline fill="none" stroke-width="0.5" stroke-linecap="square" stroke-linejoin="miter" stroke="#ff0000" points="182.488,304.191 192.488,314.191"/>
   <polyline fill="none" stroke-width="0.5" stroke-linecap="square" stroke-linejoin="miter" stroke="#ff0000" points="182.488,314.191 192.488,304.191"/>
   <polyline fill="none" stroke-width="0.5" stroke-linecap="square" stroke-linejoin="miter" stroke="#ff0000" points="187.333,310.134 197.333,320.134"/>
   <polyline fill="none" stroke-width="0.5" stroke-linecap="square" stroke-linejoin="miter" stroke="#ff0000" points="187.333,320.134 197.333,310.134"/>
   <polyline fill="none" stroke-width="0.5" stroke-linecap="square" stroke-linejoin="miter" stroke="#ff0000" points="113.104,319.778 123.104,329.778"/>
   <polyline fill="none" stroke-width="0.5" stroke-linecap="square" stroke-linejoin="miter" stroke="#ff0000" points="113.104,329.778 123.104,319.778"/>
   <polyline fill="none" stroke-width="0.5" stroke-linecap="square" stroke-linejoin="miter" stroke="#ff0000" points="328.662,230.157 338.662,240.157"/>
   <polyline fill="none" stroke-width="0.5" stroke-linecap="square" stroke-linejoin="miter" stroke="#ff0000" points="328.662,240.157 338.662,230.157"/>
   <polyline fill="none" stroke-width="0.5" stroke-linecap="square" stroke-linejoin="miter" stroke="#ff0000" points="135.379,291.728 145.379,301.728"/>
   <polyline fill="none" stroke-width="0.5" stroke-linecap="square" stroke-linejoin="miter" stroke="#ff0000" points="135.379,301.728 145.379,291.728"/>
   <polyline fill="none" stroke-width="0.5" stroke-linecap="square" stroke-linejoin="miter" stroke="#ff0000" points="107.159,357.579 117.159,367.579"/>
   <polyline fill="none" stroke-width="0.5" stroke-linecap="square" stroke-linejoin="miter" stroke="#ff0000" points="107.159,367.579 117.159,357.579"/>
   <polyline fill="none" stroke-width="0.5" stroke-linecap="square" stroke-linejoin="miter" stroke="#ff0000" points="151.155,312.865 161.155,322.865"/>
   <polyline fill="none" stroke-width="0.5" stroke-linecap="square" stroke-linejoin="miter" stroke="#ff0000" points="151.155,322.865 161.155,312.865"/>
   <polyline fill="none" stroke-width="0.5" stroke-linecap="square" stroke-linejoin="miter" stroke="#ff0000" points="295.03,293.22 305.03,303.22"/>
   <polyline fill="none" stroke-width="0.5" stroke-linecap="square" stroke-linejoin="miter" stroke="#ff0000" points="295.03,303.22 305.03,293.22"/>
   <polyline fill="none" stroke-width="0.5" stroke-linecap="square" stroke-linejoin="miter" stroke="#ff0000" points="118.095,332.469 128.095,342.469"/>
   <polyline fill="none" stroke-width="0.5" stroke-linecap="square" stroke-linejoin="miter" stroke="#ff0000" points="118.095,342.469 128.095,332.469"/>
   <polyline fill="none" stroke-width="0.5" stroke-linecap="square" stroke-linejoin="miter" stroke="#ff0000" points="179.247,275.275 189.247,285.275"/>
   <polyline fill="none" stroke-width="0.5" stroke-linecap="square" stroke-linejoin="miter" stroke="#ff0000" points="179.247,285.275 189.247,275.275"/>
   <polyline fill="none" stroke-width="0.5" stroke-linecap="square" stroke-linejoin="miter" stroke="#ff0000" points="157.434,351.052 167.434,361.052"/>
   <polyline fill="none" stroke-width="0.5" stroke-linecap="square" stroke-linejoin="miter" stroke="#ff0000" points="157.434,361.052 167.434,351.052"/>
   <polyline fill="none" stroke-width="0.5" stroke-linecap="square" stroke-linejoin="miter" stroke="#ff0000" points="97.1199,296.575 107.12,306.575"/>
   <polyline fill="none" stroke-width="0.5" stroke-linecap="square" stroke-linejoin="miter" stroke="#ff0000" points="97.1199,306.575 107.12,296.575"/>
   <polyline fill="none" stroke-width="0.5" stroke-linecap="square" stroke-linejoin="miter" stroke="#ff0000" points="118.921,340.42 128.921,350.42"/>
   <polyline fill="none" stroke-width="0.5" stroke-linecap="square" stroke-linejoin="miter" stroke="#ff0000" points="118.921,350.42 128.921,340.42"/>
   <polyline fill="none" stroke-width="0.5" stroke-linecap="square" stroke-linejoin="miter" stroke="#ff0000" points="294.792,258.315 304.792,268.315"/>
   <polyline fill="none" stroke-width="0.5" stroke-linecap="square" stroke-linejoin="miter" stroke="#ff0000" points="294.792,268.315 304.792,258.315"/>
   <polyline fill="none" stroke-width="0.5" stroke-linecap="square" stroke-linejoin="miter" stroke="#ff0000" points="111.175,351.431 121.175,361.431"/>
   <polyline fill="none" stroke-width="0.5" stroke-linecap="square" stroke-linejoin="miter" stroke="#ff0000" points="111.175,361.431 121.175,351.431"/>
   <polyline fill="none" stroke-width="0.5" stroke-linecap="square" stroke-linejoin="miter" stroke="#ff0000" points="170.765,275.027 180.765,285.027"/>
   <polyline fill="none" stroke-width="0.5" stroke-linecap="square" stroke-linejoin="miter" stroke="#ff0000" points="170.765,285.027 180.765,275.027"/>
   <polyline fill="none" stroke-width="0.5" stroke-linecap="square" stroke-linejoin="miter" stroke="#ff0000" points="104.201,340.479 114.201,350.479"/>
   <polyline fill="none" stroke-width="0.5" stroke-linecap="square" stroke-linejoin="miter" stroke="#ff0000" points="104.201,350.479 114.201,340.479"/>
   <polyline fill="none" stroke-width="0.5" stroke-linecap="square" stroke-linejoin="miter" stroke="#ff0000" points="167.297,307.84 177.297,317.84"/>
   <polyline fill="none" stroke-width="0.5" stroke-linecap="square" stroke-linejoin="miter" stroke="#ff0000" points="167.297,317.84 177.297,307.84"/>
   <polyline fill="none" stroke-width="0.5" stroke-linecap="square" stroke-linejoin="miter" stroke="#ff0000" points="172.64,298.382 182.64,308.382"/>
   <polyline fill="none" stroke-width="0.5" stroke-linecap="square" stroke-linejoin="miter" stroke="#ff0000" points="172.64,308.382 182.64,298.382"/>
   <polyline fill="none" stroke-width="0.5" stroke-linecap="square" stroke-linejoin="miter" stroke="#ff0000" points="134.765,346.027 144.765,356.027"/>
   <polyline fill="none" stroke-width="0.5" stroke-linecap="square" stroke-linejoin="miter" stroke="#ff0000" points="134.765,356.027 144.765,346.027"/>
   <polyline fill="none" stroke-width="0.5" stroke-linecap="square" stroke-linejoin="miter" stroke="#ff0000" points="135.543,383.938 145.543,393.938"/>
   <polyline fill="none" stroke-width="0.5" stroke-linecap="square" stroke-linejoin="miter" stroke="#ff0000" points="135.543,393.938 145.543,383.938"/>
   <polyline fill="none" stroke-width="0.5" stroke-linecap="square" stroke-linejoin="miter" stroke="#ff0000" points="133.018,332.002 143.018,342.002"/>
   <polyline fill="none" stroke-width="0.5" stroke-linecap="square" stroke-linejoin="miter" stroke="#ff0000" points="133.018,342.002 143.018,332.002"/>
   <polyline fill="none" stroke-width="0.5" stroke-linecap="square" stroke-linejoin="miter" stroke="#ff0000" points="114.1,303.632 124.1,313.632"/>
   <polyline fill="none" stroke-width="0.5" stroke-linecap="square" stroke-linejoin="miter" stroke="#ff0000" points="114.1,313.632 124.1,303.632"/>
   <polyline fill="none" stroke-width="0.5" stroke-linecap="square" stroke-linejoin="miter" stroke="#ff0000" points="223.538,312.186 233.538,322.186"/>
   <polyline fill="none" stroke-width="0.5" stroke-linecap="square" stroke-linejoin="miter" stroke="#ff0000" points="223.538,322.186 233.538,312.186"/>
   <polyline fill="none" stroke-width="0.5" stroke-linecap="square" stroke-linejoin="miter" stroke="#ff0000" points="227.814,292.838 237.814,302.838"/>
   <polyline fill="none" stroke-width="0.5" stroke-linecap="square" stroke-linejoin="miter" stroke="#ff0000" points="227.814,302.838 237.814,292.838"/>
   <polyline fill="none" stroke-width="0.5" stroke-linecap="square" stroke-linejoin="miter" stroke="#ff0000" points="209.084,296.099 219.084,306.099"/>
   <polyline fill="none" stroke-width="0.5" stroke-linecap="square" stroke-linejoin="miter" stroke="#ff0000" points="209.084,306.099 219.084,296.099"/>
   <polyline fill="none" stroke-width="0.5" stroke-linecap="square" stroke-linejoin="miter" stroke="#ff0000" points="100.373,374.897 110.373,384.897"/>
   <polyline fill="none" stroke-width="0.5" stroke-linecap="square" stroke-linejoin="miter" stroke="#ff0000" points="100.373,384.897 110.373,374.897"/>
   <polyline fill="none" stroke-width="0.5" stroke-linecap="square" stroke-linejoin="miter" stroke="#ff0000" points="580.396,126.038 590.396,136.038"/>
   <polyline fill="none" stroke-width="0.5" stroke-linecap="square" stroke-linejoin="miter" stroke="#ff0000" points="580.396,136.038 590.396,126.038"/>
   <polyline fill="none" stroke-width="0.5" stroke-linecap="square" stroke-linejoin="miter" stroke="#ff0000" points="390.44,204.341 400.44,214.341"/>
   <polyline fill="none" stroke-width="0.5" stroke-linecap="square" stroke-linejoin="miter" stroke="#ff0000" points="390.44,214.341 400.44,204.341"/>
   <polyline fill="none" stroke-width="0.5" stroke-linecap="square" stroke-linejoin="miter" stroke="#ff0000" points="511.224,137.7 521.224,147.7"/>
   <polyline fill="none" stroke-width="0.5" stroke-linecap="square" stroke-linejoin="miter" stroke="#ff0000" points="511.224,147.7 521.224,137.7"/>
   <polyline fill="none" stroke-width="0.5" stroke-linecap="square" stroke-linejoin="miter" stroke="#ff0000" points="161.164,299.887 171.164,309.887"/>
   <polyline fill="none" stroke-width="0.5" stroke-linecap="square" stroke-linejoin="miter" stroke="#ff0000" points="161.164,309.887 171.164,299.887"/>
   <polyline fill="none" stroke-width="0.5" stroke-linecap="square" stroke-linejoin="miter" stroke="#ff0000" points="193.272,288.438 203.272,298.438"/>
   <polyline fill="none" stroke-width="0.5" stroke-linecap="square" stroke-linejoin="miter" stroke="#ff0000" points="193.272,298.438 203.272,288.438"/>
   <polyline fill="none" stroke-width="0.5" stroke-linecap="square" stroke-linejoin="miter" stroke="#ff0000" points="251.142,261.366 261.142,271.366"/>
   <polyline fill="none" stroke-width="0.5" stroke-linecap="square" stroke-linejoin="miter" stroke="#ff0000" points="251.142,271.366 261.142,261.366"/>
   <polyline fill="none" stroke-width="0.5" stroke-linecap="square" stroke-linejoin="miter" stroke="#ff0000" points="109.917,351.439 119.917,361.439"/>
   <polyline fill="none" stroke-width="0.5" stroke-linecap="square" stroke-linejoin="miter" stroke="#ff0000" points="109.917,361.439 119.917,351.439"/>
   <polyline fill="none" stroke-width="0.5" stroke-linecap="square" stroke-linejoin="miter" stroke="#ff0000" points="552.429,85.2142 562.429,95.2142"/>
   <polyline fill="none" stroke-width="0.5" stroke-linecap="square" stroke-linejoin="miter" stroke="#ff0000" points="552.429,95.2142 562.429,85.2142"/>
   <polyline fill="none" stroke-width="0.5" stroke-linecap="square" stroke-linejoin="miter" stroke="#ff0000" points="248.16,275.967 258.16,285.967"/>
   <polyline fill="none" stroke-width="0.5" stroke-linecap="square" stroke-linejoin="miter" stroke="#ff0000" points="248.16,285.967 258.16,275.967"/>
   <polyline fill="none" stroke-width="0.5" stroke-linecap="square" stroke-linejoin="miter" stroke="#ff0000" points="164.631,311.34 174.631,321.34"/>
   <polyline fill="none" stroke-width="0.5" stroke-linecap="square" stroke-linejoin="miter" stroke="#ff0000" points="164.631,321.34 174.631,311.34"/>
   <polyline fill="none" stroke-width="0.5" stroke-linecap="square" stroke-linejoin="miter" stroke="#ff0000" points="125.027,347.959 135.027,357.959"/>
   <polyline fill="none" stroke-width="0.5" stroke-linecap="square" stroke-linejoin="miter" stroke="#ff0000" points="125.027,357.959 135.027,347.959"/>
   <polyline fill="none" stroke-width="0.5" stroke-linecap="square" stroke-linejoin="miter" stroke="#ff0000" points="161.393,320.467 171.393,330.467"/>
   <polyline fill="none" stroke-width="0.5" stroke-linecap="square" stroke-linejoin="miter" stroke="#ff0000" points="161.393,330.467 171.393,320.467"/>
   <polyline fill="none" stroke-width="0.5" stroke-linecap="square" stroke-linejoin="miter" stroke="#ff0000" points="95.8288,400.726 105.829,410.726"/>
   <polyline fill="none" stroke-width="0.5" stroke-linecap="square" stroke-linejoin="miter" stroke="#ff0000" points="95.8288,410.726 105.829,400.726"/>
   <polyline fill="none" stroke-width="0.5" stroke-linecap="square" stroke-linejoin="miter" stroke="#ff0000" points="141.178,361.042 151.178,371.042"/>
   <polyline fill="none" stroke-width="0.5" stroke-linecap="square" stroke-linejoin="miter" stroke="#ff0000" points="141.178,371.042 151.178,361.042"/>
   <polyline fill="none" stroke-width="0.5" stroke-linecap="square" stroke-linejoin="miter" stroke="#ff0000" points="170.717,313.224 180.717,323.224"/>
   <polyline fill="none" stroke-width="0.5" stroke-linecap="square" stroke-linejoin="miter" stroke="#ff0000" points="170.717,323.224 180.717,313.224"/>
   <polyline fill="none" stroke-width="0.5" stroke-linecap="square" stroke-linejoin="miter" stroke="#ff0000" points="96.1151,289.009 106.115,299.009"/>
   <polyline fill="none" stroke-width="0.5" stroke-linecap="square" stroke-linejoin="miter" stroke="#ff0000" points="96.1151,299.009 106.115,289.009"/>
   <polyline fill="none" stroke-width="0.5" stroke-linecap="square" stroke-linejoin="miter" stroke="#ff0000" points="252.275,274.998 262.275,284.998"/>
   <polyline fill="none" stroke-width="0.5" stroke-linecap="square" stroke-linejoin="miter" stroke="#ff0000" points="252.275,284.998 262.275,274.998"/>
   <polyline fill="none" stroke-width="0.5" stroke-linecap="square" stroke-linejoin="miter" stroke="#ff0000" points="98.2379,337.573 108.238,347.573"/>
   <polyline fill="none" stroke-width="0.5" stroke-linecap="square" stroke-linejoin="miter" stroke="#ff0000" points="98.2379,347.573 108.238,337.573"/>
   <polyline fill="none" stroke-width="0.5" stroke-linecap="square" stroke-linejoin="miter" stroke="#ff0000" points="116.768,358.606 126.768,368.606"/>
   <polyline fill="none" stroke-width="0.5" stroke-linecap="square" stroke-linejoin="miter" stroke="#ff0000" points="116.768,368.606 126.768,358.606"/>
   <polyline fill="none" stroke-width="0.5" stroke-linecap="square" stroke-linejoin="miter" stroke="#ff0000" points="100.644,362.276 110.644,372.276"/>
   <polyline fill="none" stroke-width="0.5" stroke-linecap="square" stroke-linejoin="miter" stroke="#ff0000" points="100.644,372.276 110.644,362.276"/>
   <polyline fill="none" stroke-width="0.5" stroke-linecap="square" stroke-linejoin="miter" stroke="#ff0000" points="135.448,355.953 145.448,365.953"/>
   <polyline fill="none" stroke-width="0.5" stroke-linecap="square" stroke-linejoin="miter" stroke="#ff0000" points="135.448,365.953 145.448,355.953"/>
   <polyline fill="none" stroke-width="0.5" stroke-linecap="square" stroke-linejoin="miter" stroke="#ff0000" points="237.209,264.457 247.209,274.457"/>
   <polyline fill="none" stroke-width="0.5" stroke-linecap="square" stroke-linejoin="miter" stroke="#ff0000" points="237.209,274.457 247.209,264.457"/>
   <polyline fill="none" stroke-width="0.5" stroke-linecap="square" stroke-linejoin="miter" stroke="#ff0000" points="140.224,293.777 150.224,303.777"/>
   <polyline fill="none" stroke-width="0.5" stroke-linecap="square" stroke-linejoin="miter" stroke="#ff0000" points="140.224,303.777 150.224,293.777"/>
   <polyline fill="none" stroke-width="0.5" stroke-linecap="square" stroke-linejoin="miter" stroke="#ff0000" points="199.894,308.466 209.894,318.466"/>
   <polyline fill="none" stroke-width="0.5" stroke-linecap="square" stroke-linejoin="miter" stroke="#ff0000" points="199.894,318.466 209.894,308.466"/>
   <polyline fill="none" stroke-width="0.5" stroke-linecap="square" stroke-linejoin="miter" stroke="#ff0000" points="219.662,274.392 229.662,284.392"/>
   <polyline fill="none" stroke-width="0.5" stroke-linecap="square" stroke-linejoin="miter" stroke="#ff0000" points="219.662,284.392 229.662,274.392"/>
   <polyline fill="none" stroke-width="0.5" stroke-linecap="square" stroke-linejoin="miter" stroke="#ff0000" points="124.902,352.643 134.902,362.643"/>
   <polyline fill="none" stroke-width="0.5" stroke-linecap="square" stroke-linejoin="miter" stroke="#ff0000" points="124.902,362.643 134.902,352.643"/>
   <polyline fill="none" stroke-width="0.5" stroke-linecap="square" stroke-linejoin="miter" stroke="#ff0000" points="110.543,362.971 120.543,372.971"/>
   <polyline fill="none" stroke-width="0.5" stroke-linecap="square" stroke-linejoin="miter" stroke="#ff0000" points="110.543,372.971 120.543,362.971"/>
   <polyline fill="none" stroke-width="0.5" stroke-linecap="square" stroke-linejoin="miter" stroke="#ff0000" points="96.7979,327.393 106.798,337.393"/>
   <polyline fill="none" stroke-width="0.5" stroke-linecap="square" stroke-linejoin="miter" stroke="#ff0000" points="96.7979,337.393 106.798,327.393"/>
   <polyline fill="none" stroke-width="0.5" stroke-linecap="square" stroke-linejoin="miter" stroke="#ff0000" points="116.127,340.406 126.127,350.406"/>
   <polyline fill="none" stroke-width="0.5" stroke-linecap="square" stroke-linejoin="miter" stroke="#ff0000" points="116.127,350.406 126.127,340.406"/>
   <polyline fill="none" stroke-width="0.5" stroke-linecap="square" stroke-linejoin="miter" stroke="#ff0000" points="173.639,307.741 183.639,317.741"/>
   <polyline fill="none" stroke-width="0.5" stroke-linecap="square" stroke-linejoin="miter" stroke="#ff0000" points="173.639,317.741 183.639,307.741"/>
   <polyline fill="none" stroke-width="0.5" stroke-linecap="square" stroke-linejoin="miter" stroke="#ff0000" points="120.987,268.996 130.987,278.996"/>
   <polyline fill="none" stroke-width="0.5" stroke-linecap="square" stroke-linejoin="miter" stroke="#ff0000" points="120.987,278.996 130.987,268.996"/>
   <polyline fill="none" stroke-width="0.5" stroke-linecap="square" stroke-linejoin="miter" stroke="#ff0000" points="104.132,338.516 114.132,348.516"/>
   <polyline fill="none" stroke-width="0.5" stroke-linecap="square" stroke-linejoin="miter" stroke="#ff0000" points="104.132,348.516 114.132,338.516"/>
   <polyline fill="none" stroke-width="0.5" stroke-linecap="square" stroke-linejoin="miter" stroke="#ff0000" points="193.222,363.071 203.222,373.071"/>
   <polyline fill="none" stroke-width="0.5" stroke-linecap="square" stroke-linejoin="miter" stroke="#ff0000" points="193.222,373.071 203.222,363.071"/>
   <polyline fill="none" stroke-width="0.5" stroke-linecap="square" stroke-linejoin="miter" stroke="#ff0000" points="345.3,244.31 355.3,254.31"/>
   <polyline fill="none" stroke-width="0.5" stroke-linecap="square" stroke-linejoin="miter" stroke="#ff0000" points="345.3,254.31 355.3,244.31"/>
   <polyline fill="none" stroke-width="0.5" stroke-linecap="square" stroke-linejoin="miter" stroke="#ff0000" points="108.053,356.773 118.053,366.773"/>
   <polyline fill="none" stroke-width="0.5" stroke-linecap="square" stroke-linejoin="miter" stroke="#ff0000" points="108.053,366.773 118.053,356.773"/>
   <polyline fill="none" stroke-width="0.5" stroke-linecap="butt" stroke-linejoin="round" stroke="#0071bc" points="133.125,323.398 115.761,332.452 204.936,285.957 159.754,309.515 125.662,327.289 200.89,288.067 173.862,302.159 206.71,285.032 144.339,317.552 101.655,339.806 121.217,329.607 373.258,198.197 121.912,329.245 201.651,287.67 119.13,330.695 111.339,334.757 140.737,319.43 103.906,338.633 142.651,318.432 161.769,308.464 135.481,322.17 555.312,103.277 114.639,333.036 139.565,320.041 116.87,331.874 515.806,123.875 333.424,218.966 277.639,248.051 343.8,213.556 612.946,73.2282 107.552,336.732 147.416,315.947 226.69,274.615 126.616,326.792 195.768,290.738 187.488,295.055 192.333,292.528 118.104,331.23 333.662,218.842 140.379,319.616 112.159,334.33 156.155,311.391 300.03,236.377 123.095,328.628 184.247,296.744 162.434,308.117 102.12,339.564 123.921,328.197 299.792,236.501 116.175,332.236 175.765,301.167 109.201,335.872 172.297,302.975 177.64,300.189 139.765,319.936 140.543,319.531 138.018,320.847 119.1,330.711 228.538,273.652 232.814,271.422 214.084,281.188 105.373,337.868 585.396,87.5922 395.441,186.632 516.224,123.657 166.164,306.173 198.272,289.432 256.142,259.26 114.917,332.892 557.429,102.174 253.16,260.814 169.632,304.365 130.027,325.014 166.394,306.053 100.829,340.237 146.179,316.593 175.717,301.192 101.115,340.088 257.275,258.669 103.238,338.981 121.768,329.32 105.644,337.727 140.448,319.58 242.209,266.524 145.224,317.09 204.895,285.979 224.662,275.673 129.902,325.079 115.543,332.565 101.798,339.732 121.127,329.654 178.639,299.668 125.987,327.12 109.133,335.908 198.222,289.458 350.3,210.167 113.053,333.863"/>
  </g>
  <clipPath id="cp00769490">
   <polygon points="0,490 769,490 769,0 0,0"/>
  </clipPath>
  <g clip-path="url(#cp00769490)">
   <polygon fill="#ffffff" shape-rendering="crispEdges" points="594.341,73.7947 689.54,73.7947 689.54,43.5951 594.341,43.5951"/>
   <polyline fill="none" stroke-dasharray="16,0" stroke-width="0.5" stroke-linecap="square" stroke-linejoin="miter" stroke="#262626" points="594.341,73.7947 689.54,73.7947"/>
   <polyline fill="none" stroke-dasharray="16,0" stroke-width="0.5" stroke-linecap="square" stroke-linejoin="miter" stroke="#262626" points="594.341,43.5951 689.54,43.5951"/>
   <polyline fill="none" stroke-dasharray="16,0" stroke-width="0.5" stroke-linecap="square" stroke-linejoin="miter" stroke="#262626" points="594.341,73.7947 594.341,43.5951"/>
   <polyline fill="none" stroke-dasharray="16,0" stroke-width="0.5" stroke-linecap="square" stroke-linejoin="miter" stroke="#262626" points="689.54,73.7947 689.54,43.5951"/>
   <polyline fill="none" stroke-width="0.5" stroke-linecap="square" stroke-linejoin="miter" stroke="#ff0000" points="602.241,47.995 610.241,55.995"/>
   <polyline fill="none" stroke-width="0.5" stroke-linecap="square" stroke-linejoin="miter" stroke="#ff0000" points="602.241,55.995 610.241,47.995"/>
   <text font-weight="normal" font-family="FreeSans" xml:space="preserve" font-style="normal" transform="translate(618.141,56.995) rotate(-0,-0,-5)" font-size="9">
    <tspan fill="rgb(0,0,0)" x="0 6 9 14 16 21 23 28 33 35 40 45 48 " y="-2">Training data</tspan>
   </text>
   <polyline fill="none" stroke-width="0.5" stroke-linecap="butt" stroke-linejoin="round" stroke="#0071bc" points="597.741,65.3949 614.741,65.3949"/>
   <text font-weight="normal" font-family="FreeSans" xml:space="preserve" font-style="normal" transform="translate(618.141,70.3949) rotate(-0,-0,-5)" font-size="9">
    <tspan fill="rgb(0,0,0)" x="0 5 7 12 17 22 25 27 30 35 40 43 48 52 56 58 63 " y="-2">Linear regression</tspan>
   </text>
  </g>
 </g>
</svg>
