<?xml version='1.0' encoding='UTF-8' standalone='no'?>
<svg width="494pt" viewBox="0 0 494 367" height="367pt" xmlns="http://www.w3.org/2000/svg" xmlns:xlink="http://www.w3.org/1999/xlink">
 <title>gl2ps_renderer figure</title>
 <desc>
Creator: GL2PS 1.4.2, (C) 1999-2020 C. Geuzaine
For: Octave
CreationDate: Tue Aug 24 21:34:43 2021
</desc>
 <defs/>
 <polygon fill="#ffffff" points="0,0 494,0 494,367 0,367"/>
 <g>
  <polygon shape-rendering="crispEdges" fill="#ffffff" points="0,367 494,367 494,0 0,0"/>
  <clipPath id="cp00494367">
   <polygon points="0,367 494,367 494,0 0,0"/>
  </clipPath>
  <g clip-path="url(#cp00494367)">
   <polygon shape-rendering="crispEdges" fill="#ffffff" points="64.2374,327.478 447.191,327.478 447.191,27.5965 64.2374,27.5965"/>
   <polyline stroke-linecap="butt" fill="none" stroke="#262626" stroke-width="0.5" stroke-linejoin="miter" points="64.2374,327.478 64.2374,323.65"/>
   <polyline stroke-linecap="butt" fill="none" stroke="#262626" stroke-width="0.5" stroke-linejoin="miter" points="64.2374,27.5965 64.2374,31.4245"/>
   <polyline stroke-linecap="butt" fill="none" stroke="#262626" stroke-width="0.5" stroke-linejoin="miter" points="140.828,327.478 140.828,323.65"/>
   <polyline stroke-linecap="butt" fill="none" stroke="#262626" stroke-width="0.5" stroke-linejoin="miter" points="140.828,27.5965 140.828,31.4245"/>
   <polyline stroke-linecap="butt" fill="none" stroke="#262626" stroke-width="0.5" stroke-linejoin="miter" points="217.419,327.478 217.419,323.65"/>
   <polyline stroke-linecap="butt" fill="none" stroke="#262626" stroke-width="0.5" stroke-linejoin="miter" points="217.419,27.5965 217.419,31.4245"/>
   <polyline stroke-linecap="butt" fill="none" stroke="#262626" stroke-width="0.5" stroke-linejoin="miter" points="294.01,327.478 294.01,323.65"/>
   <polyline stroke-linecap="butt" fill="none" stroke="#262626" stroke-width="0.5" stroke-linejoin="miter" points="294.01,27.5965 294.01,31.4245"/>
   <polyline stroke-linecap="butt" fill="none" stroke="#262626" stroke-width="0.5" stroke-linejoin="miter" points="370.6,327.478 370.6,323.65"/>
   <polyline stroke-linecap="butt" fill="none" stroke="#262626" stroke-width="0.5" stroke-linejoin="miter" points="370.6,27.5965 370.6,31.4245"/>
   <polyline stroke-linecap="butt" fill="none" stroke="#262626" stroke-width="0.5" stroke-linejoin="miter" points="447.191,327.478 447.191,323.65"/>
   <polyline stroke-linecap="butt" fill="none" stroke="#262626" stroke-width="0.5" stroke-linejoin="miter" points="447.191,27.5965 447.191,31.4245"/>
   <text font-family="FreeSans" font-style="normal" transform="translate(56.7374,342.975) rotate(-0,7.5,-8)" font-size="10" font-weight="normal" xml:space="preserve">
    <tspan x="0 3 9 " y="-0" fill="rgb(38,38,38)">-60</tspan>
   </text>
   <text font-family="FreeSans" font-style="normal" transform="translate(133.328,342.975) rotate(-0,7.5,-8)" font-size="10" font-weight="normal" xml:space="preserve">
    <tspan x="0 3 9 " y="-0" fill="rgb(38,38,38)">-40</tspan>
   </text>
   <text font-family="FreeSans" font-style="normal" transform="translate(209.919,342.975) rotate(-0,7.5,-8)" font-size="10" font-weight="normal" xml:space="preserve">
    <tspan x="0 3 9 " y="-0" fill="rgb(38,38,38)">-20</tspan>
   </text>
   <text font-family="FreeSans" font-style="normal" transform="translate(291.01,342.975) rotate(-0,3,-8)" font-size="10" font-weight="normal" xml:space="preserve">
    <tspan x="0 " y="-0" fill="rgb(38,38,38)">0</tspan>
   </text>
   <text font-family="FreeSans" font-style="normal" transform="translate(364.6,342.975) rotate(-0,6,-8)" font-size="10" font-weight="normal" xml:space="preserve">
    <tspan x="0 6 " y="-0" fill="rgb(38,38,38)">20</tspan>
   </text>
   <text font-family="FreeSans" font-style="normal" transform="translate(441.191,342.975) rotate(-0,6,-8)" font-size="10" font-weight="normal" xml:space="preserve">
    <tspan x="0 6 " y="-0" fill="rgb(38,38,38)">40</tspan>
   </text>
   <polyline stroke-linecap="butt" fill="none" stroke="#262626" stroke-width="0.5" stroke-linejoin="miter" points="64.2374,327.478 68.0664,327.478"/>
   <polyline stroke-linecap="butt" fill="none" stroke="#262626" stroke-width="0.5" stroke-linejoin="miter" points="447.191,327.478 443.362,327.478"/>
   <polyline stroke-linecap="butt" fill="none" stroke="#262626" stroke-width="0.5" stroke-linejoin="miter" points="64.2374,252.508 68.0664,252.508"/>
   <polyline stroke-linecap="butt" fill="none" stroke="#262626" stroke-width="0.5" stroke-linejoin="miter" points="447.191,252.508 443.362,252.508"/>
   <polyline stroke-linecap="butt" fill="none" stroke="#262626" stroke-width="0.5" stroke-linejoin="miter" points="64.2374,177.537 68.0664,177.537"/>
   <polyline stroke-linecap="butt" fill="none" stroke="#262626" stroke-width="0.5" stroke-linejoin="miter" points="447.191,177.537 443.362,177.537"/>
   <polyline stroke-linecap="butt" fill="none" stroke="#262626" stroke-width="0.5" stroke-linejoin="miter" points="64.2374,102.567 68.0664,102.567"/>
   <polyline stroke-linecap="butt" fill="none" stroke="#262626" stroke-width="0.5" stroke-linejoin="miter" points="447.191,102.567 443.362,102.567"/>
   <polyline stroke-linecap="butt" fill="none" stroke="#262626" stroke-width="0.5" stroke-linejoin="miter" points="64.2374,27.5965 68.0664,27.5965"/>
   <polyline stroke-linecap="butt" fill="none" stroke="#262626" stroke-width="0.5" stroke-linejoin="miter" points="447.191,27.5965 443.362,27.5965"/>
   <text font-family="FreeSans" font-style="normal" transform="translate(53.238,331.478) rotate(-0,6,-4)" font-size="10" font-weight="normal" xml:space="preserve">
    <tspan x="0 " y="-0" fill="rgb(38,38,38)">0</tspan>
   </text>
   <text font-family="FreeSans" font-style="normal" transform="translate(47.238,256.508) rotate(-0,12,-4)" font-size="10" font-weight="normal" xml:space="preserve">
    <tspan x="0 6 " y="-0" fill="rgb(38,38,38)">10</tspan>
   </text>
   <text font-family="FreeSans" font-style="normal" transform="translate(47.238,181.537) rotate(-0,12,-4)" font-size="10" font-weight="normal" xml:space="preserve">
    <tspan x="0 6 " y="-0" fill="rgb(38,38,38)">20</tspan>
   </text>
   <text font-family="FreeSans" font-style="normal" transform="translate(47.238,106.567) rotate(-0,12,-4)" font-size="10" font-weight="normal" xml:space="preserve">
    <tspan x="0 6 " y="-0" fill="rgb(38,38,38)">30</tspan>
   </text>
   <text font-family="FreeSans" font-style="normal" transform="translate(47.238,31.5965) rotate(-0,12,-4)" font-size="10" font-weight="normal" xml:space="preserve">
    <tspan x="0 6 " y="-0" fill="rgb(38,38,38)">40</tspan>
   </text>
   <polyline stroke-linecap="square" stroke-dasharray="16,0" fill="none" stroke="#262626" stroke-width="0.5" stroke-linejoin="miter" points="64.2374,327.478 447.191,327.478"/>
   <polyline stroke-linecap="square" stroke-dasharray="16,0" fill="none" stroke="#262626" stroke-width="0.5" stroke-linejoin="miter" points="64.2374,27.5965 447.191,27.5965"/>
   <polyline stroke-linecap="square" stroke-dasharray="16,0" fill="none" stroke="#262626" stroke-width="0.5" stroke-linejoin="miter" points="64.2374,327.478 64.2374,27.5965"/>
   <polyline stroke-linecap="square" stroke-dasharray="16,0" fill="none" stroke="#262626" stroke-width="0.5" stroke-linejoin="miter" points="447.191,327.478 447.191,27.5965"/>
   <text font-family="FreeSans" font-style="normal" transform="translate(196.214,359.975) rotate(-0,59.5,-12)" font-size="11" font-weight="normal" xml:space="preserve">
    <tspan x="0 8 14 20 26 32 38 41 43 49 52 60 66 69 75 79 82 84 90 95 101 103 106 110 115 " y="-3" fill="rgb(38,38,38)">Change in water level (x)</tspan>
   </text>
   <text font-family="FreeSans" font-style="normal" transform="translate(-34.262,177.537) rotate(-90,76.5,0)" font-size="11" font-weight="normal" xml:space="preserve">
    <tspan x="0 10 16 19 25 29 32 35 37 43 51 53 59 65 68 74 80 83 86 92 95 98 101 107 113 116 122 128 137 140 144 149 " y="-3" fill="rgb(38,38,38)">Water flowing out of the dam (y)</tspan>
   </text>
   <polyline stroke-linecap="square" fill="none" stroke="#ff0000" stroke-width="1.5" stroke-linejoin="miter" points="227.979,306.477 237.979,316.477"/>
   <polyline stroke-linecap="square" fill="none" stroke="#ff0000" stroke-width="1.5" stroke-linejoin="miter" points="227.979,316.477 237.979,306.477"/>
   <polyline stroke-linecap="square" fill="none" stroke="#ff0000" stroke-width="1.5" stroke-linejoin="miter" points="177.367,313.682 187.367,323.682"/>
   <polyline stroke-linecap="square" fill="none" stroke="#ff0000" stroke-width="1.5" stroke-linejoin="miter" points="177.367,323.682 187.367,313.682"/>
   <polyline stroke-linecap="square" fill="none" stroke="#ff0000" stroke-width="1.5" stroke-linejoin="miter" points="427.599,64.8865 437.599,74.8865"/>
   <polyline stroke-linecap="square" fill="none" stroke="#ff0000" stroke-width="1.5" stroke-linejoin="miter" points="427.599,74.8865 437.599,64.8865"/>
   <polyline stroke-linecap="square" fill="none" stroke="#ff0000" stroke-width="1.5" stroke-linejoin="miter" points="432.587,46.3025 442.587,56.3025"/>
   <polyline stroke-linecap="square" fill="none" stroke="#ff0000" stroke-width="1.5" stroke-linejoin="miter" points="432.587,56.3025 442.587,46.3025"/>
   <polyline stroke-linecap="square" fill="none" stroke="#ff0000" stroke-width="1.5" stroke-linejoin="miter" points="104.967,301.419 114.967,311.419"/>
   <polyline stroke-linecap="square" fill="none" stroke="#ff0000" stroke-width="1.5" stroke-linejoin="miter" points="104.967,311.419 114.967,301.419"/>
   <polyline stroke-linecap="square" fill="none" stroke="#ff0000" stroke-width="1.5" stroke-linejoin="miter" points="254.768,306.576 264.768,316.577"/>
   <polyline stroke-linecap="square" fill="none" stroke="#ff0000" stroke-width="1.5" stroke-linejoin="miter" points="254.768,316.577 264.768,306.576"/>
   <polyline stroke-linecap="square" fill="none" stroke="#ff0000" stroke-width="1.5" stroke-linejoin="miter" points="347.631,212.195 357.631,222.195"/>
   <polyline stroke-linecap="square" fill="none" stroke="#ff0000" stroke-width="1.5" stroke-linejoin="miter" points="347.631,222.195 357.631,212.195"/>
   <polyline stroke-linecap="square" fill="none" stroke="#ff0000" stroke-width="1.5" stroke-linejoin="miter" points="156.101,302.88 166.101,312.88"/>
   <polyline stroke-linecap="square" fill="none" stroke="#ff0000" stroke-width="1.5" stroke-linejoin="miter" points="156.101,312.88 166.101,302.88"/>
   <polyline stroke-linecap="square" fill="none" stroke="#ff0000" stroke-width="1.5" stroke-linejoin="miter" points="294.329,294.438 304.329,304.438"/>
   <polyline stroke-linecap="square" fill="none" stroke="#ff0000" stroke-width="1.5" stroke-linejoin="miter" points="294.329,304.438 304.329,294.438"/>
   <polyline stroke-linecap="square" fill="none" stroke="#ff0000" stroke-width="1.5" stroke-linejoin="miter" points="119.04,294.502 129.04,304.502"/>
   <polyline stroke-linecap="square" fill="none" stroke="#ff0000" stroke-width="1.5" stroke-linejoin="miter" points="119.04,304.502 129.04,294.502"/>
   <polyline stroke-linecap="square" fill="none" stroke="#ff0000" stroke-width="1.5" stroke-linejoin="miter" points="315.868,265.293 325.868,275.293"/>
   <polyline stroke-linecap="square" fill="none" stroke="#ff0000" stroke-width="1.5" stroke-linejoin="miter" points="315.868,275.293 325.868,265.293"/>
   <polyline stroke-linecap="square" fill="none" stroke="#ff0000" stroke-width="1.5" stroke-linejoin="miter" points="376.18,151.902 386.18,161.902"/>
   <polyline stroke-linecap="square" fill="none" stroke="#ff0000" stroke-width="1.5" stroke-linejoin="miter" points="376.18,161.902 386.18,151.902"/>
  </g>
 </g>
</svg>
