<?xml version='1.0' encoding='UTF-8' standalone='no'?>
<svg width="494pt" height="367pt" viewBox="0 0 494 367" xmlns="http://www.w3.org/2000/svg" xmlns:xlink="http://www.w3.org/1999/xlink">
 <title>gl2ps_renderer figure</title>
 <desc>
Creator: GL2PS 1.4.2, (C) 1999-2020 C. Geuzaine
For: Octave
CreationDate: Wed Aug 25 18:00:15 2021
</desc>
 <defs/>
 <polygon fill="#ffffff" points="0,0 494,0 494,367 0,367"/>
 <g>
  <polygon shape-rendering="crispEdges" fill="#ffffff" points="0,367 494,367 494,0 0,0"/>
  <clipPath id="cp00494367">
   <polygon points="0,367 494,367 494,0 0,0"/>
  </clipPath>
  <g clip-path="url(#cp00494367)">
   <polygon shape-rendering="crispEdges" fill="#ffffff" points="64.2374,327.478 447.191,327.478 447.191,27.5965 64.2374,27.5965"/>
   <polyline stroke-width="0.5" stroke="#262626" stroke-linejoin="miter" stroke-linecap="butt" fill="none" points="64.2374,327.478 64.2374,323.65"/>
   <polyline stroke-width="0.5" stroke="#262626" stroke-linejoin="miter" stroke-linecap="butt" fill="none" points="64.2374,27.5965 64.2374,31.4245"/>
   <polyline stroke-width="0.5" stroke="#262626" stroke-linejoin="miter" stroke-linecap="butt" fill="none" points="123.153,327.478 123.153,323.65"/>
   <polyline stroke-width="0.5" stroke="#262626" stroke-linejoin="miter" stroke-linecap="butt" fill="none" points="123.153,27.5965 123.153,31.4245"/>
   <polyline stroke-width="0.5" stroke="#262626" stroke-linejoin="miter" stroke-linecap="butt" fill="none" points="182.069,327.478 182.069,323.65"/>
   <polyline stroke-width="0.5" stroke="#262626" stroke-linejoin="miter" stroke-linecap="butt" fill="none" points="182.069,27.5965 182.069,31.4245"/>
   <polyline stroke-width="0.5" stroke="#262626" stroke-linejoin="miter" stroke-linecap="butt" fill="none" points="240.985,327.478 240.985,323.65"/>
   <polyline stroke-width="0.5" stroke="#262626" stroke-linejoin="miter" stroke-linecap="butt" fill="none" points="240.985,27.5965 240.985,31.4245"/>
   <polyline stroke-width="0.5" stroke="#262626" stroke-linejoin="miter" stroke-linecap="butt" fill="none" points="299.901,327.478 299.901,323.65"/>
   <polyline stroke-width="0.5" stroke="#262626" stroke-linejoin="miter" stroke-linecap="butt" fill="none" points="299.901,27.5965 299.901,31.4245"/>
   <polyline stroke-width="0.5" stroke="#262626" stroke-linejoin="miter" stroke-linecap="butt" fill="none" points="358.817,327.478 358.817,323.65"/>
   <polyline stroke-width="0.5" stroke="#262626" stroke-linejoin="miter" stroke-linecap="butt" fill="none" points="358.817,27.5965 358.817,31.4245"/>
   <polyline stroke-width="0.5" stroke="#262626" stroke-linejoin="miter" stroke-linecap="butt" fill="none" points="417.733,327.478 417.733,323.65"/>
   <polyline stroke-width="0.5" stroke="#262626" stroke-linejoin="miter" stroke-linecap="butt" fill="none" points="417.733,27.5965 417.733,31.4245"/>
   <text transform="translate(61.2374,342.975) rotate(-0,3,-8)" font-weight="normal" xml:space="preserve" font-family="FreeSans" font-size="10" font-style="normal">
    <tspan y="-0" fill="rgb(38,38,38)" x="0 ">0</tspan>
   </text>
   <text transform="translate(120.153,342.975) rotate(-0,3,-8)" font-weight="normal" xml:space="preserve" font-family="FreeSans" font-size="10" font-style="normal">
    <tspan y="-0" fill="rgb(38,38,38)" x="0 ">2</tspan>
   </text>
   <text transform="translate(179.069,342.975) rotate(-0,3,-8)" font-weight="normal" xml:space="preserve" font-family="FreeSans" font-size="10" font-style="normal">
    <tspan y="-0" fill="rgb(38,38,38)" x="0 ">4</tspan>
   </text>
   <text transform="translate(237.985,342.975) rotate(-0,3,-8)" font-weight="normal" xml:space="preserve" font-family="FreeSans" font-size="10" font-style="normal">
    <tspan y="-0" fill="rgb(38,38,38)" x="0 ">6</tspan>
   </text>
   <text transform="translate(296.901,342.975) rotate(-0,3,-8)" font-weight="normal" xml:space="preserve" font-family="FreeSans" font-size="10" font-style="normal">
    <tspan y="-0" fill="rgb(38,38,38)" x="0 ">8</tspan>
   </text>
   <text transform="translate(352.817,342.975) rotate(-0,6,-8)" font-weight="normal" xml:space="preserve" font-family="FreeSans" font-size="10" font-style="normal">
    <tspan y="-0" fill="rgb(38,38,38)" x="0 6 ">10</tspan>
   </text>
   <text transform="translate(411.733,342.975) rotate(-0,6,-8)" font-weight="normal" xml:space="preserve" font-family="FreeSans" font-size="10" font-style="normal">
    <tspan y="-0" fill="rgb(38,38,38)" x="0 6 ">12</tspan>
   </text>
   <polyline stroke-width="0.5" stroke="#262626" stroke-linejoin="miter" stroke-linecap="butt" fill="none" points="64.2374,327.478 68.0664,327.478"/>
   <polyline stroke-width="0.5" stroke="#262626" stroke-linejoin="miter" stroke-linecap="butt" fill="none" points="447.191,327.478 443.362,327.478"/>
   <polyline stroke-width="0.5" stroke="#262626" stroke-linejoin="miter" stroke-linecap="butt" fill="none" points="64.2374,267.502 68.0664,267.502"/>
   <polyline stroke-width="0.5" stroke="#262626" stroke-linejoin="miter" stroke-linecap="butt" fill="none" points="447.191,267.502 443.362,267.502"/>
   <polyline stroke-width="0.5" stroke="#262626" stroke-linejoin="miter" stroke-linecap="butt" fill="none" points="64.2374,207.526 68.0664,207.526"/>
   <polyline stroke-width="0.5" stroke="#262626" stroke-linejoin="miter" stroke-linecap="butt" fill="none" points="447.191,207.526 443.362,207.526"/>
   <polyline stroke-width="0.5" stroke="#262626" stroke-linejoin="miter" stroke-linecap="butt" fill="none" points="64.2374,147.549 68.0664,147.549"/>
   <polyline stroke-width="0.5" stroke="#262626" stroke-linejoin="miter" stroke-linecap="butt" fill="none" points="447.191,147.549 443.362,147.549"/>
   <polyline stroke-width="0.5" stroke="#262626" stroke-linejoin="miter" stroke-linecap="butt" fill="none" points="64.2374,87.5728 68.0664,87.5728"/>
   <polyline stroke-width="0.5" stroke="#262626" stroke-linejoin="miter" stroke-linecap="butt" fill="none" points="447.191,87.5728 443.362,87.5728"/>
   <polyline stroke-width="0.5" stroke="#262626" stroke-linejoin="miter" stroke-linecap="butt" fill="none" points="64.2374,27.5965 68.0664,27.5965"/>
   <polyline stroke-width="0.5" stroke="#262626" stroke-linejoin="miter" stroke-linecap="butt" fill="none" points="447.191,27.5965 443.362,27.5965"/>
   <text transform="translate(53.238,331.478) rotate(-0,6,-4)" font-weight="normal" xml:space="preserve" font-family="FreeSans" font-size="10" font-style="normal">
    <tspan y="-0" fill="rgb(38,38,38)" x="0 ">0</tspan>
   </text>
   <text transform="translate(47.238,271.502) rotate(-0,12,-4)" font-weight="normal" xml:space="preserve" font-family="FreeSans" font-size="10" font-style="normal">
    <tspan y="-0" fill="rgb(38,38,38)" x="0 6 ">20</tspan>
   </text>
   <text transform="translate(47.238,211.526) rotate(-0,12,-4)" font-weight="normal" xml:space="preserve" font-family="FreeSans" font-size="10" font-style="normal">
    <tspan y="-0" fill="rgb(38,38,38)" x="0 6 ">40</tspan>
   </text>
   <text transform="translate(47.238,151.549) rotate(-0,12,-4)" font-weight="normal" xml:space="preserve" font-family="FreeSans" font-size="10" font-style="normal">
    <tspan y="-0" fill="rgb(38,38,38)" x="0 6 ">60</tspan>
   </text>
   <text transform="translate(47.238,91.5728) rotate(-0,12,-4)" font-weight="normal" xml:space="preserve" font-family="FreeSans" font-size="10" font-style="normal">
    <tspan y="-0" fill="rgb(38,38,38)" x="0 6 ">80</tspan>
   </text>
   <text transform="translate(41.238,31.5965) rotate(-0,18,-4)" font-weight="normal" xml:space="preserve" font-family="FreeSans" font-size="10" font-style="normal">
    <tspan y="-0" fill="rgb(38,38,38)" x="0 6 12 ">100</tspan>
   </text>
   <polyline stroke-width="0.5" stroke="#262626" stroke-linejoin="miter" stroke-dasharray="16,0" stroke-linecap="square" fill="none" points="64.2374,327.478 447.191,327.478"/>
   <polyline stroke-width="0.5" stroke="#262626" stroke-linejoin="miter" stroke-dasharray="16,0" stroke-linecap="square" fill="none" points="64.2374,27.5965 447.191,27.5965"/>
   <polyline stroke-width="0.5" stroke="#262626" stroke-linejoin="miter" stroke-dasharray="16,0" stroke-linecap="square" fill="none" points="64.2374,327.478 64.2374,27.5965"/>
   <polyline stroke-width="0.5" stroke="#262626" stroke-linejoin="miter" stroke-dasharray="16,0" stroke-linecap="square" fill="none" points="447.191,327.478 447.191,27.5965"/>
   <text transform="translate(187.214,359.975) rotate(-0,68.5,-12)" font-weight="normal" xml:space="preserve" font-family="FreeSans" font-size="11" font-style="normal">
    <tspan y="-3" fill="rgb(38,38,38)" x="0 8 14 23 29 35 39 42 48 51 54 57 61 67 69 75 77 83 89 92 98 103 109 118 124 126 132 ">Number of training examples</tspan>
   </text>
   <text transform="translate(23.738,177.537) rotate(-90,12.5,0)" font-weight="normal" xml:space="preserve" font-family="FreeSans" font-size="11" font-style="normal">
    <tspan y="-0" fill="rgb(38,38,38)" x="0 7 11 15 21 ">Error</tspan>
   </text>
   <text transform="translate(99.2142,17.5965) rotate(-0,156.5,0)" font-weight="bold" xml:space="preserve" font-family="FreeSans" font-size="11" font-style="normal">
    <tspan y="-3" fill="rgb(0,0,0)" x="0 7 14 17 23 30 37 47 50 56 59 62 70 76 83 87 93 99 105 108 115 122 125 132 138 144 148 155 158 165 172 175 183 190 194 200 206 209 213 216 222 232 239 246 252 255 261 264 270 273 279 285 291 297 303 309 ">Polynomial Regression Learning Curve (lambda = 0.000000)</tspan>
   </text>
   <polyline stroke-width="0.5" stroke="#0071bc" stroke-linejoin="round" stroke-linecap="butt" fill="none" points="93.6953,327.478 123.153,327.478 152.611,327.478 182.069,327.478 211.527,327.478 240.985,327.478 270.443,327.414 299.901,327.265 329.359,326.943 358.817,327.052 388.275,327.093 417.733,327.038"/>
   <polyline stroke-width="0.5" stroke="#d85218" stroke-linejoin="round" stroke-linecap="butt" fill="none" points="141.128,27.2966 152.611,142.287 182.069,141.765 211.527,307.691 240.985,295.841 270.443,291.932 299.901,306.99 329.359,305.002 358.817,303.001 388.275,298.038 417.733,276.247"/>
  </g>
  <clipPath id="cp00494367">
   <polygon points="0,367 494,367 494,0 0,0"/>
  </clipPath>
  <g clip-path="url(#cp00494367)">
   <polygon shape-rendering="crispEdges" fill="#ffffff" points="349.192,61.5959 440.391,61.5959 440.391,34.3963 349.192,34.3963"/>
   <polyline stroke-width="0.5" stroke="#262626" stroke-linejoin="miter" stroke-dasharray="16,0" stroke-linecap="square" fill="none" points="349.192,61.5959 440.391,61.5959"/>
   <polyline stroke-width="0.5" stroke="#262626" stroke-linejoin="miter" stroke-dasharray="16,0" stroke-linecap="square" fill="none" points="349.192,34.3963 440.391,34.3963"/>
   <polyline stroke-width="0.5" stroke="#262626" stroke-linejoin="miter" stroke-dasharray="16,0" stroke-linecap="square" fill="none" points="349.192,61.5959 349.192,34.3963"/>
   <polyline stroke-width="0.5" stroke="#262626" stroke-linejoin="miter" stroke-dasharray="16,0" stroke-linecap="square" fill="none" points="440.391,61.5959 440.391,34.3963"/>
   <polyline stroke-width="0.5" stroke="#0071bc" stroke-linejoin="round" stroke-linecap="butt" fill="none" points="352.592,41.7961 369.591,41.7961"/>
   <text transform="translate(372.991,45.7962) rotate(-0,-0,-4)" font-weight="normal" xml:space="preserve" font-family="FreeSans" font-size="9" font-style="normal">
    <tspan y="-0" fill="rgb(0,0,0)" x="0 6 9 14 16 ">Train</tspan>
   </text>
   <polyline stroke-width="0.5" stroke="#d85218" stroke-linejoin="round" stroke-linecap="butt" fill="none" points="352.592,53.696 369.591,53.696"/>
   <text transform="translate(372.991,58.196) rotate(-0,-0,-4.5)" font-weight="normal" xml:space="preserve" font-family="FreeSans" font-size="9" font-style="normal">
    <tspan y="-1" fill="rgb(0,0,0)" x="0 6 9 14 18 22 24 30 35 37 39 44 49 52 54 59 ">Cross Validation</tspan>
   </text>
  </g>
 </g>
</svg>
