<?xml version='1.0' encoding='UTF-8' standalone='no'?>
<svg viewBox="0 0 494 367" height="367pt" width="494pt" xmlns:xlink="http://www.w3.org/1999/xlink" xmlns="http://www.w3.org/2000/svg">
 <title>gl2ps_renderer figure</title>
 <desc>
Creator: GL2PS 1.4.2, (C) 1999-2020 C. Geuzaine
For: Octave
CreationDate: Wed Aug 25 18:46:15 2021
</desc>
 <defs/>
 <polygon fill="#ffffff" points="0,0 494,0 494,367 0,367"/>
 <g>
  <polygon fill="#ffffff" points="0,367 494,367 494,0 0,0" shape-rendering="crispEdges"/>
  <clipPath id="cp00494367">
   <polygon points="0,367 494,367 494,0 0,0"/>
  </clipPath>
  <g clip-path="url(#cp00494367)">
   <polygon fill="#ffffff" points="64.2374,327.478 447.191,327.478 447.191,27.5965 64.2374,27.5965" shape-rendering="crispEdges"/>
   <polyline fill="none" stroke-width="0.5" points="64.2374,327.478 64.2374,323.65" stroke="#262626" stroke-linecap="butt" stroke-linejoin="miter"/>
   <polyline fill="none" stroke-width="0.5" points="64.2374,27.5965 64.2374,31.4245" stroke="#262626" stroke-linecap="butt" stroke-linejoin="miter"/>
   <polyline fill="none" stroke-width="0.5" points="123.153,327.478 123.153,323.65" stroke="#262626" stroke-linecap="butt" stroke-linejoin="miter"/>
   <polyline fill="none" stroke-width="0.5" points="123.153,27.5965 123.153,31.4245" stroke="#262626" stroke-linecap="butt" stroke-linejoin="miter"/>
   <polyline fill="none" stroke-width="0.5" points="182.069,327.478 182.069,323.65" stroke="#262626" stroke-linecap="butt" stroke-linejoin="miter"/>
   <polyline fill="none" stroke-width="0.5" points="182.069,27.5965 182.069,31.4245" stroke="#262626" stroke-linecap="butt" stroke-linejoin="miter"/>
   <polyline fill="none" stroke-width="0.5" points="240.985,327.478 240.985,323.65" stroke="#262626" stroke-linecap="butt" stroke-linejoin="miter"/>
   <polyline fill="none" stroke-width="0.5" points="240.985,27.5965 240.985,31.4245" stroke="#262626" stroke-linecap="butt" stroke-linejoin="miter"/>
   <polyline fill="none" stroke-width="0.5" points="299.901,327.478 299.901,323.65" stroke="#262626" stroke-linecap="butt" stroke-linejoin="miter"/>
   <polyline fill="none" stroke-width="0.5" points="299.901,27.5965 299.901,31.4245" stroke="#262626" stroke-linecap="butt" stroke-linejoin="miter"/>
   <polyline fill="none" stroke-width="0.5" points="358.817,327.478 358.817,323.65" stroke="#262626" stroke-linecap="butt" stroke-linejoin="miter"/>
   <polyline fill="none" stroke-width="0.5" points="358.817,27.5965 358.817,31.4245" stroke="#262626" stroke-linecap="butt" stroke-linejoin="miter"/>
   <polyline fill="none" stroke-width="0.5" points="417.733,327.478 417.733,323.65" stroke="#262626" stroke-linecap="butt" stroke-linejoin="miter"/>
   <polyline fill="none" stroke-width="0.5" points="417.733,27.5965 417.733,31.4245" stroke="#262626" stroke-linecap="butt" stroke-linejoin="miter"/>
   <text font-weight="normal" font-style="normal" xml:space="preserve" font-size="10" transform="translate(61.2374,342.975) rotate(-0,3,-8)" font-family="FreeSans">
    <tspan fill="rgb(38,38,38)" x="0 " y="-0">0</tspan>
   </text>
   <text font-weight="normal" font-style="normal" xml:space="preserve" font-size="10" transform="translate(120.153,342.975) rotate(-0,3,-8)" font-family="FreeSans">
    <tspan fill="rgb(38,38,38)" x="0 " y="-0">2</tspan>
   </text>
   <text font-weight="normal" font-style="normal" xml:space="preserve" font-size="10" transform="translate(179.069,342.975) rotate(-0,3,-8)" font-family="FreeSans">
    <tspan fill="rgb(38,38,38)" x="0 " y="-0">4</tspan>
   </text>
   <text font-weight="normal" font-style="normal" xml:space="preserve" font-size="10" transform="translate(237.985,342.975) rotate(-0,3,-8)" font-family="FreeSans">
    <tspan fill="rgb(38,38,38)" x="0 " y="-0">6</tspan>
   </text>
   <text font-weight="normal" font-style="normal" xml:space="preserve" font-size="10" transform="translate(296.901,342.975) rotate(-0,3,-8)" font-family="FreeSans">
    <tspan fill="rgb(38,38,38)" x="0 " y="-0">8</tspan>
   </text>
   <text font-weight="normal" font-style="normal" xml:space="preserve" font-size="10" transform="translate(352.817,342.975) rotate(-0,6,-8)" font-family="FreeSans">
    <tspan fill="rgb(38,38,38)" x="0 6 " y="-0">10</tspan>
   </text>
   <text font-weight="normal" font-style="normal" xml:space="preserve" font-size="10" transform="translate(411.733,342.975) rotate(-0,6,-8)" font-family="FreeSans">
    <tspan fill="rgb(38,38,38)" x="0 6 " y="-0">12</tspan>
   </text>
   <polyline fill="none" stroke-width="0.5" points="64.2374,327.478 68.0664,327.478" stroke="#262626" stroke-linecap="butt" stroke-linejoin="miter"/>
   <polyline fill="none" stroke-width="0.5" points="447.191,327.478 443.362,327.478" stroke="#262626" stroke-linecap="butt" stroke-linejoin="miter"/>
   <polyline fill="none" stroke-width="0.5" points="64.2374,287.494 68.0664,287.494" stroke="#262626" stroke-linecap="butt" stroke-linejoin="miter"/>
   <polyline fill="none" stroke-width="0.5" points="447.191,287.494 443.362,287.494" stroke="#262626" stroke-linecap="butt" stroke-linejoin="miter"/>
   <polyline fill="none" stroke-width="0.5" points="64.2374,247.51 68.0664,247.51" stroke="#262626" stroke-linecap="butt" stroke-linejoin="miter"/>
   <polyline fill="none" stroke-width="0.5" points="447.191,247.51 443.362,247.51" stroke="#262626" stroke-linecap="butt" stroke-linejoin="miter"/>
   <polyline fill="none" stroke-width="0.5" points="64.2374,207.526 68.0664,207.526" stroke="#262626" stroke-linecap="butt" stroke-linejoin="miter"/>
   <polyline fill="none" stroke-width="0.5" points="447.191,207.526 443.362,207.526" stroke="#262626" stroke-linecap="butt" stroke-linejoin="miter"/>
   <polyline fill="none" stroke-width="0.5" points="64.2374,167.541 68.0664,167.541" stroke="#262626" stroke-linecap="butt" stroke-linejoin="miter"/>
   <polyline fill="none" stroke-width="0.5" points="447.191,167.541 443.362,167.541" stroke="#262626" stroke-linecap="butt" stroke-linejoin="miter"/>
   <polyline fill="none" stroke-width="0.5" points="64.2374,127.557 68.0664,127.557" stroke="#262626" stroke-linecap="butt" stroke-linejoin="miter"/>
   <polyline fill="none" stroke-width="0.5" points="447.191,127.557 443.362,127.557" stroke="#262626" stroke-linecap="butt" stroke-linejoin="miter"/>
   <polyline fill="none" stroke-width="0.5" points="64.2374,87.5728 68.0664,87.5728" stroke="#262626" stroke-linecap="butt" stroke-linejoin="miter"/>
   <polyline fill="none" stroke-width="0.5" points="447.191,87.5728 443.362,87.5728" stroke="#262626" stroke-linecap="butt" stroke-linejoin="miter"/>
   <polyline fill="none" stroke-width="0.5" points="64.2374,47.5886 68.0664,47.5886" stroke="#262626" stroke-linecap="butt" stroke-linejoin="miter"/>
   <polyline fill="none" stroke-width="0.5" points="447.191,47.5886 443.362,47.5886" stroke="#262626" stroke-linecap="butt" stroke-linejoin="miter"/>
   <text font-weight="normal" font-style="normal" xml:space="preserve" font-size="10" transform="translate(53.238,331.478) rotate(-0,6,-4)" font-family="FreeSans">
    <tspan fill="rgb(38,38,38)" x="0 " y="-0">0</tspan>
   </text>
   <text font-weight="normal" font-style="normal" xml:space="preserve" font-size="10" transform="translate(47.238,291.494) rotate(-0,12,-4)" font-family="FreeSans">
    <tspan fill="rgb(38,38,38)" x="0 6 " y="-0">20</tspan>
   </text>
   <text font-weight="normal" font-style="normal" xml:space="preserve" font-size="10" transform="translate(47.238,251.51) rotate(-0,12,-4)" font-family="FreeSans">
    <tspan fill="rgb(38,38,38)" x="0 6 " y="-0">40</tspan>
   </text>
   <text font-weight="normal" font-style="normal" xml:space="preserve" font-size="10" transform="translate(47.238,211.526) rotate(-0,12,-4)" font-family="FreeSans">
    <tspan fill="rgb(38,38,38)" x="0 6 " y="-0">60</tspan>
   </text>
   <text font-weight="normal" font-style="normal" xml:space="preserve" font-size="10" transform="translate(47.238,171.541) rotate(-0,12,-4)" font-family="FreeSans">
    <tspan fill="rgb(38,38,38)" x="0 6 " y="-0">80</tspan>
   </text>
   <text font-weight="normal" font-style="normal" xml:space="preserve" font-size="10" transform="translate(41.238,131.557) rotate(-0,18,-4)" font-family="FreeSans">
    <tspan fill="rgb(38,38,38)" x="0 6 12 " y="-0">100</tspan>
   </text>
   <text font-weight="normal" font-style="normal" xml:space="preserve" font-size="10" transform="translate(41.238,91.5728) rotate(-0,18,-4)" font-family="FreeSans">
    <tspan fill="rgb(38,38,38)" x="0 6 12 " y="-0">120</tspan>
   </text>
   <text font-weight="normal" font-style="normal" xml:space="preserve" font-size="10" transform="translate(41.238,51.5886) rotate(-0,18,-4)" font-family="FreeSans">
    <tspan fill="rgb(38,38,38)" x="0 6 12 " y="-0">140</tspan>
   </text>
   <polyline fill="none" stroke-width="0.5" points="64.2374,327.478 447.191,327.478" stroke="#262626" stroke-dasharray="16,0" stroke-linecap="square" stroke-linejoin="miter"/>
   <polyline fill="none" stroke-width="0.5" points="64.2374,27.5965 447.191,27.5965" stroke="#262626" stroke-dasharray="16,0" stroke-linecap="square" stroke-linejoin="miter"/>
   <polyline fill="none" stroke-width="0.5" points="64.2374,327.478 64.2374,27.5965" stroke="#262626" stroke-dasharray="16,0" stroke-linecap="square" stroke-linejoin="miter"/>
   <polyline fill="none" stroke-width="0.5" points="447.191,327.478 447.191,27.5965" stroke="#262626" stroke-dasharray="16,0" stroke-linecap="square" stroke-linejoin="miter"/>
   <text font-weight="normal" font-style="normal" xml:space="preserve" font-size="11" transform="translate(187.214,359.975) rotate(-0,68.5,-12)" font-family="FreeSans">
    <tspan fill="rgb(38,38,38)" x="0 8 14 23 29 35 39 42 48 51 54 57 61 67 69 75 77 83 89 92 98 103 109 118 124 126 132 " y="-3">Number of training examples</tspan>
   </text>
   <text font-weight="normal" font-style="normal" xml:space="preserve" font-size="11" transform="translate(23.738,177.537) rotate(-90,12.5,0)" font-family="FreeSans">
    <tspan fill="rgb(38,38,38)" x="0 7 11 15 21 " y="-0">Error</tspan>
   </text>
   <text font-weight="bold" font-style="normal" xml:space="preserve" font-size="11" transform="translate(161.714,17.5965) rotate(-0,94,0)" font-family="FreeSans">
    <tspan fill="rgb(0,0,0)" x="0 7 13 19 23 30 33 40 47 50 56 63 67 73 79 82 86 93 97 100 103 106 113 119 125 129 132 136 142 149 153 159 165 171 174 181 " y="-3">Learning curve for linear regression</tspan>
   </text>
   <polyline fill="none" stroke-width="1.5" points="93.6953,327.478 123.153,327.478 152.611,320.908 182.069,321.795 211.527,301.181 240.985,288.606 270.443,287.297 299.901,291.147 329.359,282.277 358.817,280.974 388.275,278.863 417.733,282.748" stroke="#0071bc" stroke-linecap="butt" stroke-linejoin="round"/>
   <polyline fill="none" stroke-width="1.3" points="110.773,27.2966 123.153,106.964 152.611,237.493 182.069,230.779 211.527,255.776 240.985,259.845 270.443,263.562 299.901,265.778 329.359,265.231 358.817,269.629 388.275,268.399 417.733,268.634" stroke="#d85218" stroke-linecap="butt" stroke-linejoin="round"/>
  </g>
  <clipPath id="cp00494367">
   <polygon points="0,367 494,367 494,0 0,0"/>
  </clipPath>
  <g clip-path="url(#cp00494367)">
   <polygon fill="#ffffff" points="349.192,61.5959 440.391,61.5959 440.391,34.3963 349.192,34.3963" shape-rendering="crispEdges"/>
   <polyline fill="none" stroke-width="0.5" points="349.192,61.5959 440.391,61.5959" stroke="#262626" stroke-dasharray="16,0" stroke-linecap="square" stroke-linejoin="miter"/>
   <polyline fill="none" stroke-width="0.5" points="349.192,34.3963 440.391,34.3963" stroke="#262626" stroke-dasharray="16,0" stroke-linecap="square" stroke-linejoin="miter"/>
   <polyline fill="none" stroke-width="0.5" points="349.192,61.5959 349.192,34.3963" stroke="#262626" stroke-dasharray="16,0" stroke-linecap="square" stroke-linejoin="miter"/>
   <polyline fill="none" stroke-width="0.5" points="440.391,61.5959 440.391,34.3963" stroke="#262626" stroke-dasharray="16,0" stroke-linecap="square" stroke-linejoin="miter"/>
   <polyline fill="none" stroke-width="1.5" points="352.592,41.7961 369.591,41.7961" stroke="#0071bc" stroke-linecap="butt" stroke-linejoin="round"/>
   <text font-weight="normal" font-style="normal" xml:space="preserve" font-size="9" transform="translate(372.991,45.7962) rotate(-0,-0,-4)" font-family="FreeSans">
    <tspan fill="rgb(0,0,0)" x="0 6 9 14 16 " y="-0">Train</tspan>
   </text>
   <polyline fill="none" stroke-width="1.3" points="352.592,53.696 369.591,53.696" stroke="#d85218" stroke-linecap="butt" stroke-linejoin="round"/>
   <text font-weight="normal" font-style="normal" xml:space="preserve" font-size="9" transform="translate(372.991,58.196) rotate(-0,-0,-4.5)" font-family="FreeSans">
    <tspan fill="rgb(0,0,0)" x="0 6 9 14 18 22 24 30 35 37 39 44 49 52 54 59 " y="-1">Cross Validation</tspan>
   </text>
  </g>
 </g>
</svg>
