<?xml version='1.0' encoding='UTF-8' standalone='no'?>
<svg viewBox="0 0 494 367" height="367pt" xmlns="http://www.w3.org/2000/svg" xmlns:xlink="http://www.w3.org/1999/xlink" width="494pt">
 <title>gl2ps_renderer figure</title>
 <desc>
Creator: GL2PS 1.4.2, (C) 1999-2020 C. Geuzaine
For: Octave
CreationDate: Wed Aug 25 18:46:41 2021
</desc>
 <defs/>
 <polygon points="0,0 494,0 494,367 0,367" fill="#ffffff"/>
 <g>
  <polygon points="0,367 494,367 494,0 0,0" fill="#ffffff" shape-rendering="crispEdges"/>
  <clipPath id="cp00494367">
   <polygon points="0,367 494,367 494,0 0,0"/>
  </clipPath>
  <g clip-path="url(#cp00494367)">
   <polygon points="64.2374,327.478 447.191,327.478 447.191,27.5965 64.2374,27.5965" fill="#ffffff" shape-rendering="crispEdges"/>
   <polyline points="64.2374,327.478 64.2374,323.65" stroke-width="0.5" stroke-linecap="butt" fill="none" stroke="#262626" stroke-linejoin="miter"/>
   <polyline points="64.2374,27.5965 64.2374,31.4245" stroke-width="0.5" stroke-linecap="butt" fill="none" stroke="#262626" stroke-linejoin="miter"/>
   <polyline points="123.153,327.478 123.153,323.65" stroke-width="0.5" stroke-linecap="butt" fill="none" stroke="#262626" stroke-linejoin="miter"/>
   <polyline points="123.153,27.5965 123.153,31.4245" stroke-width="0.5" stroke-linecap="butt" fill="none" stroke="#262626" stroke-linejoin="miter"/>
   <polyline points="182.069,327.478 182.069,323.65" stroke-width="0.5" stroke-linecap="butt" fill="none" stroke="#262626" stroke-linejoin="miter"/>
   <polyline points="182.069,27.5965 182.069,31.4245" stroke-width="0.5" stroke-linecap="butt" fill="none" stroke="#262626" stroke-linejoin="miter"/>
   <polyline points="240.985,327.478 240.985,323.65" stroke-width="0.5" stroke-linecap="butt" fill="none" stroke="#262626" stroke-linejoin="miter"/>
   <polyline points="240.985,27.5965 240.985,31.4245" stroke-width="0.5" stroke-linecap="butt" fill="none" stroke="#262626" stroke-linejoin="miter"/>
   <polyline points="299.901,327.478 299.901,323.65" stroke-width="0.5" stroke-linecap="butt" fill="none" stroke="#262626" stroke-linejoin="miter"/>
   <polyline points="299.901,27.5965 299.901,31.4245" stroke-width="0.5" stroke-linecap="butt" fill="none" stroke="#262626" stroke-linejoin="miter"/>
   <polyline points="358.817,327.478 358.817,323.65" stroke-width="0.5" stroke-linecap="butt" fill="none" stroke="#262626" stroke-linejoin="miter"/>
   <polyline points="358.817,27.5965 358.817,31.4245" stroke-width="0.5" stroke-linecap="butt" fill="none" stroke="#262626" stroke-linejoin="miter"/>
   <polyline points="417.733,327.478 417.733,323.65" stroke-width="0.5" stroke-linecap="butt" fill="none" stroke="#262626" stroke-linejoin="miter"/>
   <polyline points="417.733,27.5965 417.733,31.4245" stroke-width="0.5" stroke-linecap="butt" fill="none" stroke="#262626" stroke-linejoin="miter"/>
   <text font-style="normal" font-size="10" font-weight="normal" xml:space="preserve" font-family="FreeSans" transform="translate(61.2374,342.975) rotate(-0,3,-8)">
    <tspan x="0 " fill="rgb(38,38,38)" y="-0">0</tspan>
   </text>
   <text font-style="normal" font-size="10" font-weight="normal" xml:space="preserve" font-family="FreeSans" transform="translate(120.153,342.975) rotate(-0,3,-8)">
    <tspan x="0 " fill="rgb(38,38,38)" y="-0">2</tspan>
   </text>
   <text font-style="normal" font-size="10" font-weight="normal" xml:space="preserve" font-family="FreeSans" transform="translate(179.069,342.975) rotate(-0,3,-8)">
    <tspan x="0 " fill="rgb(38,38,38)" y="-0">4</tspan>
   </text>
   <text font-style="normal" font-size="10" font-weight="normal" xml:space="preserve" font-family="FreeSans" transform="translate(237.985,342.975) rotate(-0,3,-8)">
    <tspan x="0 " fill="rgb(38,38,38)" y="-0">6</tspan>
   </text>
   <text font-style="normal" font-size="10" font-weight="normal" xml:space="preserve" font-family="FreeSans" transform="translate(296.901,342.975) rotate(-0,3,-8)">
    <tspan x="0 " fill="rgb(38,38,38)" y="-0">8</tspan>
   </text>
   <text font-style="normal" font-size="10" font-weight="normal" xml:space="preserve" font-family="FreeSans" transform="translate(352.817,342.975) rotate(-0,6,-8)">
    <tspan x="0 6 " fill="rgb(38,38,38)" y="-0">10</tspan>
   </text>
   <text font-style="normal" font-size="10" font-weight="normal" xml:space="preserve" font-family="FreeSans" transform="translate(411.733,342.975) rotate(-0,6,-8)">
    <tspan x="0 6 " fill="rgb(38,38,38)" y="-0">12</tspan>
   </text>
   <polyline points="64.2374,327.478 68.0664,327.478" stroke-width="0.5" stroke-linecap="butt" fill="none" stroke="#262626" stroke-linejoin="miter"/>
   <polyline points="447.191,327.478 443.362,327.478" stroke-width="0.5" stroke-linecap="butt" fill="none" stroke="#262626" stroke-linejoin="miter"/>
   <polyline points="64.2374,267.502 68.0664,267.502" stroke-width="0.5" stroke-linecap="butt" fill="none" stroke="#262626" stroke-linejoin="miter"/>
   <polyline points="447.191,267.502 443.362,267.502" stroke-width="0.5" stroke-linecap="butt" fill="none" stroke="#262626" stroke-linejoin="miter"/>
   <polyline points="64.2374,207.526 68.0664,207.526" stroke-width="0.5" stroke-linecap="butt" fill="none" stroke="#262626" stroke-linejoin="miter"/>
   <polyline points="447.191,207.526 443.362,207.526" stroke-width="0.5" stroke-linecap="butt" fill="none" stroke="#262626" stroke-linejoin="miter"/>
   <polyline points="64.2374,147.549 68.0664,147.549" stroke-width="0.5" stroke-linecap="butt" fill="none" stroke="#262626" stroke-linejoin="miter"/>
   <polyline points="447.191,147.549 443.362,147.549" stroke-width="0.5" stroke-linecap="butt" fill="none" stroke="#262626" stroke-linejoin="miter"/>
   <polyline points="64.2374,87.5728 68.0664,87.5728" stroke-width="0.5" stroke-linecap="butt" fill="none" stroke="#262626" stroke-linejoin="miter"/>
   <polyline points="447.191,87.5728 443.362,87.5728" stroke-width="0.5" stroke-linecap="butt" fill="none" stroke="#262626" stroke-linejoin="miter"/>
   <polyline points="64.2374,27.5965 68.0664,27.5965" stroke-width="0.5" stroke-linecap="butt" fill="none" stroke="#262626" stroke-linejoin="miter"/>
   <polyline points="447.191,27.5965 443.362,27.5965" stroke-width="0.5" stroke-linecap="butt" fill="none" stroke="#262626" stroke-linejoin="miter"/>
   <text font-style="normal" font-size="10" font-weight="normal" xml:space="preserve" font-family="FreeSans" transform="translate(53.238,331.478) rotate(-0,6,-4)">
    <tspan x="0 " fill="rgb(38,38,38)" y="-0">0</tspan>
   </text>
   <text font-style="normal" font-size="10" font-weight="normal" xml:space="preserve" font-family="FreeSans" transform="translate(47.238,271.502) rotate(-0,12,-4)">
    <tspan x="0 6 " fill="rgb(38,38,38)" y="-0">20</tspan>
   </text>
   <text font-style="normal" font-size="10" font-weight="normal" xml:space="preserve" font-family="FreeSans" transform="translate(47.238,211.526) rotate(-0,12,-4)">
    <tspan x="0 6 " fill="rgb(38,38,38)" y="-0">40</tspan>
   </text>
   <text font-style="normal" font-size="10" font-weight="normal" xml:space="preserve" font-family="FreeSans" transform="translate(47.238,151.549) rotate(-0,12,-4)">
    <tspan x="0 6 " fill="rgb(38,38,38)" y="-0">60</tspan>
   </text>
   <text font-style="normal" font-size="10" font-weight="normal" xml:space="preserve" font-family="FreeSans" transform="translate(47.238,91.5728) rotate(-0,12,-4)">
    <tspan x="0 6 " fill="rgb(38,38,38)" y="-0">80</tspan>
   </text>
   <text font-style="normal" font-size="10" font-weight="normal" xml:space="preserve" font-family="FreeSans" transform="translate(41.238,31.5965) rotate(-0,18,-4)">
    <tspan x="0 6 12 " fill="rgb(38,38,38)" y="-0">100</tspan>
   </text>
   <polyline points="64.2374,327.478 447.191,327.478" stroke-dasharray="16,0" stroke-width="0.5" stroke-linecap="square" fill="none" stroke="#262626" stroke-linejoin="miter"/>
   <polyline points="64.2374,27.5965 447.191,27.5965" stroke-dasharray="16,0" stroke-width="0.5" stroke-linecap="square" fill="none" stroke="#262626" stroke-linejoin="miter"/>
   <polyline points="64.2374,327.478 64.2374,27.5965" stroke-dasharray="16,0" stroke-width="0.5" stroke-linecap="square" fill="none" stroke="#262626" stroke-linejoin="miter"/>
   <polyline points="447.191,327.478 447.191,27.5965" stroke-dasharray="16,0" stroke-width="0.5" stroke-linecap="square" fill="none" stroke="#262626" stroke-linejoin="miter"/>
   <text font-style="normal" font-size="11" font-weight="normal" xml:space="preserve" font-family="FreeSans" transform="translate(187.214,359.975) rotate(-0,68.5,-12)">
    <tspan x="0 8 14 23 29 35 39 42 48 51 54 57 61 67 69 75 77 83 89 92 98 103 109 118 124 126 132 " fill="rgb(38,38,38)" y="-3">Number of training examples</tspan>
   </text>
   <text font-style="normal" font-size="11" font-weight="normal" xml:space="preserve" font-family="FreeSans" transform="translate(23.738,177.537) rotate(-90,12.5,0)">
    <tspan x="0 7 11 15 21 " fill="rgb(38,38,38)" y="-0">Error</tspan>
   </text>
   <text font-style="normal" font-size="11" font-weight="bold" xml:space="preserve" font-family="FreeSans" transform="translate(99.2142,17.5965) rotate(-0,156.5,0)">
    <tspan x="0 7 14 17 23 30 37 47 50 56 59 62 70 76 83 87 93 99 105 108 115 122 125 132 138 144 148 155 158 165 172 175 183 190 194 200 206 209 213 216 222 232 239 246 252 255 261 264 270 273 279 285 291 297 303 309 " fill="rgb(0,0,0)" y="-3">Polynomial Regression Learning Curve (lambda = 0.000000)</tspan>
   </text>
   <polyline points="93.6953,327.478 123.153,327.478 152.611,327.478 182.069,327.478 211.527,327.478 240.985,327.478 270.443,327.414 299.901,327.265 329.359,326.943 358.817,327.052 388.275,327.093 417.733,327.038" stroke-width="1.5" stroke-linecap="butt" fill="none" stroke="#0071bc" stroke-linejoin="round"/>
   <polyline points="141.128,27.2966 152.611,142.287 182.069,141.765 211.527,307.691 240.985,295.841 270.443,291.932 299.901,306.99 329.359,305.002 358.817,303.001 388.275,298.038 417.733,276.247" stroke-width="1.3" stroke-linecap="butt" fill="none" stroke="#d85218" stroke-linejoin="round"/>
  </g>
  <clipPath id="cp00494367">
   <polygon points="0,367 494,367 494,0 0,0"/>
  </clipPath>
  <g clip-path="url(#cp00494367)">
   <polygon points="349.192,61.5959 440.391,61.5959 440.391,34.3963 349.192,34.3963" fill="#ffffff" shape-rendering="crispEdges"/>
   <polyline points="349.192,61.5959 440.391,61.5959" stroke-dasharray="16,0" stroke-width="0.5" stroke-linecap="square" fill="none" stroke="#262626" stroke-linejoin="miter"/>
   <polyline points="349.192,34.3963 440.391,34.3963" stroke-dasharray="16,0" stroke-width="0.5" stroke-linecap="square" fill="none" stroke="#262626" stroke-linejoin="miter"/>
   <polyline points="349.192,61.5959 349.192,34.3963" stroke-dasharray="16,0" stroke-width="0.5" stroke-linecap="square" fill="none" stroke="#262626" stroke-linejoin="miter"/>
   <polyline points="440.391,61.5959 440.391,34.3963" stroke-dasharray="16,0" stroke-width="0.5" stroke-linecap="square" fill="none" stroke="#262626" stroke-linejoin="miter"/>
   <polyline points="352.592,41.7961 369.591,41.7961" stroke-width="1.5" stroke-linecap="butt" fill="none" stroke="#0071bc" stroke-linejoin="round"/>
   <text font-style="normal" font-size="9" font-weight="normal" xml:space="preserve" font-family="FreeSans" transform="translate(372.991,45.7962) rotate(-0,-0,-4)">
    <tspan x="0 6 9 14 16 " fill="rgb(0,0,0)" y="-0">Train</tspan>
   </text>
   <polyline points="352.592,53.696 369.591,53.696" stroke-width="1.3" stroke-linecap="butt" fill="none" stroke="#d85218" stroke-linejoin="round"/>
   <text font-style="normal" font-size="9" font-weight="normal" xml:space="preserve" font-family="FreeSans" transform="translate(372.991,58.196) rotate(-0,-0,-4.5)">
    <tspan x="0 6 9 14 18 22 24 30 35 37 39 44 49 52 54 59 " fill="rgb(0,0,0)" y="-1">Cross Validation</tspan>
   </text>
  </g>
 </g>
</svg>
