<?xml version='1.0' encoding='UTF-8' standalone='no'?>
<svg xmlns="http://www.w3.org/2000/svg" width="494pt" height="367pt" viewBox="0 0 494 367" xmlns:xlink="http://www.w3.org/1999/xlink">
 <title>gl2ps_renderer figure</title>
 <desc>
Creator: GL2PS 1.4.2, (C) 1999-2020 C. Geuzaine
For: Octave
CreationDate: Wed Aug 25 18:08:33 2021
</desc>
 <defs/>
 <polygon points="0,0 494,0 494,367 0,367" fill="#ffffff"/>
 <g>
  <polygon points="0,367 494,367 494,0 0,0" fill="#ffffff" shape-rendering="crispEdges"/>
  <clipPath id="cp00494367">
   <polygon points="0,367 494,367 494,0 0,0"/>
  </clipPath>
  <g clip-path="url(#cp00494367)">
   <polygon points="64.2374,327.478 447.191,327.478 447.191,27.5965 64.2374,27.5965" fill="#ffffff" shape-rendering="crispEdges"/>
   <polyline stroke-linecap="butt" points="64.2374,327.478 64.2374,323.65" fill="none" stroke="#262626" stroke-width="0.5" stroke-linejoin="miter"/>
   <polyline stroke-linecap="butt" points="64.2374,27.5965 64.2374,31.4245" fill="none" stroke="#262626" stroke-width="0.5" stroke-linejoin="miter"/>
   <polyline stroke-linecap="butt" points="140.828,327.478 140.828,323.65" fill="none" stroke="#262626" stroke-width="0.5" stroke-linejoin="miter"/>
   <polyline stroke-linecap="butt" points="140.828,27.5965 140.828,31.4245" fill="none" stroke="#262626" stroke-width="0.5" stroke-linejoin="miter"/>
   <polyline stroke-linecap="butt" points="217.419,327.478 217.419,323.65" fill="none" stroke="#262626" stroke-width="0.5" stroke-linejoin="miter"/>
   <polyline stroke-linecap="butt" points="217.419,27.5965 217.419,31.4245" fill="none" stroke="#262626" stroke-width="0.5" stroke-linejoin="miter"/>
   <polyline stroke-linecap="butt" points="294.01,327.478 294.01,323.65" fill="none" stroke="#262626" stroke-width="0.5" stroke-linejoin="miter"/>
   <polyline stroke-linecap="butt" points="294.01,27.5965 294.01,31.4245" fill="none" stroke="#262626" stroke-width="0.5" stroke-linejoin="miter"/>
   <polyline stroke-linecap="butt" points="370.6,327.478 370.6,323.65" fill="none" stroke="#262626" stroke-width="0.5" stroke-linejoin="miter"/>
   <polyline stroke-linecap="butt" points="370.6,27.5965 370.6,31.4245" fill="none" stroke="#262626" stroke-width="0.5" stroke-linejoin="miter"/>
   <polyline stroke-linecap="butt" points="447.191,327.478 447.191,323.65" fill="none" stroke="#262626" stroke-width="0.5" stroke-linejoin="miter"/>
   <polyline stroke-linecap="butt" points="447.191,27.5965 447.191,31.4245" fill="none" stroke="#262626" stroke-width="0.5" stroke-linejoin="miter"/>
   <text transform="translate(56.7374,342.975) rotate(-0,7.5,-8)" font-style="normal" xml:space="preserve" font-family="FreeSans" font-weight="normal" font-size="10">
    <tspan fill="rgb(38,38,38)" y="-0" x="0 3 9 ">-60</tspan>
   </text>
   <text transform="translate(133.328,342.975) rotate(-0,7.5,-8)" font-style="normal" xml:space="preserve" font-family="FreeSans" font-weight="normal" font-size="10">
    <tspan fill="rgb(38,38,38)" y="-0" x="0 3 9 ">-40</tspan>
   </text>
   <text transform="translate(209.919,342.975) rotate(-0,7.5,-8)" font-style="normal" xml:space="preserve" font-family="FreeSans" font-weight="normal" font-size="10">
    <tspan fill="rgb(38,38,38)" y="-0" x="0 3 9 ">-20</tspan>
   </text>
   <text transform="translate(291.01,342.975) rotate(-0,3,-8)" font-style="normal" xml:space="preserve" font-family="FreeSans" font-weight="normal" font-size="10">
    <tspan fill="rgb(38,38,38)" y="-0" x="0 ">0</tspan>
   </text>
   <text transform="translate(364.6,342.975) rotate(-0,6,-8)" font-style="normal" xml:space="preserve" font-family="FreeSans" font-weight="normal" font-size="10">
    <tspan fill="rgb(38,38,38)" y="-0" x="0 6 ">20</tspan>
   </text>
   <text transform="translate(441.191,342.975) rotate(-0,6,-8)" font-style="normal" xml:space="preserve" font-family="FreeSans" font-weight="normal" font-size="10">
    <tspan fill="rgb(38,38,38)" y="-0" x="0 6 ">40</tspan>
   </text>
   <polyline stroke-linecap="butt" points="64.2374,327.478 68.0664,327.478" fill="none" stroke="#262626" stroke-width="0.5" stroke-linejoin="miter"/>
   <polyline stroke-linecap="butt" points="447.191,327.478 443.362,327.478" fill="none" stroke="#262626" stroke-width="0.5" stroke-linejoin="miter"/>
   <polyline stroke-linecap="butt" points="64.2374,267.502 68.0664,267.502" fill="none" stroke="#262626" stroke-width="0.5" stroke-linejoin="miter"/>
   <polyline stroke-linecap="butt" points="447.191,267.502 443.362,267.502" fill="none" stroke="#262626" stroke-width="0.5" stroke-linejoin="miter"/>
   <polyline stroke-linecap="butt" points="64.2374,207.526 68.0664,207.526" fill="none" stroke="#262626" stroke-width="0.5" stroke-linejoin="miter"/>
   <polyline stroke-linecap="butt" points="447.191,207.526 443.362,207.526" fill="none" stroke="#262626" stroke-width="0.5" stroke-linejoin="miter"/>
   <polyline stroke-linecap="butt" points="64.2374,147.549 68.0664,147.549" fill="none" stroke="#262626" stroke-width="0.5" stroke-linejoin="miter"/>
   <polyline stroke-linecap="butt" points="447.191,147.549 443.362,147.549" fill="none" stroke="#262626" stroke-width="0.5" stroke-linejoin="miter"/>
   <polyline stroke-linecap="butt" points="64.2374,87.5728 68.0664,87.5728" fill="none" stroke="#262626" stroke-width="0.5" stroke-linejoin="miter"/>
   <polyline stroke-linecap="butt" points="447.191,87.5728 443.362,87.5728" fill="none" stroke="#262626" stroke-width="0.5" stroke-linejoin="miter"/>
   <polyline stroke-linecap="butt" points="64.2374,27.5965 68.0664,27.5965" fill="none" stroke="#262626" stroke-width="0.5" stroke-linejoin="miter"/>
   <polyline stroke-linecap="butt" points="447.191,27.5965 443.362,27.5965" fill="none" stroke="#262626" stroke-width="0.5" stroke-linejoin="miter"/>
   <text transform="translate(44.238,331.478) rotate(-0,15,-4)" font-style="normal" xml:space="preserve" font-family="FreeSans" font-weight="normal" font-size="10">
    <tspan fill="rgb(38,38,38)" y="-0" x="0 3 9 ">-10</tspan>
   </text>
   <text transform="translate(53.238,271.502) rotate(-0,6,-4)" font-style="normal" xml:space="preserve" font-family="FreeSans" font-weight="normal" font-size="10">
    <tspan fill="rgb(38,38,38)" y="-0" x="0 ">0</tspan>
   </text>
   <text transform="translate(47.238,211.526) rotate(-0,12,-4)" font-style="normal" xml:space="preserve" font-family="FreeSans" font-weight="normal" font-size="10">
    <tspan fill="rgb(38,38,38)" y="-0" x="0 6 ">10</tspan>
   </text>
   <text transform="translate(47.238,151.549) rotate(-0,12,-4)" font-style="normal" xml:space="preserve" font-family="FreeSans" font-weight="normal" font-size="10">
    <tspan fill="rgb(38,38,38)" y="-0" x="0 6 ">20</tspan>
   </text>
   <text transform="translate(47.238,91.5728) rotate(-0,12,-4)" font-style="normal" xml:space="preserve" font-family="FreeSans" font-weight="normal" font-size="10">
    <tspan fill="rgb(38,38,38)" y="-0" x="0 6 ">30</tspan>
   </text>
   <text transform="translate(47.238,31.5965) rotate(-0,12,-4)" font-style="normal" xml:space="preserve" font-family="FreeSans" font-weight="normal" font-size="10">
    <tspan fill="rgb(38,38,38)" y="-0" x="0 6 ">40</tspan>
   </text>
   <polyline stroke-linecap="square" points="64.2374,327.478 447.191,327.478" fill="none" stroke-dasharray="16,0" stroke="#262626" stroke-width="0.5" stroke-linejoin="miter"/>
   <polyline stroke-linecap="square" points="64.2374,27.5965 447.191,27.5965" fill="none" stroke-dasharray="16,0" stroke="#262626" stroke-width="0.5" stroke-linejoin="miter"/>
   <polyline stroke-linecap="square" points="64.2374,327.478 64.2374,27.5965" fill="none" stroke-dasharray="16,0" stroke="#262626" stroke-width="0.5" stroke-linejoin="miter"/>
   <polyline stroke-linecap="square" points="447.191,327.478 447.191,27.5965" fill="none" stroke-dasharray="16,0" stroke="#262626" stroke-width="0.5" stroke-linejoin="miter"/>
   <text transform="translate(-37.262,177.537) rotate(-90,76.5,0)" font-style="normal" xml:space="preserve" font-family="FreeSans" font-weight="normal" font-size="11">
    <tspan fill="rgb(38,38,38)" y="-3" x="0 10 16 19 25 29 32 35 37 43 51 53 59 65 68 74 80 83 86 92 95 98 101 107 113 116 122 128 137 140 144 149 ">Water flowing out of the dam (y)</tspan>
   </text>
   <text transform="translate(196.214,359.975) rotate(-0,59.5,-12)" font-style="normal" xml:space="preserve" font-family="FreeSans" font-weight="normal" font-size="11">
    <tspan fill="rgb(38,38,38)" y="-3" x="0 8 14 20 26 32 38 41 43 49 52 60 66 69 75 79 82 84 90 95 101 103 106 110 115 ">Change in water level (x)</tspan>
   </text>
   <polyline stroke-linecap="square" points="227.979,249.701 237.979,259.701" fill="none" stroke="#ff0000" stroke-width="1.5" stroke-linejoin="miter"/>
   <polyline stroke-linecap="square" points="227.979,259.701 237.979,249.701" fill="none" stroke="#ff0000" stroke-width="1.5" stroke-linejoin="miter"/>
   <polyline stroke-linecap="square" points="177.367,255.465 187.367,265.465" fill="none" stroke="#ff0000" stroke-width="1.5" stroke-linejoin="miter"/>
   <polyline stroke-linecap="square" points="177.367,265.465 187.367,255.465" fill="none" stroke="#ff0000" stroke-width="1.5" stroke-linejoin="miter"/>
   <polyline stroke-linecap="square" points="427.599,56.4285 437.599,66.4285" fill="none" stroke="#ff0000" stroke-width="1.5" stroke-linejoin="miter"/>
   <polyline stroke-linecap="square" points="427.599,66.4285 437.599,56.4285" fill="none" stroke="#ff0000" stroke-width="1.5" stroke-linejoin="miter"/>
   <polyline stroke-linecap="square" points="432.587,41.5613 442.587,51.5613" fill="none" stroke="#ff0000" stroke-width="1.5" stroke-linejoin="miter"/>
   <polyline stroke-linecap="square" points="432.587,51.5613 442.587,41.5613" fill="none" stroke="#ff0000" stroke-width="1.5" stroke-linejoin="miter"/>
   <polyline stroke-linecap="square" points="104.967,245.655 114.967,255.655" fill="none" stroke="#ff0000" stroke-width="1.5" stroke-linejoin="miter"/>
   <polyline stroke-linecap="square" points="104.967,255.655 114.967,245.655" fill="none" stroke="#ff0000" stroke-width="1.5" stroke-linejoin="miter"/>
   <polyline stroke-linecap="square" points="254.768,249.78 264.768,259.78" fill="none" stroke="#ff0000" stroke-width="1.5" stroke-linejoin="miter"/>
   <polyline stroke-linecap="square" points="254.768,259.78 264.768,249.78" fill="none" stroke="#ff0000" stroke-width="1.5" stroke-linejoin="miter"/>
   <polyline stroke-linecap="square" points="347.631,174.275 357.631,184.275" fill="none" stroke="#ff0000" stroke-width="1.5" stroke-linejoin="miter"/>
   <polyline stroke-linecap="square" points="347.631,184.275 357.631,174.275" fill="none" stroke="#ff0000" stroke-width="1.5" stroke-linejoin="miter"/>
   <polyline stroke-linecap="square" points="156.101,246.823 166.101,256.823" fill="none" stroke="#ff0000" stroke-width="1.5" stroke-linejoin="miter"/>
   <polyline stroke-linecap="square" points="156.101,256.823 166.101,246.823" fill="none" stroke="#ff0000" stroke-width="1.5" stroke-linejoin="miter"/>
   <polyline stroke-linecap="square" points="294.329,240.07 304.329,250.07" fill="none" stroke="#ff0000" stroke-width="1.5" stroke-linejoin="miter"/>
   <polyline stroke-linecap="square" points="294.329,250.07 304.329,240.07" fill="none" stroke="#ff0000" stroke-width="1.5" stroke-linejoin="miter"/>
   <polyline stroke-linecap="square" points="119.04,240.121 129.04,250.121" fill="none" stroke="#ff0000" stroke-width="1.5" stroke-linejoin="miter"/>
   <polyline stroke-linecap="square" points="119.04,250.121 129.04,240.121" fill="none" stroke="#ff0000" stroke-width="1.5" stroke-linejoin="miter"/>
   <polyline stroke-linecap="square" points="315.868,216.754 325.868,226.754" fill="none" stroke="#ff0000" stroke-width="1.5" stroke-linejoin="miter"/>
   <polyline stroke-linecap="square" points="315.868,226.754 325.868,216.754" fill="none" stroke="#ff0000" stroke-width="1.5" stroke-linejoin="miter"/>
   <polyline stroke-linecap="square" points="376.18,126.041 386.18,136.041" fill="none" stroke="#ff0000" stroke-width="1.5" stroke-linejoin="miter"/>
   <polyline stroke-linecap="square" points="376.18,136.041 386.18,126.041" fill="none" stroke="#ff0000" stroke-width="1.5" stroke-linejoin="miter"/>
   <polyline stroke-linecap="butt" points="232.979,224.159 182.367,253.311 432.599,109.178 437.587,106.305 109.967,295.014 259.768,208.729 352.631,155.239 161.101,265.561 299.329,185.941 124.04,286.907 320.868,173.535 381.18,138.795" fill="none" stroke-dasharray="8,8,8,8" stroke="#0071bc" stroke-width="2" stroke-linejoin="round"/>
  </g>
 </g>
</svg>
