<?xml version='1.0' encoding='UTF-8' standalone='no'?>
<svg viewBox="0 0 494 367" width="494pt" xmlns="http://www.w3.org/2000/svg" xmlns:xlink="http://www.w3.org/1999/xlink" height="367pt">
 <title>gl2ps_renderer figure</title>
 <desc>
Creator: GL2PS 1.4.2, (C) 1999-2020 C. Geuzaine
For: Octave
CreationDate: Wed Aug 25 18:09:12 2021
</desc>
 <defs/>
 <polygon fill="#ffffff" points="0,0 494,0 494,367 0,367"/>
 <g>
  <polygon fill="#ffffff" points="0,367 494,367 494,0 0,0" shape-rendering="crispEdges"/>
  <clipPath id="cp00494367">
   <polygon points="0,367 494,367 494,0 0,0"/>
  </clipPath>
  <g clip-path="url(#cp00494367)">
   <polygon fill="#ffffff" shape-rendering="crispEdges" points="64.2374,327.478 447.191,327.478 447.191,27.5965 64.2374,27.5965"/>
   <polyline fill="none" stroke-linecap="butt" points="64.2374,327.478 64.2374,323.65" stroke="#262626" stroke-width="0.5" stroke-linejoin="miter"/>
   <polyline fill="none" stroke-linecap="butt" points="64.2374,27.5965 64.2374,31.4245" stroke="#262626" stroke-width="0.5" stroke-linejoin="miter"/>
   <polyline fill="none" stroke-linecap="butt" points="159.976,327.478 159.976,323.65" stroke="#262626" stroke-width="0.5" stroke-linejoin="miter"/>
   <polyline fill="none" stroke-linecap="butt" points="159.976,27.5965 159.976,31.4245" stroke="#262626" stroke-width="0.5" stroke-linejoin="miter"/>
   <polyline fill="none" stroke-linecap="butt" points="255.714,327.478 255.714,323.65" stroke="#262626" stroke-width="0.5" stroke-linejoin="miter"/>
   <polyline fill="none" stroke-linecap="butt" points="255.714,27.5965 255.714,31.4245" stroke="#262626" stroke-width="0.5" stroke-linejoin="miter"/>
   <polyline fill="none" stroke-linecap="butt" points="351.453,327.478 351.453,323.65" stroke="#262626" stroke-width="0.5" stroke-linejoin="miter"/>
   <polyline fill="none" stroke-linecap="butt" points="351.453,27.5965 351.453,31.4245" stroke="#262626" stroke-width="0.5" stroke-linejoin="miter"/>
   <polyline fill="none" stroke-linecap="butt" points="447.191,327.478 447.191,323.65" stroke="#262626" stroke-width="0.5" stroke-linejoin="miter"/>
   <polyline fill="none" stroke-linecap="butt" points="447.191,27.5965 447.191,31.4245" stroke="#262626" stroke-width="0.5" stroke-linejoin="miter"/>
   <text font-family="FreeSans" xml:space="preserve" transform="translate(53.7374,342.975) rotate(-0,10.5,-8)" font-weight="normal" font-style="normal" font-size="10">
    <tspan fill="rgb(38,38,38)" y="-0" x="0 3 9 15 ">-100</tspan>
   </text>
   <text font-family="FreeSans" xml:space="preserve" transform="translate(152.476,342.975) rotate(-0,7.5,-8)" font-weight="normal" font-style="normal" font-size="10">
    <tspan fill="rgb(38,38,38)" y="-0" x="0 3 9 ">-50</tspan>
   </text>
   <text font-family="FreeSans" xml:space="preserve" transform="translate(252.714,342.975) rotate(-0,3,-8)" font-weight="normal" font-style="normal" font-size="10">
    <tspan fill="rgb(38,38,38)" y="-0" x="0 ">0</tspan>
   </text>
   <text font-family="FreeSans" xml:space="preserve" transform="translate(345.453,342.975) rotate(-0,6,-8)" font-weight="normal" font-style="normal" font-size="10">
    <tspan fill="rgb(38,38,38)" y="-0" x="0 6 ">50</tspan>
   </text>
   <text font-family="FreeSans" xml:space="preserve" transform="translate(438.191,342.975) rotate(-0,9,-8)" font-weight="normal" font-style="normal" font-size="10">
    <tspan fill="rgb(38,38,38)" y="-0" x="0 6 12 ">100</tspan>
   </text>
   <polyline fill="none" stroke-linecap="butt" points="64.2374,327.478 68.0664,327.478" stroke="#262626" stroke-width="0.5" stroke-linejoin="miter"/>
   <polyline fill="none" stroke-linecap="butt" points="447.191,327.478 443.362,327.478" stroke="#262626" stroke-width="0.5" stroke-linejoin="miter"/>
   <polyline fill="none" stroke-linecap="butt" points="64.2374,277.498 68.0664,277.498" stroke="#262626" stroke-width="0.5" stroke-linejoin="miter"/>
   <polyline fill="none" stroke-linecap="butt" points="447.191,277.498 443.362,277.498" stroke="#262626" stroke-width="0.5" stroke-linejoin="miter"/>
   <polyline fill="none" stroke-linecap="butt" points="64.2374,227.518 68.0664,227.518" stroke="#262626" stroke-width="0.5" stroke-linejoin="miter"/>
   <polyline fill="none" stroke-linecap="butt" points="447.191,227.518 443.362,227.518" stroke="#262626" stroke-width="0.5" stroke-linejoin="miter"/>
   <polyline fill="none" stroke-linecap="butt" points="64.2374,177.537 68.0664,177.537" stroke="#262626" stroke-width="0.5" stroke-linejoin="miter"/>
   <polyline fill="none" stroke-linecap="butt" points="447.191,177.537 443.362,177.537" stroke="#262626" stroke-width="0.5" stroke-linejoin="miter"/>
   <polyline fill="none" stroke-linecap="butt" points="64.2374,127.557 68.0664,127.557" stroke="#262626" stroke-width="0.5" stroke-linejoin="miter"/>
   <polyline fill="none" stroke-linecap="butt" points="447.191,127.557 443.362,127.557" stroke="#262626" stroke-width="0.5" stroke-linejoin="miter"/>
   <polyline fill="none" stroke-linecap="butt" points="64.2374,77.5768 68.0664,77.5768" stroke="#262626" stroke-width="0.5" stroke-linejoin="miter"/>
   <polyline fill="none" stroke-linecap="butt" points="447.191,77.5768 443.362,77.5768" stroke="#262626" stroke-width="0.5" stroke-linejoin="miter"/>
   <polyline fill="none" stroke-linecap="butt" points="64.2374,27.5965 68.0664,27.5965" stroke="#262626" stroke-width="0.5" stroke-linejoin="miter"/>
   <polyline fill="none" stroke-linecap="butt" points="447.191,27.5965 443.362,27.5965" stroke="#262626" stroke-width="0.5" stroke-linejoin="miter"/>
   <text font-family="FreeSans" xml:space="preserve" transform="translate(44.238,331.478) rotate(-0,15,-4)" font-weight="normal" font-style="normal" font-size="10">
    <tspan fill="rgb(38,38,38)" y="-0" x="0 3 9 ">-80</tspan>
   </text>
   <text font-family="FreeSans" xml:space="preserve" transform="translate(44.238,281.498) rotate(-0,15,-4)" font-weight="normal" font-style="normal" font-size="10">
    <tspan fill="rgb(38,38,38)" y="-0" x="0 3 9 ">-60</tspan>
   </text>
   <text font-family="FreeSans" xml:space="preserve" transform="translate(44.238,231.518) rotate(-0,15,-4)" font-weight="normal" font-style="normal" font-size="10">
    <tspan fill="rgb(38,38,38)" y="-0" x="0 3 9 ">-40</tspan>
   </text>
   <text font-family="FreeSans" xml:space="preserve" transform="translate(44.238,181.537) rotate(-0,15,-4)" font-weight="normal" font-style="normal" font-size="10">
    <tspan fill="rgb(38,38,38)" y="-0" x="0 3 9 ">-20</tspan>
   </text>
   <text font-family="FreeSans" xml:space="preserve" transform="translate(53.238,131.557) rotate(-0,6,-4)" font-weight="normal" font-style="normal" font-size="10">
    <tspan fill="rgb(38,38,38)" y="-0" x="0 ">0</tspan>
   </text>
   <text font-family="FreeSans" xml:space="preserve" transform="translate(47.238,81.5768) rotate(-0,12,-4)" font-weight="normal" font-style="normal" font-size="10">
    <tspan fill="rgb(38,38,38)" y="-0" x="0 6 ">20</tspan>
   </text>
   <text font-family="FreeSans" xml:space="preserve" transform="translate(47.238,31.5965) rotate(-0,12,-4)" font-weight="normal" font-style="normal" font-size="10">
    <tspan fill="rgb(38,38,38)" y="-0" x="0 6 ">40</tspan>
   </text>
   <polyline fill="none" stroke-linecap="square" points="64.2374,327.478 447.191,327.478" stroke="#262626" stroke-width="0.5" stroke-dasharray="16,0" stroke-linejoin="miter"/>
   <polyline fill="none" stroke-linecap="square" points="64.2374,27.5965 447.191,27.5965" stroke="#262626" stroke-width="0.5" stroke-dasharray="16,0" stroke-linejoin="miter"/>
   <polyline fill="none" stroke-linecap="square" points="64.2374,327.478 64.2374,27.5965" stroke="#262626" stroke-width="0.5" stroke-dasharray="16,0" stroke-linejoin="miter"/>
   <polyline fill="none" stroke-linecap="square" points="447.191,327.478 447.191,27.5965" stroke="#262626" stroke-width="0.5" stroke-dasharray="16,0" stroke-linejoin="miter"/>
   <text font-family="FreeSans" xml:space="preserve" transform="translate(132.714,17.5965) rotate(-0,123,0)" font-weight="bold" font-style="normal" font-size="11">
    <tspan fill="rgb(0,0,0)" y="-3" x="0 7 14 17 23 30 37 47 50 56 59 62 70 76 83 87 93 99 105 108 115 122 125 132 135 139 142 146 149 155 165 172 179 185 188 194 197 203 206 212 218 224 230 236 242 ">Polynomial Regression Fit (lambda = 0.000000)</tspan>
   </text>
   <text font-family="FreeSans" xml:space="preserve" transform="translate(-37.262,177.537) rotate(-90,76.5,0)" font-weight="normal" font-style="normal" font-size="11">
    <tspan fill="rgb(38,38,38)" y="-3" x="0 10 16 19 25 29 32 35 37 43 51 53 59 65 68 74 80 83 86 92 95 98 101 107 113 116 122 128 137 140 144 149 ">Water flowing out of the dam (y)</tspan>
   </text>
   <text font-family="FreeSans" xml:space="preserve" transform="translate(196.214,359.975) rotate(-0,59.5,-12)" font-weight="normal" font-style="normal" font-size="11">
    <tspan fill="rgb(38,38,38)" y="-3" x="0 8 14 20 26 32 38 41 43 49 52 60 66 69 75 79 82 84 90 95 101 103 106 110 115 ">Change in water level (x)</tspan>
   </text>
   <polyline fill="none" stroke-linecap="square" points="220.199,117.223 230.199,127.223" stroke="#ff0000" stroke-width="1.5" stroke-linejoin="miter"/>
   <polyline fill="none" stroke-linecap="square" points="220.199,127.223 230.199,117.223" stroke="#ff0000" stroke-width="1.5" stroke-linejoin="miter"/>
   <polyline fill="none" stroke-linecap="square" points="194.893,119.625 204.893,129.625" stroke="#ff0000" stroke-width="1.5" stroke-linejoin="miter"/>
   <polyline fill="none" stroke-linecap="square" points="194.893,129.625 204.893,119.625" stroke="#ff0000" stroke-width="1.5" stroke-linejoin="miter"/>
   <polyline fill="none" stroke-linecap="square" points="320.009,36.6931 330.009,46.6931" stroke="#ff0000" stroke-width="1.5" stroke-linejoin="miter"/>
   <polyline fill="none" stroke-linecap="square" points="320.009,46.6931 330.009,36.6931" stroke="#ff0000" stroke-width="1.5" stroke-linejoin="miter"/>
   <polyline fill="none" stroke-linecap="square" points="322.503,30.4985 332.503,40.4985" stroke="#ff0000" stroke-width="1.5" stroke-linejoin="miter"/>
   <polyline fill="none" stroke-linecap="square" points="322.503,40.4985 332.503,30.4985" stroke="#ff0000" stroke-width="1.5" stroke-linejoin="miter"/>
   <polyline fill="none" stroke-linecap="square" points="158.693,115.537 168.693,125.537" stroke="#ff0000" stroke-width="1.5" stroke-linejoin="miter"/>
   <polyline fill="none" stroke-linecap="square" points="158.693,125.537 168.693,115.537" stroke="#ff0000" stroke-width="1.5" stroke-linejoin="miter"/>
   <polyline fill="none" stroke-linecap="square" points="233.593,117.256 243.593,127.256" stroke="#ff0000" stroke-width="1.5" stroke-linejoin="miter"/>
   <polyline fill="none" stroke-linecap="square" points="233.593,127.256 243.593,117.256" stroke="#ff0000" stroke-width="1.5" stroke-linejoin="miter"/>
   <polyline fill="none" stroke-linecap="square" points="280.025,85.7959 290.025,95.7959" stroke="#ff0000" stroke-width="1.5" stroke-linejoin="miter"/>
   <polyline fill="none" stroke-linecap="square" points="280.025,95.7959 290.025,85.7959" stroke="#ff0000" stroke-width="1.5" stroke-linejoin="miter"/>
   <polyline fill="none" stroke-linecap="square" points="184.26,116.024 194.26,126.024" stroke="#ff0000" stroke-width="1.5" stroke-linejoin="miter"/>
   <polyline fill="none" stroke-linecap="square" points="184.26,126.024 194.26,116.024" stroke="#ff0000" stroke-width="1.5" stroke-linejoin="miter"/>
   <polyline fill="none" stroke-linecap="square" points="253.374,113.21 263.374,123.21" stroke="#ff0000" stroke-width="1.5" stroke-linejoin="miter"/>
   <polyline fill="none" stroke-linecap="square" points="253.374,123.21 263.374,113.21" stroke="#ff0000" stroke-width="1.5" stroke-linejoin="miter"/>
   <polyline fill="none" stroke-linecap="square" points="165.73,113.232 175.73,123.232" stroke="#ff0000" stroke-width="1.5" stroke-linejoin="miter"/>
   <polyline fill="none" stroke-linecap="square" points="165.73,123.232 175.73,113.232" stroke="#ff0000" stroke-width="1.5" stroke-linejoin="miter"/>
   <polyline fill="none" stroke-linecap="square" points="264.143,103.495 274.143,113.495" stroke="#ff0000" stroke-width="1.5" stroke-linejoin="miter"/>
   <polyline fill="none" stroke-linecap="square" points="264.143,113.495 274.143,103.495" stroke="#ff0000" stroke-width="1.5" stroke-linejoin="miter"/>
   <polyline fill="none" stroke-linecap="square" points="294.3,65.6984 304.3,75.6984" stroke="#ff0000" stroke-width="1.5" stroke-linejoin="miter"/>
   <polyline fill="none" stroke-linecap="square" points="294.3,75.6984 304.3,65.6984" stroke="#ff0000" stroke-width="1.5" stroke-linejoin="miter"/>
   <polyline fill="none" stroke-linecap="butt" points="134.971,284.004 135.067,282.514 135.163,281.034 135.258,279.566 135.354,278.108 135.45,276.66 135.546,275.223 135.641,273.797 135.737,272.381 135.833,270.975 135.929,269.58 136.024,268.195 136.12,266.82 136.216,265.455 136.311,264.1 136.407,262.755 136.503,261.421 136.599,260.096 136.694,258.781 136.79,257.475 136.886,256.18 136.982,254.894 137.077,253.617 137.173,252.35 137.269,251.093 137.365,249.845 137.46,248.607 137.556,247.378 137.652,246.158 137.748,244.947 137.843,243.745 137.939,242.553 138.035,241.369 138.131,240.195 138.226,239.029 138.322,237.873 138.418,236.725 138.513,235.586 138.609,234.456 138.705,233.334 138.801,232.221 138.896,231.117 138.992,230.021 139.088,228.933 139.184,227.854 139.279,226.784 139.375,225.721 139.471,224.667 139.567,223.621 139.662,222.584 139.758,221.554 139.854,220.533 139.95,219.519 140.045,218.514 140.141,217.516 140.237,216.526 140.333,215.544 140.428,214.57 140.524,213.604 140.62,212.645 140.715,211.694 140.811,210.75 140.907,209.814 141.003,208.885 141.098,207.964 141.194,207.051 141.29,206.144 141.386,205.245 141.481,204.353 141.577,203.469 141.673,202.591 141.769,201.721 141.864,200.858 141.96,200.001 142.056,199.152 142.152,198.31 142.247,197.474 142.343,196.646 142.439,195.824 142.534,195.009 142.63,194.201 142.726,193.399 142.822,192.604 142.917,191.816 143.013,191.034 143.109,190.259 143.205,189.49 143.3,188.728 143.396,187.972 143.492,187.222 143.588,186.479 143.683,185.742 143.779,185.011 143.875,184.286 143.971,183.568 144.066,182.855 144.162,182.149 144.258,181.449 144.354,180.754 144.449,180.066 144.545,179.384 144.641,178.707 144.736,178.036 144.832,177.371 144.928,176.712 145.024,176.058 145.119,175.411 145.215,174.768 145.311,174.132 145.407,173.501 145.502,172.875 145.598,172.255 145.694,171.64 145.79,171.031 145.885,170.427 145.981,169.829 146.077,169.236 146.173,168.648 146.268,168.065 146.364,167.488 146.46,166.916 146.555,166.349 146.651,165.786 146.747,165.23 146.843,164.678 146.938,164.131 147.034,163.589 147.13,163.052 147.226,162.519 147.321,161.992 147.417,161.47 147.513,160.952 147.609,160.439 147.704,159.931 147.8,159.427 147.896,158.928 147.992,158.434 148.087,157.944 148.183,157.459 148.279,156.979 148.375,156.503 148.47,156.031 148.566,155.564 148.662,155.101 148.757,154.643 148.853,154.189 148.949,153.739 149.045,153.294 149.14,152.853 149.236,152.416 149.332,151.983 149.428,151.554 149.523,151.13 149.619,150.709 149.715,150.293 149.811,149.881 149.906,149.473 150.002,149.068 150.098,148.668 150.194,148.272 150.289,147.879 150.385,147.491 150.481,147.106 150.577,146.725 150.672,146.348 150.768,145.975 150.864,145.605 150.959,145.239 151.055,144.877 151.151,144.518 151.247,144.163 151.342,143.812 151.438,143.464 151.534,143.12 151.63,142.779 151.725,142.442 151.821,142.108 151.917,141.778 152.013,141.451 152.108,141.127 152.204,140.807 152.3,140.49 152.396,140.177 152.491,139.866 152.587,139.559 152.683,139.256 152.778,138.955 152.874,138.658 152.97,138.364 153.066,138.073 153.161,137.785 153.257,137.5 153.353,137.218 153.449,136.94 153.544,136.664 153.64,136.391 153.736,136.122 153.832,135.855 153.927,135.591 154.023,135.33 154.119,135.072 154.215,134.817 154.31,134.565 154.406,134.315 154.502,134.068 154.598,133.824 154.693,133.583 154.789,133.345 154.885,133.109 154.98,132.876 155.076,132.646 155.172,132.418 155.268,132.193 155.363,131.97 155.459,131.75 155.555,131.533 155.651,131.318 155.746,131.106 155.842,130.896 155.938,130.688 156.034,130.483 156.129,130.281 156.225,130.081 156.321,129.883 156.417,129.688 156.512,129.495 156.608,129.305 156.704,129.116 156.799,128.93 156.895,128.747 156.991,128.565 157.087,128.386 157.182,128.209 157.278,128.034 157.374,127.862 157.47,127.692 157.565,127.523 157.661,127.357 157.757,127.193 157.853,127.031 157.948,126.872 158.044,126.714 158.14,126.558 158.236,126.404 158.331,126.253 158.427,126.103 158.523,125.955 158.619,125.81 158.714,125.666 158.81,125.524 158.906,125.384 159.001,125.246 159.097,125.11 159.193,124.975 159.289,124.843 159.384,124.712 159.48,124.583 159.576,124.456 159.672,124.331 159.767,124.207 159.863,124.086 159.959,123.966 160.055,123.847 160.15,123.731 160.246,123.616 160.342,123.502 160.438,123.391 160.533,123.281 160.629,123.172 160.725,123.066 160.821,122.96 160.916,122.857 161.012,122.755 161.108,122.654 161.203,122.555 161.299,122.458 161.395,122.362 161.491,122.267 161.586,122.174 161.682,122.083 161.778,121.993 161.874,121.904 161.969,121.817 162.065,121.731 162.161,121.647 162.257,121.564 162.352,121.482 162.448,121.402 162.544,121.323 162.64,121.246 162.735,121.169 162.831,121.094 162.927,121.021 163.023,120.948 163.118,120.877 163.214,120.807 163.31,120.739 163.405,120.671 163.501,120.605 163.597,120.54 163.693,120.477 163.788,120.414 163.884,120.353 163.98,120.292 164.076,120.233 164.171,120.175 164.267,120.118 164.363,120.063 164.459,120.008 164.554,119.954 164.65,119.902 164.746,119.851 164.842,119.8 164.937,119.751 165.033,119.703 165.129,119.655 165.224,119.609 165.32,119.564 165.416,119.52 165.512,119.477 165.607,119.434 165.703,119.393 165.799,119.353 165.895,119.313 165.99,119.275 166.086,119.237 166.182,119.2 166.278,119.165 166.373,119.13 166.469,119.096 166.565,119.063 166.661,119.03 166.756,118.999 166.852,118.968 166.948,118.939 167.044,118.91 167.139,118.882 167.235,118.854 167.331,118.828 167.426,118.802 167.522,118.777 167.618,118.753 167.714,118.73 167.809,118.707 167.905,118.685 168.001,118.664 168.097,118.644 168.192,118.624 168.288,118.605 168.384,118.587 168.48,118.569 168.575,118.552 168.671,118.536 168.767,118.52 168.863,118.505 168.958,118.491 169.054,118.477 169.15,118.464 169.245,118.452 169.341,118.44 169.437,118.429 169.533,118.418 169.628,118.408 169.724,118.399 169.82,118.39 169.916,118.382 170.011,118.374 170.107,118.367 170.203,118.361 170.299,118.355 170.394,118.349 170.49,118.344 170.586,118.34 170.682,118.336 170.777,118.333 170.873,118.33 170.969,118.328 171.065,118.326 171.16,118.324 171.256,118.323 171.352,118.323 171.447,118.323 171.543,118.324 171.639,118.324 171.735,118.326 171.83,118.328 171.926,118.33 172.022,118.333 172.118,118.336 172.213,118.339 172.309,118.343 172.405,118.347 172.501,118.352 172.596,118.357 172.692,118.363 172.788,118.369 172.884,118.375 172.979,118.381 173.075,118.388 173.171,118.396 173.267,118.403 173.362,118.411 173.458,118.42 173.554,118.428 173.649,118.438 173.745,118.447 173.841,118.457 173.937,118.467 174.032,118.477 174.128,118.487 174.224,118.498 174.32,118.51 174.415,118.521 174.511,118.533 174.607,118.545 174.703,118.557 174.798,118.57 174.894,118.583 174.99,118.596 175.086,118.609 175.181,118.623 175.277,118.637 175.373,118.651 175.468,118.665 175.564,118.68 175.66,118.694 175.756,118.709 175.851,118.725 175.947,118.74 176.043,118.756 176.139,118.772 176.234,118.788 176.33,118.804 176.426,118.82 176.522,118.837 176.617,118.854 176.713,118.871 176.809,118.888 176.905,118.906 177,118.923 177.096,118.941 177.192,118.959 177.288,118.977 177.383,118.995 177.479,119.014 177.575,119.032 177.67,119.051 177.766,119.07 177.862,119.088 177.958,119.108 178.053,119.127 178.149,119.146 178.245,119.166 178.341,119.185 178.436,119.205 178.532,119.225 178.628,119.245 178.724,119.265 178.819,119.285 178.915,119.305 179.011,119.326 179.107,119.346 179.202,119.367 179.298,119.387 179.394,119.408 179.49,119.429 179.585,119.45 179.681,119.471 179.777,119.492 179.872,119.513 179.968,119.534 180.064,119.555 180.16,119.577 180.255,119.598 180.351,119.62 180.447,119.641 180.543,119.663 180.638,119.684 180.734,119.706 180.83,119.728 180.926,119.75 181.021,119.771 181.117,119.793 181.213,119.815 181.309,119.837 181.404,119.859 181.5,119.881 181.596,119.903 181.691,119.925 181.787,119.947 181.883,119.969 181.979,119.992 182.074,120.014 182.17,120.036 182.266,120.058 182.362,120.08 182.457,120.103 182.553,120.125 182.649,120.147 182.745,120.169 182.84,120.191 182.936,120.214 183.032,120.236 183.128,120.258 183.223,120.28 183.319,120.303 183.415,120.325 183.511,120.347 183.606,120.369 183.702,120.392 183.798,120.414 183.893,120.436 183.989,120.458 184.085,120.48 184.181,120.502 184.276,120.524 184.372,120.546 184.468,120.569 184.564,120.591 184.659,120.613 184.755,120.635 184.851,120.656 184.947,120.678 185.042,120.7 185.138,120.722 185.234,120.744 185.33,120.766 185.425,120.787 185.521,120.809 185.617,120.831 185.713,120.852 185.808,120.874 185.904,120.895 186,120.917 186.095,120.938 186.191,120.96 186.287,120.981 186.383,121.002 186.478,121.023 186.574,121.045 186.67,121.066 186.766,121.087 186.861,121.108 186.957,121.129 187.053,121.15 187.149,121.17 187.244,121.191 187.34,121.212 187.436,121.233 187.532,121.253 187.627,121.274 187.723,121.294 187.819,121.315 187.914,121.335 188.01,121.355 188.106,121.375 188.202,121.396 188.297,121.416 188.393,121.436 188.489,121.456 188.585,121.475 188.68,121.495 188.776,121.515 188.872,121.535 188.968,121.554 189.063,121.574 189.159,121.593 189.255,121.612 189.351,121.632 189.446,121.651 189.542,121.67 189.638,121.689 189.734,121.708 189.829,121.727 189.925,121.746 190.021,121.765 190.116,121.783 190.212,121.802 190.308,121.82 190.404,121.839 190.499,121.857 190.595,121.875 190.691,121.894 190.787,121.912 190.882,121.93 190.978,121.948 191.074,121.966 191.17,121.983 191.265,122.001 191.361,122.019 191.457,122.036 191.553,122.054 191.648,122.071 191.744,122.088 191.84,122.105 191.936,122.122 192.031,122.139 192.127,122.156 192.223,122.173 192.318,122.19 192.414,122.207 192.51,122.223 192.606,122.24 192.701,122.256 192.797,122.272 192.893,122.289 192.989,122.305 193.084,122.321 193.18,122.337 193.276,122.353 193.372,122.368 193.467,122.384 193.563,122.4 193.659,122.415 193.755,122.431 193.85,122.446 193.946,122.461 194.042,122.476 194.137,122.491 194.233,122.506 194.329,122.521 194.425,122.536 194.52,122.551 194.616,122.565 194.712,122.58 194.808,122.594 194.903,122.609 194.999,122.623 195.095,122.637 195.191,122.651 195.286,122.665 195.382,122.679 195.478,122.693 195.574,122.707 195.669,122.721 195.765,122.734 195.861,122.748 195.957,122.761 196.052,122.774 196.148,122.787 196.244,122.801 196.339,122.814 196.435,122.827 196.531,122.839 196.627,122.852 196.722,122.865 196.818,122.878 196.914,122.89 197.01,122.902 197.105,122.915 197.201,122.927 197.297,122.939 197.393,122.951 197.488,122.963 197.584,122.975 197.68,122.987 197.776,122.999 197.871,123.01 197.967,123.022 198.063,123.033 198.158,123.045 198.254,123.056 198.35,123.067 198.446,123.079 198.541,123.09 198.637,123.101 198.733,123.112 198.829,123.122 198.924,123.133 199.02,123.144 199.116,123.154 199.212,123.165 199.307,123.175 199.403,123.185 199.499,123.196 199.595,123.206 199.69,123.216 199.786,123.226 199.882,123.236 199.978,123.246 200.073,123.255 200.169,123.265 200.265,123.275 200.36,123.284 200.456,123.294 200.552,123.303 200.648,123.312 200.743,123.322 200.839,123.331 200.935,123.34 201.031,123.349 201.126,123.358 201.222,123.366 201.318,123.375 201.414,123.384 201.509,123.392 201.605,123.401 201.701,123.409 201.797,123.418 201.892,123.426 201.988,123.434 202.084,123.442 202.18,123.45 202.275,123.458 202.371,123.466 202.467,123.474 202.562,123.482 202.658,123.49 202.754,123.497 202.85,123.505 202.945,123.512 203.041,123.52 203.137,123.527 203.233,123.535 203.328,123.542 203.424,123.549 203.52,123.556 203.616,123.563 203.711,123.57 203.807,123.577 203.903,123.584 203.999,123.59 204.094,123.597 204.19,123.604 204.286,123.61 204.381,123.617 204.477,123.623 204.573,123.629 204.669,123.636 204.764,123.642 204.86,123.648 204.956,123.654 205.052,123.66 205.147,123.666 205.243,123.672 205.339,123.678 205.435,123.684 205.53,123.689 205.626,123.695 205.722,123.701 205.818,123.706 205.913,123.712 206.009,123.717 206.105,123.722 206.201,123.728 206.296,123.733 206.392,123.738 206.488,123.743 206.583,123.748 206.679,123.753 206.775,123.758 206.871,123.763 206.966,123.768 207.062,123.772 207.158,123.777 207.254,123.782 207.349,123.786 207.445,123.791 207.541,123.795 207.637,123.8 207.732,123.804 207.828,123.808 207.924,123.813 208.02,123.817 208.115,123.821 208.211,123.825 208.307,123.829 208.403,123.833 208.498,123.837 208.594,123.841 208.69,123.845 208.785,123.848 208.881,123.852 208.977,123.856 209.073,123.859 209.168,123.863 209.264,123.867 209.36,123.87 209.456,123.873 209.551,123.877 209.647,123.88 209.743,123.883 209.839,123.887 209.934,123.89 210.03,123.893 210.126,123.896 210.222,123.899 210.317,123.902 210.413,123.905 210.509,123.908 210.604,123.91 210.7,123.913 210.796,123.916 210.892,123.919 210.987,123.921 211.083,123.924 211.179,123.926 211.275,123.929 211.37,123.931 211.466,123.934 211.562,123.936 211.658,123.938 211.753,123.941 211.849,123.943 211.945,123.945 212.041,123.947 212.136,123.949 212.232,123.951 212.328,123.953 212.424,123.955 212.519,123.957 212.615,123.959 212.711,123.961 212.806,123.963 212.902,123.964 212.998,123.966 213.094,123.968 213.189,123.969 213.285,123.971 213.381,123.972 213.477,123.974 213.572,123.975 213.668,123.977 213.764,123.978 213.86,123.979 213.955,123.981 214.051,123.982 214.147,123.983 214.243,123.984 214.338,123.985 214.434,123.986 214.53,123.987 214.626,123.988 214.721,123.989 214.817,123.99 214.913,123.991 215.008,123.992 215.104,123.993 215.2,123.993 215.296,123.994 215.391,123.995 215.487,123.995 215.583,123.996 215.679,123.996 215.774,123.997 215.87,123.997 215.966,123.998 216.062,123.998 216.157,123.998 216.253,123.999 216.349,123.999 216.445,123.999 216.54,123.999 216.636,124 216.732,124 216.827,124 216.923,124 217.019,124 217.115,124 217.21,123.999 217.306,123.999 217.402,123.999 217.498,123.999 217.593,123.999 217.689,123.998 217.785,123.998 217.881,123.998 217.976,123.997 218.072,123.997 218.168,123.996 218.264,123.996 218.359,123.995 218.455,123.994 218.551,123.994 218.647,123.993 218.742,123.992 218.838,123.992 218.934,123.991 219.029,123.99 219.125,123.989 219.221,123.988 219.317,123.987 219.412,123.986 219.508,123.985 219.604,123.984 219.7,123.983 219.795,123.981 219.891,123.98 219.987,123.979 220.083,123.978 220.178,123.976 220.274,123.975 220.37,123.973 220.466,123.972 220.561,123.97 220.657,123.969 220.753,123.967 220.848,123.966 220.944,123.964 221.04,123.962 221.136,123.96 221.231,123.959 221.327,123.957 221.423,123.955 221.519,123.953 221.614,123.951 221.71,123.949 221.806,123.947 221.902,123.945 221.997,123.942 222.093,123.94 222.189,123.938 222.285,123.936 222.38,123.933 222.476,123.931 222.572,123.928 222.668,123.926 222.763,123.923 222.859,123.921 222.955,123.918 223.05,123.915 223.146,123.913 223.242,123.91 223.338,123.907 223.433,123.904 223.529,123.901 223.625,123.898 223.721,123.895 223.816,123.892 223.912,123.889 224.008,123.886 224.104,123.883 224.199,123.88 224.295,123.876 224.391,123.873 224.487,123.87 224.582,123.866 224.678,123.863 224.774,123.859 224.87,123.856 224.965,123.852 225.061,123.848 225.157,123.844 225.252,123.841 225.348,123.837 225.444,123.833 225.54,123.829 225.635,123.825 225.731,123.821 225.827,123.817 225.923,123.812 226.018,123.808 226.114,123.804 226.21,123.8 226.306,123.795 226.401,123.791 226.497,123.786 226.593,123.782 226.689,123.777 226.784,123.772 226.88,123.767 226.976,123.763 227.072,123.758 227.167,123.753 227.263,123.748 227.359,123.743 227.454,123.738 227.55,123.733 227.646,123.727 227.742,123.722 227.837,123.717 227.933,123.711 228.029,123.706 228.125,123.7 228.22,123.695 228.316,123.689 228.412,123.683 228.508,123.678 228.603,123.672 228.699,123.666 228.795,123.66 228.891,123.654 228.986,123.648 229.082,123.641 229.178,123.635 229.273,123.629 229.369,123.622 229.465,123.616 229.561,123.609 229.656,123.603 229.752,123.596 229.848,123.589 229.944,123.583 230.039,123.576 230.135,123.569 230.231,123.562 230.327,123.555 230.422,123.548 230.518,123.54 230.614,123.533 230.71,123.526 230.805,123.518 230.901,123.511 230.997,123.503 231.093,123.495 231.188,123.488 231.284,123.48 231.38,123.472 231.475,123.464 231.571,123.456 231.667,123.448 231.763,123.439 231.858,123.431 231.954,123.423 232.05,123.414 232.146,123.406 232.241,123.397 232.337,123.388 232.433,123.379 232.529,123.37 232.624,123.361 232.72,123.352 232.816,123.343 232.912,123.334 233.007,123.325 233.103,123.315 233.199,123.306 233.294,123.296 233.39,123.287 233.486,123.277 233.582,123.267 233.677,123.257 233.773,123.247 233.869,123.237 233.965,123.227 234.06,123.216 234.156,123.206 234.252,123.196 234.348,123.185 234.443,123.174 234.539,123.164 234.635,123.153 234.731,123.142 234.826,123.131 234.922,123.12 235.018,123.108 235.114,123.097 235.209,123.085 235.305,123.074 235.401,123.062 235.496,123.051 235.592,123.039 235.688,123.027 235.784,123.015 235.879,123.003 235.975,122.99 236.071,122.978 236.167,122.965 236.262,122.953 236.358,122.94 236.454,122.927 236.55,122.915 236.645,122.902 236.741,122.888 236.837,122.875 236.933,122.862 237.028,122.848 237.124,122.835 237.22,122.821 237.316,122.808 237.411,122.794 237.507,122.78 237.603,122.766 237.698,122.751 237.794,122.737 237.89,122.723 237.986,122.708 238.081,122.693 238.177,122.679 238.273,122.664 238.369,122.649 238.464,122.633 238.56,122.618 238.656,122.603 238.752,122.587 238.847,122.572 238.943,122.556 239.039,122.54 239.135,122.524 239.23,122.508 239.326,122.492 239.422,122.475 239.517,122.459 239.613,122.442 239.709,122.425 239.805,122.409 239.9,122.392 239.996,122.374 240.092,122.357 240.188,122.34 240.283,122.322 240.379,122.305 240.475,122.287 240.571,122.269 240.666,122.251 240.762,122.233 240.858,122.214 240.954,122.196 241.049,122.177 241.145,122.159 241.241,122.14 241.337,122.121 241.432,122.102 241.528,122.082 241.624,122.063 241.719,122.043 241.815,122.024 241.911,122.004 242.007,121.984 242.102,121.964 242.198,121.944 242.294,121.923 242.39,121.903 242.485,121.882 242.581,121.861 242.677,121.84 242.773,121.819 242.868,121.798 242.964,121.776 243.06,121.755 243.156,121.733 243.251,121.711 243.347,121.689 243.443,121.667 243.538,121.645 243.634,121.622 243.73,121.6 243.826,121.577 243.921,121.554 244.017,121.531 244.113,121.507 244.209,121.484 244.304,121.46 244.4,121.437 244.496,121.413 244.592,121.389 244.687,121.365 244.783,121.34 244.879,121.316 244.975,121.291 245.07,121.266 245.166,121.241 245.262,121.216 245.358,121.191 245.453,121.165 245.549,121.14 245.645,121.114 245.74,121.088 245.836,121.062 245.932,121.035 246.028,121.009 246.123,120.982 246.219,120.955 246.315,120.928 246.411,120.901 246.506,120.874 246.602,120.846 246.698,120.819 246.794,120.791 246.889,120.763 246.985,120.734 247.081,120.706 247.177,120.677 247.272,120.649 247.368,120.62 247.464,120.591 247.56,120.561 247.655,120.532 247.751,120.502 247.847,120.473 247.942,120.443 248.038,120.412 248.134,120.382 248.23,120.351 248.325,120.321 248.421,120.29 248.517,120.259 248.613,120.227 248.708,120.196 248.804,120.164 248.9,120.133 248.996,120.101 249.091,120.068 249.187,120.036 249.283,120.003 249.379,119.971 249.474,119.938 249.57,119.904 249.666,119.871 249.762,119.838 249.857,119.804 249.953,119.77 250.049,119.736 250.144,119.701 250.24,119.667 250.336,119.632 250.432,119.597 250.527,119.562 250.623,119.527 250.719,119.491 250.815,119.456 250.91,119.42 251.006,119.384 251.102,119.348 251.198,119.311 251.293,119.274 251.389,119.237 251.485,119.2 251.581,119.163 251.676,119.126 251.772,119.088 251.868,119.05 251.963,119.012 252.059,118.974 252.155,118.935 252.251,118.896 252.346,118.857 252.442,118.818 252.538,118.779 252.634,118.739 252.729,118.699 252.825,118.66 252.921,118.619 253.017,118.579 253.112,118.538 253.208,118.497 253.304,118.456 253.4,118.415 253.495,118.374 253.591,118.332 253.687,118.29 253.783,118.248 253.878,118.206 253.974,118.163 254.07,118.12 254.165,118.077 254.261,118.034 254.357,117.991 254.453,117.947 254.548,117.903 254.644,117.859 254.74,117.815 254.836,117.77 254.931,117.726 255.027,117.681 255.123,117.636 255.219,117.59 255.314,117.545 255.41,117.499 255.506,117.453 255.602,117.406 255.697,117.36 255.793,117.313 255.889,117.266 255.984,117.219 256.08,117.172 256.176,117.124 256.272,117.076 256.367,117.028 256.463,116.98 256.559,116.931 256.655,116.882 256.75,116.833 256.846,116.784 256.942,116.734 257.038,116.685 257.133,116.635 257.229,116.585 257.325,116.534 257.421,116.484 257.516,116.433 257.612,116.382 257.708,116.33 257.804,116.279 257.899,116.227 257.995,116.175 258.091,116.122 258.186,116.07 258.282,116.017 258.378,115.964 258.474,115.911 258.569,115.858 258.665,115.804 258.761,115.75 258.857,115.696 258.952,115.641 259.048,115.587 259.144,115.532 259.24,115.477 259.335,115.421 259.431,115.366 259.527,115.31 259.623,115.254 259.718,115.197 259.814,115.141 259.91,115.084 260.006,115.027 260.101,114.969 260.197,114.912 260.293,114.854 260.388,114.796 260.484,114.738 260.58,114.679 260.676,114.62 260.771,114.561 260.867,114.502 260.963,114.442 261.059,114.383 261.154,114.323 261.25,114.262 261.346,114.202 261.442,114.141 261.537,114.08 261.633,114.019 261.729,113.957 261.825,113.896 261.92,113.833 262.016,113.771 262.112,113.709 262.207,113.646 262.303,113.583 262.399,113.52 262.495,113.456 262.59,113.392 262.686,113.328 262.782,113.264 262.878,113.2 262.973,113.135 263.069,113.07 263.165,113.005 263.261,112.939 263.356,112.873 263.452,112.807 263.548,112.741 263.644,112.674 263.739,112.608 263.835,112.54 263.931,112.473 264.027,112.406 264.122,112.338 264.218,112.27 264.314,112.201 264.409,112.133 264.505,112.064 264.601,111.995 264.697,111.926 264.792,111.856 264.888,111.786 264.984,111.716 265.08,111.646 265.175,111.575 265.271,111.504 265.367,111.433 265.463,111.362 265.558,111.29 265.654,111.218 265.75,111.146 265.846,111.073 265.941,111.001 266.037,110.928 266.133,110.854 266.229,110.781 266.324,110.707 266.42,110.633 266.516,110.559 266.611,110.485 266.707,110.41 266.803,110.335 266.899,110.259 266.994,110.184 267.09,110.108 267.186,110.032 267.282,109.956 267.377,109.879 267.473,109.802 267.569,109.725 267.665,109.648 267.76,109.57 267.856,109.492 267.952,109.414 268.048,109.336 268.143,109.257 268.239,109.178 268.335,109.099 268.43,109.02 268.526,108.94 268.622,108.86 268.718,108.78 268.813,108.699 268.909,108.619 269.005,108.538 269.101,108.457 269.196,108.375 269.292,108.293 269.388,108.211 269.484,108.129 269.579,108.046 269.675,107.964 269.771,107.88 269.867,107.797 269.962,107.714 270.058,107.63 270.154,107.546 270.25,107.461 270.345,107.377 270.441,107.292 270.537,107.207 270.632,107.121 270.728,107.035 270.824,106.95 270.92,106.863 271.015,106.777 271.111,106.69 271.207,106.603 271.303,106.516 271.398,106.429 271.494,106.341 271.59,106.253 271.686,106.165 271.781,106.076 271.877,105.987 271.973,105.898 272.069,105.809 272.164,105.719 272.26,105.63 272.356,105.54 272.452,105.449 272.547,105.359 272.643,105.268 272.739,105.177 272.834,105.085 272.93,104.994 273.026,104.902 273.122,104.81 273.217,104.717 273.313,104.625 273.409,104.532 273.505,104.439 273.6,104.345 273.696,104.252 273.792,104.158 273.888,104.064 273.983,103.969 274.079,103.875 274.175,103.78 274.271,103.685 274.366,103.589 274.462,103.493 274.558,103.398 274.653,103.301 274.749,103.205 274.845,103.108 274.941,103.011 275.036,102.914 275.132,102.817 275.228,102.719 275.324,102.621 275.419,102.523 275.515,102.424 275.611,102.326 275.707,102.227 275.802,102.128 275.898,102.028 275.994,101.928 276.09,101.828 276.185,101.728 276.281,101.628 276.377,101.527 276.473,101.426 276.568,101.325 276.664,101.224 276.76,101.122 276.855,101.02 276.951,100.918 277.047,100.815 277.143,100.713 277.238,100.61 277.334,100.507 277.43,100.403 277.526,100.3 277.621,100.196 277.717,100.092 277.813,99.9873 277.909,99.8827 278.004,99.7778 278.1,99.6728 278.196,99.5674 278.292,99.4619 278.387,99.356 278.483,99.25 278.579,99.1437 278.674,99.0372 278.77,98.9304 278.866,98.8234 278.962,98.7162 279.057,98.6087 279.153,98.501 279.249,98.3931 279.345,98.2849 279.44,98.1765 279.536,98.0678 279.632,97.959 279.728,97.8498 279.823,97.7405 279.919,97.6309 280.015,97.5211 280.111,97.411 280.206,97.3008 280.302,97.1902 280.398,97.0795 280.494,96.9685 280.589,96.8573 280.685,96.7459 280.781,96.6342 280.876,96.5224 280.972,96.4103 281.068,96.2979 281.164,96.1854 281.259,96.0726 281.355,95.9596 281.451,95.8464 281.547,95.7329 281.642,95.6192 281.738,95.5053 281.834,95.3912 281.93,95.2769 282.025,95.1623 282.121,95.0475 282.217,94.9325 282.313,94.8173 282.408,94.7018 282.504,94.5862 282.6,94.4703 282.695,94.3542 282.791,94.2379 282.887,94.1214 282.983,94.0047 283.078,93.8877 283.174,93.7706 283.27,93.6532 283.366,93.5356 283.461,93.4178 283.557,93.2998 283.653,93.1816 283.749,93.0631 283.844,92.9445 283.94,92.8257 284.036,92.7066 284.132,92.5874 284.227,92.4679 284.323,92.3482 284.419,92.2284 284.515,92.1083 284.61,91.988 284.706,91.8676 284.802,91.7469 284.897,91.626 284.993,91.5049 285.089,91.3836 285.185,91.2621 285.28,91.1405 285.376,91.0186 285.472,90.8965 285.568,90.7743 285.663,90.6518 285.759,90.5291 285.855,90.4063 285.951,90.2833 286.046,90.16 286.142,90.0366 286.238,89.913 286.334,89.7892 286.429,89.6652 286.525,89.541 286.621,89.4167 286.717,89.2921 286.812,89.1674 286.908,89.0425 287.004,88.9174 287.099,88.7921 287.195,88.6667 287.291,88.541 287.387,88.4152 287.482,88.2892 287.578,88.163 287.674,88.0367 287.77,87.9101 287.865,87.7834 287.961,87.6565 288.057,87.5294 288.153,87.4022 288.248,87.2748 288.344,87.1472 288.44,87.0195 288.536,86.8916 288.631,86.7635 288.727,86.6353 288.823,86.5068 288.919,86.3782 289.014,86.2495 289.11,86.1206 289.206,85.9915 289.301,85.8623 289.397,85.7329 289.493,85.6033 289.589,85.4736 289.684,85.3437 289.78,85.2137 289.876,85.0835 289.972,84.9532 290.067,84.8227 290.163,84.692 290.259,84.5612 290.355,84.4303 290.45,84.2992 290.546,84.1679 290.642,84.0365 290.738,83.905 290.833,83.7733 290.929,83.6414 291.025,83.5095 291.12,83.3773 291.216,83.2451 291.312,83.1126 291.408,82.9801 291.503,82.8474 291.599,82.7146 291.695,82.5816 291.791,82.4485 291.886,82.3153 291.982,82.1819 292.078,82.0485 292.174,81.9148 292.269,81.7811 292.365,81.6472 292.461,81.5132 292.557,81.379 292.652,81.2448 292.748,81.1104 292.844,80.9758 292.94,80.8412 293.035,80.7065 293.131,80.5716 293.227,80.4366 293.322,80.3015 293.418,80.1662 293.514,80.0309 293.61,79.8954 293.705,79.7599 293.801,79.6242 293.897,79.4884 293.993,79.3525 294.088,79.2165 294.184,79.0804 294.28,78.9441 294.376,78.8078 294.471,78.6714 294.567,78.5348 294.663,78.3982 294.759,78.2614 294.854,78.1246 294.95,77.9877 295.046,77.8507 295.142,77.7135 295.237,77.5763 295.333,77.439 295.429,77.3016 295.524,77.1641 295.62,77.0266 295.716,76.8889 295.812,76.7511 295.907,76.6133 296.003,76.4754 296.099,76.3374 296.195,76.1993 296.29,76.0612 296.386,75.9229 296.482,75.7846 296.578,75.6462 296.673,75.5078 296.769,75.3692 296.865,75.2306 296.961,75.0919 297.056,74.9532 297.152,74.8144 297.248,74.6755 297.343,74.5365 297.439,74.3975 297.535,74.2585 297.631,74.1193 297.726,73.9801 297.822,73.8409 297.918,73.7016 298.014,73.5623 298.109,73.4228 298.205,73.2834 298.301,73.1439 298.397,73.0043 298.492,72.8647 298.588,72.725 298.684,72.5853 298.78,72.4456 298.875,72.3058 298.971,72.166 299.067,72.0261 299.163,71.8862 299.258,71.7463 299.354,71.6063 299.45,71.4663 299.545,71.3263 299.641,71.1862 299.737,71.0461 299.833,70.906 299.928,70.7658 300.024,70.6256 300.12,70.4854 300.216,70.3452 300.311,70.205 300.407,70.0648 300.503,69.9245 300.599,69.7842 300.694,69.6439 300.79,69.5036 300.886,69.3633 300.982,69.223 301.077,69.0826 301.173,68.9423 301.269,68.8019 301.365,68.6616 301.46,68.5213 301.556,68.3809 301.652,68.2406 301.747,68.1002 301.843,67.9599 301.939,67.8196 302.035,67.6793 302.13,67.539 302.226,67.3987 302.322,67.2584 302.418,67.1182 302.513,66.9779 302.609,66.8377 302.705,66.6975 302.801,66.5573 302.896,66.4171 302.992,66.277 303.088,66.1369 303.184,65.9969 303.279,65.8568 303.375,65.7168 303.471,65.5769 303.566,65.4369 303.662,65.297 303.758,65.1572 303.854,65.0174 303.949,64.8776 304.045,64.7379 304.141,64.5982 304.237,64.4586 304.332,64.319 304.428,64.1795 304.524,64.04 304.62,63.9006 304.715,63.7612 304.811,63.6219 304.907,63.4827 305.003,63.3435 305.098,63.2044 305.194,63.0654 305.29,62.9264 305.385,62.7875 305.481,62.6487 305.577,62.51 305.673,62.3713 305.768,62.2327 305.864,62.0942 305.96,61.9557 306.056,61.8174 306.151,61.6791 306.247,61.541 306.343,61.4029 306.439,61.2649 306.534,61.127 306.63,60.9892 306.726,60.8515 306.822,60.7139 306.917,60.5764 307.013,60.439 307.109,60.3017 307.205,60.1645 307.3,60.0274 307.396,59.8905 307.492,59.7536 307.587,59.6169 307.683,59.4803 307.779,59.3438 307.875,59.2074 307.97,59.0712 308.066,58.935 308.162,58.799 308.258,58.6632 308.353,58.5274 308.449,58.3918 308.545,58.2564 308.641,58.1211 308.736,57.9859 308.832,57.8508 308.928,57.7159 309.024,57.5812 309.119,57.4466 309.215,57.3122 309.311,57.1779 309.407,57.0437 309.502,56.9098 309.598,56.7759 309.694,56.6423 309.789,56.5088 309.885,56.3755 309.981,56.2423 310.077,56.1093 310.172,55.9765 310.268,55.8439 310.364,55.7114 310.46,55.5791 310.555,55.4471 310.651,55.3151 310.747,55.1834 310.843,55.0519 310.938,54.9205 311.034,54.7894 311.13,54.6584 311.226,54.5277 311.321,54.3971 311.417,54.2668 311.513,54.1366 311.609,54.0067 311.704,53.877 311.8,53.7475 311.896,53.6182 311.991,53.4891 312.087,53.3602 312.183,53.2316 312.279,53.1032 312.374,52.975 312.47,52.847 312.566,52.7193 312.662,52.5918 312.757,52.4646 312.853,52.3376 312.949,52.2108 313.045,52.0843 313.14,51.958 313.236,51.832 313.332,51.7062 313.428,51.5807 313.523,51.4554 313.619,51.3304 313.715,51.2057 313.81,51.0812 313.906,50.957 314.002,50.833 314.098,50.7094 314.193,50.586 314.289,50.4629 314.385,50.34 314.481,50.2175 314.576,50.0952 314.672,49.9732 314.768,49.8515 314.864,49.7301 314.959,49.609 315.055,49.4883 315.151,49.3678 315.247,49.2476 315.342,49.1277 315.438,49.0081 315.534,48.8889 315.63,48.7699 315.725,48.6513 315.821,48.533 315.917,48.415 316.012,48.2973 316.108,48.18 316.204,48.063 316.3,47.9464 316.395,47.8301 316.491,47.7141 316.587,47.5984 316.683,47.4832 316.778,47.3682 316.874,47.2536 316.97,47.1394 317.066,47.0255 317.161,46.912 317.257,46.7989 317.353,46.6861 317.449,46.5737 317.544,46.4617 317.64,46.35 317.736,46.2388 317.832,46.1279 317.927,46.0174 318.023,45.9073 318.119,45.7975 318.214,45.6882 318.31,45.5792 318.406,45.4707 318.502,45.3626 318.597,45.2549 318.693,45.1475 318.789,45.0406 318.885,44.9341 318.98,44.8281 319.076,44.7224 319.172,44.6172 319.268,44.5124 319.363,44.4081 319.459,44.3042 319.555,44.2007 319.651,44.0977 319.746,43.9951 319.842,43.8929 319.938,43.7912 320.034,43.69 320.129,43.5892 320.225,43.4889 320.321,43.389 320.416,43.2897 320.512,43.1908 320.608,43.0923 320.704,42.9944 320.799,42.8969 320.895,42.7999 320.991,42.7034 321.087,42.6074 321.182,42.5119 321.278,42.4169 321.374,42.3224 321.47,42.2284 321.565,42.1349 321.661,42.042 321.757,41.9495 321.853,41.8576 321.948,41.7661 322.044,41.6753 322.14,41.5849 322.235,41.4951 322.331,41.4059 322.427,41.3171 322.523,41.2289 322.618,41.1413 322.714,41.0542 322.81,40.9677 322.906,40.8817 323.001,40.7964 323.097,40.7115 323.193,40.6273 323.289,40.5436 323.384,40.4605 323.48,40.378 323.576,40.2961 323.672,40.2148 323.767,40.134 323.863,40.0539 323.959,39.9744 324.055,39.8954 324.15,39.8171 324.246,39.7394 324.342,39.6624 324.437,39.5859 324.533,39.5101 324.629,39.4349 324.725,39.3604 324.82,39.2864 324.916,39.2132 325.012,39.1405 325.108,39.0686 325.203,38.9973 325.299,38.9266 325.395,38.8567 325.491,38.7873 325.586,38.7187 325.682,38.6507 325.778,38.5834 325.874,38.5168 325.969,38.451 326.065,38.3857 326.161,38.3212 326.257,38.2574 326.352,38.1943 326.448,38.1319 326.544,38.0703 326.639,38.0093 326.735,37.9491 326.831,37.8896 326.927,37.8309 327.022,37.7729 327.118,37.7156 327.214,37.6591 327.31,37.6033 327.405,37.5483 327.501,37.494 327.597,37.4406 327.693,37.3878 327.788,37.3359 327.884,37.2848 327.98,37.2344 328.076,37.1848 328.171,37.136 328.267,37.088 328.363,37.0409 328.458,36.9945 328.554,36.9489 328.65,36.9042 328.746,36.8603 328.841,36.8172 328.937,36.775 329.033,36.7336 329.129,36.693 329.224,36.6533 329.32,36.6144 329.416,36.5764 329.512,36.5393 329.607,36.503 329.703,36.4676 329.799,36.4331 329.895,36.3995 329.99,36.3667 330.086,36.3349 330.182,36.304 330.277,36.2739 330.373,36.2448 330.469,36.2166 330.565,36.1893 330.66,36.1629 330.756,36.1375 330.852,36.113 330.948,36.0895 331.043,36.0669 331.139,36.0452 331.235,36.0245 331.331,36.0048 331.426,35.9861 331.522,35.9683 331.618,35.9515 331.714,35.9357 331.809,35.9209 331.905,35.9071 332.001,35.8943 332.097,35.8825 332.192,35.8717 332.288,35.862 332.384,35.8532 332.479,35.8455 332.575,35.8389 332.671,35.8333 332.767,35.8287 332.862,35.8252 332.958,35.8228 333.054,35.8214 333.15,35.8211 333.245,35.8219 333.341,35.8238 333.437,35.8268 333.533,35.8308 333.628,35.836 333.724,35.8423 333.82,35.8497 333.916,35.8582 334.011,35.8679 334.107,35.8787 334.203,35.8906 334.299,35.9037 334.394,35.9179 334.49,35.9333 334.586,35.9499 334.681,35.9677 334.777,35.9866 334.873,36.0067 334.969,36.0281 335.064,36.0506 335.16,36.0743 335.256,36.0993 335.352,36.1254 335.447,36.1529 335.543,36.1815 335.639,36.2114 335.735,36.2425 335.83,36.2749 335.926,36.3085 336.022,36.3434 336.118,36.3796 336.213,36.4171 336.309,36.4559 336.405,36.4959 336.5,36.5373 336.596,36.58 336.692,36.624 336.788,36.6693 336.883,36.716 336.979,36.764 337.075,36.8134 337.171,36.8641 337.266,36.9162 337.362,36.9696 337.458,37.0244 337.554,37.0806 337.649,37.1382 337.745,37.1972 337.841,37.2577 337.937,37.3195 338.032,37.3828 338.128,37.4474 338.224,37.5135 338.32,37.5811 338.415,37.6501 338.511,37.7206 338.607,37.7926 338.702,37.866 338.798,37.9409 338.894,38.0174 338.99,38.0953 339.085,38.1747 339.181,38.2557 339.277,38.3381 339.373,38.4221 339.468,38.5077 339.564,38.5948 339.66,38.6835 339.756,38.7737 339.851,38.8655 339.947,38.9589 340.043,39.0539 340.139,39.1505 340.234,39.2487 340.33,39.3485 340.426,39.4499 340.522,39.553 340.617,39.6577 340.713,39.7641 340.809,39.8722 340.904,39.9819 341,40.0933 341.096,40.2064 341.192,40.3211 341.287,40.4376 341.383,40.5558 341.479,40.6758 341.575,40.7974 341.67,40.9208 341.766,41.046 341.862,41.1729 341.958,41.3016 342.053,41.4321 342.149,41.5644 342.245,41.6984 342.341,41.8343 342.436,41.972 342.532,42.1115 342.628,42.2529 342.723,42.3961 342.819,42.5411 342.915,42.6881 343.011,42.8369 343.106,42.9875 343.202,43.1401 343.298,43.2946 343.394,43.451 343.489,43.6094 343.585,43.7697 343.681,43.9319 343.777,44.0961 343.872,44.2622 343.968,44.4303 344.064,44.6004 344.16,44.7726 344.255,44.9467 344.351,45.1228 344.447,45.301 344.543,45.4812 344.638,45.6635 344.734,45.8478 344.83,46.0341 344.925,46.2226 345.021,46.4132 345.117,46.6059 345.213,46.8007 345.308,46.9976 345.404,47.1966 345.5,47.3978 345.596,47.6012 345.691,47.8067 345.787,48.0144 345.883,48.2243 345.979,48.4365 346.074,48.6508 346.17,48.8674 346.266,49.0862 346.362,49.3072 346.457,49.5305 346.553,49.7561 346.649,49.984 346.745,50.2141 346.84,50.4466 346.936,50.6814 347.032,50.9186 347.127,51.1581 347.223,51.3999 347.319,51.6441 347.415,51.8907 347.51,52.1397 347.606,52.3911 347.702,52.6449 347.798,52.9012 347.893,53.1599 347.989,53.421 348.085,53.6846 348.181,53.9507 348.276,54.2193 348.372,54.4904 348.468,54.7641 348.564,55.0402 348.659,55.3189 348.755,55.6002 348.851,55.884 348.946,56.1705 349.042,56.4595 349.138,56.7511 349.234,57.0454 349.329,57.3423 349.425,57.6418 349.521,57.9441 349.617,58.249 349.712,58.5565 349.808,58.8669 349.904,59.1799 350,59.4956 350.095,59.8141 350.191,60.1354 350.287,60.4595 350.383,60.7863 350.478,61.1159 350.574,61.4484 350.67,61.7837 350.766,62.1219 350.861,62.4629 350.957,62.8067 351.053,63.1535 351.148,63.5032 351.244,63.8558 351.34,64.2114 351.436,64.5699 351.531,64.9313 351.627,65.2957 351.723,65.6632 351.819,66.0336 351.914,66.4071 352.01,66.7837 352.106,67.1632 352.202,67.5459 352.297,67.9316 352.393,68.3205 352.489,68.7124 352.585,69.1075 352.68,69.5058 352.776,69.9072 352.872,70.3118 352.967,70.7196 353.063,71.1306 353.159,71.5449 353.255,71.9624 353.35,72.3831 353.446,72.8072 353.542,73.2345 353.638,73.6652 353.733,74.0992 353.829,74.5365 353.925,74.9772 354.021,75.4213 354.116,75.8688 354.212,76.3197 354.308,76.774 354.404,77.2318 354.499,77.693 354.595,78.1577 354.691,78.626 354.787,79.0977 354.882,79.573 354.978,80.0518 355.074,80.5343 355.169,81.0203 355.265,81.5099 355.361,82.0031 355.457,82.5 355.552,83.0005 355.648,83.5048 355.744,84.0127 355.84,84.5244 355.935,85.0398 356.031,85.5589 356.127,86.0818 356.223,86.6085 356.318,87.139 356.414,87.6734 356.51,88.2116 356.606,88.7537 356.701,89.2996 356.797,89.8495 356.893,90.4033 356.989,90.961 357.084,91.5227 357.18,92.0884 357.276,92.6581 357.371,93.2318 357.467,93.8096 357.563,94.3914 357.659,94.9774 357.754,95.5674 357.85,96.1616 357.946,96.7599 358.042,97.3623 358.137,97.969 358.233,98.5798 358.329,99.1949 358.425,99.8143 358.52,100.438 358.616,101.066 358.712,101.698 358.808,102.335 358.903,102.976 358.999,103.621 359.095,104.271 359.19,104.925 359.286,105.583 359.382,106.246 359.478,106.914 359.573,107.586 359.669,108.262 359.765,108.943 359.861,109.629 359.956,110.319 360.052,111.014 360.148,111.714 360.244,112.418 360.339,113.127 360.435,113.841 360.531,114.559 360.627,115.282 360.722,116.01 360.818,116.743 360.914,117.48 361.01,118.223 361.105,118.97 361.201,119.722 361.297,120.479 361.392,121.241 361.488,122.008 361.584,122.78 361.68,123.557 361.775,124.339 361.871,125.127 361.967,125.919 362.063,126.716 362.158,127.519 362.254,128.326 362.35,129.139 362.446,129.958 362.541,130.781 362.637,131.61 362.733,132.443 362.829,133.283 362.924,134.127 363.02,134.977 363.116,135.833 363.212,136.694 363.307,137.56 363.403,138.432 363.499,139.309 363.594,140.192 363.69,141.08 363.786,141.974 363.882,142.873 363.977,143.779 364.073,144.69 364.169,145.606 364.265,146.528 364.36,147.457 364.456,148.39 364.552,149.33 364.648,150.275 364.743,151.227 364.839,152.184 364.935,153.147 365.031,154.116 365.126,155.091 365.222,156.073 365.318,157.06 365.413,158.053 365.509,159.052 365.605,160.058 365.701,161.069 365.796,162.087 365.892,163.111 365.988,164.141 366.084,165.178 366.179,166.221 366.275,167.27 366.371,168.325 366.467,169.387 366.562,170.455 366.658,171.53 366.754,172.611 366.85,173.699 366.945,174.794 367.041,175.895 367.137,177.002 367.233,178.116 367.328,179.237 367.424,180.365 367.52,181.499 367.615,182.64 367.711,183.788 367.807,184.943 367.903,186.104 367.998,187.273 368.094,188.448 368.19,189.63 368.286,190.82 368.381,192.016 368.477,193.22 368.573,194.43 368.669,195.648 368.764,196.873 368.86,198.105 368.956,199.344 369.052,200.591 369.147,201.845 369.243,203.106 369.339,204.375 369.435,205.651 369.53,206.935 369.626,208.225 369.722,209.524 369.817,210.83 369.913,212.144 370.009,213.465 370.105,214.794 370.2,216.131 370.296,217.475 370.392,218.827 370.488,220.187 370.583,221.555 370.679,222.93 370.775,224.314 370.871,225.705 370.966,227.105 371.062,228.513 371.158,229.928 371.254,231.352 371.349,232.784 371.445,234.224 371.541,235.672 371.637,237.129 371.732,238.593 371.828,240.067 371.924,241.548 372.019,243.038 372.115,244.536 372.211,246.043 372.307,247.559 372.402,249.083 372.498,250.615 372.594,252.157 372.69,253.707 372.785,255.265 372.881,256.833 372.977,258.409 373.073,259.994 373.168,261.588 373.264,263.191 373.36,264.803 373.456,266.424 373.551,268.054 373.647,269.693 373.743,271.342 373.838,272.999 373.934,274.666 374.03,276.342 374.126,278.027 374.221,279.722 374.317,281.426 374.413,283.14 374.509,284.863 374.604,286.595 374.7,288.338 374.796,290.089 374.892,291.851 374.987,293.622 375.083,295.403 375.179,297.194 375.275,298.994 375.37,300.805" stroke="#0071bc" stroke-width="2" stroke-dasharray="8,8,8,8" stroke-linejoin="round"/>
  </g>
 </g>
</svg>
