<?xml version='1.0' encoding='UTF-8' standalone='no'?>
<svg xmlns="http://www.w3.org/2000/svg" xmlns:xlink="http://www.w3.org/1999/xlink" height="367pt" width="494pt" viewBox="0 0 494 367">
 <title>gl2ps_renderer figure</title>
 <desc>
Creator: GL2PS 1.4.2, (C) 1999-2020 C. Geuzaine
For: Octave
CreationDate: Wed Aug 25 19:40:18 2021
</desc>
 <defs/>
 <polygon points="0,0 494,0 494,367 0,367" fill="#ffffff"/>
 <g>
  <polygon points="0,367 494,367 494,0 0,0" shape-rendering="crispEdges" fill="#ffffff"/>
  <clipPath id="cp00494367">
   <polygon points="0,367 494,367 494,0 0,0"/>
  </clipPath>
  <g clip-path="url(#cp00494367)">
   <polygon points="64.2374,327.478 447.191,327.478 447.191,27.5965 64.2374,27.5965" shape-rendering="crispEdges" fill="#ffffff"/>
   <polyline points="64.2374,327.478 64.2374,323.65" stroke="#262626" stroke-width="0.5" fill="none" stroke-linecap="butt" stroke-linejoin="miter"/>
   <polyline points="64.2374,27.5965 64.2374,31.4245" stroke="#262626" stroke-width="0.5" fill="none" stroke-linecap="butt" stroke-linejoin="miter"/>
   <polyline points="159.976,327.478 159.976,323.65" stroke="#262626" stroke-width="0.5" fill="none" stroke-linecap="butt" stroke-linejoin="miter"/>
   <polyline points="159.976,27.5965 159.976,31.4245" stroke="#262626" stroke-width="0.5" fill="none" stroke-linecap="butt" stroke-linejoin="miter"/>
   <polyline points="255.714,327.478 255.714,323.65" stroke="#262626" stroke-width="0.5" fill="none" stroke-linecap="butt" stroke-linejoin="miter"/>
   <polyline points="255.714,27.5965 255.714,31.4245" stroke="#262626" stroke-width="0.5" fill="none" stroke-linecap="butt" stroke-linejoin="miter"/>
   <polyline points="351.453,327.478 351.453,323.65" stroke="#262626" stroke-width="0.5" fill="none" stroke-linecap="butt" stroke-linejoin="miter"/>
   <polyline points="351.453,27.5965 351.453,31.4245" stroke="#262626" stroke-width="0.5" fill="none" stroke-linecap="butt" stroke-linejoin="miter"/>
   <polyline points="447.191,327.478 447.191,323.65" stroke="#262626" stroke-width="0.5" fill="none" stroke-linecap="butt" stroke-linejoin="miter"/>
   <polyline points="447.191,27.5965 447.191,31.4245" stroke="#262626" stroke-width="0.5" fill="none" stroke-linecap="butt" stroke-linejoin="miter"/>
   <text font-style="normal" font-weight="normal" xml:space="preserve" font-family="FreeSans" font-size="10" transform="translate(53.7374,342.975) rotate(-0,10.5,-8)">
    <tspan x="0 3 9 15 " y="-0" fill="rgb(38,38,38)">-100</tspan>
   </text>
   <text font-style="normal" font-weight="normal" xml:space="preserve" font-family="FreeSans" font-size="10" transform="translate(152.476,342.975) rotate(-0,7.5,-8)">
    <tspan x="0 3 9 " y="-0" fill="rgb(38,38,38)">-50</tspan>
   </text>
   <text font-style="normal" font-weight="normal" xml:space="preserve" font-family="FreeSans" font-size="10" transform="translate(252.714,342.975) rotate(-0,3,-8)">
    <tspan x="0 " y="-0" fill="rgb(38,38,38)">0</tspan>
   </text>
   <text font-style="normal" font-weight="normal" xml:space="preserve" font-family="FreeSans" font-size="10" transform="translate(345.453,342.975) rotate(-0,6,-8)">
    <tspan x="0 6 " y="-0" fill="rgb(38,38,38)">50</tspan>
   </text>
   <text font-style="normal" font-weight="normal" xml:space="preserve" font-family="FreeSans" font-size="10" transform="translate(438.191,342.975) rotate(-0,9,-8)">
    <tspan x="0 6 12 " y="-0" fill="rgb(38,38,38)">100</tspan>
   </text>
   <polyline points="64.2374,327.478 68.0664,327.478" stroke="#262626" stroke-width="0.5" fill="none" stroke-linecap="butt" stroke-linejoin="miter"/>
   <polyline points="447.191,327.478 443.362,327.478" stroke="#262626" stroke-width="0.5" fill="none" stroke-linecap="butt" stroke-linejoin="miter"/>
   <polyline points="64.2374,252.508 68.0664,252.508" stroke="#262626" stroke-width="0.5" fill="none" stroke-linecap="butt" stroke-linejoin="miter"/>
   <polyline points="447.191,252.508 443.362,252.508" stroke="#262626" stroke-width="0.5" fill="none" stroke-linecap="butt" stroke-linejoin="miter"/>
   <polyline points="64.2374,177.537 68.0664,177.537" stroke="#262626" stroke-width="0.5" fill="none" stroke-linecap="butt" stroke-linejoin="miter"/>
   <polyline points="447.191,177.537 443.362,177.537" stroke="#262626" stroke-width="0.5" fill="none" stroke-linecap="butt" stroke-linejoin="miter"/>
   <polyline points="64.2374,102.567 68.0664,102.567" stroke="#262626" stroke-width="0.5" fill="none" stroke-linecap="butt" stroke-linejoin="miter"/>
   <polyline points="447.191,102.567 443.362,102.567" stroke="#262626" stroke-width="0.5" fill="none" stroke-linecap="butt" stroke-linejoin="miter"/>
   <polyline points="64.2374,27.5965 68.0664,27.5965" stroke="#262626" stroke-width="0.5" fill="none" stroke-linecap="butt" stroke-linejoin="miter"/>
   <polyline points="447.191,27.5965 443.362,27.5965" stroke="#262626" stroke-width="0.5" fill="none" stroke-linecap="butt" stroke-linejoin="miter"/>
   <text font-style="normal" font-weight="normal" xml:space="preserve" font-family="FreeSans" font-size="10" transform="translate(53.238,331.478) rotate(-0,6,-4)">
    <tspan x="0 " y="-0" fill="rgb(38,38,38)">0</tspan>
   </text>
   <text font-style="normal" font-weight="normal" xml:space="preserve" font-family="FreeSans" font-size="10" transform="translate(47.238,256.508) rotate(-0,12,-4)">
    <tspan x="0 6 " y="-0" fill="rgb(38,38,38)">50</tspan>
   </text>
   <text font-style="normal" font-weight="normal" xml:space="preserve" font-family="FreeSans" font-size="10" transform="translate(41.238,181.537) rotate(-0,18,-4)">
    <tspan x="0 6 12 " y="-0" fill="rgb(38,38,38)">100</tspan>
   </text>
   <text font-style="normal" font-weight="normal" xml:space="preserve" font-family="FreeSans" font-size="10" transform="translate(41.238,106.567) rotate(-0,18,-4)">
    <tspan x="0 6 12 " y="-0" fill="rgb(38,38,38)">150</tspan>
   </text>
   <text font-style="normal" font-weight="normal" xml:space="preserve" font-family="FreeSans" font-size="10" transform="translate(41.238,31.5965) rotate(-0,18,-4)">
    <tspan x="0 6 12 " y="-0" fill="rgb(38,38,38)">200</tspan>
   </text>
   <polyline points="64.2374,327.478 447.191,327.478" stroke="#262626" stroke-dasharray="16,0" stroke-width="0.5" fill="none" stroke-linecap="square" stroke-linejoin="miter"/>
   <polyline points="64.2374,27.5965 447.191,27.5965" stroke="#262626" stroke-dasharray="16,0" stroke-width="0.5" fill="none" stroke-linecap="square" stroke-linejoin="miter"/>
   <polyline points="64.2374,327.478 64.2374,27.5965" stroke="#262626" stroke-dasharray="16,0" stroke-width="0.5" fill="none" stroke-linecap="square" stroke-linejoin="miter"/>
   <polyline points="447.191,327.478 447.191,27.5965" stroke="#262626" stroke-dasharray="16,0" stroke-width="0.5" fill="none" stroke-linecap="square" stroke-linejoin="miter"/>
   <text font-style="normal" font-weight="bold" xml:space="preserve" font-family="FreeSans" font-size="11" transform="translate(132.714,17.5965) rotate(-0,123,0)">
    <tspan x="0 7 14 17 23 30 37 47 50 56 59 62 70 76 83 87 93 99 105 108 115 122 125 132 135 139 142 146 149 155 165 172 179 185 188 194 197 203 206 212 218 224 230 236 242 " y="-3" fill="rgb(0,0,0)">Polynomial Regression Fit (lambda = 3.000000)</tspan>
   </text>
   <text font-style="normal" font-weight="normal" xml:space="preserve" font-family="FreeSans" font-size="11" transform="translate(-40.262,177.537) rotate(-90,76.5,0)">
    <tspan x="0 10 16 19 25 29 32 35 37 43 51 53 59 65 68 74 80 83 86 92 95 98 101 107 113 116 122 128 137 140 144 149 " y="-3" fill="rgb(38,38,38)">Water flowing out of the dam (y)</tspan>
   </text>
   <text font-style="normal" font-weight="normal" xml:space="preserve" font-family="FreeSans" font-size="11" transform="translate(196.214,359.975) rotate(-0,59.5,-12)">
    <tspan x="0 8 14 20 26 32 38 41 43 49 52 60 66 69 75 79 82 84 90 95 101 103 106 110 115 " y="-3" fill="rgb(38,38,38)">Change in water level (x)</tspan>
   </text>
   <polyline points="220.199,319.278 230.199,329.278" stroke="#ff0000" stroke-width="1.5" fill="none" stroke-linecap="square" stroke-linejoin="miter"/>
   <polyline points="220.199,329.278 230.199,319.278" stroke="#ff0000" stroke-width="1.5" fill="none" stroke-linecap="square" stroke-linejoin="miter"/>
   <polyline points="194.893,320.719 204.893,330.719" stroke="#ff0000" stroke-width="1.5" fill="none" stroke-linecap="square" stroke-linejoin="miter"/>
   <polyline points="194.893,330.719 204.893,320.719" stroke="#ff0000" stroke-width="1.5" fill="none" stroke-linecap="square" stroke-linejoin="miter"/>
   <polyline points="320.009,270.96 330.009,280.96" stroke="#ff0000" stroke-width="1.5" fill="none" stroke-linecap="square" stroke-linejoin="miter"/>
   <polyline points="320.009,280.96 330.009,270.96" stroke="#ff0000" stroke-width="1.5" fill="none" stroke-linecap="square" stroke-linejoin="miter"/>
   <polyline points="322.503,267.243 332.503,277.243" stroke="#ff0000" stroke-width="1.5" fill="none" stroke-linecap="square" stroke-linejoin="miter"/>
   <polyline points="322.503,277.243 332.503,267.243" stroke="#ff0000" stroke-width="1.5" fill="none" stroke-linecap="square" stroke-linejoin="miter"/>
   <polyline points="158.693,318.267 168.693,328.267" stroke="#ff0000" stroke-width="1.5" fill="none" stroke-linecap="square" stroke-linejoin="miter"/>
   <polyline points="158.693,328.267 168.693,318.267" stroke="#ff0000" stroke-width="1.5" fill="none" stroke-linecap="square" stroke-linejoin="miter"/>
   <polyline points="233.593,319.298 243.593,329.298" stroke="#ff0000" stroke-width="1.5" fill="none" stroke-linecap="square" stroke-linejoin="miter"/>
   <polyline points="233.593,329.298 243.593,319.298" stroke="#ff0000" stroke-width="1.5" fill="none" stroke-linecap="square" stroke-linejoin="miter"/>
   <polyline points="280.025,300.422 290.025,310.422" stroke="#ff0000" stroke-width="1.5" fill="none" stroke-linecap="square" stroke-linejoin="miter"/>
   <polyline points="280.025,310.422 290.025,300.422" stroke="#ff0000" stroke-width="1.5" fill="none" stroke-linecap="square" stroke-linejoin="miter"/>
   <polyline points="184.26,318.559 194.26,328.559" stroke="#ff0000" stroke-width="1.5" fill="none" stroke-linecap="square" stroke-linejoin="miter"/>
   <polyline points="184.26,328.559 194.26,318.559" stroke="#ff0000" stroke-width="1.5" fill="none" stroke-linecap="square" stroke-linejoin="miter"/>
   <polyline points="253.374,316.87 263.374,326.87" stroke="#ff0000" stroke-width="1.5" fill="none" stroke-linecap="square" stroke-linejoin="miter"/>
   <polyline points="253.374,326.87 263.374,316.87" stroke="#ff0000" stroke-width="1.5" fill="none" stroke-linecap="square" stroke-linejoin="miter"/>
   <polyline points="165.73,316.883 175.73,326.883" stroke="#ff0000" stroke-width="1.5" fill="none" stroke-linecap="square" stroke-linejoin="miter"/>
   <polyline points="165.73,326.883 175.73,316.883" stroke="#ff0000" stroke-width="1.5" fill="none" stroke-linecap="square" stroke-linejoin="miter"/>
   <polyline points="264.143,311.041 274.143,321.041" stroke="#ff0000" stroke-width="1.5" fill="none" stroke-linecap="square" stroke-linejoin="miter"/>
   <polyline points="264.143,321.041 274.143,311.041" stroke="#ff0000" stroke-width="1.5" fill="none" stroke-linecap="square" stroke-linejoin="miter"/>
   <polyline points="294.3,288.363 304.3,298.363" stroke="#ff0000" stroke-width="1.5" fill="none" stroke-linecap="square" stroke-linejoin="miter"/>
   <polyline points="294.3,298.363 304.3,288.363" stroke="#ff0000" stroke-width="1.5" fill="none" stroke-linecap="square" stroke-linejoin="miter"/>
   <polyline points="134.971,316.566 135.067,316.623 135.163,316.679 135.258,316.735 135.354,316.791 135.45,316.847 135.546,316.902 135.641,316.956 135.737,317.01 135.833,317.064 135.929,317.117 136.024,317.17 136.12,317.223 136.216,317.275 136.311,317.327 136.407,317.378 136.503,317.429 136.599,317.48 136.694,317.53 136.79,317.58 136.886,317.63 136.982,317.679 137.077,317.728 137.173,317.776 137.269,317.824 137.365,317.872 137.46,317.919 137.556,317.966 137.652,318.013 137.748,318.059 137.843,318.105 137.939,318.15 138.035,318.196 138.131,318.241 138.226,318.285 138.322,318.329 138.418,318.373 138.513,318.417 138.609,318.46 138.705,318.503 138.801,318.545 138.896,318.587 138.992,318.629 139.088,318.671 139.184,318.712 139.279,318.753 139.375,318.793 139.471,318.833 139.567,318.873 139.662,318.913 139.758,318.952 139.854,318.991 139.95,319.03 140.045,319.068 140.141,319.106 140.237,319.144 140.333,319.182 140.428,319.219 140.524,319.256 140.62,319.292 140.715,319.328 140.811,319.364 140.907,319.4 141.003,319.435 141.098,319.471 141.194,319.505 141.29,319.54 141.386,319.574 141.481,319.608 141.577,319.642 141.673,319.675 141.769,319.708 141.864,319.741 141.96,319.774 142.056,319.806 142.152,319.838 142.247,319.87 142.343,319.902 142.439,319.933 142.534,319.964 142.63,319.995 142.726,320.025 142.822,320.056 142.917,320.086 143.013,320.116 143.109,320.145 143.205,320.174 143.3,320.203 143.396,320.232 143.492,320.261 143.588,320.289 143.683,320.317 143.779,320.345 143.875,320.372 143.971,320.4 144.066,320.427 144.162,320.454 144.258,320.48 144.354,320.507 144.449,320.533 144.545,320.559 144.641,320.584 144.736,320.61 144.832,320.635 144.928,320.66 145.024,320.685 145.119,320.71 145.215,320.734 145.311,320.758 145.407,320.782 145.502,320.806 145.598,320.83 145.694,320.853 145.79,320.876 145.885,320.899 145.981,320.922 146.077,320.944 146.173,320.966 146.268,320.988 146.364,321.01 146.46,321.032 146.555,321.054 146.651,321.075 146.747,321.096 146.843,321.117 146.938,321.138 147.034,321.158 147.13,321.179 147.226,321.199 147.321,321.219 147.417,321.238 147.513,321.258 147.609,321.277 147.704,321.297 147.8,321.316 147.896,321.335 147.992,321.353 148.087,321.372 148.183,321.39 148.279,321.408 148.375,321.426 148.47,321.444 148.566,321.462 148.662,321.479 148.757,321.496 148.853,321.514 148.949,321.531 149.045,321.547 149.14,321.564 149.236,321.581 149.332,321.597 149.428,321.613 149.523,321.629 149.619,321.645 149.715,321.66 149.811,321.676 149.906,321.691 150.002,321.707 150.098,321.722 150.194,321.737 150.289,321.751 150.385,321.766 150.481,321.78 150.577,321.795 150.672,321.809 150.768,321.823 150.864,321.837 150.959,321.85 151.055,321.864 151.151,321.877 151.247,321.891 151.342,321.904 151.438,321.917 151.534,321.93 151.63,321.942 151.725,321.955 151.821,321.967 151.917,321.98 152.013,321.992 152.108,322.004 152.204,322.016 152.3,322.028 152.396,322.04 152.491,322.051 152.587,322.063 152.683,322.074 152.778,322.085 152.874,322.096 152.97,322.107 153.066,322.118 153.161,322.128 153.257,322.139 153.353,322.149 153.449,322.16 153.544,322.17 153.64,322.18 153.736,322.19 153.832,322.2 153.927,322.21 154.023,322.219 154.119,322.229 154.215,322.238 154.31,322.247 154.406,322.256 154.502,322.266 154.598,322.275 154.693,322.283 154.789,322.292 154.885,322.301 154.98,322.309 155.076,322.318 155.172,322.326 155.268,322.334 155.363,322.342 155.459,322.35 155.555,322.358 155.651,322.366 155.746,322.374 155.842,322.381 155.938,322.389 156.034,322.396 156.129,322.403 156.225,322.411 156.321,322.418 156.417,322.425 156.512,322.432 156.608,322.439 156.704,322.445 156.799,322.452 156.895,322.458 156.991,322.465 157.087,322.471 157.182,322.478 157.278,322.484 157.374,322.49 157.47,322.496 157.565,322.502 157.661,322.508 157.757,322.514 157.853,322.519 157.948,322.525 158.044,322.53 158.14,322.536 158.236,322.541 158.331,322.546 158.427,322.552 158.523,322.557 158.619,322.562 158.714,322.567 158.81,322.572 158.906,322.576 159.001,322.581 159.097,322.586 159.193,322.59 159.289,322.595 159.384,322.599 159.48,322.604 159.576,322.608 159.672,322.612 159.767,322.616 159.863,322.62 159.959,322.624 160.055,322.628 160.15,322.632 160.246,322.636 160.342,322.639 160.438,322.643 160.533,322.647 160.629,322.65 160.725,322.654 160.821,322.657 160.916,322.66 161.012,322.664 161.108,322.667 161.203,322.67 161.299,322.673 161.395,322.676 161.491,322.679 161.586,322.682 161.682,322.684 161.778,322.687 161.874,322.69 161.969,322.693 162.065,322.695 162.161,322.698 162.257,322.7 162.352,322.702 162.448,322.705 162.544,322.707 162.64,322.709 162.735,322.711 162.831,322.714 162.927,322.716 163.023,322.718 163.118,322.719 163.214,322.721 163.31,322.723 163.405,322.725 163.501,322.727 163.597,322.728 163.693,322.73 163.788,322.732 163.884,322.733 163.98,322.735 164.076,322.736 164.171,322.737 164.267,322.739 164.363,322.74 164.459,322.741 164.554,322.742 164.65,322.744 164.746,322.745 164.842,322.746 164.937,322.747 165.033,322.748 165.129,322.749 165.224,322.749 165.32,322.75 165.416,322.751 165.512,322.752 165.607,322.752 165.703,322.753 165.799,322.754 165.895,322.754 165.99,322.755 166.086,322.755 166.182,322.756 166.278,322.756 166.373,322.756 166.469,322.757 166.565,322.757 166.661,322.757 166.756,322.757 166.852,322.758 166.948,322.758 167.044,322.758 167.139,322.758 167.235,322.758 167.331,322.758 167.426,322.758 167.522,322.758 167.618,322.757 167.714,322.757 167.809,322.757 167.905,322.757 168.001,322.756 168.097,322.756 168.192,322.756 168.288,322.755 168.384,322.755 168.48,322.754 168.575,322.754 168.671,322.753 168.767,322.753 168.863,322.752 168.958,322.752 169.054,322.751 169.15,322.75 169.245,322.75 169.341,322.749 169.437,322.748 169.533,322.747 169.628,322.746 169.724,322.746 169.82,322.745 169.916,322.744 170.011,322.743 170.107,322.742 170.203,322.741 170.299,322.74 170.394,322.739 170.49,322.738 170.586,322.737 170.682,322.735 170.777,322.734 170.873,322.733 170.969,322.732 171.065,322.73 171.16,322.729 171.256,322.728 171.352,322.727 171.447,322.725 171.543,322.724 171.639,322.722 171.735,322.721 171.83,322.719 171.926,322.718 172.022,322.716 172.118,322.715 172.213,322.713 172.309,322.712 172.405,322.71 172.501,322.709 172.596,322.707 172.692,322.705 172.788,322.704 172.884,322.702 172.979,322.7 173.075,322.698 173.171,322.697 173.267,322.695 173.362,322.693 173.458,322.691 173.554,322.689 173.649,322.687 173.745,322.685 173.841,322.684 173.937,322.682 174.032,322.68 174.128,322.678 174.224,322.676 174.32,322.674 174.415,322.672 174.511,322.669 174.607,322.667 174.703,322.665 174.798,322.663 174.894,322.661 174.99,322.659 175.086,322.657 175.181,322.655 175.277,322.652 175.373,322.65 175.468,322.648 175.564,322.646 175.66,322.643 175.756,322.641 175.851,322.639 175.947,322.636 176.043,322.634 176.139,322.632 176.234,322.629 176.33,322.627 176.426,322.624 176.522,322.622 176.617,322.62 176.713,322.617 176.809,322.615 176.905,322.612 177,322.61 177.096,322.607 177.192,322.605 177.288,322.602 177.383,322.599 177.479,322.597 177.575,322.594 177.67,322.592 177.766,322.589 177.862,322.586 177.958,322.584 178.053,322.581 178.149,322.578 178.245,322.576 178.341,322.573 178.436,322.57 178.532,322.568 178.628,322.565 178.724,322.562 178.819,322.559 178.915,322.557 179.011,322.554 179.107,322.551 179.202,322.548 179.298,322.545 179.394,322.542 179.49,322.54 179.585,322.537 179.681,322.534 179.777,322.531 179.872,322.528 179.968,322.525 180.064,322.522 180.16,322.519 180.255,322.516 180.351,322.513 180.447,322.51 180.543,322.507 180.638,322.504 180.734,322.501 180.83,322.498 180.926,322.495 181.021,322.492 181.117,322.489 181.213,322.486 181.309,322.483 181.404,322.48 181.5,322.477 181.596,322.474 181.691,322.471 181.787,322.467 181.883,322.464 181.979,322.461 182.074,322.458 182.17,322.455 182.266,322.452 182.362,322.448 182.457,322.445 182.553,322.442 182.649,322.439 182.745,322.436 182.84,322.432 182.936,322.429 183.032,322.426 183.128,322.423 183.223,322.419 183.319,322.416 183.415,322.413 183.511,322.409 183.606,322.406 183.702,322.403 183.798,322.399 183.893,322.396 183.989,322.393 184.085,322.389 184.181,322.386 184.276,322.383 184.372,322.379 184.468,322.376 184.564,322.372 184.659,322.369 184.755,322.366 184.851,322.362 184.947,322.359 185.042,322.355 185.138,322.352 185.234,322.348 185.33,322.345 185.425,322.341 185.521,322.338 185.617,322.334 185.713,322.331 185.808,322.327 185.904,322.324 186,322.32 186.095,322.317 186.191,322.313 186.287,322.31 186.383,322.306 186.478,322.303 186.574,322.299 186.67,322.295 186.766,322.292 186.861,322.288 186.957,322.285 187.053,322.281 187.149,322.277 187.244,322.274 187.34,322.27 187.436,322.266 187.532,322.263 187.627,322.259 187.723,322.255 187.819,322.252 187.914,322.248 188.01,322.244 188.106,322.241 188.202,322.237 188.297,322.233 188.393,322.23 188.489,322.226 188.585,322.222 188.68,322.218 188.776,322.215 188.872,322.211 188.968,322.207 189.063,322.203 189.159,322.199 189.255,322.196 189.351,322.192 189.446,322.188 189.542,322.184 189.638,322.18 189.734,322.177 189.829,322.173 189.925,322.169 190.021,322.165 190.116,322.161 190.212,322.157 190.308,322.153 190.404,322.15 190.499,322.146 190.595,322.142 190.691,322.138 190.787,322.134 190.882,322.13 190.978,322.126 191.074,322.122 191.17,322.118 191.265,322.114 191.361,322.11 191.457,322.106 191.553,322.102 191.648,322.098 191.744,322.094 191.84,322.091 191.936,322.087 192.031,322.083 192.127,322.078 192.223,322.074 192.318,322.07 192.414,322.066 192.51,322.062 192.606,322.058 192.701,322.054 192.797,322.05 192.893,322.046 192.989,322.042 193.084,322.038 193.18,322.034 193.276,322.03 193.372,322.026 193.467,322.022 193.563,322.017 193.659,322.013 193.755,322.009 193.85,322.005 193.946,322.001 194.042,321.997 194.137,321.993 194.233,321.988 194.329,321.984 194.425,321.98 194.52,321.976 194.616,321.972 194.712,321.967 194.808,321.963 194.903,321.959 194.999,321.955 195.095,321.95 195.191,321.946 195.286,321.942 195.382,321.938 195.478,321.933 195.574,321.929 195.669,321.925 195.765,321.921 195.861,321.916 195.957,321.912 196.052,321.908 196.148,321.903 196.244,321.899 196.339,321.895 196.435,321.89 196.531,321.886 196.627,321.882 196.722,321.877 196.818,321.873 196.914,321.868 197.01,321.864 197.105,321.86 197.201,321.855 197.297,321.851 197.393,321.846 197.488,321.842 197.584,321.837 197.68,321.833 197.776,321.828 197.871,321.824 197.967,321.82 198.063,321.815 198.158,321.811 198.254,321.806 198.35,321.802 198.446,321.797 198.541,321.793 198.637,321.788 198.733,321.783 198.829,321.779 198.924,321.774 199.02,321.77 199.116,321.765 199.212,321.761 199.307,321.756 199.403,321.751 199.499,321.747 199.595,321.742 199.69,321.738 199.786,321.733 199.882,321.728 199.978,321.724 200.073,321.719 200.169,321.714 200.265,321.71 200.36,321.705 200.456,321.7 200.552,321.695 200.648,321.691 200.743,321.686 200.839,321.681 200.935,321.677 201.031,321.672 201.126,321.667 201.222,321.662 201.318,321.657 201.414,321.653 201.509,321.648 201.605,321.643 201.701,321.638 201.797,321.633 201.892,321.629 201.988,321.624 202.084,321.619 202.18,321.614 202.275,321.609 202.371,321.604 202.467,321.599 202.562,321.594 202.658,321.59 202.754,321.585 202.85,321.58 202.945,321.575 203.041,321.57 203.137,321.565 203.233,321.56 203.328,321.555 203.424,321.55 203.52,321.545 203.616,321.54 203.711,321.535 203.807,321.53 203.903,321.525 203.999,321.52 204.094,321.515 204.19,321.51 204.286,321.505 204.381,321.5 204.477,321.494 204.573,321.489 204.669,321.484 204.764,321.479 204.86,321.474 204.956,321.469 205.052,321.464 205.147,321.458 205.243,321.453 205.339,321.448 205.435,321.443 205.53,321.438 205.626,321.432 205.722,321.427 205.818,321.422 205.913,321.417 206.009,321.411 206.105,321.406 206.201,321.401 206.296,321.396 206.392,321.39 206.488,321.385 206.583,321.38 206.679,321.374 206.775,321.369 206.871,321.364 206.966,321.358 207.062,321.353 207.158,321.347 207.254,321.342 207.349,321.337 207.445,321.331 207.541,321.326 207.637,321.32 207.732,321.315 207.828,321.309 207.924,321.304 208.02,321.298 208.115,321.293 208.211,321.287 208.307,321.282 208.403,321.276 208.498,321.271 208.594,321.265 208.69,321.26 208.785,321.254 208.881,321.248 208.977,321.243 209.073,321.237 209.168,321.232 209.264,321.226 209.36,321.22 209.456,321.215 209.551,321.209 209.647,321.203 209.743,321.197 209.839,321.192 209.934,321.186 210.03,321.18 210.126,321.174 210.222,321.169 210.317,321.163 210.413,321.157 210.509,321.151 210.604,321.146 210.7,321.14 210.796,321.134 210.892,321.128 210.987,321.122 211.083,321.116 211.179,321.11 211.275,321.104 211.37,321.099 211.466,321.093 211.562,321.087 211.658,321.081 211.753,321.075 211.849,321.069 211.945,321.063 212.041,321.057 212.136,321.051 212.232,321.045 212.328,321.039 212.424,321.033 212.519,321.026 212.615,321.02 212.711,321.014 212.806,321.008 212.902,321.002 212.998,320.996 213.094,320.99 213.189,320.984 213.285,320.977 213.381,320.971 213.477,320.965 213.572,320.959 213.668,320.953 213.764,320.946 213.86,320.94 213.955,320.934 214.051,320.927 214.147,320.921 214.243,320.915 214.338,320.909 214.434,320.902 214.53,320.896 214.626,320.889 214.721,320.883 214.817,320.877 214.913,320.87 215.008,320.864 215.104,320.857 215.2,320.851 215.296,320.844 215.391,320.838 215.487,320.831 215.583,320.825 215.679,320.818 215.774,320.812 215.87,320.805 215.966,320.799 216.062,320.792 216.157,320.785 216.253,320.779 216.349,320.772 216.445,320.766 216.54,320.759 216.636,320.752 216.732,320.746 216.827,320.739 216.923,320.732 217.019,320.725 217.115,320.719 217.21,320.712 217.306,320.705 217.402,320.698 217.498,320.691 217.593,320.685 217.689,320.678 217.785,320.671 217.881,320.664 217.976,320.657 218.072,320.65 218.168,320.643 218.264,320.636 218.359,320.629 218.455,320.622 218.551,320.616 218.647,320.609 218.742,320.602 218.838,320.594 218.934,320.587 219.029,320.58 219.125,320.573 219.221,320.566 219.317,320.559 219.412,320.552 219.508,320.545 219.604,320.538 219.7,320.53 219.795,320.523 219.891,320.516 219.987,320.509 220.083,320.502 220.178,320.494 220.274,320.487 220.37,320.48 220.466,320.473 220.561,320.465 220.657,320.458 220.753,320.451 220.848,320.443 220.944,320.436 221.04,320.428 221.136,320.421 221.231,320.413 221.327,320.406 221.423,320.399 221.519,320.391 221.614,320.384 221.71,320.376 221.806,320.368 221.902,320.361 221.997,320.353 222.093,320.346 222.189,320.338 222.285,320.331 222.38,320.323 222.476,320.315 222.572,320.308 222.668,320.3 222.763,320.292 222.859,320.284 222.955,320.277 223.05,320.269 223.146,320.261 223.242,320.253 223.338,320.246 223.433,320.238 223.529,320.23 223.625,320.222 223.721,320.214 223.816,320.206 223.912,320.198 224.008,320.19 224.104,320.182 224.199,320.174 224.295,320.166 224.391,320.158 224.487,320.15 224.582,320.142 224.678,320.134 224.774,320.126 224.87,320.118 224.965,320.11 225.061,320.102 225.157,320.094 225.252,320.085 225.348,320.077 225.444,320.069 225.54,320.061 225.635,320.053 225.731,320.044 225.827,320.036 225.923,320.028 226.018,320.019 226.114,320.011 226.21,320.003 226.306,319.994 226.401,319.986 226.497,319.977 226.593,319.969 226.689,319.961 226.784,319.952 226.88,319.944 226.976,319.935 227.072,319.926 227.167,319.918 227.263,319.909 227.359,319.901 227.454,319.892 227.55,319.884 227.646,319.875 227.742,319.866 227.837,319.857 227.933,319.849 228.029,319.84 228.125,319.831 228.22,319.823 228.316,319.814 228.412,319.805 228.508,319.796 228.603,319.787 228.699,319.778 228.795,319.769 228.891,319.761 228.986,319.752 229.082,319.743 229.178,319.734 229.273,319.725 229.369,319.716 229.465,319.707 229.561,319.698 229.656,319.689 229.752,319.679 229.848,319.67 229.944,319.661 230.039,319.652 230.135,319.643 230.231,319.634 230.327,319.624 230.422,319.615 230.518,319.606 230.614,319.597 230.71,319.587 230.805,319.578 230.901,319.569 230.997,319.559 231.093,319.55 231.188,319.541 231.284,319.531 231.38,319.522 231.475,319.512 231.571,319.503 231.667,319.493 231.763,319.484 231.858,319.474 231.954,319.464 232.05,319.455 232.146,319.445 232.241,319.436 232.337,319.426 232.433,319.416 232.529,319.407 232.624,319.397 232.72,319.387 232.816,319.377 232.912,319.367 233.007,319.358 233.103,319.348 233.199,319.338 233.294,319.328 233.39,319.318 233.486,319.308 233.582,319.298 233.677,319.288 233.773,319.278 233.869,319.268 233.965,319.258 234.06,319.248 234.156,319.238 234.252,319.228 234.348,319.218 234.443,319.208 234.539,319.198 234.635,319.187 234.731,319.177 234.826,319.167 234.922,319.157 235.018,319.146 235.114,319.136 235.209,319.126 235.305,319.115 235.401,319.105 235.496,319.094 235.592,319.084 235.688,319.074 235.784,319.063 235.879,319.053 235.975,319.042 236.071,319.032 236.167,319.021 236.262,319.01 236.358,319 236.454,318.989 236.55,318.978 236.645,318.968 236.741,318.957 236.837,318.946 236.933,318.936 237.028,318.925 237.124,318.914 237.22,318.903 237.316,318.892 237.411,318.881 237.507,318.87 237.603,318.859 237.698,318.849 237.794,318.838 237.89,318.827 237.986,318.815 238.081,318.804 238.177,318.793 238.273,318.782 238.369,318.771 238.464,318.76 238.56,318.749 238.656,318.738 238.752,318.726 238.847,318.715 238.943,318.704 239.039,318.693 239.135,318.681 239.23,318.67 239.326,318.658 239.422,318.647 239.517,318.636 239.613,318.624 239.709,318.613 239.805,318.601 239.9,318.59 239.996,318.578 240.092,318.566 240.188,318.555 240.283,318.543 240.379,318.532 240.475,318.52 240.571,318.508 240.666,318.496 240.762,318.485 240.858,318.473 240.954,318.461 241.049,318.449 241.145,318.437 241.241,318.425 241.337,318.413 241.432,318.402 241.528,318.39 241.624,318.378 241.719,318.365 241.815,318.353 241.911,318.341 242.007,318.329 242.102,318.317 242.198,318.305 242.294,318.293 242.39,318.281 242.485,318.268 242.581,318.256 242.677,318.244 242.773,318.231 242.868,318.219 242.964,318.207 243.06,318.194 243.156,318.182 243.251,318.169 243.347,318.157 243.443,318.144 243.538,318.132 243.634,318.119 243.73,318.107 243.826,318.094 243.921,318.081 244.017,318.069 244.113,318.056 244.209,318.043 244.304,318.03 244.4,318.017 244.496,318.005 244.592,317.992 244.687,317.979 244.783,317.966 244.879,317.953 244.975,317.94 245.07,317.927 245.166,317.914 245.262,317.901 245.358,317.888 245.453,317.875 245.549,317.862 245.645,317.848 245.74,317.835 245.836,317.822 245.932,317.809 246.028,317.795 246.123,317.782 246.219,317.769 246.315,317.755 246.411,317.742 246.506,317.729 246.602,317.715 246.698,317.702 246.794,317.688 246.889,317.674 246.985,317.661 247.081,317.647 247.177,317.634 247.272,317.62 247.368,317.606 247.464,317.592 247.56,317.579 247.655,317.565 247.751,317.551 247.847,317.537 247.942,317.523 248.038,317.509 248.134,317.495 248.23,317.481 248.325,317.467 248.421,317.453 248.517,317.439 248.613,317.425 248.708,317.411 248.804,317.397 248.9,317.383 248.996,317.368 249.091,317.354 249.187,317.34 249.283,317.325 249.379,317.311 249.474,317.297 249.57,317.282 249.666,317.268 249.762,317.253 249.857,317.239 249.953,317.224 250.049,317.21 250.144,317.195 250.24,317.18 250.336,317.166 250.432,317.151 250.527,317.136 250.623,317.121 250.719,317.107 250.815,317.092 250.91,317.077 251.006,317.062 251.102,317.047 251.198,317.032 251.293,317.017 251.389,317.002 251.485,316.987 251.581,316.972 251.676,316.957 251.772,316.941 251.868,316.926 251.963,316.911 252.059,316.896 252.155,316.88 252.251,316.865 252.346,316.85 252.442,316.834 252.538,316.819 252.634,316.803 252.729,316.788 252.825,316.772 252.921,316.757 253.017,316.741 253.112,316.725 253.208,316.71 253.304,316.694 253.4,316.678 253.495,316.662 253.591,316.646 253.687,316.631 253.783,316.615 253.878,316.599 253.974,316.583 254.07,316.567 254.165,316.551 254.261,316.535 254.357,316.518 254.453,316.502 254.548,316.486 254.644,316.47 254.74,316.454 254.836,316.437 254.931,316.421 255.027,316.405 255.123,316.388 255.219,316.372 255.314,316.355 255.41,316.339 255.506,316.322 255.602,316.306 255.697,316.289 255.793,316.272 255.889,316.256 255.984,316.239 256.08,316.222 256.176,316.205 256.272,316.188 256.367,316.171 256.463,316.155 256.559,316.138 256.655,316.121 256.75,316.104 256.846,316.086 256.942,316.069 257.038,316.052 257.133,316.035 257.229,316.018 257.325,316 257.421,315.983 257.516,315.966 257.612,315.948 257.708,315.931 257.804,315.914 257.899,315.896 257.995,315.878 258.091,315.861 258.186,315.843 258.282,315.826 258.378,315.808 258.474,315.79 258.569,315.772 258.665,315.755 258.761,315.737 258.857,315.719 258.952,315.701 259.048,315.683 259.144,315.665 259.24,315.647 259.335,315.629 259.431,315.611 259.527,315.592 259.623,315.574 259.718,315.556 259.814,315.538 259.91,315.519 260.006,315.501 260.101,315.482 260.197,315.464 260.293,315.445 260.388,315.427 260.484,315.408 260.58,315.39 260.676,315.371 260.771,315.352 260.867,315.333 260.963,315.315 261.059,315.296 261.154,315.277 261.25,315.258 261.346,315.239 261.442,315.22 261.537,315.201 261.633,315.182 261.729,315.163 261.825,315.144 261.92,315.124 262.016,315.105 262.112,315.086 262.207,315.066 262.303,315.047 262.399,315.027 262.495,315.008 262.59,314.988 262.686,314.969 262.782,314.949 262.878,314.93 262.973,314.91 263.069,314.89 263.165,314.87 263.261,314.85 263.356,314.831 263.452,314.811 263.548,314.791 263.644,314.771 263.739,314.75 263.835,314.73 263.931,314.71 264.027,314.69 264.122,314.67 264.218,314.649 264.314,314.629 264.409,314.609 264.505,314.588 264.601,314.568 264.697,314.547 264.792,314.527 264.888,314.506 264.984,314.485 265.08,314.465 265.175,314.444 265.271,314.423 265.367,314.402 265.463,314.381 265.558,314.36 265.654,314.339 265.75,314.318 265.846,314.297 265.941,314.276 266.037,314.255 266.133,314.233 266.229,314.212 266.324,314.191 266.42,314.169 266.516,314.148 266.611,314.126 266.707,314.105 266.803,314.083 266.899,314.062 266.994,314.04 267.09,314.018 267.186,313.996 267.282,313.974 267.377,313.953 267.473,313.931 267.569,313.909 267.665,313.887 267.76,313.865 267.856,313.842 267.952,313.82 268.048,313.798 268.143,313.776 268.239,313.753 268.335,313.731 268.43,313.708 268.526,313.686 268.622,313.663 268.718,313.641 268.813,313.618 268.909,313.595 269.005,313.573 269.101,313.55 269.196,313.527 269.292,313.504 269.388,313.481 269.484,313.458 269.579,313.435 269.675,313.412 269.771,313.388 269.867,313.365 269.962,313.342 270.058,313.319 270.154,313.295 270.25,313.272 270.345,313.248 270.441,313.225 270.537,313.201 270.632,313.177 270.728,313.153 270.824,313.13 270.92,313.106 271.015,313.082 271.111,313.058 271.207,313.034 271.303,313.01 271.398,312.986 271.494,312.962 271.59,312.937 271.686,312.913 271.781,312.889 271.877,312.864 271.973,312.84 272.069,312.815 272.164,312.791 272.26,312.766 272.356,312.741 272.452,312.716 272.547,312.692 272.643,312.667 272.739,312.642 272.834,312.617 272.93,312.592 273.026,312.567 273.122,312.541 273.217,312.516 273.313,312.491 273.409,312.466 273.505,312.44 273.6,312.415 273.696,312.389 273.792,312.364 273.888,312.338 273.983,312.312 274.079,312.286 274.175,312.261 274.271,312.235 274.366,312.209 274.462,312.183 274.558,312.157 274.653,312.13 274.749,312.104 274.845,312.078 274.941,312.052 275.036,312.025 275.132,311.999 275.228,311.972 275.324,311.946 275.419,311.919 275.515,311.892 275.611,311.865 275.707,311.839 275.802,311.812 275.898,311.785 275.994,311.758 276.09,311.731 276.185,311.703 276.281,311.676 276.377,311.649 276.473,311.621 276.568,311.594 276.664,311.567 276.76,311.539 276.855,311.511 276.951,311.484 277.047,311.456 277.143,311.428 277.238,311.4 277.334,311.372 277.43,311.344 277.526,311.316 277.621,311.288 277.717,311.26 277.813,311.231 277.909,311.203 278.004,311.174 278.1,311.146 278.196,311.117 278.292,311.089 278.387,311.06 278.483,311.031 278.579,311.002 278.674,310.973 278.77,310.944 278.866,310.915 278.962,310.886 279.057,310.857 279.153,310.828 279.249,310.798 279.345,310.769 279.44,310.739 279.536,310.71 279.632,310.68 279.728,310.65 279.823,310.621 279.919,310.591 280.015,310.561 280.111,310.531 280.206,310.501 280.302,310.471 280.398,310.44 280.494,310.41 280.589,310.38 280.685,310.349 280.781,310.319 280.876,310.288 280.972,310.257 281.068,310.227 281.164,310.196 281.259,310.165 281.355,310.134 281.451,310.103 281.547,310.072 281.642,310.04 281.738,310.009 281.834,309.978 281.93,309.946 282.025,309.915 282.121,309.883 282.217,309.851 282.313,309.82 282.408,309.788 282.504,309.756 282.6,309.724 282.695,309.692 282.791,309.659 282.887,309.627 282.983,309.595 283.078,309.562 283.174,309.53 283.27,309.497 283.366,309.465 283.461,309.432 283.557,309.399 283.653,309.366 283.749,309.333 283.844,309.3 283.94,309.267 284.036,309.234 284.132,309.2 284.227,309.167 284.323,309.133 284.419,309.1 284.515,309.066 284.61,309.032 284.706,308.999 284.802,308.965 284.897,308.931 284.993,308.896 285.089,308.862 285.185,308.828 285.28,308.794 285.376,308.759 285.472,308.725 285.568,308.69 285.663,308.655 285.759,308.62 285.855,308.586 285.951,308.551 286.046,308.516 286.142,308.48 286.238,308.445 286.334,308.41 286.429,308.374 286.525,308.339 286.621,308.303 286.717,308.267 286.812,308.232 286.908,308.196 287.004,308.16 287.099,308.124 287.195,308.087 287.291,308.051 287.387,308.015 287.482,307.978 287.578,307.942 287.674,307.905 287.77,307.868 287.865,307.831 287.961,307.795 288.057,307.758 288.153,307.72 288.248,307.683 288.344,307.646 288.44,307.608 288.536,307.571 288.631,307.533 288.727,307.495 288.823,307.458 288.919,307.42 289.014,307.382 289.11,307.344 289.206,307.305 289.301,307.267 289.397,307.229 289.493,307.19 289.589,307.151 289.684,307.113 289.78,307.074 289.876,307.035 289.972,306.996 290.067,306.957 290.163,306.917 290.259,306.878 290.355,306.839 290.45,306.799 290.546,306.759 290.642,306.72 290.738,306.68 290.833,306.64 290.929,306.6 291.025,306.559 291.12,306.519 291.216,306.479 291.312,306.438 291.408,306.398 291.503,306.357 291.599,306.316 291.695,306.275 291.791,306.234 291.886,306.193 291.982,306.151 292.078,306.11 292.174,306.068 292.269,306.027 292.365,305.985 292.461,305.943 292.557,305.901 292.652,305.859 292.748,305.817 292.844,305.775 292.94,305.732 293.035,305.69 293.131,305.647 293.227,305.604 293.322,305.561 293.418,305.518 293.514,305.475 293.61,305.432 293.705,305.388 293.801,305.345 293.897,305.301 293.993,305.258 294.088,305.214 294.184,305.17 294.28,305.126 294.376,305.082 294.471,305.037 294.567,304.993 294.663,304.948 294.759,304.903 294.854,304.859 294.95,304.814 295.046,304.769 295.142,304.723 295.237,304.678 295.333,304.633 295.429,304.587 295.524,304.541 295.62,304.495 295.716,304.449 295.812,304.403 295.907,304.357 296.003,304.311 296.099,304.264 296.195,304.218 296.29,304.171 296.386,304.124 296.482,304.077 296.578,304.03 296.673,303.983 296.769,303.935 296.865,303.888 296.961,303.84 297.056,303.792 297.152,303.744 297.248,303.696 297.343,303.648 297.439,303.6 297.535,303.551 297.631,303.503 297.726,303.454 297.822,303.405 297.918,303.356 298.014,303.307 298.109,303.257 298.205,303.208 298.301,303.158 298.397,303.108 298.492,303.059 298.588,303.009 298.684,302.958 298.78,302.908 298.875,302.858 298.971,302.807 299.067,302.756 299.163,302.705 299.258,302.654 299.354,302.603 299.45,302.552 299.545,302.5 299.641,302.449 299.737,302.397 299.833,302.345 299.928,302.293 300.024,302.241 300.12,302.188 300.216,302.136 300.311,302.083 300.407,302.03 300.503,301.977 300.599,301.924 300.694,301.871 300.79,301.817 300.886,301.763 300.982,301.71 301.077,301.656 301.173,301.602 301.269,301.547 301.365,301.493 301.46,301.438 301.556,301.384 301.652,301.329 301.747,301.274 301.843,301.218 301.939,301.163 302.035,301.107 302.13,301.052 302.226,300.996 302.322,300.94 302.418,300.884 302.513,300.827 302.609,300.771 302.705,300.714 302.801,300.657 302.896,300.6 302.992,300.543 303.088,300.485 303.184,300.428 303.279,300.37 303.375,300.312 303.471,300.254 303.566,300.196 303.662,300.137 303.758,300.079 303.854,300.02 303.949,299.961 304.045,299.902 304.141,299.842 304.237,299.783 304.332,299.723 304.428,299.663 304.524,299.603 304.62,299.543 304.715,299.483 304.811,299.422 304.907,299.361 305.003,299.3 305.098,299.239 305.194,299.178 305.29,299.116 305.385,299.055 305.481,298.993 305.577,298.931 305.673,298.868 305.768,298.806 305.864,298.743 305.96,298.68 306.056,298.617 306.151,298.554 306.247,298.491 306.343,298.427 306.439,298.363 306.534,298.299 306.63,298.235 306.726,298.171 306.822,298.106 306.917,298.041 307.013,297.976 307.109,297.911 307.205,297.845 307.3,297.78 307.396,297.714 307.492,297.648 307.587,297.582 307.683,297.515 307.779,297.449 307.875,297.382 307.97,297.315 308.066,297.247 308.162,297.18 308.258,297.112 308.353,297.044 308.449,296.976 308.545,296.908 308.641,296.839 308.736,296.77 308.832,296.701 308.928,296.632 309.024,296.563 309.119,296.493 309.215,296.423 309.311,296.353 309.407,296.283 309.502,296.212 309.598,296.142 309.694,296.071 309.789,296 309.885,295.928 309.981,295.856 310.077,295.785 310.172,295.712 310.268,295.64 310.364,295.568 310.46,295.495 310.555,295.422 310.651,295.348 310.747,295.275 310.843,295.201 310.938,295.127 311.034,295.053 311.13,294.979 311.226,294.904 311.321,294.829 311.417,294.754 311.513,294.678 311.609,294.603 311.704,294.527 311.8,294.451 311.896,294.374 311.991,294.298 312.087,294.221 312.183,294.144 312.279,294.066 312.374,293.989 312.47,293.911 312.566,293.833 312.662,293.754 312.757,293.675 312.853,293.597 312.949,293.517 313.045,293.438 313.14,293.358 313.236,293.278 313.332,293.198 313.428,293.118 313.523,293.037 313.619,292.956 313.715,292.875 313.81,292.793 313.906,292.711 314.002,292.629 314.098,292.547 314.193,292.464 314.289,292.381 314.385,292.298 314.481,292.215 314.576,292.131 314.672,292.047 314.768,291.963 314.864,291.878 314.959,291.793 315.055,291.708 315.151,291.623 315.247,291.537 315.342,291.451 315.438,291.365 315.534,291.279 315.63,291.192 315.725,291.105 315.821,291.017 315.917,290.93 316.012,290.842 316.108,290.753 316.204,290.665 316.3,290.576 316.395,290.487 316.491,290.397 316.587,290.307 316.683,290.217 316.778,290.127 316.874,290.036 316.97,289.945 317.066,289.854 317.161,289.762 317.257,289.67 317.353,289.578 317.449,289.486 317.544,289.393 317.64,289.3 317.736,289.206 317.832,289.112 317.927,289.018 318.023,288.924 318.119,288.829 318.214,288.734 318.31,288.639 318.406,288.543 318.502,288.447 318.597,288.35 318.693,288.254 318.789,288.157 318.885,288.059 318.98,287.962 319.076,287.864 319.172,287.765 319.268,287.666 319.363,287.567 319.459,287.468 319.555,287.368 319.651,287.268 319.746,287.168 319.842,287.067 319.938,286.966 320.034,286.864 320.129,286.762 320.225,286.66 320.321,286.558 320.416,286.455 320.512,286.352 320.608,286.248 320.704,286.144 320.799,286.04 320.895,285.935 320.991,285.83 321.087,285.725 321.182,285.619 321.278,285.513 321.374,285.406 321.47,285.299 321.565,285.192 321.661,285.084 321.757,284.976 321.853,284.868 321.948,284.759 322.044,284.65 322.14,284.541 322.235,284.431 322.331,284.32 322.427,284.21 322.523,284.099 322.618,283.987 322.714,283.875 322.81,283.763 322.906,283.65 323.001,283.537 323.097,283.424 323.193,283.31 323.289,283.196 323.384,283.081 323.48,282.966 323.576,282.851 323.672,282.735 323.767,282.618 323.863,282.502 323.959,282.385 324.055,282.267 324.15,282.149 324.246,282.031 324.342,281.912 324.437,281.793 324.533,281.673 324.629,281.553 324.725,281.433 324.82,281.312 324.916,281.19 325.012,281.069 325.108,280.946 325.203,280.824 325.299,280.701 325.395,280.577 325.491,280.453 325.586,280.329 325.682,280.204 325.778,280.079 325.874,279.953 325.969,279.827 326.065,279.7 326.161,279.573 326.257,279.445 326.352,279.317 326.448,279.189 326.544,279.06 326.639,278.93 326.735,278.8 326.831,278.67 326.927,278.539 327.022,278.408 327.118,278.276 327.214,278.144 327.31,278.011 327.405,277.878 327.501,277.744 327.597,277.61 327.693,277.475 327.788,277.34 327.884,277.204 327.98,277.068 328.076,276.932 328.171,276.794 328.267,276.657 328.363,276.519 328.458,276.38 328.554,276.241 328.65,276.101 328.746,275.961 328.841,275.82 328.937,275.679 329.033,275.537 329.129,275.395 329.224,275.252 329.32,275.109 329.416,274.965 329.512,274.821 329.607,274.676 329.703,274.531 329.799,274.385 329.895,274.238 329.99,274.091 330.086,273.944 330.182,273.796 330.277,273.647 330.373,273.498 330.469,273.348 330.565,273.198 330.66,273.047 330.756,272.896 330.852,272.744 330.948,272.591 331.043,272.438 331.139,272.284 331.235,272.13 331.331,271.975 331.426,271.82 331.522,271.664 331.618,271.508 331.714,271.35 331.809,271.193 331.905,271.035 332.001,270.876 332.097,270.716 332.192,270.556 332.288,270.396 332.384,270.234 332.479,270.073 332.575,269.91 332.671,269.747 332.767,269.583 332.862,269.419 332.958,269.254 333.054,269.089 333.15,268.923 333.245,268.756 333.341,268.589 333.437,268.421 333.533,268.252 333.628,268.083 333.724,267.913 333.82,267.742 333.916,267.571 334.011,267.4 334.107,267.227 334.203,267.054 334.299,266.88 334.394,266.706 334.49,266.531 334.586,266.355 334.681,266.179 334.777,266.002 334.873,265.824 334.969,265.646 335.064,265.467 335.16,265.287 335.256,265.107 335.352,264.926 335.447,264.744 335.543,264.562 335.639,264.378 335.735,264.195 335.83,264.01 335.926,263.825 336.022,263.639 336.118,263.452 336.213,263.265 336.309,263.077 336.405,262.888 336.5,262.699 336.596,262.509 336.692,262.318 336.788,262.126 336.883,261.934 336.979,261.741 337.075,261.547 337.171,261.353 337.266,261.157 337.362,260.961 337.458,260.765 337.554,260.567 337.649,260.369 337.745,260.17 337.841,259.97 337.937,259.77 338.032,259.568 338.128,259.366 338.224,259.163 338.32,258.96 338.415,258.755 338.511,258.55 338.607,258.344 338.702,258.138 338.798,257.93 338.894,257.722 338.99,257.513 339.085,257.303 339.181,257.092 339.277,256.881 339.373,256.668 339.468,256.455 339.564,256.241 339.66,256.026 339.756,255.811 339.851,255.594 339.947,255.377 340.043,255.159 340.139,254.94 340.234,254.72 340.33,254.5 340.426,254.278 340.522,254.056 340.617,253.833 340.713,253.609 340.809,253.384 340.904,253.158 341,252.932 341.096,252.704 341.192,252.476 341.287,252.247 341.383,252.016 341.479,251.785 341.575,251.554 341.67,251.321 341.766,251.087 341.862,250.853 341.958,250.617 342.053,250.381 342.149,250.143 342.245,249.905 342.341,249.666 342.436,249.426 342.532,249.185 342.628,248.943 342.723,248.7 342.819,248.456 342.915,248.212 343.011,247.966 343.106,247.719 343.202,247.472 343.298,247.223 343.394,246.974 343.489,246.723 343.585,246.472 343.681,246.219 343.777,245.966 343.872,245.712 343.968,245.456 344.064,245.2 344.16,244.942 344.255,244.684 344.351,244.425 344.447,244.164 344.543,243.903 344.638,243.641 344.734,243.377 344.83,243.113 344.925,242.847 345.021,242.581 345.117,242.313 345.213,242.045 345.308,241.775 345.404,241.505 345.5,241.233 345.596,240.96 345.691,240.686 345.787,240.412 345.883,240.136 345.979,239.859 346.074,239.581 346.17,239.301 346.266,239.021 346.362,238.74 346.457,238.457 346.553,238.174 346.649,237.889 346.745,237.603 346.84,237.316 346.936,237.028 347.032,236.739 347.127,236.449 347.223,236.158 347.319,235.865 347.415,235.571 347.51,235.277 347.606,234.981 347.702,234.684 347.798,234.385 347.893,234.086 347.989,233.785 348.085,233.484 348.181,233.181 348.276,232.876 348.372,232.571 348.468,232.265 348.564,231.957 348.659,231.648 348.755,231.338 348.851,231.027 348.946,230.714 349.042,230.4 349.138,230.085 349.234,229.769 349.329,229.452 349.425,229.133 349.521,228.813 349.617,228.492 349.712,228.169 349.808,227.845 349.904,227.52 350,227.194 350.095,226.867 350.191,226.538 350.287,226.208 350.383,225.876 350.478,225.544 350.574,225.21 350.67,224.874 350.766,224.538 350.861,224.2 350.957,223.86 351.053,223.52 351.148,223.178 351.244,222.835 351.34,222.49 351.436,222.144 351.531,221.797 351.627,221.448 351.723,221.098 351.819,220.747 351.914,220.394 352.01,220.04 352.106,219.684 352.202,219.327 352.297,218.969 352.393,218.609 352.489,218.248 352.585,217.885 352.68,217.521 352.776,217.156 352.872,216.789 352.967,216.42 353.063,216.051 353.159,215.679 353.255,215.307 353.35,214.932 353.446,214.557 353.542,214.18 353.638,213.801 353.733,213.421 353.829,213.04 353.925,212.657 354.021,212.272 354.116,211.886 354.212,211.498 354.308,211.109 354.404,210.719 354.499,210.326 354.595,209.933 354.691,209.538 354.787,209.141 354.882,208.742 354.978,208.342 355.074,207.941 355.169,207.538 355.265,207.133 355.361,206.727 355.457,206.319 355.552,205.91 355.648,205.499 355.744,205.086 355.84,204.672 355.935,204.256 356.031,203.838 356.127,203.419 356.223,202.998 356.318,202.576 356.414,202.152 356.51,201.726 356.606,201.298 356.701,200.869 356.797,200.438 356.893,200.006 356.989,199.572 357.084,199.136 357.18,198.698 357.276,198.259 357.371,197.818 357.467,197.375 357.563,196.93 357.659,196.484 357.754,196.036 357.85,195.586 357.946,195.134 358.042,194.681 358.137,194.226 358.233,193.769 358.329,193.31 358.425,192.85 358.52,192.387 358.616,191.923 358.712,191.457 358.808,190.99 358.903,190.52 358.999,190.048 359.095,189.575 359.19,189.1 359.286,188.623 359.382,188.144 359.478,187.663 359.573,187.18 359.669,186.696 359.765,186.209 359.861,185.721 359.956,185.231 360.052,184.738 360.148,184.244 360.244,183.748 360.339,183.25 360.435,182.75 360.531,182.248 360.627,181.744 360.722,181.238 360.818,180.73 360.914,180.22 361.01,179.708 361.105,179.195 361.201,178.679 361.297,178.161 361.392,177.641 361.488,177.119 361.584,176.595 361.68,176.068 361.775,175.54 361.871,175.01 361.967,174.478 362.063,173.943 362.158,173.407 362.254,172.868 362.35,172.327 362.446,171.785 362.541,171.24 362.637,170.693 362.733,170.143 362.829,169.592 362.924,169.038 363.02,168.483 363.116,167.925 363.212,167.365 363.307,166.802 363.403,166.238 363.499,165.671 363.594,165.102 363.69,164.531 363.786,163.958 363.882,163.382 363.977,162.804 364.073,162.224 364.169,161.642 364.265,161.057 364.36,160.47 364.456,159.881 364.552,159.29 364.648,158.696 364.743,158.099 364.839,157.501 364.935,156.9 365.031,156.297 365.126,155.691 365.222,155.083 365.318,154.473 365.413,153.86 365.509,153.245 365.605,152.628 365.701,152.008 365.796,151.386 365.892,150.761 365.988,150.134 366.084,149.504 366.179,148.872 366.275,148.237 366.371,147.6 366.467,146.961 366.562,146.319 366.658,145.674 366.754,145.027 366.85,144.378 366.945,143.726 367.041,143.071 367.137,142.414 367.233,141.754 367.328,141.092 367.424,140.427 367.52,139.76 367.615,139.09 367.711,138.417 367.807,137.742 367.903,137.064 367.998,136.383 368.094,135.7 368.19,135.014 368.286,134.325 368.381,133.634 368.477,132.94 368.573,132.244 368.669,131.544 368.764,130.842 368.86,130.138 368.956,129.43 369.052,128.72 369.147,128.007 369.243,127.291 369.339,126.572 369.435,125.851 369.53,125.127 369.626,124.4 369.722,123.67 369.817,122.938 369.913,122.202 370.009,121.464 370.105,120.723 370.2,119.978 370.296,119.232 370.392,118.482 370.488,117.729 370.583,116.973 370.679,116.215 370.775,115.453 370.871,114.689 370.966,113.921 371.062,113.151 371.158,112.377 371.254,111.601 371.349,110.822 371.445,110.039 371.541,109.254 371.637,108.465 371.732,107.674 371.828,106.879 371.924,106.081 372.019,105.281 372.115,104.477 372.211,103.67 372.307,102.86 372.402,102.047 372.498,101.23 372.594,100.411 372.69,99.5881 372.785,98.7623 372.881,97.9333 372.977,97.101 373.073,96.2656 373.168,95.4269 373.264,94.5851 373.36,93.7399 373.456,92.8915 373.551,92.0399 373.647,91.1849 373.743,90.3266 373.838,89.4651 373.934,88.6002 374.03,87.732 374.126,86.8605 374.221,85.9856 374.317,85.1073 374.413,84.2257 374.509,83.3407 374.604,82.4522 374.7,81.5604 374.796,80.6651 374.892,79.7664 374.987,78.8642 375.083,77.9585 375.179,77.0494 375.275,76.1368 375.37,75.2207" stroke="#0071bc" stroke-dasharray="8,8,8,8" stroke-width="2" fill="none" stroke-linecap="butt" stroke-linejoin="round"/>
  </g>
 </g>
</svg>
