<?xml version='1.0' encoding='UTF-8' standalone='no'?>
<svg xmlns:xlink="http://www.w3.org/1999/xlink" height="367pt" xmlns="http://www.w3.org/2000/svg" width="494pt" viewBox="0 0 494 367">
 <title>gl2ps_renderer figure</title>
 <desc>
Creator: GL2PS 1.4.2, (C) 1999-2020 C. Geuzaine
For: Octave
CreationDate: Wed Aug 25 18:31:11 2021
</desc>
 <defs/>
 <polygon points="0,0 494,0 494,367 0,367" fill="#ffffff"/>
 <g>
  <polygon points="0,367 494,367 494,0 0,0" fill="#ffffff" shape-rendering="crispEdges"/>
  <clipPath id="cp00494367">
   <polygon points="0,367 494,367 494,0 0,0"/>
  </clipPath>
  <g clip-path="url(#cp00494367)">
   <polygon points="64.2374,327.478 447.191,327.478 447.191,27.5965 64.2374,27.5965" fill="#ffffff" shape-rendering="crispEdges"/>
   <polyline stroke-width="0.5" stroke-linejoin="miter" points="64.2374,327.478 64.2374,323.65" fill="none" stroke-linecap="butt" stroke="#262626"/>
   <polyline stroke-width="0.5" stroke-linejoin="miter" points="64.2374,27.5965 64.2374,31.4245" fill="none" stroke-linecap="butt" stroke="#262626"/>
   <polyline stroke-width="0.5" stroke-linejoin="miter" points="159.976,327.478 159.976,323.65" fill="none" stroke-linecap="butt" stroke="#262626"/>
   <polyline stroke-width="0.5" stroke-linejoin="miter" points="159.976,27.5965 159.976,31.4245" fill="none" stroke-linecap="butt" stroke="#262626"/>
   <polyline stroke-width="0.5" stroke-linejoin="miter" points="255.714,327.478 255.714,323.65" fill="none" stroke-linecap="butt" stroke="#262626"/>
   <polyline stroke-width="0.5" stroke-linejoin="miter" points="255.714,27.5965 255.714,31.4245" fill="none" stroke-linecap="butt" stroke="#262626"/>
   <polyline stroke-width="0.5" stroke-linejoin="miter" points="351.453,327.478 351.453,323.65" fill="none" stroke-linecap="butt" stroke="#262626"/>
   <polyline stroke-width="0.5" stroke-linejoin="miter" points="351.453,27.5965 351.453,31.4245" fill="none" stroke-linecap="butt" stroke="#262626"/>
   <polyline stroke-width="0.5" stroke-linejoin="miter" points="447.191,327.478 447.191,323.65" fill="none" stroke-linecap="butt" stroke="#262626"/>
   <polyline stroke-width="0.5" stroke-linejoin="miter" points="447.191,27.5965 447.191,31.4245" fill="none" stroke-linecap="butt" stroke="#262626"/>
   <text transform="translate(53.7374,342.975) rotate(-0,10.5,-8)" font-weight="normal" font-style="normal" font-family="FreeSans" font-size="10" xml:space="preserve">
    <tspan y="-0" x="0 3 9 15 " fill="rgb(38,38,38)">-100</tspan>
   </text>
   <text transform="translate(152.476,342.975) rotate(-0,7.5,-8)" font-weight="normal" font-style="normal" font-family="FreeSans" font-size="10" xml:space="preserve">
    <tspan y="-0" x="0 3 9 " fill="rgb(38,38,38)">-50</tspan>
   </text>
   <text transform="translate(252.714,342.975) rotate(-0,3,-8)" font-weight="normal" font-style="normal" font-family="FreeSans" font-size="10" xml:space="preserve">
    <tspan y="-0" x="0 " fill="rgb(38,38,38)">0</tspan>
   </text>
   <text transform="translate(345.453,342.975) rotate(-0,6,-8)" font-weight="normal" font-style="normal" font-family="FreeSans" font-size="10" xml:space="preserve">
    <tspan y="-0" x="0 6 " fill="rgb(38,38,38)">50</tspan>
   </text>
   <text transform="translate(438.191,342.975) rotate(-0,9,-8)" font-weight="normal" font-style="normal" font-family="FreeSans" font-size="10" xml:space="preserve">
    <tspan y="-0" x="0 6 12 " fill="rgb(38,38,38)">100</tspan>
   </text>
   <polyline stroke-width="0.5" stroke-linejoin="miter" points="64.2374,327.478 68.0664,327.478" fill="none" stroke-linecap="butt" stroke="#262626"/>
   <polyline stroke-width="0.5" stroke-linejoin="miter" points="447.191,327.478 443.362,327.478" fill="none" stroke-linecap="butt" stroke="#262626"/>
   <polyline stroke-width="0.5" stroke-linejoin="miter" points="64.2374,252.508 68.0664,252.508" fill="none" stroke-linecap="butt" stroke="#262626"/>
   <polyline stroke-width="0.5" stroke-linejoin="miter" points="447.191,252.508 443.362,252.508" fill="none" stroke-linecap="butt" stroke="#262626"/>
   <polyline stroke-width="0.5" stroke-linejoin="miter" points="64.2374,177.537 68.0664,177.537" fill="none" stroke-linecap="butt" stroke="#262626"/>
   <polyline stroke-width="0.5" stroke-linejoin="miter" points="447.191,177.537 443.362,177.537" fill="none" stroke-linecap="butt" stroke="#262626"/>
   <polyline stroke-width="0.5" stroke-linejoin="miter" points="64.2374,102.567 68.0664,102.567" fill="none" stroke-linecap="butt" stroke="#262626"/>
   <polyline stroke-width="0.5" stroke-linejoin="miter" points="447.191,102.567 443.362,102.567" fill="none" stroke-linecap="butt" stroke="#262626"/>
   <polyline stroke-width="0.5" stroke-linejoin="miter" points="64.2374,27.5965 68.0664,27.5965" fill="none" stroke-linecap="butt" stroke="#262626"/>
   <polyline stroke-width="0.5" stroke-linejoin="miter" points="447.191,27.5965 443.362,27.5965" fill="none" stroke-linecap="butt" stroke="#262626"/>
   <text transform="translate(53.238,331.478) rotate(-0,6,-4)" font-weight="normal" font-style="normal" font-family="FreeSans" font-size="10" xml:space="preserve">
    <tspan y="-0" x="0 " fill="rgb(38,38,38)">0</tspan>
   </text>
   <text transform="translate(47.238,256.508) rotate(-0,12,-4)" font-weight="normal" font-style="normal" font-family="FreeSans" font-size="10" xml:space="preserve">
    <tspan y="-0" x="0 6 " fill="rgb(38,38,38)">50</tspan>
   </text>
   <text transform="translate(41.238,181.537) rotate(-0,18,-4)" font-weight="normal" font-style="normal" font-family="FreeSans" font-size="10" xml:space="preserve">
    <tspan y="-0" x="0 6 12 " fill="rgb(38,38,38)">100</tspan>
   </text>
   <text transform="translate(41.238,106.567) rotate(-0,18,-4)" font-weight="normal" font-style="normal" font-family="FreeSans" font-size="10" xml:space="preserve">
    <tspan y="-0" x="0 6 12 " fill="rgb(38,38,38)">150</tspan>
   </text>
   <text transform="translate(41.238,31.5965) rotate(-0,18,-4)" font-weight="normal" font-style="normal" font-family="FreeSans" font-size="10" xml:space="preserve">
    <tspan y="-0" x="0 6 12 " fill="rgb(38,38,38)">200</tspan>
   </text>
   <polyline stroke-width="0.5" stroke-linejoin="miter" points="64.2374,327.478 447.191,327.478" fill="none" stroke-linecap="square" stroke="#262626" stroke-dasharray="16,0"/>
   <polyline stroke-width="0.5" stroke-linejoin="miter" points="64.2374,27.5965 447.191,27.5965" fill="none" stroke-linecap="square" stroke="#262626" stroke-dasharray="16,0"/>
   <polyline stroke-width="0.5" stroke-linejoin="miter" points="64.2374,327.478 64.2374,27.5965" fill="none" stroke-linecap="square" stroke="#262626" stroke-dasharray="16,0"/>
   <polyline stroke-width="0.5" stroke-linejoin="miter" points="447.191,327.478 447.191,27.5965" fill="none" stroke-linecap="square" stroke="#262626" stroke-dasharray="16,0"/>
   <text transform="translate(132.714,17.5965) rotate(-0,123,0)" font-weight="bold" font-style="normal" font-family="FreeSans" font-size="11" xml:space="preserve">
    <tspan y="-3" x="0 7 14 17 23 30 37 47 50 56 59 62 70 76 83 87 93 99 105 108 115 122 125 132 135 139 142 146 149 155 165 172 179 185 188 194 197 203 206 212 218 224 230 236 242 " fill="rgb(0,0,0)">Polynomial Regression Fit (lambda = 1.000000)</tspan>
   </text>
   <text transform="translate(-40.262,177.537) rotate(-90,76.5,0)" font-weight="normal" font-style="normal" font-family="FreeSans" font-size="11" xml:space="preserve">
    <tspan y="-3" x="0 10 16 19 25 29 32 35 37 43 51 53 59 65 68 74 80 83 86 92 95 98 101 107 113 116 122 128 137 140 144 149 " fill="rgb(38,38,38)">Water flowing out of the dam (y)</tspan>
   </text>
   <text transform="translate(196.214,359.975) rotate(-0,59.5,-12)" font-weight="normal" font-style="normal" font-family="FreeSans" font-size="11" xml:space="preserve">
    <tspan y="-3" x="0 8 14 20 26 32 38 41 43 49 52 60 66 69 75 79 82 84 90 95 101 103 106 110 115 " fill="rgb(38,38,38)">Change in water level (x)</tspan>
   </text>
   <polyline stroke-width="1.5" stroke-linejoin="miter" points="220.199,319.278 230.199,329.278" fill="none" stroke-linecap="square" stroke="#ff0000"/>
   <polyline stroke-width="1.5" stroke-linejoin="miter" points="220.199,329.278 230.199,319.278" fill="none" stroke-linecap="square" stroke="#ff0000"/>
   <polyline stroke-width="1.5" stroke-linejoin="miter" points="194.893,320.719 204.893,330.719" fill="none" stroke-linecap="square" stroke="#ff0000"/>
   <polyline stroke-width="1.5" stroke-linejoin="miter" points="194.893,330.719 204.893,320.719" fill="none" stroke-linecap="square" stroke="#ff0000"/>
   <polyline stroke-width="1.5" stroke-linejoin="miter" points="320.009,270.96 330.009,280.96" fill="none" stroke-linecap="square" stroke="#ff0000"/>
   <polyline stroke-width="1.5" stroke-linejoin="miter" points="320.009,280.96 330.009,270.96" fill="none" stroke-linecap="square" stroke="#ff0000"/>
   <polyline stroke-width="1.5" stroke-linejoin="miter" points="322.503,267.243 332.503,277.243" fill="none" stroke-linecap="square" stroke="#ff0000"/>
   <polyline stroke-width="1.5" stroke-linejoin="miter" points="322.503,277.243 332.503,267.243" fill="none" stroke-linecap="square" stroke="#ff0000"/>
   <polyline stroke-width="1.5" stroke-linejoin="miter" points="158.693,318.267 168.693,328.267" fill="none" stroke-linecap="square" stroke="#ff0000"/>
   <polyline stroke-width="1.5" stroke-linejoin="miter" points="158.693,328.267 168.693,318.267" fill="none" stroke-linecap="square" stroke="#ff0000"/>
   <polyline stroke-width="1.5" stroke-linejoin="miter" points="233.593,319.298 243.593,329.298" fill="none" stroke-linecap="square" stroke="#ff0000"/>
   <polyline stroke-width="1.5" stroke-linejoin="miter" points="233.593,329.298 243.593,319.298" fill="none" stroke-linecap="square" stroke="#ff0000"/>
   <polyline stroke-width="1.5" stroke-linejoin="miter" points="280.025,300.422 290.025,310.422" fill="none" stroke-linecap="square" stroke="#ff0000"/>
   <polyline stroke-width="1.5" stroke-linejoin="miter" points="280.025,310.422 290.025,300.422" fill="none" stroke-linecap="square" stroke="#ff0000"/>
   <polyline stroke-width="1.5" stroke-linejoin="miter" points="184.26,318.559 194.26,328.559" fill="none" stroke-linecap="square" stroke="#ff0000"/>
   <polyline stroke-width="1.5" stroke-linejoin="miter" points="184.26,328.559 194.26,318.559" fill="none" stroke-linecap="square" stroke="#ff0000"/>
   <polyline stroke-width="1.5" stroke-linejoin="miter" points="253.374,316.87 263.374,326.87" fill="none" stroke-linecap="square" stroke="#ff0000"/>
   <polyline stroke-width="1.5" stroke-linejoin="miter" points="253.374,326.87 263.374,316.87" fill="none" stroke-linecap="square" stroke="#ff0000"/>
   <polyline stroke-width="1.5" stroke-linejoin="miter" points="165.73,316.883 175.73,326.883" fill="none" stroke-linecap="square" stroke="#ff0000"/>
   <polyline stroke-width="1.5" stroke-linejoin="miter" points="165.73,326.883 175.73,316.883" fill="none" stroke-linecap="square" stroke="#ff0000"/>
   <polyline stroke-width="1.5" stroke-linejoin="miter" points="264.143,311.041 274.143,321.041" fill="none" stroke-linecap="square" stroke="#ff0000"/>
   <polyline stroke-width="1.5" stroke-linejoin="miter" points="264.143,321.041 274.143,311.041" fill="none" stroke-linecap="square" stroke="#ff0000"/>
   <polyline stroke-width="1.5" stroke-linejoin="miter" points="294.3,288.363 304.3,298.363" fill="none" stroke-linecap="square" stroke="#ff0000"/>
   <polyline stroke-width="1.5" stroke-linejoin="miter" points="294.3,298.363 304.3,288.363" fill="none" stroke-linecap="square" stroke="#ff0000"/>
   <polyline stroke-width="2" stroke-linejoin="round" points="134.971,320.463 135.067,320.473 135.163,320.482 135.258,320.492 135.354,320.502 135.45,320.511 135.546,320.521 135.641,320.53 135.737,320.54 135.833,320.549 135.929,320.559 136.024,320.568 136.12,320.578 136.216,320.587 136.311,320.596 136.407,320.606 136.503,320.615 136.599,320.624 136.694,320.633 136.79,320.642 136.886,320.651 136.982,320.661 137.077,320.67 137.173,320.679 137.269,320.688 137.365,320.697 137.46,320.705 137.556,320.714 137.652,320.723 137.748,320.732 137.843,320.741 137.939,320.75 138.035,320.758 138.131,320.767 138.226,320.776 138.322,320.784 138.418,320.793 138.513,320.801 138.609,320.81 138.705,320.819 138.801,320.827 138.896,320.836 138.992,320.844 139.088,320.852 139.184,320.861 139.279,320.869 139.375,320.878 139.471,320.886 139.567,320.894 139.662,320.902 139.758,320.911 139.854,320.919 139.95,320.927 140.045,320.935 140.141,320.943 140.237,320.951 140.333,320.96 140.428,320.968 140.524,320.976 140.62,320.984 140.715,320.992 140.811,321 140.907,321.008 141.003,321.016 141.098,321.024 141.194,321.031 141.29,321.039 141.386,321.047 141.481,321.055 141.577,321.063 141.673,321.071 141.769,321.078 141.864,321.086 141.96,321.094 142.056,321.102 142.152,321.109 142.247,321.117 142.343,321.125 142.439,321.132 142.534,321.14 142.63,321.148 142.726,321.155 142.822,321.163 142.917,321.17 143.013,321.178 143.109,321.185 143.205,321.193 143.3,321.201 143.396,321.208 143.492,321.215 143.588,321.223 143.683,321.23 143.779,321.238 143.875,321.245 143.971,321.253 144.066,321.26 144.162,321.267 144.258,321.275 144.354,321.282 144.449,321.289 144.545,321.296 144.641,321.304 144.736,321.311 144.832,321.318 144.928,321.326 145.024,321.333 145.119,321.34 145.215,321.347 145.311,321.354 145.407,321.361 145.502,321.369 145.598,321.376 145.694,321.383 145.79,321.39 145.885,321.397 145.981,321.404 146.077,321.411 146.173,321.418 146.268,321.425 146.364,321.432 146.46,321.439 146.555,321.446 146.651,321.453 146.747,321.46 146.843,321.467 146.938,321.474 147.034,321.481 147.13,321.488 147.226,321.495 147.321,321.502 147.417,321.509 147.513,321.516 147.609,321.523 147.704,321.53 147.8,321.537 147.896,321.544 147.992,321.55 148.087,321.557 148.183,321.564 148.279,321.571 148.375,321.578 148.47,321.585 148.566,321.591 148.662,321.598 148.757,321.605 148.853,321.612 148.949,321.618 149.045,321.625 149.14,321.632 149.236,321.639 149.332,321.645 149.428,321.652 149.523,321.659 149.619,321.665 149.715,321.672 149.811,321.679 149.906,321.685 150.002,321.692 150.098,321.699 150.194,321.705 150.289,321.712 150.385,321.719 150.481,321.725 150.577,321.732 150.672,321.739 150.768,321.745 150.864,321.752 150.959,321.758 151.055,321.765 151.151,321.771 151.247,321.778 151.342,321.785 151.438,321.791 151.534,321.798 151.63,321.804 151.725,321.811 151.821,321.817 151.917,321.824 152.013,321.83 152.108,321.837 152.204,321.843 152.3,321.85 152.396,321.856 152.491,321.863 152.587,321.869 152.683,321.876 152.778,321.882 152.874,321.888 152.97,321.895 153.066,321.901 153.161,321.908 153.257,321.914 153.353,321.921 153.449,321.927 153.544,321.933 153.64,321.94 153.736,321.946 153.832,321.952 153.927,321.959 154.023,321.965 154.119,321.971 154.215,321.978 154.31,321.984 154.406,321.99 154.502,321.997 154.598,322.003 154.693,322.009 154.789,322.016 154.885,322.022 154.98,322.028 155.076,322.035 155.172,322.041 155.268,322.047 155.363,322.053 155.459,322.06 155.555,322.066 155.651,322.072 155.746,322.078 155.842,322.085 155.938,322.091 156.034,322.097 156.129,322.103 156.225,322.11 156.321,322.116 156.417,322.122 156.512,322.128 156.608,322.134 156.704,322.141 156.799,322.147 156.895,322.153 156.991,322.159 157.087,322.165 157.182,322.171 157.278,322.178 157.374,322.184 157.47,322.19 157.565,322.196 157.661,322.202 157.757,322.208 157.853,322.214 157.948,322.22 158.044,322.227 158.14,322.233 158.236,322.239 158.331,322.245 158.427,322.251 158.523,322.257 158.619,322.263 158.714,322.269 158.81,322.275 158.906,322.281 159.001,322.287 159.097,322.293 159.193,322.299 159.289,322.305 159.384,322.311 159.48,322.317 159.576,322.323 159.672,322.329 159.767,322.335 159.863,322.341 159.959,322.347 160.055,322.353 160.15,322.359 160.246,322.365 160.342,322.371 160.438,322.377 160.533,322.383 160.629,322.389 160.725,322.395 160.821,322.401 160.916,322.407 161.012,322.412 161.108,322.418 161.203,322.424 161.299,322.43 161.395,322.436 161.491,322.442 161.586,322.448 161.682,322.454 161.778,322.459 161.874,322.465 161.969,322.471 162.065,322.477 162.161,322.483 162.257,322.489 162.352,322.494 162.448,322.5 162.544,322.506 162.64,322.512 162.735,322.518 162.831,322.523 162.927,322.529 163.023,322.535 163.118,322.541 163.214,322.546 163.31,322.552 163.405,322.558 163.501,322.563 163.597,322.569 163.693,322.575 163.788,322.581 163.884,322.586 163.98,322.592 164.076,322.598 164.171,322.603 164.267,322.609 164.363,322.615 164.459,322.62 164.554,322.626 164.65,322.632 164.746,322.637 164.842,322.643 164.937,322.648 165.033,322.654 165.129,322.66 165.224,322.665 165.32,322.671 165.416,322.676 165.512,322.682 165.607,322.687 165.703,322.693 165.799,322.698 165.895,322.704 165.99,322.709 166.086,322.715 166.182,322.72 166.278,322.726 166.373,322.731 166.469,322.737 166.565,322.742 166.661,322.748 166.756,322.753 166.852,322.759 166.948,322.764 167.044,322.77 167.139,322.775 167.235,322.78 167.331,322.786 167.426,322.791 167.522,322.797 167.618,322.802 167.714,322.807 167.809,322.813 167.905,322.818 168.001,322.823 168.097,322.829 168.192,322.834 168.288,322.839 168.384,322.844 168.48,322.85 168.575,322.855 168.671,322.86 168.767,322.865 168.863,322.871 168.958,322.876 169.054,322.881 169.15,322.886 169.245,322.892 169.341,322.897 169.437,322.902 169.533,322.907 169.628,322.912 169.724,322.917 169.82,322.923 169.916,322.928 170.011,322.933 170.107,322.938 170.203,322.943 170.299,322.948 170.394,322.953 170.49,322.958 170.586,322.963 170.682,322.968 170.777,322.973 170.873,322.978 170.969,322.983 171.065,322.988 171.16,322.993 171.256,322.998 171.352,323.003 171.447,323.008 171.543,323.013 171.639,323.018 171.735,323.023 171.83,323.028 171.926,323.033 172.022,323.038 172.118,323.043 172.213,323.047 172.309,323.052 172.405,323.057 172.501,323.062 172.596,323.067 172.692,323.072 172.788,323.076 172.884,323.081 172.979,323.086 173.075,323.091 173.171,323.095 173.267,323.1 173.362,323.105 173.458,323.109 173.554,323.114 173.649,323.119 173.745,323.123 173.841,323.128 173.937,323.133 174.032,323.137 174.128,323.142 174.224,323.147 174.32,323.151 174.415,323.156 174.511,323.16 174.607,323.165 174.703,323.169 174.798,323.174 174.894,323.178 174.99,323.183 175.086,323.187 175.181,323.192 175.277,323.196 175.373,323.201 175.468,323.205 175.564,323.21 175.66,323.214 175.756,323.218 175.851,323.223 175.947,323.227 176.043,323.231 176.139,323.236 176.234,323.24 176.33,323.244 176.426,323.249 176.522,323.253 176.617,323.257 176.713,323.261 176.809,323.266 176.905,323.27 177,323.274 177.096,323.278 177.192,323.282 177.288,323.287 177.383,323.291 177.479,323.295 177.575,323.299 177.67,323.303 177.766,323.307 177.862,323.311 177.958,323.315 178.053,323.319 178.149,323.323 178.245,323.327 178.341,323.331 178.436,323.335 178.532,323.339 178.628,323.343 178.724,323.347 178.819,323.351 178.915,323.355 179.011,323.359 179.107,323.363 179.202,323.366 179.298,323.37 179.394,323.374 179.49,323.378 179.585,323.382 179.681,323.385 179.777,323.389 179.872,323.393 179.968,323.397 180.064,323.4 180.16,323.404 180.255,323.408 180.351,323.411 180.447,323.415 180.543,323.419 180.638,323.422 180.734,323.426 180.83,323.429 180.926,323.433 181.021,323.436 181.117,323.44 181.213,323.443 181.309,323.447 181.404,323.45 181.5,323.454 181.596,323.457 181.691,323.461 181.787,323.464 181.883,323.467 181.979,323.471 182.074,323.474 182.17,323.477 182.266,323.481 182.362,323.484 182.457,323.487 182.553,323.491 182.649,323.494 182.745,323.497 182.84,323.5 182.936,323.503 183.032,323.507 183.128,323.51 183.223,323.513 183.319,323.516 183.415,323.519 183.511,323.522 183.606,323.525 183.702,323.528 183.798,323.531 183.893,323.534 183.989,323.537 184.085,323.54 184.181,323.543 184.276,323.546 184.372,323.549 184.468,323.552 184.564,323.555 184.659,323.558 184.755,323.56 184.851,323.563 184.947,323.566 185.042,323.569 185.138,323.572 185.234,323.574 185.33,323.577 185.425,323.58 185.521,323.582 185.617,323.585 185.713,323.588 185.808,323.59 185.904,323.593 186,323.595 186.095,323.598 186.191,323.6 186.287,323.603 186.383,323.606 186.478,323.608 186.574,323.61 186.67,323.613 186.766,323.615 186.861,323.618 186.957,323.62 187.053,323.622 187.149,323.625 187.244,323.627 187.34,323.629 187.436,323.632 187.532,323.634 187.627,323.636 187.723,323.638 187.819,323.641 187.914,323.643 188.01,323.645 188.106,323.647 188.202,323.649 188.297,323.651 188.393,323.653 188.489,323.655 188.585,323.657 188.68,323.659 188.776,323.661 188.872,323.663 188.968,323.665 189.063,323.667 189.159,323.669 189.255,323.671 189.351,323.673 189.446,323.675 189.542,323.676 189.638,323.678 189.734,323.68 189.829,323.682 189.925,323.683 190.021,323.685 190.116,323.687 190.212,323.688 190.308,323.69 190.404,323.692 190.499,323.693 190.595,323.695 190.691,323.696 190.787,323.698 190.882,323.699 190.978,323.701 191.074,323.702 191.17,323.704 191.265,323.705 191.361,323.707 191.457,323.708 191.553,323.709 191.648,323.711 191.744,323.712 191.84,323.713 191.936,323.714 192.031,323.716 192.127,323.717 192.223,323.718 192.318,323.719 192.414,323.72 192.51,323.721 192.606,323.723 192.701,323.724 192.797,323.725 192.893,323.726 192.989,323.727 193.084,323.728 193.18,323.729 193.276,323.73 193.372,323.73 193.467,323.731 193.563,323.732 193.659,323.733 193.755,323.734 193.85,323.735 193.946,323.735 194.042,323.736 194.137,323.737 194.233,323.738 194.329,323.738 194.425,323.739 194.52,323.74 194.616,323.74 194.712,323.741 194.808,323.741 194.903,323.742 194.999,323.742 195.095,323.743 195.191,323.743 195.286,323.744 195.382,323.744 195.478,323.744 195.574,323.745 195.669,323.745 195.765,323.745 195.861,323.746 195.957,323.746 196.052,323.746 196.148,323.746 196.244,323.747 196.339,323.747 196.435,323.747 196.531,323.747 196.627,323.747 196.722,323.747 196.818,323.747 196.914,323.747 197.01,323.747 197.105,323.747 197.201,323.747 197.297,323.747 197.393,323.747 197.488,323.747 197.584,323.747 197.68,323.746 197.776,323.746 197.871,323.746 197.967,323.746 198.063,323.745 198.158,323.745 198.254,323.745 198.35,323.744 198.446,323.744 198.541,323.744 198.637,323.743 198.733,323.743 198.829,323.742 198.924,323.742 199.02,323.741 199.116,323.741 199.212,323.74 199.307,323.739 199.403,323.739 199.499,323.738 199.595,323.737 199.69,323.737 199.786,323.736 199.882,323.735 199.978,323.734 200.073,323.734 200.169,323.733 200.265,323.732 200.36,323.731 200.456,323.73 200.552,323.729 200.648,323.728 200.743,323.727 200.839,323.726 200.935,323.725 201.031,323.724 201.126,323.723 201.222,323.722 201.318,323.72 201.414,323.719 201.509,323.718 201.605,323.717 201.701,323.715 201.797,323.714 201.892,323.713 201.988,323.711 202.084,323.71 202.18,323.709 202.275,323.707 202.371,323.706 202.467,323.704 202.562,323.703 202.658,323.701 202.754,323.7 202.85,323.698 202.945,323.696 203.041,323.695 203.137,323.693 203.233,323.691 203.328,323.69 203.424,323.688 203.52,323.686 203.616,323.684 203.711,323.682 203.807,323.681 203.903,323.679 203.999,323.677 204.094,323.675 204.19,323.673 204.286,323.671 204.381,323.669 204.477,323.667 204.573,323.665 204.669,323.662 204.764,323.66 204.86,323.658 204.956,323.656 205.052,323.654 205.147,323.651 205.243,323.649 205.339,323.647 205.435,323.645 205.53,323.642 205.626,323.64 205.722,323.637 205.818,323.635 205.913,323.632 206.009,323.63 206.105,323.627 206.201,323.625 206.296,323.622 206.392,323.62 206.488,323.617 206.583,323.614 206.679,323.612 206.775,323.609 206.871,323.606 206.966,323.603 207.062,323.6 207.158,323.598 207.254,323.595 207.349,323.592 207.445,323.589 207.541,323.586 207.637,323.583 207.732,323.58 207.828,323.577 207.924,323.574 208.02,323.571 208.115,323.568 208.211,323.564 208.307,323.561 208.403,323.558 208.498,323.555 208.594,323.551 208.69,323.548 208.785,323.545 208.881,323.541 208.977,323.538 209.073,323.535 209.168,323.531 209.264,323.528 209.36,323.524 209.456,323.521 209.551,323.517 209.647,323.513 209.743,323.51 209.839,323.506 209.934,323.503 210.03,323.499 210.126,323.495 210.222,323.491 210.317,323.487 210.413,323.484 210.509,323.48 210.604,323.476 210.7,323.472 210.796,323.468 210.892,323.464 210.987,323.46 211.083,323.456 211.179,323.452 211.275,323.448 211.37,323.444 211.466,323.44 211.562,323.435 211.658,323.431 211.753,323.427 211.849,323.423 211.945,323.418 212.041,323.414 212.136,323.41 212.232,323.405 212.328,323.401 212.424,323.396 212.519,323.392 212.615,323.387 212.711,323.383 212.806,323.378 212.902,323.374 212.998,323.369 213.094,323.364 213.189,323.36 213.285,323.355 213.381,323.35 213.477,323.345 213.572,323.341 213.668,323.336 213.764,323.331 213.86,323.326 213.955,323.321 214.051,323.316 214.147,323.311 214.243,323.306 214.338,323.301 214.434,323.296 214.53,323.291 214.626,323.286 214.721,323.281 214.817,323.275 214.913,323.27 215.008,323.265 215.104,323.259 215.2,323.254 215.296,323.249 215.391,323.243 215.487,323.238 215.583,323.233 215.679,323.227 215.774,323.222 215.87,323.216 215.966,323.21 216.062,323.205 216.157,323.199 216.253,323.193 216.349,323.188 216.445,323.182 216.54,323.176 216.636,323.171 216.732,323.165 216.827,323.159 216.923,323.153 217.019,323.147 217.115,323.141 217.21,323.135 217.306,323.129 217.402,323.123 217.498,323.117 217.593,323.111 217.689,323.105 217.785,323.099 217.881,323.092 217.976,323.086 218.072,323.08 218.168,323.074 218.264,323.067 218.359,323.061 218.455,323.054 218.551,323.048 218.647,323.042 218.742,323.035 218.838,323.029 218.934,323.022 219.029,323.015 219.125,323.009 219.221,323.002 219.317,322.996 219.412,322.989 219.508,322.982 219.604,322.975 219.7,322.969 219.795,322.962 219.891,322.955 219.987,322.948 220.083,322.941 220.178,322.934 220.274,322.927 220.37,322.92 220.466,322.913 220.561,322.906 220.657,322.899 220.753,322.892 220.848,322.884 220.944,322.877 221.04,322.87 221.136,322.863 221.231,322.855 221.327,322.848 221.423,322.841 221.519,322.833 221.614,322.826 221.71,322.818 221.806,322.811 221.902,322.803 221.997,322.796 222.093,322.788 222.189,322.78 222.285,322.773 222.38,322.765 222.476,322.757 222.572,322.75 222.668,322.742 222.763,322.734 222.859,322.726 222.955,322.718 223.05,322.71 223.146,322.702 223.242,322.694 223.338,322.686 223.433,322.678 223.529,322.67 223.625,322.662 223.721,322.654 223.816,322.645 223.912,322.637 224.008,322.629 224.104,322.621 224.199,322.612 224.295,322.604 224.391,322.596 224.487,322.587 224.582,322.579 224.678,322.57 224.774,322.562 224.87,322.553 224.965,322.544 225.061,322.536 225.157,322.527 225.252,322.518 225.348,322.51 225.444,322.501 225.54,322.492 225.635,322.483 225.731,322.475 225.827,322.466 225.923,322.457 226.018,322.448 226.114,322.439 226.21,322.43 226.306,322.421 226.401,322.411 226.497,322.402 226.593,322.393 226.689,322.384 226.784,322.375 226.88,322.365 226.976,322.356 227.072,322.347 227.167,322.337 227.263,322.328 227.359,322.319 227.454,322.309 227.55,322.3 227.646,322.29 227.742,322.281 227.837,322.271 227.933,322.261 228.029,322.252 228.125,322.242 228.22,322.232 228.316,322.222 228.412,322.212 228.508,322.203 228.603,322.193 228.699,322.183 228.795,322.173 228.891,322.163 228.986,322.153 229.082,322.143 229.178,322.133 229.273,322.123 229.369,322.112 229.465,322.102 229.561,322.092 229.656,322.082 229.752,322.071 229.848,322.061 229.944,322.051 230.039,322.04 230.135,322.03 230.231,322.019 230.327,322.009 230.422,321.998 230.518,321.988 230.614,321.977 230.71,321.966 230.805,321.956 230.901,321.945 230.997,321.934 231.093,321.923 231.188,321.913 231.284,321.902 231.38,321.891 231.475,321.88 231.571,321.869 231.667,321.858 231.763,321.847 231.858,321.836 231.954,321.825 232.05,321.813 232.146,321.802 232.241,321.791 232.337,321.78 232.433,321.768 232.529,321.757 232.624,321.746 232.72,321.734 232.816,321.723 232.912,321.711 233.007,321.7 233.103,321.688 233.199,321.677 233.294,321.665 233.39,321.654 233.486,321.642 233.582,321.63 233.677,321.618 233.773,321.607 233.869,321.595 233.965,321.583 234.06,321.571 234.156,321.559 234.252,321.547 234.348,321.535 234.443,321.523 234.539,321.511 234.635,321.499 234.731,321.486 234.826,321.474 234.922,321.462 235.018,321.45 235.114,321.437 235.209,321.425 235.305,321.413 235.401,321.4 235.496,321.388 235.592,321.375 235.688,321.363 235.784,321.35 235.879,321.338 235.975,321.325 236.071,321.312 236.167,321.299 236.262,321.287 236.358,321.274 236.454,321.261 236.55,321.248 236.645,321.235 236.741,321.222 236.837,321.209 236.933,321.196 237.028,321.183 237.124,321.17 237.22,321.157 237.316,321.144 237.411,321.131 237.507,321.117 237.603,321.104 237.698,321.091 237.794,321.077 237.89,321.064 237.986,321.051 238.081,321.037 238.177,321.024 238.273,321.01 238.369,320.996 238.464,320.983 238.56,320.969 238.656,320.955 238.752,320.942 238.847,320.928 238.943,320.914 239.039,320.9 239.135,320.886 239.23,320.872 239.326,320.858 239.422,320.844 239.517,320.83 239.613,320.816 239.709,320.802 239.805,320.788 239.9,320.774 239.996,320.759 240.092,320.745 240.188,320.731 240.283,320.716 240.379,320.702 240.475,320.687 240.571,320.673 240.666,320.658 240.762,320.644 240.858,320.629 240.954,320.615 241.049,320.6 241.145,320.585 241.241,320.57 241.337,320.556 241.432,320.541 241.528,320.526 241.624,320.511 241.719,320.496 241.815,320.481 241.911,320.466 242.007,320.451 242.102,320.436 242.198,320.421 242.294,320.405 242.39,320.39 242.485,320.375 242.581,320.359 242.677,320.344 242.773,320.329 242.868,320.313 242.964,320.298 243.06,320.282 243.156,320.267 243.251,320.251 243.347,320.235 243.443,320.22 243.538,320.204 243.634,320.188 243.73,320.172 243.826,320.156 243.921,320.141 244.017,320.125 244.113,320.109 244.209,320.093 244.304,320.077 244.4,320.06 244.496,320.044 244.592,320.028 244.687,320.012 244.783,319.996 244.879,319.979 244.975,319.963 245.07,319.946 245.166,319.93 245.262,319.914 245.358,319.897 245.453,319.88 245.549,319.864 245.645,319.847 245.74,319.83 245.836,319.814 245.932,319.797 246.028,319.78 246.123,319.763 246.219,319.746 246.315,319.729 246.411,319.712 246.506,319.695 246.602,319.678 246.698,319.661 246.794,319.644 246.889,319.627 246.985,319.61 247.081,319.592 247.177,319.575 247.272,319.558 247.368,319.54 247.464,319.523 247.56,319.505 247.655,319.488 247.751,319.47 247.847,319.452 247.942,319.435 248.038,319.417 248.134,319.399 248.23,319.381 248.325,319.364 248.421,319.346 248.517,319.328 248.613,319.31 248.708,319.292 248.804,319.274 248.9,319.255 248.996,319.237 249.091,319.219 249.187,319.201 249.283,319.183 249.379,319.164 249.474,319.146 249.57,319.127 249.666,319.109 249.762,319.09 249.857,319.072 249.953,319.053 250.049,319.035 250.144,319.016 250.24,318.997 250.336,318.978 250.432,318.959 250.527,318.941 250.623,318.922 250.719,318.903 250.815,318.884 250.91,318.865 251.006,318.845 251.102,318.826 251.198,318.807 251.293,318.788 251.389,318.768 251.485,318.749 251.581,318.73 251.676,318.71 251.772,318.691 251.868,318.671 251.963,318.652 252.059,318.632 252.155,318.612 252.251,318.593 252.346,318.573 252.442,318.553 252.538,318.533 252.634,318.513 252.729,318.493 252.825,318.473 252.921,318.453 253.017,318.433 253.112,318.413 253.208,318.393 253.304,318.373 253.4,318.353 253.495,318.332 253.591,318.312 253.687,318.291 253.783,318.271 253.878,318.25 253.974,318.23 254.07,318.209 254.165,318.189 254.261,318.168 254.357,318.147 254.453,318.126 254.548,318.105 254.644,318.084 254.74,318.064 254.836,318.043 254.931,318.021 255.027,318 255.123,317.979 255.219,317.958 255.314,317.937 255.41,317.915 255.506,317.894 255.602,317.873 255.697,317.851 255.793,317.83 255.889,317.808 255.984,317.787 256.08,317.765 256.176,317.743 256.272,317.722 256.367,317.7 256.463,317.678 256.559,317.656 256.655,317.634 256.75,317.612 256.846,317.59 256.942,317.568 257.038,317.546 257.133,317.524 257.229,317.501 257.325,317.479 257.421,317.457 257.516,317.434 257.612,317.412 257.708,317.389 257.804,317.367 257.899,317.344 257.995,317.322 258.091,317.299 258.186,317.276 258.282,317.253 258.378,317.23 258.474,317.207 258.569,317.184 258.665,317.161 258.761,317.138 258.857,317.115 258.952,317.092 259.048,317.069 259.144,317.046 259.24,317.022 259.335,316.999 259.431,316.975 259.527,316.952 259.623,316.928 259.718,316.905 259.814,316.881 259.91,316.857 260.006,316.834 260.101,316.81 260.197,316.786 260.293,316.762 260.388,316.738 260.484,316.714 260.58,316.69 260.676,316.666 260.771,316.641 260.867,316.617 260.963,316.593 261.059,316.569 261.154,316.544 261.25,316.52 261.346,316.495 261.442,316.471 261.537,316.446 261.633,316.421 261.729,316.396 261.825,316.372 261.92,316.347 262.016,316.322 262.112,316.297 262.207,316.272 262.303,316.247 262.399,316.222 262.495,316.197 262.59,316.171 262.686,316.146 262.782,316.121 262.878,316.095 262.973,316.07 263.069,316.044 263.165,316.019 263.261,315.993 263.356,315.967 263.452,315.941 263.548,315.916 263.644,315.89 263.739,315.864 263.835,315.838 263.931,315.812 264.027,315.786 264.122,315.76 264.218,315.733 264.314,315.707 264.409,315.681 264.505,315.654 264.601,315.628 264.697,315.601 264.792,315.575 264.888,315.548 264.984,315.521 265.08,315.495 265.175,315.468 265.271,315.441 265.367,315.414 265.463,315.387 265.558,315.36 265.654,315.333 265.75,315.306 265.846,315.278 265.941,315.251 266.037,315.224 266.133,315.196 266.229,315.169 266.324,315.141 266.42,315.114 266.516,315.086 266.611,315.058 266.707,315.031 266.803,315.003 266.899,314.975 266.994,314.947 267.09,314.919 267.186,314.891 267.282,314.863 267.377,314.834 267.473,314.806 267.569,314.778 267.665,314.749 267.76,314.721 267.856,314.692 267.952,314.664 268.048,314.635 268.143,314.606 268.239,314.578 268.335,314.549 268.43,314.52 268.526,314.491 268.622,314.462 268.718,314.433 268.813,314.404 268.909,314.374 269.005,314.345 269.101,314.316 269.196,314.286 269.292,314.257 269.388,314.227 269.484,314.198 269.579,314.168 269.675,314.138 269.771,314.108 269.867,314.079 269.962,314.049 270.058,314.019 270.154,313.989 270.25,313.958 270.345,313.928 270.441,313.898 270.537,313.868 270.632,313.837 270.728,313.807 270.824,313.776 270.92,313.746 271.015,313.715 271.111,313.684 271.207,313.653 271.303,313.622 271.398,313.591 271.494,313.56 271.59,313.529 271.686,313.498 271.781,313.467 271.877,313.436 271.973,313.404 272.069,313.373 272.164,313.341 272.26,313.31 272.356,313.278 272.452,313.246 272.547,313.215 272.643,313.183 272.739,313.151 272.834,313.119 272.93,313.087 273.026,313.055 273.122,313.023 273.217,312.99 273.313,312.958 273.409,312.926 273.505,312.893 273.6,312.861 273.696,312.828 273.792,312.795 273.888,312.762 273.983,312.73 274.079,312.697 274.175,312.664 274.271,312.631 274.366,312.597 274.462,312.564 274.558,312.531 274.653,312.498 274.749,312.464 274.845,312.431 274.941,312.397 275.036,312.363 275.132,312.33 275.228,312.296 275.324,312.262 275.419,312.228 275.515,312.194 275.611,312.16 275.707,312.126 275.802,312.091 275.898,312.057 275.994,312.023 276.09,311.988 276.185,311.954 276.281,311.919 276.377,311.884 276.473,311.85 276.568,311.815 276.664,311.78 276.76,311.745 276.855,311.71 276.951,311.674 277.047,311.639 277.143,311.604 277.238,311.568 277.334,311.533 277.43,311.497 277.526,311.462 277.621,311.426 277.717,311.39 277.813,311.354 277.909,311.318 278.004,311.282 278.1,311.246 278.196,311.21 278.292,311.174 278.387,311.137 278.483,311.101 278.579,311.064 278.674,311.028 278.77,310.991 278.866,310.954 278.962,310.917 279.057,310.88 279.153,310.843 279.249,310.806 279.345,310.769 279.44,310.732 279.536,310.695 279.632,310.657 279.728,310.62 279.823,310.582 279.919,310.544 280.015,310.507 280.111,310.469 280.206,310.431 280.302,310.393 280.398,310.355 280.494,310.316 280.589,310.278 280.685,310.24 280.781,310.201 280.876,310.163 280.972,310.124 281.068,310.085 281.164,310.047 281.259,310.008 281.355,309.969 281.451,309.93 281.547,309.891 281.642,309.851 281.738,309.812 281.834,309.773 281.93,309.733 282.025,309.693 282.121,309.654 282.217,309.614 282.313,309.574 282.408,309.534 282.504,309.494 282.6,309.454 282.695,309.414 282.791,309.374 282.887,309.333 282.983,309.293 283.078,309.252 283.174,309.211 283.27,309.171 283.366,309.13 283.461,309.089 283.557,309.048 283.653,309.007 283.749,308.965 283.844,308.924 283.94,308.883 284.036,308.841 284.132,308.8 284.227,308.758 284.323,308.716 284.419,308.674 284.515,308.632 284.61,308.59 284.706,308.548 284.802,308.506 284.897,308.463 284.993,308.421 285.089,308.378 285.185,308.336 285.28,308.293 285.376,308.25 285.472,308.207 285.568,308.164 285.663,308.121 285.759,308.078 285.855,308.034 285.951,307.991 286.046,307.947 286.142,307.904 286.238,307.86 286.334,307.816 286.429,307.772 286.525,307.728 286.621,307.684 286.717,307.64 286.812,307.595 286.908,307.551 287.004,307.506 287.099,307.462 287.195,307.417 287.291,307.372 287.387,307.327 287.482,307.282 287.578,307.237 287.674,307.192 287.77,307.146 287.865,307.101 287.961,307.055 288.057,307.01 288.153,306.964 288.248,306.918 288.344,306.872 288.44,306.826 288.536,306.78 288.631,306.733 288.727,306.687 288.823,306.64 288.919,306.594 289.014,306.547 289.11,306.5 289.206,306.453 289.301,306.406 289.397,306.359 289.493,306.311 289.589,306.264 289.684,306.216 289.78,306.169 289.876,306.121 289.972,306.073 290.067,306.025 290.163,305.977 290.259,305.929 290.355,305.881 290.45,305.832 290.546,305.784 290.642,305.735 290.738,305.686 290.833,305.637 290.929,305.588 291.025,305.539 291.12,305.49 291.216,305.441 291.312,305.391 291.408,305.342 291.503,305.292 291.599,305.242 291.695,305.192 291.791,305.142 291.886,305.092 291.982,305.042 292.078,304.992 292.174,304.941 292.269,304.89 292.365,304.84 292.461,304.789 292.557,304.738 292.652,304.687 292.748,304.635 292.844,304.584 292.94,304.533 293.035,304.481 293.131,304.429 293.227,304.377 293.322,304.325 293.418,304.273 293.514,304.221 293.61,304.169 293.705,304.116 293.801,304.064 293.897,304.011 293.993,303.958 294.088,303.905 294.184,303.852 294.28,303.799 294.376,303.746 294.471,303.692 294.567,303.639 294.663,303.585 294.759,303.531 294.854,303.477 294.95,303.423 295.046,303.369 295.142,303.314 295.237,303.26 295.333,303.205 295.429,303.15 295.524,303.095 295.62,303.04 295.716,302.985 295.812,302.93 295.907,302.874 296.003,302.819 296.099,302.763 296.195,302.707 296.29,302.651 296.386,302.595 296.482,302.539 296.578,302.482 296.673,302.426 296.769,302.369 296.865,302.312 296.961,302.255 297.056,302.198 297.152,302.141 297.248,302.084 297.343,302.026 297.439,301.969 297.535,301.911 297.631,301.853 297.726,301.795 297.822,301.737 297.918,301.678 298.014,301.62 298.109,301.561 298.205,301.502 298.301,301.443 298.397,301.384 298.492,301.325 298.588,301.266 298.684,301.206 298.78,301.147 298.875,301.087 298.971,301.027 299.067,300.967 299.163,300.907 299.258,300.846 299.354,300.786 299.45,300.725 299.545,300.664 299.641,300.603 299.737,300.542 299.833,300.481 299.928,300.419 300.024,300.357 300.12,300.296 300.216,300.234 300.311,300.172 300.407,300.109 300.503,300.047 300.599,299.985 300.694,299.922 300.79,299.859 300.886,299.796 300.982,299.733 301.077,299.669 301.173,299.606 301.269,299.542 301.365,299.479 301.46,299.415 301.556,299.35 301.652,299.286 301.747,299.222 301.843,299.157 301.939,299.092 302.035,299.027 302.13,298.962 302.226,298.897 302.322,298.831 302.418,298.766 302.513,298.7 302.609,298.634 302.705,298.568 302.801,298.502 302.896,298.435 302.992,298.369 303.088,298.302 303.184,298.235 303.279,298.168 303.375,298.1 303.471,298.033 303.566,297.965 303.662,297.898 303.758,297.83 303.854,297.761 303.949,297.693 304.045,297.624 304.141,297.556 304.237,297.487 304.332,297.418 304.428,297.349 304.524,297.279 304.62,297.21 304.715,297.14 304.811,297.07 304.907,297 305.003,296.929 305.098,296.859 305.194,296.788 305.29,296.717 305.385,296.646 305.481,296.575 305.577,296.504 305.673,296.432 305.768,296.36 305.864,296.288 305.96,296.216 306.056,296.144 306.151,296.071 306.247,295.999 306.343,295.926 306.439,295.853 306.534,295.779 306.63,295.706 306.726,295.632 306.822,295.558 306.917,295.484 307.013,295.41 307.109,295.335 307.205,295.261 307.3,295.186 307.396,295.111 307.492,295.036 307.587,294.96 307.683,294.884 307.779,294.809 307.875,294.732 307.97,294.656 308.066,294.58 308.162,294.503 308.258,294.426 308.353,294.349 308.449,294.272 308.545,294.194 308.641,294.117 308.736,294.039 308.832,293.961 308.928,293.882 309.024,293.804 309.119,293.725 309.215,293.646 309.311,293.567 309.407,293.488 309.502,293.408 309.598,293.328 309.694,293.248 309.789,293.168 309.885,293.088 309.981,293.007 310.077,292.926 310.172,292.845 310.268,292.764 310.364,292.682 310.46,292.6 310.555,292.518 310.651,292.436 310.747,292.354 310.843,292.271 310.938,292.188 311.034,292.105 311.13,292.022 311.226,291.938 311.321,291.854 311.417,291.77 311.513,291.686 311.609,291.602 311.704,291.517 311.8,291.432 311.896,291.347 311.991,291.261 312.087,291.176 312.183,291.09 312.279,291.004 312.374,290.917 312.47,290.831 312.566,290.744 312.662,290.657 312.757,290.57 312.853,290.482 312.949,290.394 313.045,290.306 313.14,290.218 313.236,290.13 313.332,290.041 313.428,289.952 313.523,289.863 313.619,289.773 313.715,289.683 313.81,289.593 313.906,289.503 314.002,289.413 314.098,289.322 314.193,289.231 314.289,289.14 314.385,289.048 314.481,288.956 314.576,288.864 314.672,288.772 314.768,288.679 314.864,288.587 314.959,288.493 315.055,288.4 315.151,288.307 315.247,288.213 315.342,288.119 315.438,288.024 315.534,287.93 315.63,287.835 315.725,287.739 315.821,287.644 315.917,287.548 316.012,287.452 316.108,287.356 316.204,287.259 316.3,287.163 316.395,287.066 316.491,286.968 316.587,286.871 316.683,286.773 316.778,286.674 316.874,286.576 316.97,286.477 317.066,286.378 317.161,286.279 317.257,286.179 317.353,286.079 317.449,285.979 317.544,285.879 317.64,285.778 317.736,285.677 317.832,285.575 317.927,285.474 318.023,285.372 318.119,285.27 318.214,285.167 318.31,285.064 318.406,284.961 318.502,284.858 318.597,284.754 318.693,284.65 318.789,284.546 318.885,284.441 318.98,284.336 319.076,284.231 319.172,284.126 319.268,284.02 319.363,283.914 319.459,283.807 319.555,283.7 319.651,283.593 319.746,283.486 319.842,283.378 319.938,283.27 320.034,283.162 320.129,283.053 320.225,282.944 320.321,282.835 320.416,282.726 320.512,282.616 320.608,282.505 320.704,282.395 320.799,282.284 320.895,282.173 320.991,282.061 321.087,281.949 321.182,281.837 321.278,281.725 321.374,281.612 321.47,281.498 321.565,281.385 321.661,281.271 321.757,281.157 321.853,281.042 321.948,280.927 322.044,280.812 322.14,280.697 322.235,280.581 322.331,280.464 322.427,280.348 322.523,280.231 322.618,280.114 322.714,279.996 322.81,279.878 322.906,279.76 323.001,279.641 323.097,279.522 323.193,279.402 323.289,279.283 323.384,279.162 323.48,279.042 323.576,278.921 323.672,278.8 323.767,278.678 323.863,278.556 323.959,278.434 324.055,278.311 324.15,278.188 324.246,278.065 324.342,277.941 324.437,277.817 324.533,277.692 324.629,277.567 324.725,277.442 324.82,277.316 324.916,277.19 325.012,277.064 325.108,276.937 325.203,276.81 325.299,276.682 325.395,276.554 325.491,276.426 325.586,276.297 325.682,276.168 325.778,276.038 325.874,275.908 325.969,275.778 326.065,275.647 326.161,275.516 326.257,275.385 326.352,275.253 326.448,275.12 326.544,274.987 326.639,274.854 326.735,274.721 326.831,274.587 326.927,274.452 327.022,274.317 327.118,274.182 327.214,274.047 327.31,273.91 327.405,273.774 327.501,273.637 327.597,273.5 327.693,273.362 327.788,273.224 327.884,273.085 327.98,272.946 328.076,272.807 328.171,272.667 328.267,272.526 328.363,272.386 328.458,272.244 328.554,272.103 328.65,271.961 328.746,271.818 328.841,271.675 328.937,271.532 329.033,271.388 329.129,271.244 329.224,271.099 329.32,270.954 329.416,270.808 329.512,270.662 329.607,270.515 329.703,270.368 329.799,270.221 329.895,270.073 329.99,269.924 330.086,269.775 330.182,269.626 330.277,269.476 330.373,269.326 330.469,269.175 330.565,269.024 330.66,268.872 330.756,268.72 330.852,268.567 330.948,268.414 331.043,268.26 331.139,268.106 331.235,267.951 331.331,267.796 331.426,267.641 331.522,267.484 331.618,267.328 331.714,267.171 331.809,267.013 331.905,266.855 332.001,266.697 332.097,266.537 332.192,266.378 332.288,266.218 332.384,266.057 332.479,265.896 332.575,265.734 332.671,265.572 332.767,265.409 332.862,265.246 332.958,265.082 333.054,264.918 333.15,264.753 333.245,264.588 333.341,264.422 333.437,264.256 333.533,264.089 333.628,263.922 333.724,263.754 333.82,263.585 333.916,263.416 334.011,263.246 334.107,263.076 334.203,262.906 334.299,262.734 334.394,262.563 334.49,262.39 334.586,262.217 334.681,262.044 334.777,261.87 334.873,261.695 334.969,261.52 335.064,261.344 335.16,261.168 335.256,260.991 335.352,260.814 335.447,260.636 335.543,260.457 335.639,260.278 335.735,260.098 335.83,259.918 335.926,259.737 336.022,259.556 336.118,259.373 336.213,259.191 336.309,259.008 336.405,258.824 336.5,258.639 336.596,258.454 336.692,258.268 336.788,258.082 336.883,257.895 336.979,257.708 337.075,257.52 337.171,257.331 337.266,257.142 337.362,256.952 337.458,256.761 337.554,256.57 337.649,256.378 337.745,256.185 337.841,255.992 337.937,255.799 338.032,255.604 338.128,255.409 338.224,255.214 338.32,255.017 338.415,254.82 338.511,254.623 338.607,254.425 338.702,254.226 338.798,254.026 338.894,253.826 338.99,253.625 339.085,253.424 339.181,253.221 339.277,253.018 339.373,252.815 339.468,252.611 339.564,252.406 339.66,252.2 339.756,251.994 339.851,251.787 339.947,251.579 340.043,251.371 340.139,251.162 340.234,250.953 340.33,250.742 340.426,250.531 340.522,250.319 340.617,250.107 340.713,249.894 340.809,249.68 340.904,249.465 341,249.25 341.096,249.034 341.192,248.817 341.287,248.6 341.383,248.381 341.479,248.162 341.575,247.943 341.67,247.722 341.766,247.501 341.862,247.279 341.958,247.057 342.053,246.833 342.149,246.609 342.245,246.384 342.341,246.159 342.436,245.932 342.532,245.705 342.628,245.477 342.723,245.249 342.819,245.019 342.915,244.789 343.011,244.558 343.106,244.326 343.202,244.094 343.298,243.861 343.394,243.626 343.489,243.392 343.585,243.156 343.681,242.919 343.777,242.682 343.872,242.444 343.968,242.205 344.064,241.966 344.16,241.725 344.255,241.484 344.351,241.242 344.447,240.999 344.543,240.755 344.638,240.511 344.734,240.265 344.83,240.019 344.925,239.772 345.021,239.524 345.117,239.275 345.213,239.026 345.308,238.775 345.404,238.524 345.5,238.272 345.596,238.019 345.691,237.765 345.787,237.51 345.883,237.255 345.979,236.999 346.074,236.741 346.17,236.483 346.266,236.224 346.362,235.964 346.457,235.703 346.553,235.442 346.649,235.179 346.745,234.916 346.84,234.651 346.936,234.386 347.032,234.12 347.127,233.853 347.223,233.585 347.319,233.316 347.415,233.046 347.51,232.775 347.606,232.504 347.702,232.231 347.798,231.957 347.893,231.683 347.989,231.408 348.085,231.131 348.181,230.854 348.276,230.576 348.372,230.297 348.468,230.016 348.564,229.735 348.659,229.453 348.755,229.17 348.851,228.886 348.946,228.601 349.042,228.315 349.138,228.028 349.234,227.74 349.329,227.452 349.425,227.162 349.521,226.871 349.617,226.579 349.712,226.286 349.808,225.992 349.904,225.697 350,225.401 350.095,225.104 350.191,224.806 350.287,224.507 350.383,224.207 350.478,223.906 350.574,223.604 350.67,223.301 350.766,222.997 350.861,222.692 350.957,222.385 351.053,222.078 351.148,221.77 351.244,221.46 351.34,221.15 351.436,220.838 351.531,220.526 351.627,220.212 351.723,219.897 351.819,219.581 351.914,219.264 352.01,218.946 352.106,218.627 352.202,218.307 352.297,217.985 352.393,217.663 352.489,217.339 352.585,217.014 352.68,216.688 352.776,216.361 352.872,216.033 352.967,215.704 353.063,215.374 353.159,215.042 353.255,214.709 353.35,214.376 353.446,214.041 353.542,213.704 353.638,213.367 353.733,213.029 353.829,212.689 353.925,212.348 354.021,212.006 354.116,211.663 354.212,211.318 354.308,210.973 354.404,210.626 354.499,210.278 354.595,209.929 354.691,209.578 354.787,209.227 354.882,208.874 354.978,208.52 355.074,208.164 355.169,207.808 355.265,207.45 355.361,207.091 355.457,206.73 355.552,206.369 355.648,206.006 355.744,205.642 355.84,205.277 355.935,204.91 356.031,204.542 356.127,204.173 356.223,203.802 356.318,203.431 356.414,203.058 356.51,202.683 356.606,202.308 356.701,201.931 356.797,201.552 356.893,201.173 356.989,200.792 357.084,200.41 357.18,200.026 357.276,199.641 357.371,199.255 357.467,198.867 357.563,198.478 357.659,198.088 357.754,197.696 357.85,197.303 357.946,196.909 358.042,196.513 358.137,196.116 358.233,195.717 358.329,195.317 358.425,194.916 358.52,194.513 358.616,194.109 358.712,193.703 358.808,193.296 358.903,192.888 358.999,192.478 359.095,192.067 359.19,191.654 359.286,191.24 359.382,190.824 359.478,190.407 359.573,189.989 359.669,189.569 359.765,189.147 359.861,188.724 359.956,188.3 360.052,187.874 360.148,187.446 360.244,187.017 360.339,186.587 360.435,186.155 360.531,185.722 360.627,185.287 360.722,184.85 360.818,184.412 360.914,183.973 361.01,183.532 361.105,183.089 361.201,182.645 361.297,182.199 361.392,181.752 361.488,181.303 361.584,180.853 361.68,180.401 361.775,179.947 361.871,179.492 361.967,179.035 362.063,178.577 362.158,178.117 362.254,177.655 362.35,177.192 362.446,176.727 362.541,176.261 362.637,175.792 362.733,175.323 362.829,174.851 362.924,174.378 363.02,173.903 363.116,173.427 363.212,172.949 363.307,172.469 363.403,171.988 363.499,171.505 363.594,171.02 363.69,170.533 363.786,170.045 363.882,169.555 363.977,169.064 364.073,168.57 364.169,168.075 364.265,167.578 364.36,167.08 364.456,166.579 364.552,166.077 364.648,165.573 364.743,165.068 364.839,164.56 364.935,164.051 365.031,163.54 365.126,163.027 365.222,162.513 365.318,161.996 365.413,161.478 365.509,160.958 365.605,160.436 365.701,159.913 365.796,159.387 365.892,158.86 365.988,158.331 366.084,157.8 366.179,157.267 366.275,156.732 366.371,156.195 366.467,155.657 366.562,155.116 366.658,154.574 366.754,154.029 366.85,153.483 366.945,152.935 367.041,152.385 367.137,151.833 367.233,151.279 367.328,150.723 367.424,150.166 367.52,149.606 367.615,149.044 367.711,148.48 367.807,147.915 367.903,147.347 367.998,146.777 368.094,146.206 368.19,145.632 368.286,145.056 368.381,144.479 368.477,143.899 368.573,143.317 368.669,142.733 368.764,142.148 368.86,141.56 368.956,140.97 369.052,140.378 369.147,139.783 369.243,139.187 369.339,138.589 369.435,137.988 369.53,137.386 369.626,136.781 369.722,136.174 369.817,135.566 369.913,134.954 370.009,134.341 370.105,133.726 370.2,133.108 370.296,132.489 370.392,131.867 370.488,131.243 370.583,130.617 370.679,129.988 370.775,129.358 370.871,128.725 370.966,128.09 371.062,127.452 371.158,126.813 371.254,126.171 371.349,125.527 371.445,124.881 371.541,124.232 371.637,123.581 371.732,122.928 371.828,122.273 371.924,121.615 372.019,120.955 372.115,120.293 372.211,119.628 372.307,118.961 372.402,118.292 372.498,117.62 372.594,116.946 372.69,116.27 372.785,115.591 372.881,114.91 372.977,114.226 373.073,113.54 373.168,112.852 373.264,112.161 373.36,111.468 373.456,110.773 373.551,110.075 373.647,109.374 373.743,108.671 373.838,107.966 373.934,107.258 374.03,106.548 374.126,105.835 374.221,105.119 374.317,104.402 374.413,103.681 374.509,102.958 374.604,102.233 374.7,101.505 374.796,100.774 374.892,100.041 374.987,99.3058 375.083,98.5676 375.179,97.8268 375.275,97.0834 375.37,96.3374" fill="none" stroke-linecap="butt" stroke="#0071bc" stroke-dasharray="8,8,8,8"/>
  </g>
 </g>
</svg>
