<?xml version='1.0' encoding='UTF-8' standalone='no'?>
<svg xmlns="http://www.w3.org/2000/svg" xmlns:xlink="http://www.w3.org/1999/xlink" height="490pt" width="769pt" viewBox="0 0 769 490">
 <title>gl2ps_renderer figure</title>
 <desc>
Creator: GL2PS 1.4.2, (C) 1999-2020 C. Geuzaine
For: Octave
CreationDate: Fri May 07 16:30:09 2021
</desc>
 <defs/>
 <polygon fill="#ffffff" points="0,0 769,0 769,490 0,490"/>
 <g>
  <polygon shape-rendering="crispEdges" fill="#ffffff" points="0,490 769,490 769,0 0,0"/>
  <clipPath id="cp00769490">
   <polygon points="0,490 769,490 769,0 0,0"/>
  </clipPath>
  <g clip-path="url(#cp00769490)">
   <polygon shape-rendering="crispEdges" fill="#ffffff" points="100.027,436.638 696.34,436.638 696.34,36.7953 100.027,36.7953"/>
   <polyline stroke="#262626" fill="none" stroke-width="0.5" points="100.027,436.638 100.027,430.677" stroke-linecap="butt" stroke-linejoin="miter"/>
   <polyline stroke="#262626" fill="none" stroke-width="0.5" points="100.027,36.7953 100.027,42.7561" stroke-linecap="butt" stroke-linejoin="miter"/>
   <polyline stroke="#262626" fill="none" stroke-width="0.5" points="249.105,436.638 249.105,430.677" stroke-linecap="butt" stroke-linejoin="miter"/>
   <polyline stroke="#262626" fill="none" stroke-width="0.5" points="249.105,36.7953 249.105,42.7561" stroke-linecap="butt" stroke-linejoin="miter"/>
   <polyline stroke="#262626" fill="none" stroke-width="0.5" points="398.184,436.638 398.184,430.677" stroke-linecap="butt" stroke-linejoin="miter"/>
   <polyline stroke="#262626" fill="none" stroke-width="0.5" points="398.184,36.7953 398.184,42.7561" stroke-linecap="butt" stroke-linejoin="miter"/>
   <polyline stroke="#262626" fill="none" stroke-width="0.5" points="547.262,436.638 547.262,430.677" stroke-linecap="butt" stroke-linejoin="miter"/>
   <polyline stroke="#262626" fill="none" stroke-width="0.5" points="547.262,36.7953 547.262,42.7561" stroke-linecap="butt" stroke-linejoin="miter"/>
   <polyline stroke="#262626" fill="none" stroke-width="0.5" points="696.34,436.638 696.34,430.677" stroke-linecap="butt" stroke-linejoin="miter"/>
   <polyline stroke="#262626" fill="none" stroke-width="0.5" points="696.34,36.7953 696.34,42.7561" stroke-linecap="butt" stroke-linejoin="miter"/>
   <text font-size="10" font-weight="normal" xml:space="preserve" font-family="FreeSans" transform="translate(97.0268,452.135) rotate(-0,3,-8)" font-style="normal">
    <tspan fill="rgb(38,38,38)" y="-0" x="0 ">5</tspan>
   </text>
   <text font-size="10" font-weight="normal" xml:space="preserve" font-family="FreeSans" transform="translate(243.105,452.135) rotate(-0,6,-8)" font-style="normal">
    <tspan fill="rgb(38,38,38)" y="-0" x="0 6 ">10</tspan>
   </text>
   <text font-size="10" font-weight="normal" xml:space="preserve" font-family="FreeSans" transform="translate(392.184,452.135) rotate(-0,6,-8)" font-style="normal">
    <tspan fill="rgb(38,38,38)" y="-0" x="0 6 ">15</tspan>
   </text>
   <text font-size="10" font-weight="normal" xml:space="preserve" font-family="FreeSans" transform="translate(541.262,452.135) rotate(-0,6,-8)" font-style="normal">
    <tspan fill="rgb(38,38,38)" y="-0" x="0 6 ">20</tspan>
   </text>
   <text font-size="10" font-weight="normal" xml:space="preserve" font-family="FreeSans" transform="translate(690.34,452.135) rotate(-0,6,-8)" font-style="normal">
    <tspan fill="rgb(38,38,38)" y="-0" x="0 6 ">25</tspan>
   </text>
   <polyline stroke="#262626" fill="none" stroke-width="0.5" points="100.027,436.638 105.993,436.638" stroke-linecap="butt" stroke-linejoin="miter"/>
   <polyline stroke="#262626" fill="none" stroke-width="0.5" points="696.34,436.638 690.374,436.638" stroke-linecap="butt" stroke-linejoin="miter"/>
   <polyline stroke="#262626" fill="none" stroke-width="0.5" points="100.027,369.997 105.993,369.997" stroke-linecap="butt" stroke-linejoin="miter"/>
   <polyline stroke="#262626" fill="none" stroke-width="0.5" points="696.34,369.997 690.374,369.997" stroke-linecap="butt" stroke-linejoin="miter"/>
   <polyline stroke="#262626" fill="none" stroke-width="0.5" points="100.027,303.357 105.993,303.357" stroke-linecap="butt" stroke-linejoin="miter"/>
   <polyline stroke="#262626" fill="none" stroke-width="0.5" points="696.34,303.357 690.374,303.357" stroke-linecap="butt" stroke-linejoin="miter"/>
   <polyline stroke="#262626" fill="none" stroke-width="0.5" points="100.027,236.717 105.993,236.717" stroke-linecap="butt" stroke-linejoin="miter"/>
   <polyline stroke="#262626" fill="none" stroke-width="0.5" points="696.34,236.717 690.374,236.717" stroke-linecap="butt" stroke-linejoin="miter"/>
   <polyline stroke="#262626" fill="none" stroke-width="0.5" points="100.027,170.076 105.993,170.076" stroke-linecap="butt" stroke-linejoin="miter"/>
   <polyline stroke="#262626" fill="none" stroke-width="0.5" points="696.34,170.076 690.374,170.076" stroke-linecap="butt" stroke-linejoin="miter"/>
   <polyline stroke="#262626" fill="none" stroke-width="0.5" points="100.027,103.436 105.993,103.436" stroke-linecap="butt" stroke-linejoin="miter"/>
   <polyline stroke="#262626" fill="none" stroke-width="0.5" points="696.34,103.436 690.374,103.436" stroke-linecap="butt" stroke-linejoin="miter"/>
   <polyline stroke="#262626" fill="none" stroke-width="0.5" points="100.027,36.7953 105.993,36.7953" stroke-linecap="butt" stroke-linejoin="miter"/>
   <polyline stroke="#262626" fill="none" stroke-width="0.5" points="696.34,36.7953 690.374,36.7953" stroke-linecap="butt" stroke-linejoin="miter"/>
   <text font-size="10" font-weight="normal" xml:space="preserve" font-family="FreeSans" transform="translate(86.0241,440.638) rotate(-0,9,-4)" font-style="normal">
    <tspan fill="rgb(38,38,38)" y="-0" x="0 3 ">-5</tspan>
   </text>
   <text font-size="10" font-weight="normal" xml:space="preserve" font-family="FreeSans" transform="translate(89.0241,373.997) rotate(-0,6,-4)" font-style="normal">
    <tspan fill="rgb(38,38,38)" y="-0" x="0 ">0</tspan>
   </text>
   <text font-size="10" font-weight="normal" xml:space="preserve" font-family="FreeSans" transform="translate(89.0241,307.357) rotate(-0,6,-4)" font-style="normal">
    <tspan fill="rgb(38,38,38)" y="-0" x="0 ">5</tspan>
   </text>
   <text font-size="10" font-weight="normal" xml:space="preserve" font-family="FreeSans" transform="translate(83.0241,240.717) rotate(-0,12,-4)" font-style="normal">
    <tspan fill="rgb(38,38,38)" y="-0" x="0 6 ">10</tspan>
   </text>
   <text font-size="10" font-weight="normal" xml:space="preserve" font-family="FreeSans" transform="translate(83.0241,174.076) rotate(-0,12,-4)" font-style="normal">
    <tspan fill="rgb(38,38,38)" y="-0" x="0 6 ">15</tspan>
   </text>
   <text font-size="10" font-weight="normal" xml:space="preserve" font-family="FreeSans" transform="translate(83.0241,107.436) rotate(-0,12,-4)" font-style="normal">
    <tspan fill="rgb(38,38,38)" y="-0" x="0 6 ">20</tspan>
   </text>
   <text font-size="10" font-weight="normal" xml:space="preserve" font-family="FreeSans" transform="translate(83.0241,40.7953) rotate(-0,12,-4)" font-style="normal">
    <tspan fill="rgb(38,38,38)" y="-0" x="0 6 ">25</tspan>
   </text>
   <polyline stroke="#262626" fill="none" stroke-width="0.5" points="100.027,436.638 696.34,436.638" stroke-linecap="square" stroke-dasharray="16,0" stroke-linejoin="miter"/>
   <polyline stroke="#262626" fill="none" stroke-width="0.5" points="100.027,36.7953 696.34,36.7953" stroke-linecap="square" stroke-dasharray="16,0" stroke-linejoin="miter"/>
   <polyline stroke="#262626" fill="none" stroke-width="0.5" points="100.027,436.638 100.027,36.7953" stroke-linecap="square" stroke-dasharray="16,0" stroke-linejoin="miter"/>
   <polyline stroke="#262626" fill="none" stroke-width="0.5" points="696.34,436.638 696.34,36.7953" stroke-linecap="square" stroke-dasharray="16,0" stroke-linejoin="miter"/>
   <text font-size="11" font-weight="normal" xml:space="preserve" font-family="FreeSans" transform="translate(330.684,469.135) rotate(-0,67.5,-12)" font-style="normal">
    <tspan fill="rgb(38,38,38)" y="-3" x="0 7 13 19 25 27 33 36 38 44 50 53 59 62 65 73 75 78 83 86 88 94 97 103 109 112 118 124 130 ">Population of City in 10,000s</tspan>
   </text>
   <text font-size="11" font-weight="normal" xml:space="preserve" font-family="FreeSans" transform="translate(36.5241,236.717) rotate(-90,41.5,0)" font-style="normal">
    <tspan fill="rgb(38,38,38)" y="-2" x="0 7 11 17 20 22 25 28 30 36 39 45 51 57 60 66 72 78 ">Profit in $10,000s</tspan>
   </text>
   <polyline stroke="#ff0000" fill="none" stroke-width="0.5" points="128.125,130.53 138.125,140.53" stroke-linecap="square" stroke-linejoin="miter"/>
   <polyline stroke="#ff0000" fill="none" stroke-width="0.5" points="128.125,140.53 138.125,130.53" stroke-linecap="square" stroke-linejoin="miter"/>
   <polyline stroke="#ff0000" fill="none" stroke-width="0.5" points="110.761,243.309 120.761,253.309" stroke-linecap="square" stroke-linejoin="miter"/>
   <polyline stroke="#ff0000" fill="none" stroke-width="0.5" points="110.761,253.309 120.761,243.309" stroke-linecap="square" stroke-linejoin="miter"/>
   <polyline stroke="#ff0000" fill="none" stroke-width="0.5" points="199.936,182.909 209.936,192.909" stroke-linecap="square" stroke-linejoin="miter"/>
   <polyline stroke="#ff0000" fill="none" stroke-width="0.5" points="199.936,192.909 209.936,182.909" stroke-linecap="square" stroke-linejoin="miter"/>
   <polyline stroke="#ff0000" fill="none" stroke-width="0.5" points="154.754,207.006 164.754,217.006" stroke-linecap="square" stroke-linejoin="miter"/>
   <polyline stroke="#ff0000" fill="none" stroke-width="0.5" points="154.754,217.006 164.754,207.006" stroke-linecap="square" stroke-linejoin="miter"/>
   <polyline stroke="#ff0000" fill="none" stroke-width="0.5" points="120.662,274.056 130.662,284.056" stroke-linecap="square" stroke-linejoin="miter"/>
   <polyline stroke="#ff0000" fill="none" stroke-width="0.5" points="120.662,284.056 130.662,274.056" stroke-linecap="square" stroke-linejoin="miter"/>
   <polyline stroke="#ff0000" fill="none" stroke-width="0.5" points="195.89,206.58 205.89,216.58" stroke-linecap="square" stroke-linejoin="miter"/>
   <polyline stroke="#ff0000" fill="none" stroke-width="0.5" points="195.89,216.58 205.89,206.58" stroke-linecap="square" stroke-linejoin="miter"/>
   <polyline stroke="#ff0000" fill="none" stroke-width="0.5" points="168.862,307.043 178.862,317.043" stroke-linecap="square" stroke-linejoin="miter"/>
   <polyline stroke="#ff0000" fill="none" stroke-width="0.5" points="168.862,317.043 178.862,307.043" stroke-linecap="square" stroke-linejoin="miter"/>
   <polyline stroke="#ff0000" fill="none" stroke-width="0.5" points="201.71,205.06 211.71,215.06" stroke-linecap="square" stroke-linejoin="miter"/>
   <polyline stroke="#ff0000" fill="none" stroke-width="0.5" points="201.71,215.06 211.71,205.06" stroke-linecap="square" stroke-linejoin="miter"/>
   <polyline stroke="#ff0000" fill="none" stroke-width="0.5" points="139.339,277.049 149.339,287.049" stroke-linecap="square" stroke-linejoin="miter"/>
   <polyline stroke="#ff0000" fill="none" stroke-width="0.5" points="139.339,287.049 149.339,277.049" stroke-linecap="square" stroke-linejoin="miter"/>
   <polyline stroke="#ff0000" fill="none" stroke-width="0.5" points="96.6547,314.129 106.655,324.129" stroke-linecap="square" stroke-linejoin="miter"/>
   <polyline stroke="#ff0000" fill="none" stroke-width="0.5" points="96.6547,324.129 106.655,314.129" stroke-linecap="square" stroke-linejoin="miter"/>
   <polyline stroke="#ff0000" fill="none" stroke-width="0.5" points="116.217,321.652 126.217,331.652" stroke-linecap="square" stroke-linejoin="miter"/>
   <polyline stroke="#ff0000" fill="none" stroke-width="0.5" points="116.217,331.652 126.217,321.652" stroke-linecap="square" stroke-linejoin="miter"/>
   <polyline stroke="#ff0000" fill="none" stroke-width="0.5" points="368.258,158.345 378.258,168.345" stroke-linecap="square" stroke-linejoin="miter"/>
   <polyline stroke="#ff0000" fill="none" stroke-width="0.5" points="368.258,168.345 378.258,158.345" stroke-linecap="square" stroke-linejoin="miter"/>
   <polyline stroke="#ff0000" fill="none" stroke-width="0.5" points="116.911,322.946 126.911,332.946" stroke-linecap="square" stroke-linejoin="miter"/>
   <polyline stroke="#ff0000" fill="none" stroke-width="0.5" points="116.911,332.946 126.911,322.946" stroke-linecap="square" stroke-linejoin="miter"/>
   <polyline stroke="#ff0000" fill="none" stroke-width="0.5" points="196.651,268.691 206.651,278.691" stroke-linecap="square" stroke-linejoin="miter"/>
   <polyline stroke="#ff0000" fill="none" stroke-width="0.5" points="196.651,278.691 206.651,268.691" stroke-linecap="square" stroke-linejoin="miter"/>
   <polyline stroke="#ff0000" fill="none" stroke-width="0.5" points="114.13,355.452 124.13,365.452" stroke-linecap="square" stroke-linejoin="miter"/>
   <polyline stroke="#ff0000" fill="none" stroke-width="0.5" points="114.13,365.452 124.13,355.452" stroke-linecap="square" stroke-linejoin="miter"/>
   <polyline stroke="#ff0000" fill="none" stroke-width="0.5" points="106.339,318.177 116.339,328.177" stroke-linecap="square" stroke-linejoin="miter"/>
   <polyline stroke="#ff0000" fill="none" stroke-width="0.5" points="106.339,328.177 116.339,318.177" stroke-linecap="square" stroke-linejoin="miter"/>
   <polyline stroke="#ff0000" fill="none" stroke-width="0.5" points="135.737,294.295 145.737,304.295" stroke-linecap="square" stroke-linejoin="miter"/>
   <polyline stroke="#ff0000" fill="none" stroke-width="0.5" points="135.737,304.295 145.737,294.295" stroke-linecap="square" stroke-linejoin="miter"/>
   <polyline stroke="#ff0000" fill="none" stroke-width="0.5" points="98.9058,357.523 108.906,367.523" stroke-linecap="square" stroke-linejoin="miter"/>
   <polyline stroke="#ff0000" fill="none" stroke-width="0.5" points="98.9058,367.523 108.906,357.523" stroke-linecap="square" stroke-linejoin="miter"/>
   <polyline stroke="#ff0000" fill="none" stroke-width="0.5" points="137.651,316.326 147.651,326.326" stroke-linecap="square" stroke-linejoin="miter"/>
   <polyline stroke="#ff0000" fill="none" stroke-width="0.5" points="137.651,326.326 147.651,316.326" stroke-linecap="square" stroke-linejoin="miter"/>
   <polyline stroke="#ff0000" fill="none" stroke-width="0.5" points="156.769,293.168 166.769,303.168" stroke-linecap="square" stroke-linejoin="miter"/>
   <polyline stroke="#ff0000" fill="none" stroke-width="0.5" points="156.769,303.168 166.769,293.168" stroke-linecap="square" stroke-linejoin="miter"/>
   <polyline stroke="#ff0000" fill="none" stroke-width="0.5" points="130.481,323.166 140.481,333.166" stroke-linecap="square" stroke-linejoin="miter"/>
   <polyline stroke="#ff0000" fill="none" stroke-width="0.5" points="130.481,333.166 140.481,323.166" stroke-linecap="square" stroke-linejoin="miter"/>
   <polyline stroke="#ff0000" fill="none" stroke-width="0.5" points="550.312,74.885 560.312,84.885" stroke-linecap="square" stroke-linejoin="miter"/>
   <polyline stroke="#ff0000" fill="none" stroke-width="0.5" points="550.312,84.885 560.312,74.885" stroke-linecap="square" stroke-linejoin="miter"/>
   <polyline stroke="#ff0000" fill="none" stroke-width="0.5" points="109.639,308.18 119.639,318.18" stroke-linecap="square" stroke-linejoin="miter"/>
   <polyline stroke="#ff0000" fill="none" stroke-width="0.5" points="109.639,318.18 119.639,308.18" stroke-linecap="square" stroke-linejoin="miter"/>
   <polyline stroke="#ff0000" fill="none" stroke-width="0.5" points="134.565,295.858 144.565,305.858" stroke-linecap="square" stroke-linejoin="miter"/>
   <polyline stroke="#ff0000" fill="none" stroke-width="0.5" points="134.565,305.858 144.565,295.858" stroke-linecap="square" stroke-linejoin="miter"/>
   <polyline stroke="#ff0000" fill="none" stroke-width="0.5" points="111.87,323.913 121.87,333.913" stroke-linecap="square" stroke-linejoin="miter"/>
   <polyline stroke="#ff0000" fill="none" stroke-width="0.5" points="111.87,333.913 121.87,323.913" stroke-linecap="square" stroke-linejoin="miter"/>
   <polyline stroke="#ff0000" fill="none" stroke-width="0.5" points="510.806,63.2762 520.806,73.2762" stroke-linecap="square" stroke-linejoin="miter"/>
   <polyline stroke="#ff0000" fill="none" stroke-width="0.5" points="510.806,73.2762 520.806,63.2762" stroke-linecap="square" stroke-linejoin="miter"/>
   <polyline stroke="#ff0000" fill="none" stroke-width="0.5" points="328.424,185.055 338.424,195.055" stroke-linecap="square" stroke-linejoin="miter"/>
   <polyline stroke="#ff0000" fill="none" stroke-width="0.5" points="328.424,195.055 338.424,185.055" stroke-linecap="square" stroke-linejoin="miter"/>
   <polyline stroke="#ff0000" fill="none" stroke-width="0.5" points="272.639,271.078 282.639,281.078" stroke-linecap="square" stroke-linejoin="miter"/>
   <polyline stroke="#ff0000" fill="none" stroke-width="0.5" points="272.639,281.078 282.639,271.078" stroke-linecap="square" stroke-linejoin="miter"/>
   <polyline stroke="#ff0000" fill="none" stroke-width="0.5" points="338.8,169.181 348.8,179.181" stroke-linecap="square" stroke-linejoin="miter"/>
   <polyline stroke="#ff0000" fill="none" stroke-width="0.5" points="338.8,179.181 348.8,169.181" stroke-linecap="square" stroke-linejoin="miter"/>
   <polyline stroke="#ff0000" fill="none" stroke-width="0.5" points="607.946,43.1642 617.946,53.1642" stroke-linecap="square" stroke-linejoin="miter"/>
   <polyline stroke="#ff0000" fill="none" stroke-width="0.5" points="607.946,53.1642 617.946,43.1642" stroke-linecap="square" stroke-linejoin="miter"/>
   <polyline stroke="#ff0000" fill="none" stroke-width="0.5" points="102.552,381.258 112.552,391.258" stroke-linecap="square" stroke-linejoin="miter"/>
   <polyline stroke="#ff0000" fill="none" stroke-width="0.5" points="102.552,391.258 112.552,381.258" stroke-linecap="square" stroke-linejoin="miter"/>
   <polyline stroke="#ff0000" fill="none" stroke-width="0.5" points="142.416,285.074 152.416,295.074" stroke-linecap="square" stroke-linejoin="miter"/>
   <polyline stroke="#ff0000" fill="none" stroke-width="0.5" points="142.416,295.074 152.416,285.074" stroke-linecap="square" stroke-linejoin="miter"/>
   <polyline stroke="#ff0000" fill="none" stroke-width="0.5" points="221.69,203.274 231.69,213.274" stroke-linecap="square" stroke-linejoin="miter"/>
   <polyline stroke="#ff0000" fill="none" stroke-width="0.5" points="221.69,213.274 231.69,203.274" stroke-linecap="square" stroke-linejoin="miter"/>
   <polyline stroke="#ff0000" fill="none" stroke-width="0.5" points="121.616,340.347 131.616,350.347" stroke-linecap="square" stroke-linejoin="miter"/>
   <polyline stroke="#ff0000" fill="none" stroke-width="0.5" points="121.616,350.347 131.616,340.347" stroke-linecap="square" stroke-linejoin="miter"/>
   <polyline stroke="#ff0000" fill="none" stroke-width="0.5" points="190.768,277.797 200.768,287.797" stroke-linecap="square" stroke-linejoin="miter"/>
   <polyline stroke="#ff0000" fill="none" stroke-width="0.5" points="190.768,287.797 200.768,277.797" stroke-linecap="square" stroke-linejoin="miter"/>
   <polyline stroke="#ff0000" fill="none" stroke-width="0.5" points="182.488,304.191 192.488,314.191" stroke-linecap="square" stroke-linejoin="miter"/>
   <polyline stroke="#ff0000" fill="none" stroke-width="0.5" points="182.488,314.191 192.488,304.191" stroke-linecap="square" stroke-linejoin="miter"/>
   <polyline stroke="#ff0000" fill="none" stroke-width="0.5" points="187.333,310.134 197.333,320.134" stroke-linecap="square" stroke-linejoin="miter"/>
   <polyline stroke="#ff0000" fill="none" stroke-width="0.5" points="187.333,320.134 197.333,310.134" stroke-linecap="square" stroke-linejoin="miter"/>
   <polyline stroke="#ff0000" fill="none" stroke-width="0.5" points="113.104,319.778 123.104,329.778" stroke-linecap="square" stroke-linejoin="miter"/>
   <polyline stroke="#ff0000" fill="none" stroke-width="0.5" points="113.104,329.778 123.104,319.778" stroke-linecap="square" stroke-linejoin="miter"/>
   <polyline stroke="#ff0000" fill="none" stroke-width="0.5" points="328.662,230.157 338.662,240.157" stroke-linecap="square" stroke-linejoin="miter"/>
   <polyline stroke="#ff0000" fill="none" stroke-width="0.5" points="328.662,240.157 338.662,230.157" stroke-linecap="square" stroke-linejoin="miter"/>
   <polyline stroke="#ff0000" fill="none" stroke-width="0.5" points="135.379,291.728 145.379,301.728" stroke-linecap="square" stroke-linejoin="miter"/>
   <polyline stroke="#ff0000" fill="none" stroke-width="0.5" points="135.379,301.728 145.379,291.728" stroke-linecap="square" stroke-linejoin="miter"/>
   <polyline stroke="#ff0000" fill="none" stroke-width="0.5" points="107.159,357.579 117.159,367.579" stroke-linecap="square" stroke-linejoin="miter"/>
   <polyline stroke="#ff0000" fill="none" stroke-width="0.5" points="107.159,367.579 117.159,357.579" stroke-linecap="square" stroke-linejoin="miter"/>
   <polyline stroke="#ff0000" fill="none" stroke-width="0.5" points="151.155,312.865 161.155,322.865" stroke-linecap="square" stroke-linejoin="miter"/>
   <polyline stroke="#ff0000" fill="none" stroke-width="0.5" points="151.155,322.865 161.155,312.865" stroke-linecap="square" stroke-linejoin="miter"/>
   <polyline stroke="#ff0000" fill="none" stroke-width="0.5" points="295.03,293.22 305.03,303.22" stroke-linecap="square" stroke-linejoin="miter"/>
   <polyline stroke="#ff0000" fill="none" stroke-width="0.5" points="295.03,303.22 305.03,293.22" stroke-linecap="square" stroke-linejoin="miter"/>
   <polyline stroke="#ff0000" fill="none" stroke-width="0.5" points="118.095,332.469 128.095,342.469" stroke-linecap="square" stroke-linejoin="miter"/>
   <polyline stroke="#ff0000" fill="none" stroke-width="0.5" points="118.095,342.469 128.095,332.469" stroke-linecap="square" stroke-linejoin="miter"/>
   <polyline stroke="#ff0000" fill="none" stroke-width="0.5" points="179.247,275.275 189.247,285.275" stroke-linecap="square" stroke-linejoin="miter"/>
   <polyline stroke="#ff0000" fill="none" stroke-width="0.5" points="179.247,285.275 189.247,275.275" stroke-linecap="square" stroke-linejoin="miter"/>
   <polyline stroke="#ff0000" fill="none" stroke-width="0.5" points="157.434,351.052 167.434,361.052" stroke-linecap="square" stroke-linejoin="miter"/>
   <polyline stroke="#ff0000" fill="none" stroke-width="0.5" points="157.434,361.052 167.434,351.052" stroke-linecap="square" stroke-linejoin="miter"/>
   <polyline stroke="#ff0000" fill="none" stroke-width="0.5" points="97.1199,296.575 107.12,306.575" stroke-linecap="square" stroke-linejoin="miter"/>
   <polyline stroke="#ff0000" fill="none" stroke-width="0.5" points="97.1199,306.575 107.12,296.575" stroke-linecap="square" stroke-linejoin="miter"/>
   <polyline stroke="#ff0000" fill="none" stroke-width="0.5" points="118.921,340.42 128.921,350.42" stroke-linecap="square" stroke-linejoin="miter"/>
   <polyline stroke="#ff0000" fill="none" stroke-width="0.5" points="118.921,350.42 128.921,340.42" stroke-linecap="square" stroke-linejoin="miter"/>
   <polyline stroke="#ff0000" fill="none" stroke-width="0.5" points="294.792,258.315 304.792,268.315" stroke-linecap="square" stroke-linejoin="miter"/>
   <polyline stroke="#ff0000" fill="none" stroke-width="0.5" points="294.792,268.315 304.792,258.315" stroke-linecap="square" stroke-linejoin="miter"/>
   <polyline stroke="#ff0000" fill="none" stroke-width="0.5" points="111.175,351.431 121.175,361.431" stroke-linecap="square" stroke-linejoin="miter"/>
   <polyline stroke="#ff0000" fill="none" stroke-width="0.5" points="111.175,361.431 121.175,351.431" stroke-linecap="square" stroke-linejoin="miter"/>
   <polyline stroke="#ff0000" fill="none" stroke-width="0.5" points="170.765,275.027 180.765,285.027" stroke-linecap="square" stroke-linejoin="miter"/>
   <polyline stroke="#ff0000" fill="none" stroke-width="0.5" points="170.765,285.027 180.765,275.027" stroke-linecap="square" stroke-linejoin="miter"/>
   <polyline stroke="#ff0000" fill="none" stroke-width="0.5" points="104.201,340.479 114.201,350.479" stroke-linecap="square" stroke-linejoin="miter"/>
   <polyline stroke="#ff0000" fill="none" stroke-width="0.5" points="104.201,350.479 114.201,340.479" stroke-linecap="square" stroke-linejoin="miter"/>
   <polyline stroke="#ff0000" fill="none" stroke-width="0.5" points="167.297,307.84 177.297,317.84" stroke-linecap="square" stroke-linejoin="miter"/>
   <polyline stroke="#ff0000" fill="none" stroke-width="0.5" points="167.297,317.84 177.297,307.84" stroke-linecap="square" stroke-linejoin="miter"/>
   <polyline stroke="#ff0000" fill="none" stroke-width="0.5" points="172.64,298.382 182.64,308.382" stroke-linecap="square" stroke-linejoin="miter"/>
   <polyline stroke="#ff0000" fill="none" stroke-width="0.5" points="172.64,308.382 182.64,298.382" stroke-linecap="square" stroke-linejoin="miter"/>
   <polyline stroke="#ff0000" fill="none" stroke-width="0.5" points="134.765,346.027 144.765,356.027" stroke-linecap="square" stroke-linejoin="miter"/>
   <polyline stroke="#ff0000" fill="none" stroke-width="0.5" points="134.765,356.027 144.765,346.027" stroke-linecap="square" stroke-linejoin="miter"/>
   <polyline stroke="#ff0000" fill="none" stroke-width="0.5" points="135.543,383.938 145.543,393.938" stroke-linecap="square" stroke-linejoin="miter"/>
   <polyline stroke="#ff0000" fill="none" stroke-width="0.5" points="135.543,393.938 145.543,383.938" stroke-linecap="square" stroke-linejoin="miter"/>
   <polyline stroke="#ff0000" fill="none" stroke-width="0.5" points="133.018,332.002 143.018,342.002" stroke-linecap="square" stroke-linejoin="miter"/>
   <polyline stroke="#ff0000" fill="none" stroke-width="0.5" points="133.018,342.002 143.018,332.002" stroke-linecap="square" stroke-linejoin="miter"/>
   <polyline stroke="#ff0000" fill="none" stroke-width="0.5" points="114.1,303.632 124.1,313.632" stroke-linecap="square" stroke-linejoin="miter"/>
   <polyline stroke="#ff0000" fill="none" stroke-width="0.5" points="114.1,313.632 124.1,303.632" stroke-linecap="square" stroke-linejoin="miter"/>
   <polyline stroke="#ff0000" fill="none" stroke-width="0.5" points="223.538,312.186 233.538,322.186" stroke-linecap="square" stroke-linejoin="miter"/>
   <polyline stroke="#ff0000" fill="none" stroke-width="0.5" points="223.538,322.186 233.538,312.186" stroke-linecap="square" stroke-linejoin="miter"/>
   <polyline stroke="#ff0000" fill="none" stroke-width="0.5" points="227.814,292.838 237.814,302.838" stroke-linecap="square" stroke-linejoin="miter"/>
   <polyline stroke="#ff0000" fill="none" stroke-width="0.5" points="227.814,302.838 237.814,292.838" stroke-linecap="square" stroke-linejoin="miter"/>
   <polyline stroke="#ff0000" fill="none" stroke-width="0.5" points="209.084,296.099 219.084,306.099" stroke-linecap="square" stroke-linejoin="miter"/>
   <polyline stroke="#ff0000" fill="none" stroke-width="0.5" points="209.084,306.099 219.084,296.099" stroke-linecap="square" stroke-linejoin="miter"/>
   <polyline stroke="#ff0000" fill="none" stroke-width="0.5" points="100.373,374.897 110.373,384.897" stroke-linecap="square" stroke-linejoin="miter"/>
   <polyline stroke="#ff0000" fill="none" stroke-width="0.5" points="100.373,384.897 110.373,374.897" stroke-linecap="square" stroke-linejoin="miter"/>
   <polyline stroke="#ff0000" fill="none" stroke-width="0.5" points="580.396,126.038 590.396,136.038" stroke-linecap="square" stroke-linejoin="miter"/>
   <polyline stroke="#ff0000" fill="none" stroke-width="0.5" points="580.396,136.038 590.396,126.038" stroke-linecap="square" stroke-linejoin="miter"/>
   <polyline stroke="#ff0000" fill="none" stroke-width="0.5" points="390.44,204.341 400.44,214.341" stroke-linecap="square" stroke-linejoin="miter"/>
   <polyline stroke="#ff0000" fill="none" stroke-width="0.5" points="390.44,214.341 400.44,204.341" stroke-linecap="square" stroke-linejoin="miter"/>
   <polyline stroke="#ff0000" fill="none" stroke-width="0.5" points="511.224,137.7 521.224,147.7" stroke-linecap="square" stroke-linejoin="miter"/>
   <polyline stroke="#ff0000" fill="none" stroke-width="0.5" points="511.224,147.7 521.224,137.7" stroke-linecap="square" stroke-linejoin="miter"/>
   <polyline stroke="#ff0000" fill="none" stroke-width="0.5" points="161.164,299.887 171.164,309.887" stroke-linecap="square" stroke-linejoin="miter"/>
   <polyline stroke="#ff0000" fill="none" stroke-width="0.5" points="161.164,309.887 171.164,299.887" stroke-linecap="square" stroke-linejoin="miter"/>
   <polyline stroke="#ff0000" fill="none" stroke-width="0.5" points="193.272,288.438 203.272,298.438" stroke-linecap="square" stroke-linejoin="miter"/>
   <polyline stroke="#ff0000" fill="none" stroke-width="0.5" points="193.272,298.438 203.272,288.438" stroke-linecap="square" stroke-linejoin="miter"/>
   <polyline stroke="#ff0000" fill="none" stroke-width="0.5" points="251.142,261.366 261.142,271.366" stroke-linecap="square" stroke-linejoin="miter"/>
   <polyline stroke="#ff0000" fill="none" stroke-width="0.5" points="251.142,271.366 261.142,261.366" stroke-linecap="square" stroke-linejoin="miter"/>
   <polyline stroke="#ff0000" fill="none" stroke-width="0.5" points="109.917,351.439 119.917,361.439" stroke-linecap="square" stroke-linejoin="miter"/>
   <polyline stroke="#ff0000" fill="none" stroke-width="0.5" points="109.917,361.439 119.917,351.439" stroke-linecap="square" stroke-linejoin="miter"/>
   <polyline stroke="#ff0000" fill="none" stroke-width="0.5" points="552.429,85.2142 562.429,95.2142" stroke-linecap="square" stroke-linejoin="miter"/>
   <polyline stroke="#ff0000" fill="none" stroke-width="0.5" points="552.429,95.2142 562.429,85.2142" stroke-linecap="square" stroke-linejoin="miter"/>
   <polyline stroke="#ff0000" fill="none" stroke-width="0.5" points="248.16,275.967 258.16,285.967" stroke-linecap="square" stroke-linejoin="miter"/>
   <polyline stroke="#ff0000" fill="none" stroke-width="0.5" points="248.16,285.967 258.16,275.967" stroke-linecap="square" stroke-linejoin="miter"/>
   <polyline stroke="#ff0000" fill="none" stroke-width="0.5" points="164.631,311.34 174.631,321.34" stroke-linecap="square" stroke-linejoin="miter"/>
   <polyline stroke="#ff0000" fill="none" stroke-width="0.5" points="164.631,321.34 174.631,311.34" stroke-linecap="square" stroke-linejoin="miter"/>
   <polyline stroke="#ff0000" fill="none" stroke-width="0.5" points="125.027,347.959 135.027,357.959" stroke-linecap="square" stroke-linejoin="miter"/>
   <polyline stroke="#ff0000" fill="none" stroke-width="0.5" points="125.027,357.959 135.027,347.959" stroke-linecap="square" stroke-linejoin="miter"/>
   <polyline stroke="#ff0000" fill="none" stroke-width="0.5" points="161.393,320.467 171.393,330.467" stroke-linecap="square" stroke-linejoin="miter"/>
   <polyline stroke="#ff0000" fill="none" stroke-width="0.5" points="161.393,330.467 171.393,320.467" stroke-linecap="square" stroke-linejoin="miter"/>
   <polyline stroke="#ff0000" fill="none" stroke-width="0.5" points="95.8288,400.726 105.829,410.726" stroke-linecap="square" stroke-linejoin="miter"/>
   <polyline stroke="#ff0000" fill="none" stroke-width="0.5" points="95.8288,410.726 105.829,400.726" stroke-linecap="square" stroke-linejoin="miter"/>
   <polyline stroke="#ff0000" fill="none" stroke-width="0.5" points="141.178,361.042 151.178,371.042" stroke-linecap="square" stroke-linejoin="miter"/>
   <polyline stroke="#ff0000" fill="none" stroke-width="0.5" points="141.178,371.042 151.178,361.042" stroke-linecap="square" stroke-linejoin="miter"/>
   <polyline stroke="#ff0000" fill="none" stroke-width="0.5" points="170.717,313.224 180.717,323.224" stroke-linecap="square" stroke-linejoin="miter"/>
   <polyline stroke="#ff0000" fill="none" stroke-width="0.5" points="170.717,323.224 180.717,313.224" stroke-linecap="square" stroke-linejoin="miter"/>
   <polyline stroke="#ff0000" fill="none" stroke-width="0.5" points="96.1151,289.009 106.115,299.009" stroke-linecap="square" stroke-linejoin="miter"/>
   <polyline stroke="#ff0000" fill="none" stroke-width="0.5" points="96.1151,299.009 106.115,289.009" stroke-linecap="square" stroke-linejoin="miter"/>
   <polyline stroke="#ff0000" fill="none" stroke-width="0.5" points="252.275,274.998 262.275,284.998" stroke-linecap="square" stroke-linejoin="miter"/>
   <polyline stroke="#ff0000" fill="none" stroke-width="0.5" points="252.275,284.998 262.275,274.998" stroke-linecap="square" stroke-linejoin="miter"/>
   <polyline stroke="#ff0000" fill="none" stroke-width="0.5" points="98.2379,337.573 108.238,347.573" stroke-linecap="square" stroke-linejoin="miter"/>
   <polyline stroke="#ff0000" fill="none" stroke-width="0.5" points="98.2379,347.573 108.238,337.573" stroke-linecap="square" stroke-linejoin="miter"/>
   <polyline stroke="#ff0000" fill="none" stroke-width="0.5" points="116.768,358.606 126.768,368.606" stroke-linecap="square" stroke-linejoin="miter"/>
   <polyline stroke="#ff0000" fill="none" stroke-width="0.5" points="116.768,368.606 126.768,358.606" stroke-linecap="square" stroke-linejoin="miter"/>
   <polyline stroke="#ff0000" fill="none" stroke-width="0.5" points="100.644,362.276 110.644,372.276" stroke-linecap="square" stroke-linejoin="miter"/>
   <polyline stroke="#ff0000" fill="none" stroke-width="0.5" points="100.644,372.276 110.644,362.276" stroke-linecap="square" stroke-linejoin="miter"/>
   <polyline stroke="#ff0000" fill="none" stroke-width="0.5" points="135.448,355.953 145.448,365.953" stroke-linecap="square" stroke-linejoin="miter"/>
   <polyline stroke="#ff0000" fill="none" stroke-width="0.5" points="135.448,365.953 145.448,355.953" stroke-linecap="square" stroke-linejoin="miter"/>
   <polyline stroke="#ff0000" fill="none" stroke-width="0.5" points="237.209,264.457 247.209,274.457" stroke-linecap="square" stroke-linejoin="miter"/>
   <polyline stroke="#ff0000" fill="none" stroke-width="0.5" points="237.209,274.457 247.209,264.457" stroke-linecap="square" stroke-linejoin="miter"/>
   <polyline stroke="#ff0000" fill="none" stroke-width="0.5" points="140.224,293.777 150.224,303.777" stroke-linecap="square" stroke-linejoin="miter"/>
   <polyline stroke="#ff0000" fill="none" stroke-width="0.5" points="140.224,303.777 150.224,293.777" stroke-linecap="square" stroke-linejoin="miter"/>
   <polyline stroke="#ff0000" fill="none" stroke-width="0.5" points="199.894,308.466 209.894,318.466" stroke-linecap="square" stroke-linejoin="miter"/>
   <polyline stroke="#ff0000" fill="none" stroke-width="0.5" points="199.894,318.466 209.894,308.466" stroke-linecap="square" stroke-linejoin="miter"/>
   <polyline stroke="#ff0000" fill="none" stroke-width="0.5" points="219.662,274.392 229.662,284.392" stroke-linecap="square" stroke-linejoin="miter"/>
   <polyline stroke="#ff0000" fill="none" stroke-width="0.5" points="219.662,284.392 229.662,274.392" stroke-linecap="square" stroke-linejoin="miter"/>
   <polyline stroke="#ff0000" fill="none" stroke-width="0.5" points="124.902,352.643 134.902,362.643" stroke-linecap="square" stroke-linejoin="miter"/>
   <polyline stroke="#ff0000" fill="none" stroke-width="0.5" points="124.902,362.643 134.902,352.643" stroke-linecap="square" stroke-linejoin="miter"/>
   <polyline stroke="#ff0000" fill="none" stroke-width="0.5" points="110.543,362.971 120.543,372.971" stroke-linecap="square" stroke-linejoin="miter"/>
   <polyline stroke="#ff0000" fill="none" stroke-width="0.5" points="110.543,372.971 120.543,362.971" stroke-linecap="square" stroke-linejoin="miter"/>
   <polyline stroke="#ff0000" fill="none" stroke-width="0.5" points="96.7979,327.393 106.798,337.393" stroke-linecap="square" stroke-linejoin="miter"/>
   <polyline stroke="#ff0000" fill="none" stroke-width="0.5" points="96.7979,337.393 106.798,327.393" stroke-linecap="square" stroke-linejoin="miter"/>
   <polyline stroke="#ff0000" fill="none" stroke-width="0.5" points="116.127,340.406 126.127,350.406" stroke-linecap="square" stroke-linejoin="miter"/>
   <polyline stroke="#ff0000" fill="none" stroke-width="0.5" points="116.127,350.406 126.127,340.406" stroke-linecap="square" stroke-linejoin="miter"/>
   <polyline stroke="#ff0000" fill="none" stroke-width="0.5" points="173.639,307.741 183.639,317.741" stroke-linecap="square" stroke-linejoin="miter"/>
   <polyline stroke="#ff0000" fill="none" stroke-width="0.5" points="173.639,317.741 183.639,307.741" stroke-linecap="square" stroke-linejoin="miter"/>
   <polyline stroke="#ff0000" fill="none" stroke-width="0.5" points="120.987,268.996 130.987,278.996" stroke-linecap="square" stroke-linejoin="miter"/>
   <polyline stroke="#ff0000" fill="none" stroke-width="0.5" points="120.987,278.996 130.987,268.996" stroke-linecap="square" stroke-linejoin="miter"/>
   <polyline stroke="#ff0000" fill="none" stroke-width="0.5" points="104.132,338.516 114.132,348.516" stroke-linecap="square" stroke-linejoin="miter"/>
   <polyline stroke="#ff0000" fill="none" stroke-width="0.5" points="104.132,348.516 114.132,338.516" stroke-linecap="square" stroke-linejoin="miter"/>
   <polyline stroke="#ff0000" fill="none" stroke-width="0.5" points="193.222,363.071 203.222,373.071" stroke-linecap="square" stroke-linejoin="miter"/>
   <polyline stroke="#ff0000" fill="none" stroke-width="0.5" points="193.222,373.071 203.222,363.071" stroke-linecap="square" stroke-linejoin="miter"/>
   <polyline stroke="#ff0000" fill="none" stroke-width="0.5" points="345.3,244.31 355.3,254.31" stroke-linecap="square" stroke-linejoin="miter"/>
   <polyline stroke="#ff0000" fill="none" stroke-width="0.5" points="345.3,254.31 355.3,244.31" stroke-linecap="square" stroke-linejoin="miter"/>
   <polyline stroke="#ff0000" fill="none" stroke-width="0.5" points="108.053,356.773 118.053,366.773" stroke-linecap="square" stroke-linejoin="miter"/>
   <polyline stroke="#ff0000" fill="none" stroke-width="0.5" points="108.053,366.773 118.053,356.773" stroke-linecap="square" stroke-linejoin="miter"/>
  </g>
 </g>
</svg>
