<?xml version='1.0' encoding='UTF-8' standalone='no'?>
<svg xmlns="http://www.w3.org/2000/svg" width="494pt" viewBox="0 0 494 367" xmlns:xlink="http://www.w3.org/1999/xlink" height="367pt">
 <title>gl2ps_renderer figure</title>
 <desc>
Creator: GL2PS 1.4.2, (C) 1999-2020 C. Geuzaine
For: Octave
CreationDate: Fri May 07 16:20:54 2021
</desc>
 <defs/>
 <polygon fill="#ffffff" points="0,0 494,0 494,367 0,367"/>
 <g>
  <polygon fill="#ffffff" shape-rendering="crispEdges" points="0,367 494,367 494,0 0,0"/>
  <clipPath id="cp00494367">
   <polygon points="0,367 494,367 494,0 0,0"/>
  </clipPath>
  <g clip-path="url(#cp00494367)">
   <polygon fill="#ffffff" shape-rendering="crispEdges" points="64.2374,327.478 447.191,327.478 447.191,27.5965 64.2374,27.5965"/>
   <polyline stroke-width="0.5" stroke-linejoin="miter" fill="none" stroke="#262626" points="64.2374,327.478 64.2374,323.65" stroke-linecap="butt"/>
   <polyline stroke-width="0.5" stroke-linejoin="miter" fill="none" stroke="#262626" points="64.2374,27.5965 64.2374,31.4245" stroke-linecap="butt"/>
   <polyline stroke-width="0.5" stroke-linejoin="miter" fill="none" stroke="#262626" points="159.976,327.478 159.976,323.65" stroke-linecap="butt"/>
   <polyline stroke-width="0.5" stroke-linejoin="miter" fill="none" stroke="#262626" points="159.976,27.5965 159.976,31.4245" stroke-linecap="butt"/>
   <polyline stroke-width="0.5" stroke-linejoin="miter" fill="none" stroke="#262626" points="255.714,327.478 255.714,323.65" stroke-linecap="butt"/>
   <polyline stroke-width="0.5" stroke-linejoin="miter" fill="none" stroke="#262626" points="255.714,27.5965 255.714,31.4245" stroke-linecap="butt"/>
   <polyline stroke-width="0.5" stroke-linejoin="miter" fill="none" stroke="#262626" points="351.453,327.478 351.453,323.65" stroke-linecap="butt"/>
   <polyline stroke-width="0.5" stroke-linejoin="miter" fill="none" stroke="#262626" points="351.453,27.5965 351.453,31.4245" stroke-linecap="butt"/>
   <polyline stroke-width="0.5" stroke-linejoin="miter" fill="none" stroke="#262626" points="447.191,327.478 447.191,323.65" stroke-linecap="butt"/>
   <polyline stroke-width="0.5" stroke-linejoin="miter" fill="none" stroke="#262626" points="447.191,27.5965 447.191,31.4245" stroke-linecap="butt"/>
   <text font-style="normal" xml:space="preserve" transform="translate(61.2374,342.975) rotate(-0,3,-8)" font-weight="normal" font-family="FreeSans" font-size="10">
    <tspan y="-0" fill="rgb(38,38,38)" x="0 ">5</tspan>
   </text>
   <text font-style="normal" xml:space="preserve" transform="translate(153.976,342.975) rotate(-0,6,-8)" font-weight="normal" font-family="FreeSans" font-size="10">
    <tspan y="-0" fill="rgb(38,38,38)" x="0 6 ">10</tspan>
   </text>
   <text font-style="normal" xml:space="preserve" transform="translate(249.714,342.975) rotate(-0,6,-8)" font-weight="normal" font-family="FreeSans" font-size="10">
    <tspan y="-0" fill="rgb(38,38,38)" x="0 6 ">15</tspan>
   </text>
   <text font-style="normal" xml:space="preserve" transform="translate(345.453,342.975) rotate(-0,6,-8)" font-weight="normal" font-family="FreeSans" font-size="10">
    <tspan y="-0" fill="rgb(38,38,38)" x="0 6 ">20</tspan>
   </text>
   <text font-style="normal" xml:space="preserve" transform="translate(441.191,342.975) rotate(-0,6,-8)" font-weight="normal" font-family="FreeSans" font-size="10">
    <tspan y="-0" fill="rgb(38,38,38)" x="0 6 ">25</tspan>
   </text>
   <polyline stroke-width="0.5" stroke-linejoin="miter" fill="none" stroke="#262626" points="64.2374,327.478 68.0665,327.478" stroke-linecap="butt"/>
   <polyline stroke-width="0.5" stroke-linejoin="miter" fill="none" stroke="#262626" points="447.191,327.478 443.362,327.478" stroke-linecap="butt"/>
   <polyline stroke-width="0.5" stroke-linejoin="miter" fill="none" stroke="#262626" points="64.2374,277.498 68.0665,277.498" stroke-linecap="butt"/>
   <polyline stroke-width="0.5" stroke-linejoin="miter" fill="none" stroke="#262626" points="447.191,277.498 443.362,277.498" stroke-linecap="butt"/>
   <polyline stroke-width="0.5" stroke-linejoin="miter" fill="none" stroke="#262626" points="64.2374,227.518 68.0665,227.518" stroke-linecap="butt"/>
   <polyline stroke-width="0.5" stroke-linejoin="miter" fill="none" stroke="#262626" points="447.191,227.518 443.362,227.518" stroke-linecap="butt"/>
   <polyline stroke-width="0.5" stroke-linejoin="miter" fill="none" stroke="#262626" points="64.2374,177.537 68.0665,177.537" stroke-linecap="butt"/>
   <polyline stroke-width="0.5" stroke-linejoin="miter" fill="none" stroke="#262626" points="447.191,177.537 443.362,177.537" stroke-linecap="butt"/>
   <polyline stroke-width="0.5" stroke-linejoin="miter" fill="none" stroke="#262626" points="64.2374,127.557 68.0665,127.557" stroke-linecap="butt"/>
   <polyline stroke-width="0.5" stroke-linejoin="miter" fill="none" stroke="#262626" points="447.191,127.557 443.362,127.557" stroke-linecap="butt"/>
   <polyline stroke-width="0.5" stroke-linejoin="miter" fill="none" stroke="#262626" points="64.2374,77.5768 68.0665,77.5768" stroke-linecap="butt"/>
   <polyline stroke-width="0.5" stroke-linejoin="miter" fill="none" stroke="#262626" points="447.191,77.5768 443.362,77.5768" stroke-linecap="butt"/>
   <polyline stroke-width="0.5" stroke-linejoin="miter" fill="none" stroke="#262626" points="64.2374,27.5965 68.0665,27.5965" stroke-linecap="butt"/>
   <polyline stroke-width="0.5" stroke-linejoin="miter" fill="none" stroke="#262626" points="447.191,27.5965 443.362,27.5965" stroke-linecap="butt"/>
   <text font-style="normal" xml:space="preserve" transform="translate(50.238,331.478) rotate(-0,9,-4)" font-weight="normal" font-family="FreeSans" font-size="10">
    <tspan y="-0" fill="rgb(38,38,38)" x="0 3 ">-5</tspan>
   </text>
   <text font-style="normal" xml:space="preserve" transform="translate(53.238,281.498) rotate(-0,6,-4)" font-weight="normal" font-family="FreeSans" font-size="10">
    <tspan y="-0" fill="rgb(38,38,38)" x="0 ">0</tspan>
   </text>
   <text font-style="normal" xml:space="preserve" transform="translate(53.238,231.518) rotate(-0,6,-4)" font-weight="normal" font-family="FreeSans" font-size="10">
    <tspan y="-0" fill="rgb(38,38,38)" x="0 ">5</tspan>
   </text>
   <text font-style="normal" xml:space="preserve" transform="translate(47.238,181.537) rotate(-0,12,-4)" font-weight="normal" font-family="FreeSans" font-size="10">
    <tspan y="-0" fill="rgb(38,38,38)" x="0 6 ">10</tspan>
   </text>
   <text font-style="normal" xml:space="preserve" transform="translate(47.238,131.557) rotate(-0,12,-4)" font-weight="normal" font-family="FreeSans" font-size="10">
    <tspan y="-0" fill="rgb(38,38,38)" x="0 6 ">15</tspan>
   </text>
   <text font-style="normal" xml:space="preserve" transform="translate(47.238,81.5768) rotate(-0,12,-4)" font-weight="normal" font-family="FreeSans" font-size="10">
    <tspan y="-0" fill="rgb(38,38,38)" x="0 6 ">20</tspan>
   </text>
   <text font-style="normal" xml:space="preserve" transform="translate(47.238,31.5965) rotate(-0,12,-4)" font-weight="normal" font-family="FreeSans" font-size="10">
    <tspan y="-0" fill="rgb(38,38,38)" x="0 6 ">25</tspan>
   </text>
   <polyline stroke-width="0.5" stroke-linejoin="miter" fill="none" stroke="#262626" points="64.2374,327.478 447.191,327.478" stroke-linecap="square" stroke-dasharray="16,0"/>
   <polyline stroke-width="0.5" stroke-linejoin="miter" fill="none" stroke="#262626" points="64.2374,27.5965 447.191,27.5965" stroke-linecap="square" stroke-dasharray="16,0"/>
   <polyline stroke-width="0.5" stroke-linejoin="miter" fill="none" stroke="#262626" points="64.2374,327.478 64.2374,27.5965" stroke-linecap="square" stroke-dasharray="16,0"/>
   <polyline stroke-width="0.5" stroke-linejoin="miter" fill="none" stroke="#262626" points="447.191,327.478 447.191,27.5965" stroke-linecap="square" stroke-dasharray="16,0"/>
   <text font-style="normal" xml:space="preserve" transform="translate(188.214,359.975) rotate(-0,67.5,-12)" font-weight="normal" font-family="FreeSans" font-size="11">
    <tspan y="-3" fill="rgb(38,38,38)" x="0 7 13 19 25 27 33 36 38 44 50 53 59 62 65 73 75 78 83 86 88 94 97 103 109 112 118 124 130 ">Population of City in 10,000s</tspan>
   </text>
   <text font-style="normal" xml:space="preserve" transform="translate(0.737987,177.537) rotate(-90,41.5,0)" font-weight="normal" font-family="FreeSans" font-size="11">
    <tspan y="-2" fill="rgb(38,38,38)" x="0 7 11 17 20 22 25 28 30 36 39 45 51 57 60 66 72 78 ">Profit in $10,000s</tspan>
   </text>
   <polyline stroke-width="0.5" stroke-linejoin="miter" fill="none" stroke="#ff0000" points="80.4932,96.6473 90.4932,106.647" stroke-linecap="square"/>
   <polyline stroke-width="0.5" stroke-linejoin="miter" fill="none" stroke="#ff0000" points="80.4932,106.647 90.4932,96.6473" stroke-linecap="square"/>
   <polyline stroke-width="0.5" stroke-linejoin="miter" fill="none" stroke="#ff0000" points="69.3416,181.232 79.3416,191.232" stroke-linecap="square"/>
   <polyline stroke-width="0.5" stroke-linejoin="miter" fill="none" stroke="#ff0000" points="69.3416,191.232 79.3416,181.232" stroke-linecap="square"/>
   <polyline stroke-width="0.5" stroke-linejoin="miter" fill="none" stroke="#ff0000" points="126.61,135.932 136.61,145.932" stroke-linecap="square"/>
   <polyline stroke-width="0.5" stroke-linejoin="miter" fill="none" stroke="#ff0000" points="126.61,145.932 136.61,135.932" stroke-linecap="square"/>
   <polyline stroke-width="0.5" stroke-linejoin="miter" fill="none" stroke="#ff0000" points="97.594,154.005 107.594,164.005" stroke-linecap="square"/>
   <polyline stroke-width="0.5" stroke-linejoin="miter" fill="none" stroke="#ff0000" points="97.594,164.005 107.594,154.005" stroke-linecap="square"/>
   <polyline stroke-width="0.5" stroke-linejoin="miter" fill="none" stroke="#ff0000" points="75.7006,204.292 85.7006,214.292" stroke-linecap="square"/>
   <polyline stroke-width="0.5" stroke-linejoin="miter" fill="none" stroke="#ff0000" points="75.7006,214.292 85.7006,204.292" stroke-linecap="square"/>
   <polyline stroke-width="0.5" stroke-linejoin="miter" fill="none" stroke="#ff0000" points="124.012,153.685 134.012,163.685" stroke-linecap="square"/>
   <polyline stroke-width="0.5" stroke-linejoin="miter" fill="none" stroke="#ff0000" points="124.012,163.685 134.012,153.685" stroke-linecap="square"/>
   <polyline stroke-width="0.5" stroke-linejoin="miter" fill="none" stroke="#ff0000" points="106.655,229.032 116.655,239.032" stroke-linecap="square"/>
   <polyline stroke-width="0.5" stroke-linejoin="miter" fill="none" stroke="#ff0000" points="106.655,239.032 116.655,229.032" stroke-linecap="square"/>
   <polyline stroke-width="0.5" stroke-linejoin="miter" fill="none" stroke="#ff0000" points="127.75,152.545 137.75,162.545" stroke-linecap="square"/>
   <polyline stroke-width="0.5" stroke-linejoin="miter" fill="none" stroke="#ff0000" points="127.75,162.545 137.75,152.545" stroke-linecap="square"/>
   <polyline stroke-width="0.5" stroke-linejoin="miter" fill="none" stroke="#ff0000" points="87.6947,206.537 97.6947,216.537" stroke-linecap="square"/>
   <polyline stroke-width="0.5" stroke-linejoin="miter" fill="none" stroke="#ff0000" points="87.6947,216.537 97.6947,206.537" stroke-linecap="square"/>
   <polyline stroke-width="0.5" stroke-linejoin="miter" fill="none" stroke="#ff0000" points="60.2828,234.347 70.2829,244.347" stroke-linecap="square"/>
   <polyline stroke-width="0.5" stroke-linejoin="miter" fill="none" stroke="#ff0000" points="60.2828,244.347 70.2829,234.347" stroke-linecap="square"/>
   <polyline stroke-width="0.5" stroke-linejoin="miter" fill="none" stroke="#ff0000" points="72.8456,239.989 82.8456,249.989" stroke-linecap="square"/>
   <polyline stroke-width="0.5" stroke-linejoin="miter" fill="none" stroke="#ff0000" points="72.8456,249.989 82.8456,239.989" stroke-linecap="square"/>
   <polyline stroke-width="0.5" stroke-linejoin="miter" fill="none" stroke="#ff0000" points="234.707,117.509 244.707,127.509" stroke-linecap="square"/>
   <polyline stroke-width="0.5" stroke-linejoin="miter" fill="none" stroke="#ff0000" points="234.707,127.509 244.707,117.509" stroke-linecap="square"/>
   <polyline stroke-width="0.5" stroke-linejoin="miter" fill="none" stroke="#ff0000" points="73.2918,240.959 83.2918,250.959" stroke-linecap="square"/>
   <polyline stroke-width="0.5" stroke-linejoin="miter" fill="none" stroke="#ff0000" points="73.2918,250.959 83.2918,240.959" stroke-linecap="square"/>
   <polyline stroke-width="0.5" stroke-linejoin="miter" fill="none" stroke="#ff0000" points="124.5,200.268 134.5,210.268" stroke-linecap="square"/>
   <polyline stroke-width="0.5" stroke-linejoin="miter" fill="none" stroke="#ff0000" points="124.5,210.268 134.5,200.268" stroke-linecap="square"/>
   <polyline stroke-width="0.5" stroke-linejoin="miter" fill="none" stroke="#ff0000" points="71.5053,265.339 81.5053,275.339" stroke-linecap="square"/>
   <polyline stroke-width="0.5" stroke-linejoin="miter" fill="none" stroke="#ff0000" points="71.5053,275.339 81.5053,265.339" stroke-linecap="square"/>
   <polyline stroke-width="0.5" stroke-linejoin="miter" fill="none" stroke="#ff0000" points="66.502,237.383 76.502,247.383" stroke-linecap="square"/>
   <polyline stroke-width="0.5" stroke-linejoin="miter" fill="none" stroke="#ff0000" points="66.502,247.383 76.502,237.383" stroke-linecap="square"/>
   <polyline stroke-width="0.5" stroke-linejoin="miter" fill="none" stroke="#ff0000" points="85.3816,219.471 95.3816,229.471" stroke-linecap="square"/>
   <polyline stroke-width="0.5" stroke-linejoin="miter" fill="none" stroke="#ff0000" points="85.3816,229.471 95.3816,219.471" stroke-linecap="square"/>
   <polyline stroke-width="0.5" stroke-linejoin="miter" fill="none" stroke="#ff0000" points="61.7285,266.892 71.7285,276.892" stroke-linecap="square"/>
   <polyline stroke-width="0.5" stroke-linejoin="miter" fill="none" stroke="#ff0000" points="61.7285,276.892 71.7285,266.892" stroke-linecap="square"/>
   <polyline stroke-width="0.5" stroke-linejoin="miter" fill="none" stroke="#ff0000" points="86.6109,235.994 96.6109,245.994" stroke-linecap="square"/>
   <polyline stroke-width="0.5" stroke-linejoin="miter" fill="none" stroke="#ff0000" points="86.6109,245.994 96.6109,235.994" stroke-linecap="square"/>
   <polyline stroke-width="0.5" stroke-linejoin="miter" fill="none" stroke="#ff0000" points="98.8884,218.626 108.888,228.626" stroke-linecap="square"/>
   <polyline stroke-width="0.5" stroke-linejoin="miter" fill="none" stroke="#ff0000" points="98.8884,228.626 108.888,218.626" stroke-linecap="square"/>
   <polyline stroke-width="0.5" stroke-linejoin="miter" fill="none" stroke="#ff0000" points="82.0059,241.124 92.0059,251.124" stroke-linecap="square"/>
   <polyline stroke-width="0.5" stroke-linejoin="miter" fill="none" stroke="#ff0000" points="82.0059,251.124 92.0059,241.124" stroke-linecap="square"/>
   <polyline stroke-width="0.5" stroke-linejoin="miter" fill="none" stroke="#ff0000" points="351.622,54.9138 361.622,64.9138" stroke-linecap="square"/>
   <polyline stroke-width="0.5" stroke-linejoin="miter" fill="none" stroke="#ff0000" points="351.622,64.9138 361.622,54.9138" stroke-linecap="square"/>
   <polyline stroke-width="0.5" stroke-linejoin="miter" fill="none" stroke="#ff0000" points="68.6217,229.885 78.6217,239.885" stroke-linecap="square"/>
   <polyline stroke-width="0.5" stroke-linejoin="miter" fill="none" stroke="#ff0000" points="68.6217,239.885 78.6217,229.885" stroke-linecap="square"/>
   <polyline stroke-width="0.5" stroke-linejoin="miter" fill="none" stroke="#ff0000" points="84.6291,220.643 94.6291,230.643" stroke-linecap="square"/>
   <polyline stroke-width="0.5" stroke-linejoin="miter" fill="none" stroke="#ff0000" points="84.6291,230.643 94.6291,220.643" stroke-linecap="square"/>
   <polyline stroke-width="0.5" stroke-linejoin="miter" fill="none" stroke="#ff0000" points="70.0539,241.685 80.0539,251.685" stroke-linecap="square"/>
   <polyline stroke-width="0.5" stroke-linejoin="miter" fill="none" stroke="#ff0000" points="70.0539,251.685 80.0539,241.685" stroke-linecap="square"/>
   <polyline stroke-width="0.5" stroke-linejoin="miter" fill="none" stroke="#ff0000" points="326.252,46.2072 336.252,56.2072" stroke-linecap="square"/>
   <polyline stroke-width="0.5" stroke-linejoin="miter" fill="none" stroke="#ff0000" points="326.252,56.2072 336.252,46.2072" stroke-linecap="square"/>
   <polyline stroke-width="0.5" stroke-linejoin="miter" fill="none" stroke="#ff0000" points="209.125,137.541 219.125,147.541" stroke-linecap="square"/>
   <polyline stroke-width="0.5" stroke-linejoin="miter" fill="none" stroke="#ff0000" points="209.125,147.541 219.125,137.541" stroke-linecap="square"/>
   <polyline stroke-width="0.5" stroke-linejoin="miter" fill="none" stroke="#ff0000" points="173.3,202.059 183.3,212.059" stroke-linecap="square"/>
   <polyline stroke-width="0.5" stroke-linejoin="miter" fill="none" stroke="#ff0000" points="173.3,212.059 183.3,202.059" stroke-linecap="square"/>
   <polyline stroke-width="0.5" stroke-linejoin="miter" fill="none" stroke="#ff0000" points="215.789,125.636 225.789,135.636" stroke-linecap="square"/>
   <polyline stroke-width="0.5" stroke-linejoin="miter" fill="none" stroke="#ff0000" points="215.789,135.636 225.789,125.636" stroke-linecap="square"/>
   <polyline stroke-width="0.5" stroke-linejoin="miter" fill="none" stroke="#ff0000" points="388.635,31.1231 398.635,41.1231" stroke-linecap="square"/>
   <polyline stroke-width="0.5" stroke-linejoin="miter" fill="none" stroke="#ff0000" points="388.635,41.1231 398.635,31.1231" stroke-linecap="square"/>
   <polyline stroke-width="0.5" stroke-linejoin="miter" fill="none" stroke="#ff0000" points="64.0703,284.693 74.0703,294.693" stroke-linecap="square"/>
   <polyline stroke-width="0.5" stroke-linejoin="miter" fill="none" stroke="#ff0000" points="64.0703,294.693 74.0703,284.693" stroke-linecap="square"/>
   <polyline stroke-width="0.5" stroke-linejoin="miter" fill="none" stroke="#ff0000" points="89.6707,212.556 99.6707,222.556" stroke-linecap="square"/>
   <polyline stroke-width="0.5" stroke-linejoin="miter" fill="none" stroke="#ff0000" points="89.6707,222.556 99.6707,212.556" stroke-linecap="square"/>
   <polyline stroke-width="0.5" stroke-linejoin="miter" fill="none" stroke="#ff0000" points="140.581,151.206 150.581,161.206" stroke-linecap="square"/>
   <polyline stroke-width="0.5" stroke-linejoin="miter" fill="none" stroke="#ff0000" points="140.581,161.206 150.581,151.206" stroke-linecap="square"/>
   <polyline stroke-width="0.5" stroke-linejoin="miter" fill="none" stroke="#ff0000" points="76.3133,254.01 86.3133,264.01" stroke-linecap="square"/>
   <polyline stroke-width="0.5" stroke-linejoin="miter" fill="none" stroke="#ff0000" points="76.3133,264.01 86.3133,254.01" stroke-linecap="square"/>
   <polyline stroke-width="0.5" stroke-linejoin="miter" fill="none" stroke="#ff0000" points="120.722,207.098 130.723,217.098" stroke-linecap="square"/>
   <polyline stroke-width="0.5" stroke-linejoin="miter" fill="none" stroke="#ff0000" points="120.722,217.098 130.723,207.098" stroke-linecap="square"/>
   <polyline stroke-width="0.5" stroke-linejoin="miter" fill="none" stroke="#ff0000" points="115.405,226.893 125.405,236.893" stroke-linecap="square"/>
   <polyline stroke-width="0.5" stroke-linejoin="miter" fill="none" stroke="#ff0000" points="115.405,236.893 125.405,226.893" stroke-linecap="square"/>
   <polyline stroke-width="0.5" stroke-linejoin="miter" fill="none" stroke="#ff0000" points="118.517,231.35 128.517,241.35" stroke-linecap="square"/>
   <polyline stroke-width="0.5" stroke-linejoin="miter" fill="none" stroke="#ff0000" points="118.517,241.35 128.517,231.35" stroke-linecap="square"/>
   <polyline stroke-width="0.5" stroke-linejoin="miter" fill="none" stroke="#ff0000" points="70.8466,238.583 80.8466,248.583" stroke-linecap="square"/>
   <polyline stroke-width="0.5" stroke-linejoin="miter" fill="none" stroke="#ff0000" points="70.8466,248.583 80.8466,238.583" stroke-linecap="square"/>
   <polyline stroke-width="0.5" stroke-linejoin="miter" fill="none" stroke="#ff0000" points="209.279,171.368 219.279,181.368" stroke-linecap="square"/>
   <polyline stroke-width="0.5" stroke-linejoin="miter" fill="none" stroke="#ff0000" points="209.279,181.368 219.279,171.368" stroke-linecap="square"/>
   <polyline stroke-width="0.5" stroke-linejoin="miter" fill="none" stroke="#ff0000" points="85.1518,217.546 95.1519,227.546" stroke-linecap="square"/>
   <polyline stroke-width="0.5" stroke-linejoin="miter" fill="none" stroke="#ff0000" points="85.1518,227.546 95.1519,217.546" stroke-linecap="square"/>
   <polyline stroke-width="0.5" stroke-linejoin="miter" fill="none" stroke="#ff0000" points="67.0286,266.934 77.0286,276.934" stroke-linecap="square"/>
   <polyline stroke-width="0.5" stroke-linejoin="miter" fill="none" stroke="#ff0000" points="67.0286,276.934 77.0286,266.934" stroke-linecap="square"/>
   <polyline stroke-width="0.5" stroke-linejoin="miter" fill="none" stroke="#ff0000" points="95.2829,233.398 105.283,243.398" stroke-linecap="square"/>
   <polyline stroke-width="0.5" stroke-linejoin="miter" fill="none" stroke="#ff0000" points="95.2829,243.398 105.283,233.398" stroke-linecap="square"/>
   <polyline stroke-width="0.5" stroke-linejoin="miter" fill="none" stroke="#ff0000" points="187.68,218.665 197.68,228.665" stroke-linecap="square"/>
   <polyline stroke-width="0.5" stroke-linejoin="miter" fill="none" stroke="#ff0000" points="187.68,228.665 197.68,218.665" stroke-linecap="square"/>
   <polyline stroke-width="0.5" stroke-linejoin="miter" fill="none" stroke="#ff0000" points="74.0519,248.102 84.0519,258.102" stroke-linecap="square"/>
   <polyline stroke-width="0.5" stroke-linejoin="miter" fill="none" stroke="#ff0000" points="74.0519,258.102 84.0519,248.102" stroke-linecap="square"/>
   <polyline stroke-width="0.5" stroke-linejoin="miter" fill="none" stroke="#ff0000" points="113.324,205.206 123.324,215.206" stroke-linecap="square"/>
   <polyline stroke-width="0.5" stroke-linejoin="miter" fill="none" stroke="#ff0000" points="113.324,215.206 123.324,205.206" stroke-linecap="square"/>
   <polyline stroke-width="0.5" stroke-linejoin="miter" fill="none" stroke="#ff0000" points="99.3154,262.039 109.315,272.039" stroke-linecap="square"/>
   <polyline stroke-width="0.5" stroke-linejoin="miter" fill="none" stroke="#ff0000" points="99.3154,272.039 109.315,262.039" stroke-linecap="square"/>
   <polyline stroke-width="0.5" stroke-linejoin="miter" fill="none" stroke="#ff0000" points="60.5815,221.181 70.5816,231.181" stroke-linecap="square"/>
   <polyline stroke-width="0.5" stroke-linejoin="miter" fill="none" stroke="#ff0000" points="60.5815,231.181 70.5816,221.181" stroke-linecap="square"/>
   <polyline stroke-width="0.5" stroke-linejoin="miter" fill="none" stroke="#ff0000" points="74.5823,254.065 84.5823,264.065" stroke-linecap="square"/>
   <polyline stroke-width="0.5" stroke-linejoin="miter" fill="none" stroke="#ff0000" points="74.5823,264.065 84.5823,254.065" stroke-linecap="square"/>
   <polyline stroke-width="0.5" stroke-linejoin="miter" fill="none" stroke="#ff0000" points="187.527,192.487 197.527,202.487" stroke-linecap="square"/>
   <polyline stroke-width="0.5" stroke-linejoin="miter" fill="none" stroke="#ff0000" points="187.527,202.487 197.527,192.487" stroke-linecap="square"/>
   <polyline stroke-width="0.5" stroke-linejoin="miter" fill="none" stroke="#ff0000" points="69.6078,262.323 79.6078,272.323" stroke-linecap="square"/>
   <polyline stroke-width="0.5" stroke-linejoin="miter" fill="none" stroke="#ff0000" points="69.6078,272.323 79.6078,262.323" stroke-linecap="square"/>
   <polyline stroke-width="0.5" stroke-linejoin="miter" fill="none" stroke="#ff0000" points="107.876,205.021 117.876,215.021" stroke-linecap="square"/>
   <polyline stroke-width="0.5" stroke-linejoin="miter" fill="none" stroke="#ff0000" points="107.876,215.021 117.876,205.021" stroke-linecap="square"/>
   <polyline stroke-width="0.5" stroke-linejoin="miter" fill="none" stroke="#ff0000" points="65.1291,254.109 75.1291,264.109" stroke-linecap="square"/>
   <polyline stroke-width="0.5" stroke-linejoin="miter" fill="none" stroke="#ff0000" points="65.1291,264.109 75.1291,254.109" stroke-linecap="square"/>
   <polyline stroke-width="0.5" stroke-linejoin="miter" fill="none" stroke="#ff0000" points="105.649,229.63 115.649,239.63" stroke-linecap="square"/>
   <polyline stroke-width="0.5" stroke-linejoin="miter" fill="none" stroke="#ff0000" points="105.649,239.63 115.649,229.63" stroke-linecap="square"/>
   <polyline stroke-width="0.5" stroke-linejoin="miter" fill="none" stroke="#ff0000" points="109.081,222.537 119.081,232.537" stroke-linecap="square"/>
   <polyline stroke-width="0.5" stroke-linejoin="miter" fill="none" stroke="#ff0000" points="109.081,232.537 119.081,222.537" stroke-linecap="square"/>
   <polyline stroke-width="0.5" stroke-linejoin="miter" fill="none" stroke="#ff0000" points="84.7574,258.271 94.7574,268.271" stroke-linecap="square"/>
   <polyline stroke-width="0.5" stroke-linejoin="miter" fill="none" stroke="#ff0000" points="84.7574,268.271 94.7574,258.271" stroke-linecap="square"/>
   <polyline stroke-width="0.5" stroke-linejoin="miter" fill="none" stroke="#ff0000" points="85.2572,286.703 95.2572,296.703" stroke-linecap="square"/>
   <polyline stroke-width="0.5" stroke-linejoin="miter" fill="none" stroke="#ff0000" points="85.2572,296.703 95.2572,286.703" stroke-linecap="square"/>
   <polyline stroke-width="0.5" stroke-linejoin="miter" fill="none" stroke="#ff0000" points="83.6354,247.752 93.6354,257.752" stroke-linecap="square"/>
   <polyline stroke-width="0.5" stroke-linejoin="miter" fill="none" stroke="#ff0000" points="83.6354,257.752 93.6354,247.752" stroke-linecap="square"/>
   <polyline stroke-width="0.5" stroke-linejoin="miter" fill="none" stroke="#ff0000" points="71.4862,226.474 81.4862,236.474" stroke-linecap="square"/>
   <polyline stroke-width="0.5" stroke-linejoin="miter" fill="none" stroke="#ff0000" points="71.4862,236.474 81.4862,226.474" stroke-linecap="square"/>
   <polyline stroke-width="0.5" stroke-linejoin="miter" fill="none" stroke="#ff0000" points="141.768,232.89 151.768,242.89" stroke-linecap="square"/>
   <polyline stroke-width="0.5" stroke-linejoin="miter" fill="none" stroke="#ff0000" points="141.768,242.89 151.768,232.89" stroke-linecap="square"/>
   <polyline stroke-width="0.5" stroke-linejoin="miter" fill="none" stroke="#ff0000" points="144.513,218.378 154.513,228.378" stroke-linecap="square"/>
   <polyline stroke-width="0.5" stroke-linejoin="miter" fill="none" stroke="#ff0000" points="144.513,228.378 154.513,218.378" stroke-linecap="square"/>
   <polyline stroke-width="0.5" stroke-linejoin="miter" fill="none" stroke="#ff0000" points="132.485,220.824 142.485,230.824" stroke-linecap="square"/>
   <polyline stroke-width="0.5" stroke-linejoin="miter" fill="none" stroke="#ff0000" points="132.485,230.824 142.485,220.824" stroke-linecap="square"/>
   <polyline stroke-width="0.5" stroke-linejoin="miter" fill="none" stroke="#ff0000" points="62.6706,279.923 72.6706,289.923" stroke-linecap="square"/>
   <polyline stroke-width="0.5" stroke-linejoin="miter" fill="none" stroke="#ff0000" points="62.6706,289.923 72.6706,279.923" stroke-linecap="square"/>
   <polyline stroke-width="0.5" stroke-linejoin="miter" fill="none" stroke="#ff0000" points="370.943,93.2786 380.943,103.279" stroke-linecap="square"/>
   <polyline stroke-width="0.5" stroke-linejoin="miter" fill="none" stroke="#ff0000" points="370.943,103.279 380.943,93.2786" stroke-linecap="square"/>
   <polyline stroke-width="0.5" stroke-linejoin="miter" fill="none" stroke="#ff0000" points="248.953,152.005 258.953,162.005" stroke-linecap="square"/>
   <polyline stroke-width="0.5" stroke-linejoin="miter" fill="none" stroke="#ff0000" points="248.953,162.005 258.953,152.005" stroke-linecap="square"/>
   <polyline stroke-width="0.5" stroke-linejoin="miter" fill="none" stroke="#ff0000" points="326.52,102.025 336.52,112.025" stroke-linecap="square"/>
   <polyline stroke-width="0.5" stroke-linejoin="miter" fill="none" stroke="#ff0000" points="326.52,112.025 336.52,102.025" stroke-linecap="square"/>
   <polyline stroke-width="0.5" stroke-linejoin="miter" fill="none" stroke="#ff0000" points="101.711,223.665 111.711,233.665" stroke-linecap="square"/>
   <polyline stroke-width="0.5" stroke-linejoin="miter" fill="none" stroke="#ff0000" points="101.711,233.665 111.711,223.665" stroke-linecap="square"/>
   <polyline stroke-width="0.5" stroke-linejoin="miter" fill="none" stroke="#ff0000" points="122.331,215.079 132.331,225.079" stroke-linecap="square"/>
   <polyline stroke-width="0.5" stroke-linejoin="miter" fill="none" stroke="#ff0000" points="122.331,225.079 132.331,215.079" stroke-linecap="square"/>
   <polyline stroke-width="0.5" stroke-linejoin="miter" fill="none" stroke="#ff0000" points="159.495,194.775 169.495,204.775" stroke-linecap="square"/>
   <polyline stroke-width="0.5" stroke-linejoin="miter" fill="none" stroke="#ff0000" points="159.495,204.775 169.495,194.775" stroke-linecap="square"/>
   <polyline stroke-width="0.5" stroke-linejoin="miter" fill="none" stroke="#ff0000" points="68.7997,262.329 78.7997,272.329" stroke-linecap="square"/>
   <polyline stroke-width="0.5" stroke-linejoin="miter" fill="none" stroke="#ff0000" points="68.7997,272.329 78.7997,262.329" stroke-linecap="square"/>
   <polyline stroke-width="0.5" stroke-linejoin="miter" fill="none" stroke="#ff0000" points="352.982,62.6607 362.982,72.6607" stroke-linecap="square"/>
   <polyline stroke-width="0.5" stroke-linejoin="miter" fill="none" stroke="#ff0000" points="352.982,72.6607 362.982,62.6607" stroke-linecap="square"/>
   <polyline stroke-width="0.5" stroke-linejoin="miter" fill="none" stroke="#ff0000" points="157.58,205.725 167.58,215.725" stroke-linecap="square"/>
   <polyline stroke-width="0.5" stroke-linejoin="miter" fill="none" stroke="#ff0000" points="157.58,215.725 167.58,205.725" stroke-linecap="square"/>
   <polyline stroke-width="0.5" stroke-linejoin="miter" fill="none" stroke="#ff0000" points="103.938,232.255 113.938,242.255" stroke-linecap="square"/>
   <polyline stroke-width="0.5" stroke-linejoin="miter" fill="none" stroke="#ff0000" points="103.938,242.255 113.938,232.255" stroke-linecap="square"/>
   <polyline stroke-width="0.5" stroke-linejoin="miter" fill="none" stroke="#ff0000" points="78.5038,259.719 88.5038,269.719" stroke-linecap="square"/>
   <polyline stroke-width="0.5" stroke-linejoin="miter" fill="none" stroke="#ff0000" points="78.5038,269.719 88.5038,259.719" stroke-linecap="square"/>
   <polyline stroke-width="0.5" stroke-linejoin="miter" fill="none" stroke="#ff0000" points="101.858,239.1 111.858,249.1" stroke-linecap="square"/>
   <polyline stroke-width="0.5" stroke-linejoin="miter" fill="none" stroke="#ff0000" points="101.858,249.1 111.858,239.1" stroke-linecap="square"/>
   <polyline stroke-width="0.5" stroke-linejoin="miter" fill="none" stroke="#ff0000" points="59.7525,299.294 69.7525,309.294" stroke-linecap="square"/>
   <polyline stroke-width="0.5" stroke-linejoin="miter" fill="none" stroke="#ff0000" points="59.7525,309.294 69.7525,299.294" stroke-linecap="square"/>
   <polyline stroke-width="0.5" stroke-linejoin="miter" fill="none" stroke="#ff0000" points="88.8761,269.531 98.8761,279.531" stroke-linecap="square"/>
   <polyline stroke-width="0.5" stroke-linejoin="miter" fill="none" stroke="#ff0000" points="88.8761,279.531 98.8761,269.531" stroke-linecap="square"/>
   <polyline stroke-width="0.5" stroke-linejoin="miter" fill="none" stroke="#ff0000" points="107.846,233.668 117.846,243.668" stroke-linecap="square"/>
   <polyline stroke-width="0.5" stroke-linejoin="miter" fill="none" stroke="#ff0000" points="107.846,243.668 117.846,233.668" stroke-linecap="square"/>
   <polyline stroke-width="0.5" stroke-linejoin="miter" fill="none" stroke="#ff0000" points="59.9363,215.506 69.9363,225.506" stroke-linecap="square"/>
   <polyline stroke-width="0.5" stroke-linejoin="miter" fill="none" stroke="#ff0000" points="59.9363,225.506 69.9363,215.506" stroke-linecap="square"/>
   <polyline stroke-width="0.5" stroke-linejoin="miter" fill="none" stroke="#ff0000" points="160.222,204.999 170.222,214.999" stroke-linecap="square"/>
   <polyline stroke-width="0.5" stroke-linejoin="miter" fill="none" stroke="#ff0000" points="160.222,214.999 170.222,204.999" stroke-linecap="square"/>
   <polyline stroke-width="0.5" stroke-linejoin="miter" fill="none" stroke="#ff0000" points="61.2996,251.93 71.2996,261.93" stroke-linecap="square"/>
   <polyline stroke-width="0.5" stroke-linejoin="miter" fill="none" stroke="#ff0000" points="61.2996,261.93 71.2996,251.93" stroke-linecap="square"/>
   <polyline stroke-width="0.5" stroke-linejoin="miter" fill="none" stroke="#ff0000" points="73.1999,267.705 83.1999,277.705" stroke-linecap="square"/>
   <polyline stroke-width="0.5" stroke-linejoin="miter" fill="none" stroke="#ff0000" points="73.1999,277.705 83.1999,267.705" stroke-linecap="square"/>
   <polyline stroke-width="0.5" stroke-linejoin="miter" fill="none" stroke="#ff0000" points="62.8448,270.457 72.8448,280.457" stroke-linecap="square"/>
   <polyline stroke-width="0.5" stroke-linejoin="miter" fill="none" stroke="#ff0000" points="62.8448,280.457 72.8448,270.457" stroke-linecap="square"/>
   <polyline stroke-width="0.5" stroke-linejoin="miter" fill="none" stroke="#ff0000" points="85.1959,265.715 95.1959,275.715" stroke-linecap="square"/>
   <polyline stroke-width="0.5" stroke-linejoin="miter" fill="none" stroke="#ff0000" points="85.1959,275.715 95.1959,265.715" stroke-linecap="square"/>
   <polyline stroke-width="0.5" stroke-linejoin="miter" fill="none" stroke="#ff0000" points="150.547,197.093 160.547,207.093" stroke-linecap="square"/>
   <polyline stroke-width="0.5" stroke-linejoin="miter" fill="none" stroke="#ff0000" points="150.547,207.093 160.547,197.093" stroke-linecap="square"/>
   <polyline stroke-width="0.5" stroke-linejoin="miter" fill="none" stroke="#ff0000" points="88.2634,219.083 98.2634,229.083" stroke-linecap="square"/>
   <polyline stroke-width="0.5" stroke-linejoin="miter" fill="none" stroke="#ff0000" points="88.2634,229.083 98.2634,219.083" stroke-linecap="square"/>
   <polyline stroke-width="0.5" stroke-linejoin="miter" fill="none" stroke="#ff0000" points="126.584,230.1 136.584,240.1" stroke-linecap="square"/>
   <polyline stroke-width="0.5" stroke-linejoin="miter" fill="none" stroke="#ff0000" points="126.584,240.1 136.584,230.1" stroke-linecap="square"/>
   <polyline stroke-width="0.5" stroke-linejoin="miter" fill="none" stroke="#ff0000" points="139.279,204.544 149.279,214.544" stroke-linecap="square"/>
   <polyline stroke-width="0.5" stroke-linejoin="miter" fill="none" stroke="#ff0000" points="139.279,214.544 149.279,204.544" stroke-linecap="square"/>
   <polyline stroke-width="0.5" stroke-linejoin="miter" fill="none" stroke="#ff0000" points="78.4234,263.232 88.4234,273.232" stroke-linecap="square"/>
   <polyline stroke-width="0.5" stroke-linejoin="miter" fill="none" stroke="#ff0000" points="78.4234,273.232 88.4234,263.232" stroke-linecap="square"/>
   <polyline stroke-width="0.5" stroke-linejoin="miter" fill="none" stroke="#ff0000" points="69.2018,270.979 79.2018,280.979" stroke-linecap="square"/>
   <polyline stroke-width="0.5" stroke-linejoin="miter" fill="none" stroke="#ff0000" points="69.2018,280.979 79.2018,270.979" stroke-linecap="square"/>
   <polyline stroke-width="0.5" stroke-linejoin="miter" fill="none" stroke="#ff0000" points="60.3748,244.295 70.3748,254.295" stroke-linecap="square"/>
   <polyline stroke-width="0.5" stroke-linejoin="miter" fill="none" stroke="#ff0000" points="60.3748,254.295 70.3748,244.295" stroke-linecap="square"/>
   <polyline stroke-width="0.5" stroke-linejoin="miter" fill="none" stroke="#ff0000" points="72.7882,254.054 82.7882,264.054" stroke-linecap="square"/>
   <polyline stroke-width="0.5" stroke-linejoin="miter" fill="none" stroke="#ff0000" points="72.7882,264.054 82.7882,254.054" stroke-linecap="square"/>
   <polyline stroke-width="0.5" stroke-linejoin="miter" fill="none" stroke="#ff0000" points="109.722,229.556 119.722,239.556" stroke-linecap="square"/>
   <polyline stroke-width="0.5" stroke-linejoin="miter" fill="none" stroke="#ff0000" points="109.722,239.556 119.722,229.556" stroke-linecap="square"/>
   <polyline stroke-width="0.5" stroke-linejoin="miter" fill="none" stroke="#ff0000" points="75.9093,200.497 85.9093,210.497" stroke-linecap="square"/>
   <polyline stroke-width="0.5" stroke-linejoin="miter" fill="none" stroke="#ff0000" points="75.9093,210.497 85.9093,200.497" stroke-linecap="square"/>
   <polyline stroke-width="0.5" stroke-linejoin="miter" fill="none" stroke="#ff0000" points="65.0851,252.637 75.0851,262.637" stroke-linecap="square"/>
   <polyline stroke-width="0.5" stroke-linejoin="miter" fill="none" stroke="#ff0000" points="65.0851,262.637 75.0851,252.637" stroke-linecap="square"/>
   <polyline stroke-width="0.5" stroke-linejoin="miter" fill="none" stroke="#ff0000" points="122.298,271.053 132.298,281.053" stroke-linecap="square"/>
   <polyline stroke-width="0.5" stroke-linejoin="miter" fill="none" stroke="#ff0000" points="122.298,281.053 132.298,271.053" stroke-linecap="square"/>
   <polyline stroke-width="0.5" stroke-linejoin="miter" fill="none" stroke="#ff0000" points="219.963,181.983 229.963,191.983" stroke-linecap="square"/>
   <polyline stroke-width="0.5" stroke-linejoin="miter" fill="none" stroke="#ff0000" points="219.963,191.983 229.963,181.983" stroke-linecap="square"/>
   <polyline stroke-width="0.5" stroke-linejoin="miter" fill="none" stroke="#ff0000" points="67.603,266.33 77.603,276.33" stroke-linecap="square"/>
   <polyline stroke-width="0.5" stroke-linejoin="miter" fill="none" stroke="#ff0000" points="67.603,276.33 77.603,266.33" stroke-linecap="square"/>
   <polyline stroke-width="0.5" stroke-linejoin="round" fill="none" stroke="#0071bc" points="85.4932,242.549 74.3416,249.339 131.61,214.468 102.594,232.136 80.7006,245.467 129.012,216.05 111.655,226.619 132.75,213.774 92.6947,238.164 65.2828,254.855 77.8456,247.205 239.707,148.648 78.2918,246.934 129.5,215.753 76.5053,248.022 71.502,251.068 90.3816,239.572 66.7285,253.975 91.6109,238.824 103.888,231.348 87.0059,241.628 356.622,77.4581 73.6217,249.777 89.6291,240.03 75.0539,248.905 331.252,92.9063 214.125,164.225 178.3,186.039 220.789,160.167 393.635,54.9212 69.0703,252.549 94.6707,236.961 145.581,205.962 81.3133,245.094 125.723,218.053 120.405,221.291 123.517,219.396 75.8466,248.423 214.279,164.131 90.1519,239.712 72.0286,250.747 100.283,233.543 192.68,177.283 79.052,246.471 118.324,222.558 104.315,231.088 65.5816,254.673 79.5824,246.148 192.527,177.376 74.6078,249.177 112.876,225.875 70.1291,251.904 110.649,227.231 114.081,225.142 89.7574,239.952 90.2572,239.648 88.6354,240.636 76.4862,248.033 146.768,205.239 149.514,203.567 137.485,210.891 67.6706,253.401 375.943,65.6941 253.953,139.974 331.52,92.7431 106.711,229.629 127.331,217.074 164.495,194.445 73.7997,249.669 357.982,76.6303 162.58,195.611 108.938,228.273 83.5038,243.76 106.858,229.54 64.7525,255.178 93.8761,237.444 112.846,225.894 64.9363,255.066 165.222,194.002 66.2996,254.236 78.1999,246.99 67.8448,253.295 90.1959,239.685 155.547,199.893 93.2634,237.818 131.584,214.484 144.279,206.754 83.4234,243.809 74.2018,249.424 65.3748,254.799 77.7882,247.24 114.722,224.751 80.9093,245.34 70.0851,251.931 127.298,217.094 224.963,157.626 72.603,250.398" stroke-linecap="butt"/>
  </g>
  <clipPath id="cp00494367">
   <polygon points="0,367 494,367 494,0 0,0"/>
  </clipPath>
  <g clip-path="url(#cp00494367)">
   <polygon fill="#ffffff" shape-rendering="crispEdges" points="345.192,64.5959 440.391,64.5959 440.391,34.3963 345.192,34.3963"/>
   <polyline stroke-width="0.5" stroke-linejoin="miter" fill="none" stroke="#262626" points="345.192,64.5959 440.391,64.5959" stroke-linecap="square" stroke-dasharray="16,0"/>
   <polyline stroke-width="0.5" stroke-linejoin="miter" fill="none" stroke="#262626" points="345.192,34.3963 440.391,34.3963" stroke-linecap="square" stroke-dasharray="16,0"/>
   <polyline stroke-width="0.5" stroke-linejoin="miter" fill="none" stroke="#262626" points="345.192,64.5959 345.192,34.3963" stroke-linecap="square" stroke-dasharray="16,0"/>
   <polyline stroke-width="0.5" stroke-linejoin="miter" fill="none" stroke="#262626" points="440.391,64.5959 440.391,34.3963" stroke-linecap="square" stroke-dasharray="16,0"/>
   <polyline stroke-width="0.5" stroke-linejoin="miter" fill="none" stroke="#ff0000" points="353.092,38.7961 361.092,46.7961" stroke-linecap="square"/>
   <polyline stroke-width="0.5" stroke-linejoin="miter" fill="none" stroke="#ff0000" points="353.092,46.7961 361.092,38.7961" stroke-linecap="square"/>
   <text font-style="normal" xml:space="preserve" transform="translate(368.991,47.7962) rotate(-0,-0,-5)" font-weight="normal" font-family="FreeSans" font-size="9">
    <tspan y="-2" fill="rgb(0,0,0)" x="0 6 9 14 16 21 23 28 33 35 40 45 48 ">Training data</tspan>
   </text>
   <polyline stroke-width="0.5" stroke-linejoin="round" fill="none" stroke="#0071bc" points="348.592,56.196 365.591,56.196" stroke-linecap="butt"/>
   <text font-style="normal" xml:space="preserve" transform="translate(368.991,61.196) rotate(-0,-0,-5)" font-weight="normal" font-family="FreeSans" font-size="9">
    <tspan y="-2" fill="rgb(0,0,0)" x="0 5 7 12 17 22 25 27 30 35 40 43 48 52 56 58 63 ">Linear regression</tspan>
   </text>
  </g>
 </g>
</svg>
