<?xml version='1.0' encoding='UTF-8' standalone='no'?>
<svg height="367pt" width="494pt" viewBox="0 0 494 367" xmlns:xlink="http://www.w3.org/1999/xlink" xmlns="http://www.w3.org/2000/svg">
 <title>gl2ps_renderer figure</title>
 <desc>
Creator: GL2PS 1.4.2, (C) 1999-2020 C. Geuzaine
For: Octave
CreationDate: Thu Sep 23 12:54:48 2021
</desc>
 <defs/>
 <polygon points="0,0 494,0 494,367 0,367" fill="#ffffff"/>
 <g>
  <polygon shape-rendering="crispEdges" points="0,367 494,367 494,0 0,0" fill="#ffffff"/>
  <clipPath id="cp00494367">
   <polygon points="0,367 494,367 494,0 0,0"/>
  </clipPath>
  <g clip-path="url(#cp00494367)">
   <polygon shape-rendering="crispEdges" points="106.133,326.693 405.296,326.693 405.296,27.5303 106.133,27.5303" fill="#ffffff"/>
   <polyline stroke-linejoin="miter" stroke="#262626" stroke-width="0.5" points="106.133,326.693 106.133,322.861" fill="none" stroke-linecap="butt"/>
   <polyline stroke-linejoin="miter" stroke="#262626" stroke-width="0.5" points="106.133,27.5303 106.133,31.3619" fill="none" stroke-linecap="butt"/>
   <polyline stroke-linejoin="miter" stroke="#262626" stroke-width="0.5" points="148.87,326.693 148.87,322.861" fill="none" stroke-linecap="butt"/>
   <polyline stroke-linejoin="miter" stroke="#262626" stroke-width="0.5" points="148.87,27.5303 148.87,31.3619" fill="none" stroke-linecap="butt"/>
   <polyline stroke-linejoin="miter" stroke="#262626" stroke-width="0.5" points="191.608,326.693 191.608,322.861" fill="none" stroke-linecap="butt"/>
   <polyline stroke-linejoin="miter" stroke="#262626" stroke-width="0.5" points="191.608,27.5303 191.608,31.3619" fill="none" stroke-linecap="butt"/>
   <polyline stroke-linejoin="miter" stroke="#262626" stroke-width="0.5" points="234.345,326.693 234.345,322.861" fill="none" stroke-linecap="butt"/>
   <polyline stroke-linejoin="miter" stroke="#262626" stroke-width="0.5" points="234.345,27.5303 234.345,31.3619" fill="none" stroke-linecap="butt"/>
   <polyline stroke-linejoin="miter" stroke="#262626" stroke-width="0.5" points="277.083,326.693 277.083,322.861" fill="none" stroke-linecap="butt"/>
   <polyline stroke-linejoin="miter" stroke="#262626" stroke-width="0.5" points="277.083,27.5303 277.083,31.3619" fill="none" stroke-linecap="butt"/>
   <polyline stroke-linejoin="miter" stroke="#262626" stroke-width="0.5" points="319.82,326.693 319.82,322.861" fill="none" stroke-linecap="butt"/>
   <polyline stroke-linejoin="miter" stroke="#262626" stroke-width="0.5" points="319.82,27.5303 319.82,31.3619" fill="none" stroke-linecap="butt"/>
   <polyline stroke-linejoin="miter" stroke="#262626" stroke-width="0.5" points="362.558,326.693 362.558,322.861" fill="none" stroke-linecap="butt"/>
   <polyline stroke-linejoin="miter" stroke="#262626" stroke-width="0.5" points="362.558,27.5303 362.558,31.3619" fill="none" stroke-linecap="butt"/>
   <polyline stroke-linejoin="miter" stroke="#262626" stroke-width="0.5" points="405.296,326.693 405.296,322.861" fill="none" stroke-linecap="butt"/>
   <polyline stroke-linejoin="miter" stroke="#262626" stroke-width="0.5" points="405.296,27.5303 405.296,31.3619" fill="none" stroke-linecap="butt"/>
   <text font-weight="normal" transform="translate(101.633,342.197) rotate(-0,4.5,-8)" font-family="FreeSans" xml:space="preserve" font-style="normal" font-size="10">
    <tspan y="-0" x="0 3 " fill="rgb(38,38,38)">-4</tspan>
   </text>
   <text font-weight="normal" transform="translate(144.37,342.197) rotate(-0,4.5,-8)" font-family="FreeSans" xml:space="preserve" font-style="normal" font-size="10">
    <tspan y="-0" x="0 3 " fill="rgb(38,38,38)">-3</tspan>
   </text>
   <text font-weight="normal" transform="translate(187.108,342.197) rotate(-0,4.5,-8)" font-family="FreeSans" xml:space="preserve" font-style="normal" font-size="10">
    <tspan y="-0" x="0 3 " fill="rgb(38,38,38)">-2</tspan>
   </text>
   <text font-weight="normal" transform="translate(229.845,342.197) rotate(-0,4.5,-8)" font-family="FreeSans" xml:space="preserve" font-style="normal" font-size="10">
    <tspan y="-0" x="0 3 " fill="rgb(38,38,38)">-1</tspan>
   </text>
   <text font-weight="normal" transform="translate(274.083,342.197) rotate(-0,3,-8)" font-family="FreeSans" xml:space="preserve" font-style="normal" font-size="10">
    <tspan y="-0" x="0 " fill="rgb(38,38,38)">0</tspan>
   </text>
   <text font-weight="normal" transform="translate(316.82,342.197) rotate(-0,3,-8)" font-family="FreeSans" xml:space="preserve" font-style="normal" font-size="10">
    <tspan y="-0" x="0 " fill="rgb(38,38,38)">1</tspan>
   </text>
   <text font-weight="normal" transform="translate(359.558,342.197) rotate(-0,3,-8)" font-family="FreeSans" xml:space="preserve" font-style="normal" font-size="10">
    <tspan y="-0" x="0 " fill="rgb(38,38,38)">2</tspan>
   </text>
   <text font-weight="normal" transform="translate(402.296,342.197) rotate(-0,3,-8)" font-family="FreeSans" xml:space="preserve" font-style="normal" font-size="10">
    <tspan y="-0" x="0 " fill="rgb(38,38,38)">3</tspan>
   </text>
   <polyline stroke-linejoin="miter" stroke="#262626" stroke-width="0.5" points="106.133,326.693 109.964,326.693" fill="none" stroke-linecap="butt"/>
   <polyline stroke-linejoin="miter" stroke="#262626" stroke-width="0.5" points="405.296,326.693 401.464,326.693" fill="none" stroke-linecap="butt"/>
   <polyline stroke-linejoin="miter" stroke="#262626" stroke-width="0.5" points="106.133,283.955 109.964,283.955" fill="none" stroke-linecap="butt"/>
   <polyline stroke-linejoin="miter" stroke="#262626" stroke-width="0.5" points="405.296,283.955 401.464,283.955" fill="none" stroke-linecap="butt"/>
   <polyline stroke-linejoin="miter" stroke="#262626" stroke-width="0.5" points="106.133,241.218 109.964,241.218" fill="none" stroke-linecap="butt"/>
   <polyline stroke-linejoin="miter" stroke="#262626" stroke-width="0.5" points="405.296,241.218 401.464,241.218" fill="none" stroke-linecap="butt"/>
   <polyline stroke-linejoin="miter" stroke="#262626" stroke-width="0.5" points="106.133,198.48 109.964,198.48" fill="none" stroke-linecap="butt"/>
   <polyline stroke-linejoin="miter" stroke="#262626" stroke-width="0.5" points="405.296,198.48 401.464,198.48" fill="none" stroke-linecap="butt"/>
   <polyline stroke-linejoin="miter" stroke="#262626" stroke-width="0.5" points="106.133,155.743 109.964,155.743" fill="none" stroke-linecap="butt"/>
   <polyline stroke-linejoin="miter" stroke="#262626" stroke-width="0.5" points="405.296,155.743 401.464,155.743" fill="none" stroke-linecap="butt"/>
   <polyline stroke-linejoin="miter" stroke="#262626" stroke-width="0.5" points="106.133,113.005 109.964,113.005" fill="none" stroke-linecap="butt"/>
   <polyline stroke-linejoin="miter" stroke="#262626" stroke-width="0.5" points="405.296,113.005 401.464,113.005" fill="none" stroke-linecap="butt"/>
   <polyline stroke-linejoin="miter" stroke="#262626" stroke-width="0.5" points="106.133,70.2678 109.964,70.2678" fill="none" stroke-linecap="butt"/>
   <polyline stroke-linejoin="miter" stroke="#262626" stroke-width="0.5" points="405.296,70.2678 401.464,70.2678" fill="none" stroke-linecap="butt"/>
   <polyline stroke-linejoin="miter" stroke="#262626" stroke-width="0.5" points="106.133,27.5303 109.964,27.5303" fill="none" stroke-linecap="butt"/>
   <polyline stroke-linejoin="miter" stroke="#262626" stroke-width="0.5" points="405.296,27.5303 401.464,27.5303" fill="none" stroke-linecap="butt"/>
   <text font-weight="normal" transform="translate(92.1301,330.693) rotate(-0,9,-4)" font-family="FreeSans" xml:space="preserve" font-style="normal" font-size="10">
    <tspan y="-0" x="0 3 " fill="rgb(38,38,38)">-4</tspan>
   </text>
   <text font-weight="normal" transform="translate(92.1301,287.955) rotate(-0,9,-4)" font-family="FreeSans" xml:space="preserve" font-style="normal" font-size="10">
    <tspan y="-0" x="0 3 " fill="rgb(38,38,38)">-3</tspan>
   </text>
   <text font-weight="normal" transform="translate(92.1301,245.218) rotate(-0,9,-4)" font-family="FreeSans" xml:space="preserve" font-style="normal" font-size="10">
    <tspan y="-0" x="0 3 " fill="rgb(38,38,38)">-2</tspan>
   </text>
   <text font-weight="normal" transform="translate(92.1301,202.48) rotate(-0,9,-4)" font-family="FreeSans" xml:space="preserve" font-style="normal" font-size="10">
    <tspan y="-0" x="0 3 " fill="rgb(38,38,38)">-1</tspan>
   </text>
   <text font-weight="normal" transform="translate(95.1301,159.743) rotate(-0,6,-4)" font-family="FreeSans" xml:space="preserve" font-style="normal" font-size="10">
    <tspan y="-0" x="0 " fill="rgb(38,38,38)">0</tspan>
   </text>
   <text font-weight="normal" transform="translate(95.1301,117.005) rotate(-0,6,-4)" font-family="FreeSans" xml:space="preserve" font-style="normal" font-size="10">
    <tspan y="-0" x="0 " fill="rgb(38,38,38)">1</tspan>
   </text>
   <text font-weight="normal" transform="translate(95.1301,74.2678) rotate(-0,6,-4)" font-family="FreeSans" xml:space="preserve" font-style="normal" font-size="10">
    <tspan y="-0" x="0 " fill="rgb(38,38,38)">2</tspan>
   </text>
   <text font-weight="normal" transform="translate(95.1301,31.5303) rotate(-0,6,-4)" font-family="FreeSans" xml:space="preserve" font-style="normal" font-size="10">
    <tspan y="-0" x="0 " fill="rgb(38,38,38)">3</tspan>
   </text>
   <polyline stroke-linejoin="miter" stroke="#262626" stroke-dasharray="16,0" stroke-width="0.5" points="106.133,326.693 405.296,326.693" fill="none" stroke-linecap="square"/>
   <polyline stroke-linejoin="miter" stroke="#262626" stroke-dasharray="16,0" stroke-width="0.5" points="106.133,27.5303 405.296,27.5303" fill="none" stroke-linecap="square"/>
   <polyline stroke-linejoin="miter" stroke="#262626" stroke-dasharray="16,0" stroke-width="0.5" points="106.133,326.693 106.133,27.5303" fill="none" stroke-linecap="square"/>
   <polyline stroke-linejoin="miter" stroke="#262626" stroke-dasharray="16,0" stroke-width="0.5" points="405.296,326.693 405.296,27.5303" fill="none" stroke-linecap="square"/>
   <polyline stroke-linejoin="round" stroke="#0000ff" stroke-width="0.5" points="257.943,223.131 257.37,224.894 255.87,225.984 254.016,225.984 252.516,224.894 251.943,223.131 252.516,221.367 254.016,220.278 255.87,220.278 257.37,221.367 257.943,223.131" fill="none" stroke-linecap="round"/>
   <polyline stroke-linejoin="round" stroke="#0000ff" stroke-width="0.5" points="299.706,120.19 299.133,121.953 297.633,123.043 295.779,123.043 294.279,121.953 293.706,120.19 294.279,118.426 295.779,117.336 297.633,117.336 299.133,118.426 299.706,120.19" fill="none" stroke-linecap="round"/>
   <polyline stroke-linejoin="round" stroke="#0000ff" stroke-width="0.5" points="231.497,180.415 230.924,182.179 229.424,183.268 227.57,183.268 226.07,182.179 225.497,180.415 226.07,178.652 227.57,177.562 229.424,177.562 230.924,178.652 231.497,180.415" fill="none" stroke-linecap="round"/>
   <polyline stroke-linejoin="round" stroke="#0000ff" stroke-width="0.5" points="235.488,209.504 234.915,211.268 233.415,212.358 231.561,212.358 230.061,211.268 229.488,209.504 230.061,207.741 231.561,206.651 233.415,206.651 234.915,207.741 235.488,209.504" fill="none" stroke-linecap="round"/>
   <polyline stroke-linejoin="round" stroke="#0000ff" stroke-width="0.5" points="238.451,190.291 237.878,192.054 236.378,193.144 234.524,193.144 233.024,192.054 232.451,190.291 233.024,188.528 234.524,187.438 236.378,187.438 237.878,188.528 238.451,190.291" fill="none" stroke-linecap="round"/>
   <polyline stroke-linejoin="round" stroke="#0000ff" stroke-width="0.5" points="276.491,93.7052 275.918,95.4686 274.418,96.5584 272.564,96.5584 271.064,95.4686 270.491,93.7052 271.064,91.9419 272.564,90.8521 274.418,90.8521 275.918,91.9419 276.491,93.7052" fill="none" stroke-linecap="round"/>
   <polyline stroke-linejoin="round" stroke="#0000ff" stroke-width="0.5" points="261.376,212.952 260.803,214.716 259.303,215.805 257.449,215.805 255.949,214.716 255.376,212.952 255.949,211.189 257.449,210.099 259.303,210.099 260.803,211.189 261.376,212.952" fill="none" stroke-linecap="round"/>
   <polyline stroke-linejoin="round" stroke="#0000ff" stroke-width="0.5" points="350.108,85.6711 349.535,87.4345 348.035,88.5243 346.181,88.5243 344.681,87.4345 344.108,85.6711 344.681,83.9078 346.181,82.818 348.035,82.818 349.535,83.9078 350.108,85.6711" fill="none" stroke-linecap="round"/>
   <polyline stroke-linejoin="round" stroke="#0000ff" stroke-width="0.5" points="277.883,151.749 277.31,153.512 275.81,154.602 273.956,154.602 272.456,153.512 271.883,151.749 272.456,149.986 273.956,148.896 275.81,148.896 277.31,149.986 277.883,151.749" fill="none" stroke-linecap="round"/>
   <polyline stroke-linejoin="round" stroke="#0000ff" stroke-width="0.5" points="300.943,129.831 300.37,131.594 298.87,132.684 297.016,132.684 295.516,131.594 294.943,129.831 295.516,128.068 297.016,126.978 298.87,126.978 300.37,128.068 300.943,129.831" fill="none" stroke-linecap="round"/>
   <polyline stroke-linejoin="round" stroke="#0000ff" stroke-width="0.5" points="301.389,139.254 300.816,141.018 299.316,142.107 297.462,142.107 295.962,141.018 295.389,139.254 295.962,137.491 297.462,136.401 299.316,136.401 300.816,137.491 301.389,139.254" fill="none" stroke-linecap="round"/>
   <polyline stroke-linejoin="round" stroke="#0000ff" stroke-width="0.5" points="294.017,136.602 293.444,138.365 291.944,139.455 290.09,139.455 288.59,138.365 288.017,136.602 288.59,134.838 290.09,133.749 291.944,133.749 293.444,134.838 294.017,136.602" fill="none" stroke-linecap="round"/>
   <polyline stroke-linejoin="round" stroke="#0000ff" stroke-width="0.5" points="287.458,157.752 286.885,159.515 285.385,160.605 283.531,160.605 282.031,159.515 281.458,157.752 282.031,155.989 283.531,154.899 285.385,154.899 286.885,155.989 287.458,157.752" fill="none" stroke-linecap="round"/>
   <polyline stroke-linejoin="round" stroke="#0000ff" stroke-width="0.5" points="325.8,169.996 325.227,171.76 323.727,172.849 321.873,172.849 320.373,171.76 319.8,169.996 320.373,168.233 321.873,167.143 323.727,167.143 325.227,168.233 325.8,169.996" fill="none" stroke-linecap="round"/>
   <polyline stroke-linejoin="round" stroke="#0000ff" stroke-width="0.5" points="238.06,207.308 237.487,209.071 235.987,210.161 234.133,210.161 232.633,209.071 232.06,207.308 232.633,205.544 234.133,204.454 235.987,204.454 237.487,205.544 238.06,207.308" fill="none" stroke-linecap="round"/>
   <polyline stroke-linejoin="round" stroke="#0000ff" stroke-width="0.5" points="340.052,101.066 339.479,102.829 337.979,103.919 336.125,103.919 334.625,102.829 334.052,101.066 334.625,99.3028 336.125,98.213 337.979,98.213 339.479,99.3028 340.052,101.066" fill="none" stroke-linecap="round"/>
   <polyline stroke-linejoin="round" stroke="#0000ff" stroke-width="0.5" points="305.479,128.08 304.906,129.843 303.406,130.933 301.552,130.933 300.052,129.843 299.479,128.08 300.052,126.316 301.552,125.226 303.406,125.226 304.906,126.316 305.479,128.08" fill="none" stroke-linecap="round"/>
   <polyline stroke-linejoin="round" stroke="#0000ff" stroke-width="0.5" points="238.595,171.459 238.022,173.223 236.522,174.312 234.668,174.312 233.168,173.223 232.595,171.459 233.168,169.696 234.668,168.606 236.522,168.606 238.022,169.696 238.595,171.459" fill="none" stroke-linecap="round"/>
   <polyline stroke-linejoin="round" stroke="#0000ff" stroke-width="0.5" points="320.92,57.1729 320.347,58.9363 318.847,60.0261 316.993,60.0261 315.493,58.9363 314.92,57.1729 315.493,55.4096 316.993,54.3198 318.847,54.3198 320.347,55.4096 320.92,57.1729" fill="none" stroke-linecap="round"/>
   <polyline stroke-linejoin="round" stroke="#0000ff" stroke-width="0.5" points="323.558,170.622 322.985,172.385 321.485,173.475 319.631,173.475 318.131,172.385 317.558,170.622 318.131,168.858 319.631,167.769 321.485,167.769 322.985,168.858 323.558,170.622" fill="none" stroke-linecap="round"/>
   <polyline stroke-linejoin="round" stroke="#0000ff" stroke-width="0.5" points="342.677,85.6598 342.104,87.4232 340.604,88.513 338.75,88.513 337.25,87.4232 336.677,85.6598 337.25,83.8965 338.75,82.8066 340.604,82.8066 342.104,83.8965 342.677,85.6598" fill="none" stroke-linecap="round"/>
   <polyline stroke-linejoin="round" stroke="#0000ff" stroke-width="0.5" points="265.161,164.096 264.588,165.859 263.088,166.949 261.234,166.949 259.734,165.859 259.161,164.096 259.734,162.333 261.234,161.243 263.088,161.243 264.588,162.333 265.161,164.096" fill="none" stroke-linecap="round"/>
   <polyline stroke-linejoin="round" stroke="#0000ff" stroke-width="0.5" points="340.201,109.071 339.628,110.834 338.128,111.924 336.274,111.924 334.774,110.834 334.201,109.071 334.774,107.307 336.274,106.217 338.128,106.217 339.628,107.307 340.201,109.071" fill="none" stroke-linecap="round"/>
   <polyline stroke-linejoin="round" stroke="#0000ff" stroke-width="0.5" points="290.073,168.829 289.5,170.593 288,171.683 286.146,171.683 284.646,170.593 284.073,168.829 284.646,167.066 286.146,165.976 288,165.976 289.5,167.066 290.073,168.829" fill="none" stroke-linecap="round"/>
   <polyline stroke-linejoin="round" stroke="#0000ff" stroke-width="0.5" points="227.155,202.444 226.582,204.207 225.082,205.297 223.228,205.297 221.728,204.207 221.155,202.444 221.728,200.68 223.228,199.591 225.082,199.591 226.582,200.68 227.155,202.444" fill="none" stroke-linecap="round"/>
   <polyline stroke-linejoin="round" stroke="#0000ff" stroke-width="0.5" points="252.196,158.259 251.623,160.022 250.123,161.112 248.269,161.112 246.769,160.022 246.196,158.259 246.769,156.496 248.269,155.406 250.123,155.406 251.623,156.496 252.196,158.259" fill="none" stroke-linecap="round"/>
   <polyline stroke-linejoin="round" stroke="#0000ff" stroke-width="0.5" points="314.338,115.978 313.765,117.742 312.265,118.832 310.411,118.832 308.911,117.742 308.338,115.978 308.911,114.215 310.411,113.125 312.265,113.125 313.765,114.215 314.338,115.978" fill="none" stroke-linecap="round"/>
   <polyline stroke-linejoin="round" stroke="#0000ff" stroke-width="0.5" points="345.797,151.334 345.224,153.097 343.724,154.187 341.87,154.187 340.37,153.097 339.797,151.334 340.37,149.57 341.87,148.48 343.724,148.48 345.224,149.57 345.797,151.334" fill="none" stroke-linecap="round"/>
   <polyline stroke-linejoin="round" stroke="#0000ff" stroke-width="0.5" points="237.368,163.42 236.796,165.184 235.296,166.274 233.441,166.274 231.941,165.184 231.368,163.42 231.941,161.657 233.441,160.567 235.296,160.567 236.796,161.657 237.368,163.42" fill="none" stroke-linecap="round"/>
   <polyline stroke-linejoin="round" stroke="#0000ff" stroke-width="0.5" points="276.424,151.669 275.851,153.432 274.351,154.522 272.497,154.522 270.997,153.432 270.424,151.669 270.997,149.905 272.497,148.816 274.351,148.816 275.851,149.905 276.424,151.669" fill="none" stroke-linecap="round"/>
   <polyline stroke-linejoin="round" stroke="#0000ff" stroke-width="0.5" points="256.546,118.568 255.973,120.331 254.473,121.421 252.619,121.421 251.119,120.331 250.546,118.568 251.119,116.804 252.619,115.715 254.473,115.715 255.973,116.804 256.546,118.568" fill="none" stroke-linecap="round"/>
   <polyline stroke-linejoin="round" stroke="#0000ff" stroke-width="0.5" points="348.958,134.086 348.385,135.849 346.885,136.939 345.031,136.939 343.531,135.849 342.958,134.086 343.531,132.322 345.031,131.232 346.885,131.232 348.385,132.322 348.958,134.086" fill="none" stroke-linecap="round"/>
   <polyline stroke-linejoin="round" stroke="#0000ff" stroke-width="0.5" points="247.827,203.587 247.254,205.351 245.754,206.441 243.9,206.441 242.4,205.351 241.827,203.587 242.4,201.824 243.9,200.734 245.754,200.734 247.254,201.824 247.827,203.587" fill="none" stroke-linecap="round"/>
   <polyline stroke-linejoin="round" stroke="#0000ff" stroke-width="0.5" points="328.985,169.192 328.412,170.956 326.912,172.045 325.058,172.045 323.558,170.956 322.985,169.192 323.558,167.429 325.058,166.339 326.912,166.339 328.412,167.429 328.985,169.192" fill="none" stroke-linecap="round"/>
   <polyline stroke-linejoin="round" stroke="#0000ff" stroke-width="0.5" points="257.719,174.01 257.146,175.773 255.646,176.863 253.792,176.863 252.292,175.773 251.719,174.01 252.292,172.246 253.792,171.157 255.646,171.157 257.146,172.246 257.719,174.01" fill="none" stroke-linecap="round"/>
   <polyline stroke-linejoin="round" stroke="#0000ff" stroke-width="0.5" points="308.771,103.478 308.198,105.242 306.698,106.332 304.844,106.332 303.344,105.242 302.771,103.478 303.344,101.715 304.844,100.625 306.698,100.625 308.198,101.715 308.771,103.478" fill="none" stroke-linecap="round"/>
   <polyline stroke-linejoin="round" stroke="#0000ff" stroke-width="0.5" points="232.228,208.855 231.655,210.618 230.155,211.708 228.301,211.708 226.801,210.618 226.228,208.855 226.801,207.091 228.301,206.002 230.155,206.002 231.655,207.091 232.228,208.855" fill="none" stroke-linecap="round"/>
   <polyline stroke-linejoin="round" stroke="#0000ff" stroke-width="0.5" points="335.133,127.485 334.56,129.248 333.06,130.338 331.206,130.338 329.706,129.248 329.133,127.485 329.706,125.722 331.206,124.632 333.06,124.632 334.56,125.722 335.133,127.485" fill="none" stroke-linecap="round"/>
   <polyline stroke-linejoin="round" stroke="#0000ff" stroke-width="0.5" points="200.216,229.043 199.643,230.806 198.143,231.896 196.289,231.896 194.789,230.806 194.216,229.043 194.789,227.279 196.289,226.19 198.143,226.19 199.643,227.279 200.216,229.043" fill="none" stroke-linecap="round"/>
   <polyline stroke-linejoin="round" stroke="#0000ff" stroke-width="0.5" points="292.224,151.22 291.651,152.984 290.151,154.073 288.297,154.073 286.797,152.984 286.224,151.22 286.797,149.457 288.297,148.367 290.151,148.367 291.651,149.457 292.224,151.22" fill="none" stroke-linecap="round"/>
   <polyline stroke-linejoin="round" stroke="#0000ff" stroke-width="0.5" points="295.812,113.029 295.24,114.793 293.74,115.882 291.885,115.882 290.385,114.793 289.812,113.029 290.385,111.266 291.885,110.176 293.74,110.176 295.24,111.266 295.812,113.029" fill="none" stroke-linecap="round"/>
   <polyline stroke-linejoin="round" stroke="#0000ff" stroke-width="0.5" points="250.574,179.377 250.001,181.14 248.501,182.23 246.647,182.23 245.147,181.14 244.574,179.377 245.147,177.613 246.647,176.524 248.501,176.524 250.001,177.613 250.574,179.377" fill="none" stroke-linecap="round"/>
   <polyline stroke-linejoin="round" stroke="#0000ff" stroke-width="0.5" points="245.263,198.506 244.69,200.269 243.19,201.359 241.336,201.359 239.836,200.269 239.263,198.506 239.836,196.742 241.336,195.653 243.19,195.653 244.69,196.742 245.263,198.506" fill="none" stroke-linecap="round"/>
   <polyline stroke-linejoin="round" stroke="#0000ff" stroke-width="0.5" points="302.674,119.12 302.101,120.883 300.601,121.973 298.747,121.973 297.247,120.883 296.674,119.12 297.247,117.357 298.747,116.267 300.601,116.267 302.101,117.357 302.674,119.12" fill="none" stroke-linecap="round"/>
   <polyline stroke-linejoin="round" stroke="#0000ff" stroke-width="0.5" points="242.722,226.842 242.149,228.605 240.649,229.695 238.795,229.695 237.295,228.605 236.722,226.842 237.295,225.078 238.795,223.989 240.649,223.989 242.149,225.078 242.722,226.842" fill="none" stroke-linecap="round"/>
   <polyline stroke-linejoin="round" stroke="#0000ff" stroke-width="0.5" points="279.445,138.833 278.872,140.596 277.372,141.686 275.518,141.686 274.018,140.596 273.445,138.833 274.018,137.07 275.518,135.98 277.372,135.98 278.872,137.07 279.445,138.833" fill="none" stroke-linecap="round"/>
   <polyline stroke-linejoin="round" stroke="#0000ff" stroke-width="0.5" points="177.742,244.446 177.169,246.209 175.669,247.299 173.815,247.299 172.315,246.209 171.742,244.446 172.315,242.682 173.815,241.593 175.669,241.593 177.169,242.682 177.742,244.446" fill="none" stroke-linecap="round"/>
   <polyline stroke-linejoin="round" stroke="#0000ff" stroke-width="0.5" points="204.656,152.892 204.083,154.655 202.583,155.745 200.728,155.745 199.228,154.655 198.656,152.892 199.228,151.128 200.728,150.039 202.583,150.039 204.083,151.128 204.656,152.892" fill="none" stroke-linecap="round"/>
   <polyline stroke-linejoin="round" stroke="#0000ff" stroke-width="0.5" points="278.844,176.518 278.271,178.281 276.771,179.371 274.917,179.371 273.417,178.281 272.844,176.518 273.417,174.754 274.917,173.664 276.771,173.664 278.271,174.754 278.844,176.518" fill="none" stroke-linecap="round"/>
   <polyline stroke-linejoin="round" stroke="#0000ff" stroke-width="0.5" points="321.204,110.547 320.631,112.311 319.131,113.401 317.277,113.401 315.777,112.311 315.204,110.547 315.777,108.784 317.277,107.694 319.131,107.694 320.631,108.784 321.204,110.547" fill="none" stroke-linecap="round"/>
   <polyline stroke-linejoin="round" stroke="#ff0000" stroke-width="0.5" points="235.319,200.507 234.746,202.27 233.246,203.36 231.392,203.36 229.892,202.27 229.319,200.507 229.892,198.744 231.392,197.654 233.246,197.654 234.746,198.744 235.319,200.507" fill="none" stroke-linecap="round"/>
   <polyline stroke-linejoin="round" stroke="#ff0000" stroke-width="0.5" points="307.671,128.155 307.098,129.918 305.598,131.008 303.744,131.008 302.244,129.918 301.671,128.155 302.244,126.391 303.744,125.301 305.598,125.301 307.098,126.391 307.671,128.155" fill="none" stroke-linecap="round"/>
   <polyline stroke-linejoin="round" stroke="#ff0000" stroke-width="0.5" points="243.454,192.372 242.881,194.135 241.381,195.225 239.527,195.225 238.027,194.135 237.454,192.372 238.027,190.609 239.527,189.519 241.381,189.519 242.881,190.609 243.454,192.372" fill="none" stroke-linecap="round"/>
   <polyline stroke-linejoin="round" stroke="#ff0000" stroke-width="0.5" points="230.905,204.921 230.332,206.684 228.832,207.774 226.978,207.774 225.478,206.684 224.905,204.921 225.478,203.158 226.978,202.068 228.832,202.068 230.332,203.158 230.905,204.921" fill="none" stroke-linecap="round"/>
   <polyline stroke-linejoin="round" stroke="#ff0000" stroke-width="0.5" points="241.993,193.833 241.42,195.596 239.92,196.686 238.066,196.686 236.566,195.596 235.993,193.833 236.566,192.07 238.066,190.98 239.92,190.98 241.42,192.07 241.993,193.833" fill="none" stroke-linecap="round"/>
   <polyline stroke-linejoin="round" stroke="#ff0000" stroke-width="0.5" points="309.306,126.52 308.733,128.283 307.233,129.373 305.379,129.373 303.879,128.283 303.306,126.52 303.879,124.757 305.379,123.667 307.233,123.667 308.733,124.757 309.306,126.52" fill="none" stroke-linecap="round"/>
   <polyline stroke-linejoin="round" stroke="#ff0000" stroke-width="0.5" points="242.125,193.701 241.552,195.464 240.052,196.554 238.198,196.554 236.698,195.464 236.125,193.701 236.698,191.938 238.198,190.848 240.052,190.848 241.552,191.938 242.125,193.701" fill="none" stroke-linecap="round"/>
   <polyline stroke-linejoin="round" stroke="#ff0000" stroke-width="0.5" points="350.131,85.6945 349.558,87.4578 348.058,88.5476 346.204,88.5476 344.704,87.4578 344.131,85.6945 344.704,83.9311 346.204,82.8413 348.058,82.8413 349.558,83.9311 350.131,85.6945" fill="none" stroke-linecap="round"/>
   <polyline stroke-linejoin="round" stroke="#ff0000" stroke-width="0.5" points="280.98,154.846 280.407,156.609 278.907,157.699 277.053,157.699 275.553,156.609 274.98,154.846 275.553,153.082 277.053,151.992 278.907,151.992 280.407,153.082 280.98,154.846" fill="none" stroke-linecap="round"/>
   <polyline stroke-linejoin="round" stroke="#ff0000" stroke-width="0.5" points="303.469,132.357 302.896,134.12 301.396,135.21 299.542,135.21 298.042,134.12 297.469,132.357 298.042,130.593 299.542,129.504 301.396,129.504 302.896,130.593 303.469,132.357" fill="none" stroke-linecap="round"/>
   <polyline stroke-linejoin="round" stroke="#ff0000" stroke-width="0.5" points="298.98,136.845 298.407,138.609 296.907,139.699 295.053,139.699 293.553,138.609 292.98,136.845 293.553,135.082 295.053,133.992 296.907,133.992 298.407,135.082 298.98,136.845" fill="none" stroke-linecap="round"/>
   <polyline stroke-linejoin="round" stroke="#ff0000" stroke-width="0.5" points="296.621,139.205 296.048,140.968 294.548,142.058 292.694,142.058 291.194,140.968 290.621,139.205 291.194,137.442 292.694,136.352 294.548,136.352 296.048,137.442 296.621,139.205" fill="none" stroke-linecap="round"/>
   <polyline stroke-linejoin="round" stroke="#ff0000" stroke-width="0.5" points="282.766,153.06 282.193,154.823 280.693,155.913 278.839,155.913 277.339,154.823 276.766,153.06 277.339,151.297 278.839,150.207 280.693,150.207 282.193,151.297 282.766,153.06" fill="none" stroke-linecap="round"/>
   <polyline stroke-linejoin="round" stroke="#ff0000" stroke-width="0.5" points="295.815,140.011 295.242,141.775 293.742,142.864 291.888,142.864 290.388,141.775 289.815,140.011 290.388,138.248 291.888,137.158 293.742,137.158 295.242,138.248 295.815,140.011" fill="none" stroke-linecap="round"/>
   <polyline stroke-linejoin="round" stroke="#ff0000" stroke-width="0.5" points="233.289,202.537 232.716,204.3 231.216,205.39 229.362,205.39 227.862,204.3 227.289,202.537 227.862,200.773 229.362,199.683 231.216,199.683 232.716,200.773 233.289,202.537" fill="none" stroke-linecap="round"/>
   <polyline stroke-linejoin="round" stroke="#ff0000" stroke-width="0.5" points="337.406,98.4202 336.833,100.184 335.333,101.273 333.479,101.273 331.979,100.184 331.406,98.4202 331.979,96.6569 333.479,95.567 335.333,95.567 336.833,96.6569 337.406,98.4202" fill="none" stroke-linecap="round"/>
   <polyline stroke-linejoin="round" stroke="#ff0000" stroke-width="0.5" points="306.613,129.213 306.04,130.977 304.54,132.066 302.686,132.066 301.186,130.977 300.613,129.213 301.186,127.45 302.686,126.36 304.54,126.36 306.04,127.45 306.613,129.213" fill="none" stroke-linecap="round"/>
   <polyline stroke-linejoin="round" stroke="#ff0000" stroke-width="0.5" points="251.481,184.345 250.908,186.108 249.408,187.198 247.554,187.198 246.054,186.108 245.481,184.345 246.054,182.582 247.554,181.492 249.408,181.492 250.908,182.582 251.481,184.345" fill="none" stroke-linecap="round"/>
   <polyline stroke-linejoin="round" stroke="#ff0000" stroke-width="0.5" points="349.787,86.0393 349.214,87.8026 347.714,88.8924 345.86,88.8924 344.36,87.8026 343.787,86.0393 344.36,84.2759 345.86,83.1861 347.714,83.1861 349.214,84.2759 349.787,86.0393" fill="none" stroke-linecap="round"/>
   <polyline stroke-linejoin="round" stroke="#ff0000" stroke-width="0.5" points="294.381,141.445 293.808,143.208 292.308,144.298 290.454,144.298 288.954,143.208 288.381,141.445 288.954,139.681 290.454,138.592 292.308,138.592 293.808,139.681 294.381,141.445" fill="none" stroke-linecap="round"/>
   <polyline stroke-linejoin="round" stroke="#ff0000" stroke-width="0.5" points="346.421,89.4044 345.849,91.1678 344.349,92.2576 342.494,92.2576 340.994,91.1678 340.421,89.4044 340.994,87.6411 342.494,86.5512 344.349,86.5512 345.849,87.6411 346.421,89.4044" fill="none" stroke-linecap="round"/>
   <polyline stroke-linejoin="round" stroke="#ff0000" stroke-width="0.5" points="268.445,167.38 267.872,169.144 266.372,170.234 264.518,170.234 263.018,169.144 262.445,167.38 263.018,165.617 264.518,164.527 266.372,164.527 267.872,165.617 268.445,167.38" fill="none" stroke-linecap="round"/>
   <polyline stroke-linejoin="round" stroke="#ff0000" stroke-width="0.5" points="333.478,102.348 332.905,104.111 331.405,105.201 329.551,105.201 328.051,104.111 327.478,102.348 328.051,100.584 329.551,99.4944 331.405,99.4944 332.905,100.584 333.478,102.348" fill="none" stroke-linecap="round"/>
   <polyline stroke-linejoin="round" stroke="#ff0000" stroke-width="0.5" points="278.535,157.291 277.962,159.055 276.462,160.144 274.608,160.144 273.108,159.055 272.535,157.291 273.108,155.528 274.608,154.438 276.462,154.438 277.962,155.528 278.535,157.291" fill="none" stroke-linecap="round"/>
   <polyline stroke-linejoin="round" stroke="#ff0000" stroke-width="0.5" points="230.269,205.557 229.696,207.321 228.196,208.41 226.342,208.41 224.842,207.321 224.269,205.557 224.842,203.794 226.342,202.704 228.196,202.704 229.696,203.794 230.269,205.557" fill="none" stroke-linecap="round"/>
   <polyline stroke-linejoin="round" stroke="#ff0000" stroke-width="0.5" points="264.881,170.944 264.309,172.708 262.809,173.798 260.954,173.798 259.454,172.708 258.881,170.944 259.454,169.181 260.954,168.091 262.809,168.091 264.309,169.181 264.881,170.944" fill="none" stroke-linecap="round"/>
   <polyline stroke-linejoin="round" stroke="#ff0000" stroke-width="0.5" points="317.093,118.733 316.52,120.497 315.02,121.586 313.166,121.586 311.666,120.497 311.093,118.733 311.666,116.97 313.166,115.88 315.02,115.88 316.52,116.97 317.093,118.733" fill="none" stroke-linecap="round"/>
   <polyline stroke-linejoin="round" stroke="#ff0000" stroke-width="0.5" points="315.144,120.681 314.571,122.445 313.071,123.535 311.217,123.535 309.717,122.445 309.144,120.681 309.717,118.918 311.217,117.828 313.071,117.828 314.571,118.918 315.144,120.681" fill="none" stroke-linecap="round"/>
   <polyline stroke-linejoin="round" stroke="#ff0000" stroke-width="0.5" points="254.887,180.939 254.314,182.702 252.814,183.792 250.96,183.792 249.46,182.702 248.887,180.939 249.46,179.175 250.96,178.086 252.814,178.086 254.314,179.175 254.887,180.939" fill="none" stroke-linecap="round"/>
   <polyline stroke-linejoin="round" stroke="#ff0000" stroke-width="0.5" points="280.29,155.536 279.717,157.299 278.217,158.389 276.363,158.389 274.863,157.299 274.29,155.536 274.863,153.772 276.363,152.682 278.217,152.682 279.717,153.772 280.29,155.536" fill="none" stroke-linecap="round"/>
   <polyline stroke-linejoin="round" stroke="#ff0000" stroke-width="0.5" points="286.902,148.924 286.329,150.687 284.829,151.777 282.975,151.777 281.475,150.687 280.902,148.924 281.475,147.16 282.975,146.071 284.829,146.071 286.329,147.16 286.902,148.924" fill="none" stroke-linecap="round"/>
   <polyline stroke-linejoin="round" stroke="#ff0000" stroke-width="0.5" points="325.349,110.477 324.776,112.24 323.276,113.33 321.422,113.33 319.922,112.24 319.349,110.477 319.922,108.713 321.422,107.624 323.276,107.624 324.776,108.713 325.349,110.477" fill="none" stroke-linecap="round"/>
   <polyline stroke-linejoin="round" stroke="#ff0000" stroke-width="0.5" points="240.033,195.793 239.46,197.556 237.96,198.646 236.106,198.646 234.606,197.556 234.033,195.793 234.606,194.03 236.106,192.94 237.96,192.94 239.46,194.03 240.033,195.793" fill="none" stroke-linecap="round"/>
   <polyline stroke-linejoin="round" stroke="#ff0000" stroke-width="0.5" points="297.809,138.017 297.236,139.78 295.736,140.87 293.882,140.87 292.382,139.78 291.809,138.017 292.382,136.253 293.882,135.164 295.736,135.164 297.236,136.253 297.809,138.017" fill="none" stroke-linecap="round"/>
   <polyline stroke-linejoin="round" stroke="#ff0000" stroke-width="0.5" points="259.768,176.058 259.195,177.822 257.695,178.911 255.84,178.911 254.34,177.822 253.768,176.058 254.34,174.295 255.84,173.205 257.695,173.205 259.195,174.295 259.768,176.058" fill="none" stroke-linecap="round"/>
   <polyline stroke-linejoin="round" stroke="#ff0000" stroke-width="0.5" points="320.559,115.267 319.986,117.03 318.486,118.12 316.632,118.12 315.132,117.03 314.559,115.267 315.132,113.503 316.632,112.414 318.486,112.414 319.986,113.503 320.559,115.267" fill="none" stroke-linecap="round"/>
   <polyline stroke-linejoin="round" stroke="#ff0000" stroke-width="0.5" points="229.599,206.226 229.026,207.99 227.526,209.08 225.672,209.08 224.172,207.99 223.599,206.226 224.172,204.463 225.672,203.373 227.526,203.373 229.026,204.463 229.599,206.226" fill="none" stroke-linecap="round"/>
   <polyline stroke-linejoin="round" stroke="#ff0000" stroke-width="0.5" points="321.737,114.089 321.164,115.852 319.664,116.942 317.81,116.942 316.31,115.852 315.737,114.089 316.31,112.325 317.81,111.236 319.664,111.236 321.164,112.325 321.737,114.089" fill="none" stroke-linecap="round"/>
   <polyline stroke-linejoin="round" stroke="#ff0000" stroke-width="0.5" points="203.5,232.326 202.927,234.09 201.427,235.179 199.572,235.179 198.072,234.09 197.5,232.326 198.072,230.563 199.572,229.473 201.427,229.473 202.927,230.563 203.5,232.326" fill="none" stroke-linecap="round"/>
   <polyline stroke-linejoin="round" stroke="#ff0000" stroke-width="0.5" points="288.415,147.411 287.842,149.174 286.342,150.264 284.488,150.264 282.988,149.174 282.415,147.411 282.988,145.648 284.488,144.558 286.342,144.558 287.842,145.648 288.415,147.411" fill="none" stroke-linecap="round"/>
   <polyline stroke-linejoin="round" stroke="#ff0000" stroke-width="0.5" points="309.304,126.521 308.732,128.285 307.232,129.375 305.377,129.375 303.877,128.285 303.304,126.521 303.877,124.758 305.377,123.668 307.232,123.668 308.732,124.758 309.304,126.521" fill="none" stroke-linecap="round"/>
   <polyline stroke-linejoin="round" stroke="#ff0000" stroke-width="0.5" points="253.511,182.314 252.938,184.078 251.438,185.168 249.584,185.168 248.084,184.078 247.511,182.314 248.084,180.551 249.584,179.461 251.438,179.461 252.938,180.551 253.511,182.314" fill="none" stroke-linecap="round"/>
   <polyline stroke-linejoin="round" stroke="#ff0000" stroke-width="0.5" points="241.292,194.534 240.719,196.298 239.219,197.387 237.365,197.387 235.865,196.298 235.292,194.534 235.865,192.771 237.365,191.681 239.219,191.681 240.719,192.771 241.292,194.534" fill="none" stroke-linecap="round"/>
   <polyline stroke-linejoin="round" stroke="#ff0000" stroke-width="0.5" points="309.69,126.136 309.117,127.899 307.617,128.989 305.763,128.989 304.263,127.899 303.69,126.136 304.263,124.372 305.763,123.283 307.617,123.283 309.117,124.372 309.69,126.136" fill="none" stroke-linecap="round"/>
   <polyline stroke-linejoin="round" stroke="#ff0000" stroke-width="0.5" points="225.853,209.973 225.28,211.736 223.78,212.826 221.926,212.826 220.426,211.736 219.853,209.973 220.426,208.209 221.926,207.12 223.78,207.12 225.28,208.209 225.853,209.973" fill="none" stroke-linecap="round"/>
   <polyline stroke-linejoin="round" stroke="#ff0000" stroke-width="0.5" points="288.219,147.607 287.646,149.37 286.146,150.46 284.292,150.46 282.792,149.37 282.219,147.607 282.792,145.843 284.292,144.754 286.146,144.754 287.646,145.843 288.219,147.607" fill="none" stroke-linecap="round"/>
   <polyline stroke-linejoin="round" stroke="#ff0000" stroke-width="0.5" points="184.561,251.265 183.988,253.028 182.488,254.118 180.634,254.118 179.134,253.028 178.561,251.265 179.134,249.501 180.634,248.412 182.488,248.412 183.988,249.501 184.561,251.265" fill="none" stroke-linecap="round"/>
   <polyline stroke-linejoin="round" stroke="#ff0000" stroke-width="0.5" points="243.795,192.031 243.222,193.794 241.722,194.884 239.868,194.884 238.368,193.794 237.795,192.031 238.368,190.268 239.868,189.178 241.722,189.178 243.222,190.268 243.795,192.031" fill="none" stroke-linecap="round"/>
   <polyline stroke-linejoin="round" stroke="#ff0000" stroke-width="0.5" points="269.076,166.75 268.503,168.513 267.003,169.603 265.149,169.603 263.649,168.513 263.076,166.75 263.649,164.987 265.149,163.897 267.003,163.897 268.503,164.987 269.076,166.75" fill="none" stroke-linecap="round"/>
   <polyline stroke-linejoin="round" stroke="#ff0000" stroke-width="0.5" points="323.241,112.584 322.668,114.348 321.168,115.438 319.314,115.438 317.814,114.348 317.241,112.584 317.814,110.821 319.314,109.731 321.168,109.731 322.668,110.821 323.241,112.584" fill="none" stroke-linecap="round"/>
   <polyline stroke-linejoin="round" stroke="#000000" stroke-dasharray="9,7" stroke-width="1" points="254.943,223.131 232.319,200.507" fill="none" stroke-linecap="butt"/>
   <polyline stroke-linejoin="round" stroke="#000000" stroke-dasharray="9,7" stroke-width="1" points="296.706,120.19 304.671,128.155" fill="none" stroke-linecap="butt"/>
   <polyline stroke-linejoin="round" stroke="#000000" stroke-dasharray="9,7" stroke-width="1" points="228.497,180.415 240.454,192.372" fill="none" stroke-linecap="butt"/>
   <polyline stroke-linejoin="round" stroke="#000000" stroke-dasharray="9,7" stroke-width="1" points="232.488,209.504 227.905,204.921" fill="none" stroke-linecap="butt"/>
   <polyline stroke-linejoin="round" stroke="#000000" stroke-dasharray="9,7" stroke-width="1" points="235.451,190.291 238.993,193.833" fill="none" stroke-linecap="butt"/>
   <polyline stroke-linejoin="round" stroke="#000000" stroke-dasharray="9,7" stroke-width="1" points="273.491,93.7052 306.306,126.52" fill="none" stroke-linecap="butt"/>
   <polyline stroke-linejoin="round" stroke="#000000" stroke-dasharray="9,7" stroke-width="1" points="258.376,212.952 239.125,193.701" fill="none" stroke-linecap="butt"/>
   <polyline stroke-linejoin="round" stroke="#000000" stroke-dasharray="9,7" stroke-width="1" points="347.108,85.6711 347.131,85.6944" fill="none" stroke-linecap="butt"/>
   <polyline stroke-linejoin="round" stroke="#000000" stroke-dasharray="9,7" stroke-width="1" points="274.883,151.749 277.98,154.846" fill="none" stroke-linecap="butt"/>
   <polyline stroke-linejoin="round" stroke="#000000" stroke-dasharray="9,7" stroke-width="1" points="297.943,129.831 300.469,132.357" fill="none" stroke-linecap="butt"/>
   <polyline stroke-linejoin="round" stroke="#000000" stroke-dasharray="9,7" stroke-width="1" points="298.389,139.254 295.98,136.845" fill="none" stroke-linecap="butt"/>
   <polyline stroke-linejoin="round" stroke="#000000" stroke-dasharray="9,7" stroke-width="1" points="291.017,136.602 293.621,139.205" fill="none" stroke-linecap="butt"/>
   <polyline stroke-linejoin="round" stroke="#000000" stroke-dasharray="9,7" stroke-width="1" points="284.458,157.752 279.766,153.06" fill="none" stroke-linecap="butt"/>
   <polyline stroke-linejoin="round" stroke="#000000" stroke-dasharray="9,7" stroke-width="1" points="322.8,169.996 292.815,140.011" fill="none" stroke-linecap="butt"/>
   <polyline stroke-linejoin="round" stroke="#000000" stroke-dasharray="9,7" stroke-width="1" points="235.06,207.308 230.289,202.537" fill="none" stroke-linecap="butt"/>
   <polyline stroke-linejoin="round" stroke="#000000" stroke-dasharray="9,7" stroke-width="1" points="337.052,101.066 334.406,98.4202" fill="none" stroke-linecap="butt"/>
   <polyline stroke-linejoin="round" stroke="#000000" stroke-dasharray="9,7" stroke-width="1" points="302.479,128.08 303.613,129.213" fill="none" stroke-linecap="butt"/>
   <polyline stroke-linejoin="round" stroke="#000000" stroke-dasharray="9,7" stroke-width="1" points="235.595,171.459 248.481,184.345" fill="none" stroke-linecap="butt"/>
   <polyline stroke-linejoin="round" stroke="#000000" stroke-dasharray="9,7" stroke-width="1" points="317.92,57.1729 346.787,86.0392" fill="none" stroke-linecap="butt"/>
   <polyline stroke-linejoin="round" stroke="#000000" stroke-dasharray="9,7" stroke-width="1" points="320.558,170.622 291.381,141.445" fill="none" stroke-linecap="butt"/>
   <polyline stroke-linejoin="round" stroke="#000000" stroke-dasharray="9,7" stroke-width="1" points="339.677,85.6598 343.421,89.4044" fill="none" stroke-linecap="butt"/>
   <polyline stroke-linejoin="round" stroke="#000000" stroke-dasharray="9,7" stroke-width="1" points="262.161,164.096 265.445,167.38" fill="none" stroke-linecap="butt"/>
   <polyline stroke-linejoin="round" stroke="#000000" stroke-dasharray="9,7" stroke-width="1" points="337.201,109.071 330.478,102.348" fill="none" stroke-linecap="butt"/>
   <polyline stroke-linejoin="round" stroke="#000000" stroke-dasharray="9,7" stroke-width="1" points="287.073,168.829 275.535,157.291" fill="none" stroke-linecap="butt"/>
   <polyline stroke-linejoin="round" stroke="#000000" stroke-dasharray="9,7" stroke-width="1" points="224.155,202.444 227.269,205.557" fill="none" stroke-linecap="butt"/>
   <polyline stroke-linejoin="round" stroke="#000000" stroke-dasharray="9,7" stroke-width="1" points="249.196,158.259 261.881,170.944" fill="none" stroke-linecap="butt"/>
   <polyline stroke-linejoin="round" stroke="#000000" stroke-dasharray="9,7" stroke-width="1" points="311.338,115.978 314.093,118.733" fill="none" stroke-linecap="butt"/>
   <polyline stroke-linejoin="round" stroke="#000000" stroke-dasharray="9,7" stroke-width="1" points="342.797,151.334 312.144,120.681" fill="none" stroke-linecap="butt"/>
   <polyline stroke-linejoin="round" stroke="#000000" stroke-dasharray="9,7" stroke-width="1" points="234.368,163.42 251.887,180.939" fill="none" stroke-linecap="butt"/>
   <polyline stroke-linejoin="round" stroke="#000000" stroke-dasharray="9,7" stroke-width="1" points="273.424,151.669 277.29,155.535" fill="none" stroke-linecap="butt"/>
   <polyline stroke-linejoin="round" stroke="#000000" stroke-dasharray="9,7" stroke-width="1" points="253.546,118.568 283.902,148.924" fill="none" stroke-linecap="butt"/>
   <polyline stroke-linejoin="round" stroke="#000000" stroke-dasharray="9,7" stroke-width="1" points="345.958,134.086 322.349,110.477" fill="none" stroke-linecap="butt"/>
   <polyline stroke-linejoin="round" stroke="#000000" stroke-dasharray="9,7" stroke-width="1" points="244.827,203.587 237.033,195.793" fill="none" stroke-linecap="butt"/>
   <polyline stroke-linejoin="round" stroke="#000000" stroke-dasharray="9,7" stroke-width="1" points="325.985,169.192 294.809,138.017" fill="none" stroke-linecap="butt"/>
   <polyline stroke-linejoin="round" stroke="#000000" stroke-dasharray="9,7" stroke-width="1" points="254.719,174.01 256.768,176.058" fill="none" stroke-linecap="butt"/>
   <polyline stroke-linejoin="round" stroke="#000000" stroke-dasharray="9,7" stroke-width="1" points="305.771,103.478 317.559,115.267" fill="none" stroke-linecap="butt"/>
   <polyline stroke-linejoin="round" stroke="#000000" stroke-dasharray="9,7" stroke-width="1" points="229.228,208.855 226.599,206.226" fill="none" stroke-linecap="butt"/>
   <polyline stroke-linejoin="round" stroke="#000000" stroke-dasharray="9,7" stroke-width="1" points="332.133,127.485 318.737,114.089" fill="none" stroke-linecap="butt"/>
   <polyline stroke-linejoin="round" stroke="#000000" stroke-dasharray="9,7" stroke-width="1" points="197.216,229.043 200.5,232.326" fill="none" stroke-linecap="butt"/>
   <polyline stroke-linejoin="round" stroke="#000000" stroke-dasharray="9,7" stroke-width="1" points="289.224,151.22 285.415,147.411" fill="none" stroke-linecap="butt"/>
   <polyline stroke-linejoin="round" stroke="#000000" stroke-dasharray="9,7" stroke-width="1" points="292.812,113.029 306.304,126.521" fill="none" stroke-linecap="butt"/>
   <polyline stroke-linejoin="round" stroke="#000000" stroke-dasharray="9,7" stroke-width="1" points="247.574,179.377 250.511,182.314" fill="none" stroke-linecap="butt"/>
   <polyline stroke-linejoin="round" stroke="#000000" stroke-dasharray="9,7" stroke-width="1" points="242.263,198.506 238.292,194.534" fill="none" stroke-linecap="butt"/>
   <polyline stroke-linejoin="round" stroke="#000000" stroke-dasharray="9,7" stroke-width="1" points="299.674,119.12 306.69,126.136" fill="none" stroke-linecap="butt"/>
   <polyline stroke-linejoin="round" stroke="#000000" stroke-dasharray="9,7" stroke-width="1" points="239.722,226.842 222.853,209.973" fill="none" stroke-linecap="butt"/>
   <polyline stroke-linejoin="round" stroke="#000000" stroke-dasharray="9,7" stroke-width="1" points="276.445,138.833 285.219,147.607" fill="none" stroke-linecap="butt"/>
   <polyline stroke-linejoin="round" stroke="#000000" stroke-dasharray="9,7" stroke-width="1" points="174.742,244.446 181.561,251.265" fill="none" stroke-linecap="butt"/>
   <polyline stroke-linejoin="round" stroke="#000000" stroke-dasharray="9,7" stroke-width="1" points="201.656,152.892 240.795,192.031" fill="none" stroke-linecap="butt"/>
   <polyline stroke-linejoin="round" stroke="#000000" stroke-dasharray="9,7" stroke-width="1" points="275.844,176.518 266.076,166.75" fill="none" stroke-linecap="butt"/>
   <polyline stroke-linejoin="round" stroke="#000000" stroke-dasharray="9,7" stroke-width="1" points="318.204,110.547 320.241,112.584" fill="none" stroke-linecap="butt"/>
  </g>
 </g>
</svg>
